/* XPM */
static char * Character_xpm[] = {
"64 64 97 2",
"  	c None",
". 	c #C22424",
"+ 	c #171C31",
"@ 	c #6348B1",
"# 	c #FFFFFF",
"$ 	c #000000",
"% 	c #A4A8B5",
"& 	c #787E97",
"* 	c #4F566D",
"= 	c #30364B",
"- 	c #1C2131",
"; 	c #70CD73",
"> 	c #46B474",
", 	c #1D8655",
"' 	c #195839",
") 	c #000000",
"! 	c #539D5B",
"~ 	c #3E983E",
"{ 	c #277234",
"] 	c #144D2F",
"^ 	c #092A1B",
"/ 	c #8C704F",
"( 	c #6C4E37",
"_ 	c #573A23",
": 	c #402717",
"< 	c #21110D",
"[ 	c #DBD2C7",
"} 	c #C1AC8F",
"| 	c #AC7B5D",
"1 	c #9A5C42",
"2 	c #000000",
"3 	c #DFD45D",
"4 	c #CF8217",
"5 	c #B8630F",
"6 	c #6F3B1F",
"7 	c #2F0D09",
"8 	c #E5918B",
"9 	c #DE5764",
"0 	c #D71D3C",
"a 	c #931131",
"b 	c #36071C",
"c 	c #73E8CD",
"d 	c #3FD5B9",
"e 	c #34938B",
"f 	c #2D6C6E",
"g 	c #264550",
"h 	c #9ACFDF",
"i 	c #4F8FBC",
"j 	c #2C65B5",
"k 	c #1D438A",
"l 	c #0D205E",
"m 	c #DFA1E8",
"n 	c #C27AE4",
"o 	c #A553DF",
"p 	c #7732B4",
"q 	c #491188",
"r 	c #E38CA6",
"s 	c #BC658F",
"t 	c #A04679",
"u 	c #632C4F",
"v 	c #281526",
"w 	c #000000",
"x 	c #000000",
"y 	c #000000",
"z 	c #000000",
"A 	c #000000",
"B 	c #000000",
"C 	c #000000",
"D 	c #000000",
"E 	c #000000",
"F 	c #000000",
"G 	c #000000",
"H 	c #000000",
"I 	c #000000",
"J 	c #000000",
"K 	c #000000",
"L 	c #000000",
"M 	c #000000",
"N 	c #000000",
"O 	c #000000",
"P 	c #000000",
"Q 	c #000000",
"R 	c #000000",
"S 	c #000000",
"T 	c #000000",
"U 	c #000000",
"V 	c #000000",
"W 	c #000000",
"X 	c #000000",
"Y 	c #000000",
"Z 	c #000000",
"` 	c #000000",
" .	c #000000",
"..	c #000000",
"+.	c #000000",
"@.	c #000000",
"#.	c #000000",
"                                                                                                                                ",
"                                                                                                                                ",
"                                                                                                                                ",
"                                                                                                                                ",
"                                    $ $ $ $ $ $ $ $ $           $ $ $                                                           ",
"                                  $ < < < < < < < < < <       < < < < $                                                         ",
"                                  $ < < < < < < < < < < < < < < < < < $ $                                                       ",
"                                  $ < 7 : : : : : : : 7 < < : : : 7 < $ $ $ $ $ $                                               ",
"                                  $ < : : _ _ _ _ _ : : < 7 : _ _ : 7 < < < < < < <                                             ",
"                                  $ < 7 : _ _ _ _ _ _ : : : : _ _ : : 7 7 7 7 7 7 < <                                           ",
"                                  $ < < 7 : _ _ _ _ _ _ : : _ _ _ _ : : : : : : : : < <                                         ",
"                                < < < < < : _ _ _ _ _ _ : _ _ _ _ _ _ : _ _ _ _ _ _ : < <                                       ",
"                              < < 7 7 : : : _ _ _ _ _ _ _ _ _ _ _ _ _ _ _ _ _ _ _ _ : : < <                                     ",
"                            $ < 7 7 : : : _ _ _ _ _ _ _ _ _ _ _ _ _ _ _ _ _ _ _ _ _ _ : : < <                                   ",
"                          < < 7 7 : : _ _ _ _ _ _ _ _ _ _ _ _ _ _ _ _ _ _ _ _ _ _ _ _ _ : : < <                                 ",
"                        < < 7 7 : _ _ _ _ _ _ _ _ _ _ _ _ _ _ _ _ _ _ _ _ _ _ _ _ _ _ _ _ _ : < <                               ",
"                      $ < < 7 : : _ _ _ _ _ _ _ _ _ _ _ _ _ _ _ _ _ _ _ _ _ _ _ _ _ _ _ _ _ : 7 < $                             ",
"                      $ < < : : : _ _ _ _ _ _ _ _ _ _ _ _ _ _ _ _ _ _ _ _ _ _ _ _ _ _ _ _ _ : 7 < $                             ",
"                      $ < < : : : _ _ _ _ _ _ : : _ _ _ _ _ _ _ _ _ : : : : : _ _ _ _ _ _ _ : 7 < $                             ",
"                      $ < < : : : _ _ _ _ _ : : : _ _ _ _ _ _ _ _ : : : : _ _ _ ( _ _ _ _ _ _ : < <                             ",
"                      $ < < : : : _ _ _ _ _ : : : _ _ _ _ _ _ _ _ : : _ ( ( ( ( ( ( _ _ _ _ _ : : < <                           ",
"                      $ < < : : : : : : : : : : : _ _ _ _ _ _ _ _ _ : _ / / / / / / ( _ _ _ _ : : 7 < <                         ",
"                      $ < < : : : : : : : : : : : _ _ _ _ _ _ _ _ _ ( ( / / | | / / ( ( _ _ _ : : : < < $                       ",
"                      $ < < : : : : : : : : : : : _ _ _ _ _ _ _ _ ( / / / | | | | / / / ( _ _ : : : < < $                       ",
"                      $ < < : : : _ _ _ : : : : _ _ _ _ _ _ _ _ ( / / | | | | | | | | / / ( : : : : < < $                       ",
"                      $ < < : : : _ _ _ _ _ _ ( ( _ _ _ _ _ _ ( ( / / | | | | | | | | / ( _ : : : : < < $                       ",
"                      $ < < : : : _ _ _ _ ( ( / ( ( _ _ _ _ ( / / / / / | | } } | | / / ( : : : : : < < $                       ",
"                      $ < < : : : _ _ _ _ ( / / / ( ( _ _ ( / / / / ( / | } } } } | / _ : : < : : : < < $                       ",
"                      $ < < : : : _ _ _ _ ( / / | 1 ( ( _ ( / | | / ( ( } } } } } | ( : $ < < 7 7 7 < <                         ",
"                      $ < < : : : : : _ _ ( / / | | 1 1 ( ( / | | / ( ( } } } } } } ( : $ $ $ < < < <                           ",
"                      $ < < : : : : : _ _ ( / / | | | 1 / / | | | / ( / } } } } } } / _ : < $ $ < <                             ",
"                        < < 7 : : : : : _ ( / / | | | | / / | } } | / | } } } } } } | / ( : < $ $                               ",
"                          < < < : : : : _ ( / / | | | | | } } } } } } } } } } } } } } | / _ < $                                 ",
"                            < < < : : : : ( / / | | | | } } } } } } } } } } } } } } } | / ( <                                   ",
"                              < < 7 : : : _ ( / / | | | } } } } } } } } } } } } } } } | / ( <                                   ",
"                                < < < : : _ ( ( ( | | | | } } } } } } } } } } } } } } | / ( <                                   ",
"                                  < < 7 : : _ _ ( / / / | | } } } } } } } } } } } } | | / _ <                                   ",
"                                    < < 7 : : : _ ( ( / | | | } } } } } } } } } } | / / ( :                                     ",
"                                      < < < : : _ _ ( ( / | | | | | | | | | | | | / ( _ :                                       ",
"                                      $ < < : : : : _ ( / | | | | | | | | | | / / / _ : <                                       ",
"                                      $ $ < : : : : _ ( ( / | & & & & & & & & / ( ( : < $                                       ",
"                                      $ $ < : : : : : _ ( / & & & & & & & & & * _ : : < $                                       ",
"                                      $ $ < 7 : : : : : _ * & & & & & & & & & * = : < $ $                                       ",
"                                      $ $ < : : : _ _ _ _ * * & & & & & % & & * = : < $ $                                       ",
"                                      : _ _ ( ( _ _ _ _ _ * * & & & & % % % & * = : : : :                                       ",
"                                      ( / / / / ( ( _ _ _ * * & & & % % % % % * = _ 6 ( _                                       ",
"                                  < ( / | } } } | ( _ _ _ * * & & % % % % % % * u ( 1 / ( _ <                                   ",
"                                  < ( | } } } } } / ( _ _ * * & & % % % % % & * ( ( / / ( _ <                                   ",
"                                  < ( | } } } } } | ( _ _ * * & & & % % % & & * ( ( / / ( _ <                                   ",
"                                  < ( | } } } } } / ( _ _ * * @ i i i i i i & * ( ( / / ( _ <                                   ",
"                                  < ( / | } } } & * * * * * * j j j j j j j j * _ ( 1 / ( _ <                                   ",
"                                  v _ ( / & } & & j j j j j j j j j j j j j j g _ _ ( ( ( : v                                   ",
"                                    _ _ ( * * & & j j j j j k k k k j j j j j g - : _ _ : :                                     ",
"                                    - v v - g * k k j j j k k k k k k j j j k = - < < < v -                                     ",
"                                    + $ $ + = g g * * * k k l l g g * * * * g = + $ $ ^ + +                                     ",
"                                  + + < $ + = = = * * = = + l l - = = * * = = - < $ < + + +                                     ",
"                                + + + + < < : : : _ _ : v < $ < < : : : _ _ : v < < + + + + + +                                 ",
"                                + + + + + + v v v : : : v < < + v v v v : : : v + + + + + + + +                                 ",
"                                    + + + + + + v v v v v v + + + v + v v v v v + + + + + +                                     ",
"                                    + + + + + + + + + + + + + + + + + + + + + + + + + + + +                                     ",
"                                                                                        +                                       ",
"                                                                                                                                ",
"                                                                                                                                ",
"                                                                                                                                "};
