/* XPM */
static char * Collectible_xpm[] = {
"64 64 90 1",
" 	c None",
".	c #008F00",
"+	c #008E00",
"@	c #F3F6F3",
"#	c #B4F6B4",
"$	c #85F685",
"%	c #6EEB6E",
"&	c #00D300",
"*	c #C4D6C4",
"=	c #FFFFFF",
"-	c #BDFFBD",
";	c #8CFF8C",
">	c #74F374",
",	c #00D900",
"'	c #00BD00",
")	c #B2CBB2",
"!	c #E1EAE1",
"~	c #FBFFFB",
"{	c #D5FFD5",
"]	c #D6FFD6",
"^	c #A9FFA9",
"/	c #80F980",
"(	c #60EB60",
"_	c #1DDB1D",
":	c #00CA00",
"<	c #00B500",
"[	c #2E942E",
"}	c #FCFDFC",
"|	c #F6FFF6",
"1	c #8BFF8B",
"2	c #2EDD2E",
"3	c #00D700",
"4	c #009200",
"5	c #009000",
"6	c #2D952D",
"7	c #F9FBF9",
"8	c #F3FEF3",
"9	c #89FF89",
"0	c #8AFF8A",
"a	c #8AFE8A",
"b	c #8AFD8A",
"c	c #2DDD2D",
"d	c #00D800",
"e	c #009300",
"f	c #00B900",
"g	c #02B902",
"h	c #2DBC2D",
"i	c #2EBC2E",
"j	c #2CC52C",
"k	c #14FF14",
"l	c #14D614",
"m	c #14BC14",
"n	c #02C302",
"o	c #00BB00",
"p	c #00A400",
"q	c #00BA00",
"r	c #00C300",
"s	c #00FF00",
"t	c #00D400",
"u	c #00A500",
"v	c #00CB00",
"w	c #00CC00",
"x	c #00C200",
"y	c #00C000",
"z	c #00EB00",
"A	c #00AD00",
"B	c #00C900",
"C	c #00BE00",
"D	c #009900",
"E	c #00C700",
"F	c #00D600",
"G	c #00DB00",
"H	c #00DD00",
"I	c #00DC00",
"J	c #009800",
"K	c #00BC00",
"L	c #00F800",
"M	c #009400",
"N	c #00AC00",
"O	c #00AE00",
"P	c #00FD00",
"Q	c #00F300",
"R	c #00B200",
"S	c #00E000",
"T	c #00F500",
"U	c #00E200",
"V	c #00A200",
"W	c #00DA00",
"X	c #00C500",
"Y	c #00C400",
"                                                                ",
"                                                                ",
"                                                                ",
"                                                                ",
"                                                                ",
"                                                                ",
"                                                                ",
"                                                                ",
"                                                                ",
"                                                                ",
"                                                                ",
"                 ..............................                 ",
"                 ..............................                 ",
"                 ..............................                 ",
"                 ++++++++++++++++++++++........                 ",
"                 @@@@@@@@#$$$$$$$$$$$$%&&&&&&&&                 ",
"             ...*========-;;;;;;;;;;;;>,,,,,,,,'...             ",
"             ...*========-;;;;;;;;;;;;>,,,,,,,,'...             ",
"             ...*========-;;;;;;;;;;;;>,,,,,,,,'...             ",
"             )))!===~{]]]^;;;;;;;;;;;;/((((_,,,:<<<             ",
"        ...[}=======|1;;;;;;;;;;;;;;;;;;;;;2,,,,,,,34...        ",
"        ...[}=======|1;;;;;;;;;;;;;;;;;;;;;2,,,,,,,34...        ",
"        ...[}=======|1;;;;;;;;;;;;;;;;;;;;;2,,,,,,,34...        ",
"        55567}}}}}}}89000abbbbbbbbbbbba0001cddddddd3e555        ",
"        fffghiiiiiiijkkkklmmmmmmmmmmmmlkkkknooooooooffff        ",
"    ...pqqqqqqqqqqqqrsssstqqqqqqqqqqqqtssssrqqqqqqqqqqqqp...    ",
"    ...pqqqqqqqqqqqqrsssstqqqqqqqqqqqqtssssrqqqqqqqqqqqqp...    ",
"    ...pqqqqqqqqqqqqrsssstqqqqqqqqqqqqtssssrqqqqqqqqqqqqp...    ",
"        pppuvwwwxqqqyzzzz3wwwwwwwwwwww3zzzzApppppppppppp        ",
"        ...43,,,BqqqC,,,,,,,,,,,,,,,,,,,,,,D............        ",
"        ...43,,,BqqqC,,,,,,,,,,,,,,,,,,,,,,D............        ",
"        ...43,,,BqqqC,,,,,,,,,,,,,,,,,,,,,,D............        ",
"             &&&ECCCyFFFFGHHHI,,,,IHHHGFFFFJ.......             ",
"             ...K,,,FqqqqzsssL,,,,LssszqqqqM.......             ",
"             ...',,,FqqqqzsssL,,,,LssszqqqqM.......             ",
"             ...',,,FqqqqzsssL,,,,LssszqqqqM.......             ",
"             ...',,,FqqqqzsssLd,,dLssszqqqqM.......             ",
"                 NNNOqqqqzsssPQQQQPssszqqqqM...                 ",
"                 ...MqqqqzsssssssssssszqqqqM...                 ",
"                 ...MqqqqzsssssssssssszqqqqM...                 ",
"                 ...MqqqqzsssssssssssszqqqqM...                 ",
"                     RRRRSQQQTssssTQQQSRRRR                     ",
"                     ++++NfffvssssvfffN++++                     ",
"                     ....AqqqvssssvqqqA....                     ",
"                     ....AqqqvssssvqqqA....                     ",
"                     ....AqqqwsssswqqqA....                     ",
"                          DDDNUUUUNDDD                          ",
"                          ...VW,,WV...                          ",
"                          ...VW,,WV...                          ",
"                          ...VW,,WV...                          ",
"                              XYYX                              ",
"                              ....                              ",
"                              ....                              ",
"                              ....                              ",
"                              ....                              ",
"                                                                ",
"                                                                ",
"                                                                ",
"                                                                ",
"                                                                ",
"                                                                ",
"                                                                ",
"                                                                ",
"                                                                "};
