/* XPM */
static char *_2cf6c7586f44fedd674908842a49de0G2YnTLeDj0T5Ao4p[] = {
/* columns rows colors chars-per-pixel */
"64 64 96 2 ",
"   c None",
".  c #008E00",
"X  c #008F00",
"o  c #009000",
"O  c #009200",
"+  c #009300",
"@  c #009400",
"#  c #009800",
"$  c #009900",
"%  c #009D00",
"&  c #00A100",
"*  c #00A200",
"=  c #00A400",
"-  c #00A500",
";  c #00A700",
":  c #00AC00",
">  c #00AD00",
",  c #00AE00",
"<  c #00B200",
"1  c #00B500",
"2  c #00B900",
"3  c #00BA00",
"4  c #00BB00",
"5  c #02B902",
"6  c #00BC00",
"7  c #00BD00",
"8  c #00BE00",
"9  c #14BC14",
"0  c #2D952D",
"q  c #2E942E",
"w  c #2DBC2D",
"e  c #2EBC2E",
"r  c #00C000",
"t  c #00C200",
"y  c #00C300",
"u  c #02C302",
"i  c #00C400",
"p  c #00C500",
"a  c #00C700",
"s  c #00C900",
"d  c #00CA00",
"f  c #00CB00",
"g  c #00CC00",
"h  c #00D200",
"j  c #00D300",
"k  c #00D400",
"l  c #00D600",
"z  c #00D700",
"x  c #00D800",
"c  c #00D900",
"v  c #00DA00",
"b  c #00DB00",
"n  c #00DC00",
"m  c #00DD00",
"M  c #14D614",
"N  c #1DDB1D",
"B  c #00E000",
"V  c #00E200",
"C  c #00EB00",
"Z  c #00F300",
"A  c #00F500",
"S  c #00F800",
"D  c #00FD00",
"F  c green",
"G  c #14FF14",
"H  c #2CC52C",
"J  c #2DDD2D",
"K  c #2EDD2E",
"L  c #60EB60",
"P  c #6EEB6E",
"I  c #74F374",
"U  c #85F685",
"Y  c #80F980",
"T  c #89FF89",
"R  c #8AFD8A",
"E  c #8AFE8A",
"W  c #8AFF8A",
"Q  c #8BFF8B",
"!  c #8CFF8C",
"~  c #B1CBB1",
"^  c #B2CBB2",
"/  c #BFD3BF",
"(  c #A9FFA9",
")  c #B4F6B4",
"_  c #BDFFBD",
"`  c #C4D6C4",
"'  c #D5FFD5",
"]  c #D6FFD6",
"[  c #E1EAE1",
"{  c #F3F6F3",
"}  c #F3FEF3",
"|  c #F6FFF6",
" . c #F9FBF9",
".. c #FBFFFB",
"X. c #FCFDFC",
"o. c white",
/* pixels */
"                                                                                                                                ",
"                                                                                                                                ",
"                                                                                                                                ",
"                                                                                                                                ",
"                                                                                                                                ",
"                                                                                                                                ",
"                                                                                                                                ",
"                                                                                                                                ",
"                                                                                                                                ",
"                                                                                                                                ",
"                                                                                                                                ",
"                                X X X X X X X X X X X X X X X X X X X X X X X X X X X X X X X X                                 ",
"                                X X X X X X X X X X X X X X X X X X X X X X X X X X X X X X X X                                 ",
"                                X X X X X X X X X X X X X X X X X X X X X X X X X X X X X X X o                                 ",
"                                . . . . . . X . X X X X X X X X X X X X X . . X X X X X X o X o                                 ",
"                        X X X X / { { { { { { { { ) U U U U U U U U U U U U P h h z h h h h h 2 X X X X                         ",
"                        X X X X ` X.X.X.X.X.X.X.X.' Y Q Q Q ! ! ! ! ! ! ! ! I z z v v v v v v 6 X X X X                         ",
"                        X X X X ` X.X.X.X.X.X.X.X._ Q Q ! Q ! ! ! ! ! ! ! ! I v v v z z v v v 6 X X X X                         ",
"                        X X X X ` X.X.X.X.X.X.X.X._ ! ! ! ! ! ! ! ! ! ! ! ! I z v z v v z v v 2 X X X X                         ",
"                        ^ ^ ^ ^ [ X.X.X.X.] ] ] ] ( ! ! ! ! ! ! ! ! ! ! ! ! Y L L L L N z v z f 1 1 1 1                         ",
"                X X X q X.X.X.X.X.X.X.X...Q ! ! ! ! ! ! ! ! ! ! ! ! ! ! ! ! ! ! ! ! ! K z v v v v v v z o X X X                 ",
"                X X X q X.X.X.X.X.X.X.X.| Q ! ! ! ! ! ! ! ! ! ! ! ! ! ! ! ! ! ! ! ! ! K v v z v z v v z o X X X                 ",
"                o X o q X.X.X.X.X.X.X.X.| Q ! ! Q Q ! Q ! ! Q Q ! Q ! ! Q Q Q Q Q Q ! K v z v v v v v z o o o X                 ",
"                o o o q X.X.X.X.X.X.....} Q Q Q Q Q R R R Q Q Q R R R Q R Q Q Q Q Q Q K v z z v z z z z @ o o o                 ",
"      X X X X = 2 2 2 2 e e e e e e e e H G G G G M 9 9 9 9 9 9 9 9 9 9 9 9 M G G G G u 6 6 6 6 6 6 6 6 2 2 2 2 = X X X X       ",
"      X X X X = 2 2 6 2 6 2 2 2 6 2 6 2 u D D D D z 2 2 2 6 2 6 2 2 2 6 2 6 z D D D D u 2 2 2 2 2 2 2 2 2 6 2 2 = X X X X       ",
"      X X X X = 2 6 2 2 6 2 2 2 2 6 2 2 u D D D D z 2 2 2 2 2 2 2 2 2 2 2 2 z D D D D u 2 2 6 6 2 2 2 6 2 6 2 6 = X X X X       ",
"      X X X X = 2 2 2 6 2 2 6 2 2 2 2 6 u D D D D z 2 6 6 2 2 2 2 2 6 2 2 2 z D D D D u 6 2 2 2 2 6 2 6 2 2 2 2 = X X X X       ",
"              % = = = = g g f f u 2 6 2 u C C C C z f f g g f f f f f f g g z C C C C , = = = = = = = = = = = = %               ",
"                o o o @ z v v z f 6 2 2 6 v v z v v v z v v v v v v v v v v v v v z v @ X X X X o o X X X X X X                 ",
"                o X X o z v v v f 2 2 2 6 v v v v v v v v v z z v z z v v v v z v v v $ X X X X X X X X X X X X                 ",
"                X X X o z v z v f 2 2 2 6 n v v v z z v z v v v v v v v z z v v z v v $ X X X X X X X X X X X X                 ",
"                X X o o h h z h f 6 6 6 u z z z z n V n n n v z z v n n n n n v z z z $ X X X X X X X X X X X X                 ",
"                        X X X X 2 v v z z 2 2 2 2 C D D D A v v z v S D D D C 2 2 6 2 @ X X X X X X X X                         ",
"                        X X X X 6 v v v z 2 2 6 2 C D D D S z v v v A D D D C 2 2 2 6 @ X X X X X X X X                         ",
"                        X X X X 6 v z v z 2 2 6 2 C D D D S v v v z S D D D C 2 6 2 2 @ X X X X X X X X                         ",
"                        X X X X 6 v z v z 2 2 2 2 C D D D S v v v v S D D D C 6 2 6 2 @ X X X X X X X X                         ",
"                                : : : : < 2 2 2 6 C D D D D A Z Z A D D D D C 2 2 6 2 @ X X X X                                 ",
"                                X X X X @ 2 2 6 6 C D D D D D D D D D D D D C 2 2 2 2 @ X X X X                                 ",
"                                X X X X @ 6 2 2 2 C D D D D D D D D D D D D C 6 6 2 2 @ X X X X                                 ",
"                                X X X X @ 2 2 2 2 C D D D D D D D D D D D D C 2 2 2 2 @ X X X X                                 ",
"                                  X X X @ < < 1 < n A A A A D D D D A A Z Z V < 1 < < @ X X X                                   ",
"                                          X X X X , 2 2 2 g D D D D g 2 2 2 : X X X X                                           ",
"                                          X X X o , 2 2 2 g D D D D g 2 2 2 : X X X X                                           ",
"                                          X X X X , 2 2 2 g D D D D g 2 2 2 , X X X X                                           ",
"                                          X X X X , 2 2 6 g D D D D g 2 2 6 , X X X X                                           ",
"                                                  $ $ $ $ , V V V V , $ $ $ $                                                   ",
"                                                  X X X X * v v v v * X o o X                                                   ",
"                                                  X X X X * v v v v * X X X X                                                   ",
"                                                  X X X X * v v v v * X X X X                                                   ",
"                                                    X X o * u u u u * X X X                                                     ",
"                                                            o X X X                                                             ",
"                                                            X X X X                                                             ",
"                                                            X X X X                                                             ",
"                                                            X X X X                                                             ",
"                                                                                                                                ",
"                                                                                                                                ",
"                                                                                                                                ",
"                                                                                                                                ",
"                                                                                                                                ",
"                                                                                                                                ",
"                                                                                                                                ",
"                                                                                                                                ",
"                                                                                                                                "
};
