/* XPM */
static char *afdafed55b4f43d2fb20cb0b95db2f9aGPsPlYa3GKOmS3Yt[] = {
/* columns rows colors chars-per-pixel */
"64 64 242 2 ",
"   c None",
".  c #17132D",
"X  c #1B172F",
"o  c #161534",
"O  c #161C34",
"+  c #1C1D34",
"@  c #0F0F30",
"#  c #211C2F",
"$  c #211F33",
"%  c #1A2335",
"&  c #222034",
"*  c #292A3A",
"=  c #2D3139",
"-  c #33313B",
";  c #362B38",
":  c #492B33",
">  c #4C3A33",
",  c #55393A",
"<  c #512334",
"1  c #6E3B32",
"2  c #6C3A36",
"3  c #713F34",
"4  c #524937",
"5  c #58563C",
"6  c #504C2E",
"7  c #784635",
"8  c #765933",
"9  c #755835",
"0  c #714B32",
"q  c #7D7835",
"w  c #7B7231",
"e  c #292947",
"r  c #363845",
"t  c #313558",
"y  c #353A74",
"u  c #363968",
"i  c #4E3F43",
"p  c #346575",
"a  c #334259",
"s  c #464446",
"d  c #564C47",
"f  c #545354",
"g  c #56565B",
"h  c #525151",
"j  c #7D5445",
"k  c #735350",
"l  c #796247",
"z  c #6E6658",
"x  c #4F506C",
"c  c #5D6065",
"v  c #646667",
"b  c #73797D",
"n  c #706F6E",
"m  c #695D60",
"M  c #AB2F32",
"N  c #AC3332",
"B  c #B13831",
"V  c #853336",
"C  c #834D32",
"Z  c #835635",
"A  c #9A5633",
"S  c #BA462F",
"D  c #AC582D",
"F  c #BC572E",
"G  c #A54333",
"H  c #B54231",
"J  c #B84430",
"K  c #AE5E36",
"L  c #BA5C32",
"P  c #876736",
"I  c #8A7535",
"U  c #9D7434",
"Y  c #BA6534",
"T  c #AB7435",
"R  c #C75A2C",
"E  c #C7662D",
"W  c #DF6E26",
"Q  c #D46529",
"!  c #C9772D",
"~  c #DF7026",
"^  c #D9792A",
"/  c #C36934",
"(  c #CA7B36",
")  c #D07538",
"_  c #E17E27",
"`  c #E07526",
"'  c #895D48",
"]  c #88594F",
"[  c #876847",
"{  c #926752",
"}  c #8A7457",
"|  c #99785B",
" . c #8D7447",
".. c #AE744A",
"X. c #8E7B65",
"o. c #B2665B",
"O. c #CB7D42",
"+. c #8D8637",
"@. c #968838",
"#. c #93903E",
"$. c #B68830",
"%. c #B88C39",
"&. c #A79436",
"*. c #AD8932",
"=. c #ACA737",
"-. c #E3861A",
";. c #D9882C",
":. c #CD912F",
">. c #DA982E",
",. c #CB9735",
"<. c #D39738",
"1. c #C18E37",
"2. c #E38528",
"3. c #E38828",
"4. c #E5962A",
"5. c #E59A2B",
"6. c #E79A26",
"7. c #D6A72B",
"8. c #D4AE33",
"9. c #C3BB36",
"0. c #D4B338",
"q. c #E7A12B",
"w. c #E9A42B",
"e. c #EAAA29",
"r. c #ECB32D",
"t. c #EDBB2E",
"y. c #EDB426",
"u. c #E4B030",
"i. c #DAC936",
"p. c #DDD537",
"a. c #CBC13B",
"s. c #EFC32F",
"d. c #ECCA2F",
"f. c #F1C42E",
"g. c #F1CC2C",
"h. c #EACC33",
"j. c #F1CC31",
"k. c #F0C630",
"l. c #E5D737",
"z. c #F3D532",
"x. c #F4DA32",
"c. c #F0D42D",
"v. c #F8E62D",
"b. c #F7E334",
"n. c #F8E934",
"m. c #FBF233",
"M. c #FBF22B",
"N. c #8F8C57",
"B. c #9D8A5F",
"V. c #96885A",
"C. c #958E49",
"Z. c #BD9349",
"A. c #A1995E",
"S. c #B28F4C",
"D. c #B5B158",
"F. c #B7AB4B",
"G. c #979364",
"H. c #8F8D77",
"J. c #A19960",
"K. c #A49876",
"L. c #AAA56E",
"P. c #9EA07B",
"I. c #C69946",
"U. c #D19741",
"Y. c #CC935B",
"T. c #C5BE44",
"R. c #D8B344",
"E. c #D8AE4C",
"W. c #ECB255",
"Q. c #CD9D59",
"!. c #CDC644",
"~. c #DECD46",
"^. c #D2CB4D",
"/. c #C9C458",
"(. c #EAD054",
"). c #F8EE59",
"_. c #D2CF6C",
"`. c #F0C37F",
"'. c #E3D563",
"]. c #3B4888",
"[. c #396883",
"{. c #44498C",
"}. c #484E96",
"|. c #7E7D82",
" X c #6B7685",
".X c #4C5AB3",
"XX c #516BB0",
"oX c #5F74A7",
"OX c #546ACB",
"+X c #6F79C3",
"@X c #8D788A",
"#X c #7A858D",
"$X c #499AAD",
"%X c #61979F",
"&X c #5984D4",
"*X c #5581CF",
"=X c #5BA9DC",
"-X c #56B5CD",
";X c #5EB3E4",
":X c #5D90E3",
">X c #5FC4E5",
",X c #5DC8DF",
"<X c #848589",
"1X c #999889",
"2X c #85929A",
"3X c #989898",
"4X c #868D8F",
"5X c #9FA18C",
"6X c #A9AA88",
"7X c #AFAD92",
"8X c #9AA8A5",
"9X c #A9B3B9",
"0X c #B8BBB9",
"qX c #B0B5A7",
"wX c #9695A5",
"eX c #DED985",
"rX c #C8CB91",
"tX c #EBC083",
"yX c #F1C882",
"uX c #E3DD89",
"iX c #EFD88B",
"pX c #F7E883",
"aX c #FCF583",
"sX c #F2ED95",
"dX c #F5D9AC",
"fX c #FBF4AD",
"gX c #BEC9CF",
"hX c #C7C7C7",
"jX c #CED1D3",
"kX c #D6D8D9",
"lX c #D4D6CD",
"zX c #E1DFC6",
"xX c #E4E3C9",
"cX c #F8E8C5",
"vX c #FDF7C6",
"bX c #E9E9D3",
"nX c #FBF0D0",
"mX c #E3E3E2",
"MX c #FDFBE1",
"NX c #F2EEE9",
"BX c #DCDFE1",
"VX c #C5B28E",
/* pixels */
"                                                                                                                                ",
"                                                                                                                                ",
"                                                                                                                                ",
"                                                                                                                                ",
"                                                                                                                                ",
"                                                                                                                                ",
"                & & $ & & & & &                         & & & & & & & $                         & & & $ & $ & &                 ",
"                $ $ O O + $ & &                         & & $ # # # $ &                         & $ $ X . . + $                 ",
"            & & & & $ $ & $ & & $ & & $             $ $ & & % * $ $ $ $ & &             & & & $ & & & % & & & & & &             ",
"            & $ & > 9 8 d r * $ o O $ $             $ $ & e y ].[.p t $ # &             & + o o O r g b <X@Xg & $ &             ",
"            & O & 8 $.Z.} f r $ % & & & & & & $ & & $ $ & y .XOX-X$Xp $ X $ $ $ & & & & & & $ + & x #X9XjXhXb & . $             ",
"            & O & 8 %.I.| c h d I q 6 % @ o $ + X X + $ e ].OX:X;X-X$Xp t + . o $ + O O & 6 w q 5 c #X9XBXjX<X& . $             ",
"            & + $ 4 [ } n v m N.!.=.+.& o & $ $ $ $ $ e t }.OX:X;X,X,X$Xp & X $ $ $ & o & q 9.T.N.v b 3X0X9Xb % X &             ",
"            & & & = s f c c v A.~.i.C.d q q 4 g |.|.g e u {..XOX=X,X,X-X[.g |.|.g > 0 9 4 G.uXuX6Xb n  X#X#Xx % + &             ",
"            & & $ & - s h c v B.R.R.N.N.T.=.w |.hXhX#Xr u ].}..X*X=X>X;X%X4XhXhX|.9 $.%.} 3XxXbX0X2Xb c c x r & $ $             ",
"            & & & & & > j { | S.I.Z.X.D.~.l.+.1XzXxX6Xj f y y }.OX&X=X%XP.7XbXbX3XI 7.8.B.3XlXkXjX0X6XN.5 $ + & & &             ",
"                & O & 3 K ( <.I.B.X.n A.~.l.C.G.uXpXE.%.j t u }.OXOX%XP./.sXMXmX3XC.i.~.J.b 3X0XBXbXuXT.q # o &                 ",
"                & O & 1 D ! <.Z.} v v G.~.l.C.A.l.n.k.8.*.l g {..XoX<X=.l.sXMXmX3XG.uXuXP.v v 3XjXxXeX9.w & o &                 ",
"                & & & : 1 Z  .[ z m v B.R.0.C.C.~.v.k.w.7.%.j u }.H./.l.m.fXMXmX3X5XzXxX7Xv c b 3X5XG.q 6 & + &                 ",
"                & & & & & , ] ' ] { | S.%.,.S.F.l.z.k.r.r.8.&.G.5XVX).M.).).vXbX0X0XjXkX0X5XP.A.B.} d % + & & &                 ",
"                    & O + 1 K / / ( I.,.&.&.!.l.h.k.r.r.r.y.h.eXxXxXpXm.m.).aXfXbXlXqX9XlXzXuX~.0.%.9 o o &                     ",
"                    & O $ 1 D E E ! :.%.U &.l.x.t.r.r.r.s.g.j.pXfXnXfXaX).m.m.aXvXxXL.6XlXzXeXi.7.%.9 & O &                     ",
"                    & $ $ : 1 7 C Z P U 1.8.t.t.r.r.r.s.z.c.r.W.tXdXnXvXaXm.M.).aXpX(._.L.1XG.+.I 8 > & + &                     ",
"                    & & $ $ + 4 8 P I T >.w.w.w.e.r.r.d.b.x.5.-.w.iXNXMXaXm.M.m.m.m.b.h.=.+.+.+.6 % + & & &                     ",
"                & $ & & + O O 8 %.,.7.:.3.3.3.4.w.r.r.t.b.x.q.-.6.iXNXMXsXm.m.m.m.v.z.f.h.l.p.=.q O o $ & & & &                 ",
"                & $ O o o O - Z ,.r.s.r.3.~ ~ _ 4.r.t.j.z.k.4.-.6.`.cXnXfXaX).m.v.z.t.(.sX).).i.+.- o @ @ o % &                 ",
"        & & & & $ $ & $ % = s ' ( e.c.j.5.` ~ ` _ w.z.z.r.4.` _ w.W.yXdXnXvXaXn.g.t.r.yXnXnX`.R.| f r $ $ & % % & & & &         ",
"        $ $ O o $ > 9 I +.I z ] ..<.j.j.4.~ ~ _ 5.r.j.k.4._ 4.W.`.`.W.yXcXnXfXpX(.e.r.yXcXcXtXQ.H.#X<X1XN.w 6 % @ o $ $         ",
"    $ $ & & $ + $ 9 $.7.i.T.G.v ] ..0.r.3.~ ~ 4.k.j.r.4._ 4.f.pXcXcX`.W.`.dXnXcXyXe.r.(.pXiXL.H.3X9XjXzXuX9.q % O & & & & &     ",
"    $ $ & > 8 8 d l Z.R.~.^.D.V.z I 7.w.2.~ ` 5.j.j.>.Q W 6.j.aXvXcX`.e.q.`.cXcXyXr.y.f.b.l.A.<X9XjXBXxXsX_.G.v  .q 4 & $ $     ",
"    & + & 8 $.Z.} z X.B.A.D.^.T.C.I ,.w.2.~ ~ 3.r.u.( R Q 3.y.(.pXpX(.w.-.W.`.aX(.e.r.g.v.l.A.3XkXBX0XqXqXqX8X7X/.9.q % o &     ",
"    & O & 8 %.I.S.X.n v v J.~.i.+.P ,.w.;.Q W 2.w.>./ S Q 2.w.f.b.n.f.w.2.e.x.n.k.e.e.t.x.l.C.1XzXxX5X X#X8XqXrX_.T.I & o &     ",
"    & + + 4 l S.I.Z.} c v B.R.8.I P 7.>.! R Q 3.e.5.Y S Q 2.e.f.v.v.f.w.2.5.x.v.f.w.4.e.x.p.C.G._.uXP.v  XP._._.D.G.d & % &     ",
"    & & $ * i [ %.%...] { | I.%.8 P :.;.L J Q 3.w.>./ H R ^ 4.t.z.z.r.4._ w.x.b.k.q.2.4.j.i.+.+.!.^.A.B.B.A.R.!.N.g r & $ &     ",
"    & & $ & - 4 8 U Y ) ) ....l d P ( ^ F S Q 3.w.>./ B B R ^ 4.r.t.6.2.` e.x.b.k.q.3.3.r.8.I d C.F.I.R.8.,.&.q d r & & & &     ",
"    & & & & & + # 1 D R E L j d , C F Q E / Q ^ 4.5.( L H J R ^ 4.4.2.` 4.r.z.z.t.w.q.q.w.>.U 7 d l %.>.,.$.9 $ % & & & & &     ",
"        & & $ + o : 1 7 C 7 , 4 V N H / :.;./ R ^ 3.>.:.F B B E ^ _ ` 4.f.z.g.r.4.w.j.s.w.^ E K 0 4 8 P P 8 > o + $ & &         ",
"        & & & & $ $ $ $ & % = 1 H J H Y q.>./ J R ^ 4.4.( L H S Q _ 5.r.z.z.t.5._ w.x.x.q._ 2.! 9 * % & $ $ & & $ & & &         ",
"                & $ + O O O & 7 F R J Y 5.>./ B H R ^ 3.4.:.L J Q 4.k.z.j.t.4._ ` w.x.x.q.2.5.:.Z & @ o O O $ &                 ",
"                & & $ $ & + % 1 D L G Y >.;.Y M M J R ;.e.>./ S Q q.x.b.t.4._ ~ ` 4.j.j.<.! :.$.8 . O % $ & & &                 ",
"                    & & & $ $ : 0 0 1 A ! ^ R M M N J ! 5.>./ J Q q.x.x.r._ ~ W ~ 3.r.u.S.[  .[ 4 $ + $ & &                     ",
"                    & & & : 1 7 P I @.@.T R F H B M M L ;.<.! ( >.e.j.k.4.W W ` 2.;.,.,.S.G.1X3X3X|.g $ $ &                     ",
"                    & O & 3 D ! :.8.i.a.U D R R H M M G L ( :.u.j.j.r.4._ ` W 2.5.:.*.&.!.eXzXmXBXhX|.$ . $                     ",
"                    & O O 2 ..) U.R.~.!.=.@.T R R J B M M Y <.E.'.(.U.` W ` _ 3.>.,.@.=.^.uXbXNXNXjX|.X @ $                     ",
"                $ & & $ $ i ] | B.B.A.D.!.a.@.D R R J M M H | 6X7XVXY.W W ` 4.<.*.@.9.a.D.6X0XgXgX9Xn + X $ $ $                 ",
"                $ $ & : 1 ' | X.n v v A.~.i.+.0 F E R H G ] k  XwXwXK.) _ 3.5.:.P +.i.~.J.b 2X8XqXqX3X|.g & + $                 ",
"                $ + $ 1 D ( U.Z.X.v v B.R.8.I 7 N F R R ] k x }.+X+X@X..4.5.4.! Z I 8.R.B.n b P._.sXxXhX|.& X &                 ",
"                $ O $ 1 K ( <.I.S.X.n | <.:.Z , V B F o.] x }.XX:X&X+X@XY.U.! D 0 P :.U.B.n G.D./.uXbXjX<XX @ &                 ",
"            & & & $ + , j [  .S.I.Z.} { ( E C ; < 1 7 j x {..X+X=X=X&XoXX.[ Z 1 : C ! ) | G./.^.D.6X0X9Xb O o & & &             ",
"            & & $ * = s h f f { <.<.[ ' K D 1 $ + & * r t {..X&X=X=X&X.X{.s - O $ 1 D ..] C.~.~.G.|.2X2X Xx r + $ &             ",
"            $ $ $ - s s h f f { ( ! Z , 1 1 : % % % % & e u {..X&X&X.Xy t ; & % + : 2 2 i  .8.R.B.n b #X2X|.g $ + $             ",
"            $ % $ i ] ] k f d Z K D 1 & O & & & & & & & $ e t {..X.Xy & $ & & & $ $ & + & 8 $.Z.} c c H.7X1Xv $ + $             ",
"            & + + 7 K K [ h r , 3 1 : + O + & & & & & $ & & e t y y e $ $ $ & & $ $ O O $ > 9 9 d s m V.L.Y.[ $ + &             ",
"            $ + & 1 D K j s = & $ $ $ $ & & & & & & & & & & & & $ $ $ $ & & & & & & & & & $ $ $ + r f } Z.%.8 $ O &             ",
"            & % & : 1 7 , - & & O % & &                 & & & $ # $ $ $                 & $ + O O e r d 8 8 > $ $ $             ",
"            & & & & & & & & & & & & & &                 & & & & & & & &                 $ $ $ & & & $ & $ $ $ $ $ $             ",
"                & & O & & + & &                                                                 & & $ $ O O $ &                 ",
"                & & & & & & & &                                                                 & & $ & $ & $ &                 ",
"                                                                                                                                ",
"                                                                                                                                ",
"                                                                                                                                ",
"                                                                                                                                ",
"                                                                                                                                ",
"                                                                                                                                "
};
