/* XPM */
static char * CornerUR_xpm[] = {
"64 64 429 2",
"  	c #C37100",
". 	c #D68100",
"+ 	c #F29800",
"@ 	c #FFA200",
"# 	c #D58000",
"$ 	c #A96100",
"% 	c #683900",
"& 	c #F19700",
"* 	c #B56900",
"= 	c #794400",
"- 	c #000000",
"; 	c #E18A00",
"> 	c #F59B00",
", 	c #F69B00",
"' 	c #B96F00",
") 	c #734300",
"! 	c #724200",
"~ 	c #F59A00",
"{ 	c #DD8700",
"] 	c #C27300",
"^ 	c #915400",
"/ 	c #653700",
"( 	c #FC9F00",
"_ 	c #FDA000",
": 	c #D28300",
"< 	c #835000",
"[ 	c #FB9F00",
"} 	c #E08B00",
"| 	c #C07300",
"1 	c #AC6300",
"2 	c #845000",
"3 	c #8C5600",
"4 	c #DE8C00",
"5 	c #FFA300",
"6 	c #FDA100",
"7 	c #FA9E00",
"8 	c #F89C00",
"9 	c #E08A00",
"0 	c #744300",
"a 	c #8C5700",
"b 	c #DF8D00",
"c 	c #E89000",
"d 	c #E38C00",
"e 	c #FBA000",
"f 	c #FCA000",
"g 	c #D17D00",
"h 	c #C77400",
"i 	c #A86000",
"j 	c #683A00",
"k 	c #DE8D00",
"l 	c #E28B00",
"m 	c #F49900",
"n 	c #E08900",
"o 	c #E68E00",
"p 	c #CF7C00",
"q 	c #F09600",
"r 	c #D37F00",
"s 	c #CC7A00",
"t 	c #DC8800",
"u 	c #E59000",
"v 	c #E69100",
"w 	c #ED9600",
"x 	c #F99E00",
"y 	c #8D5700",
"z 	c #F49A00",
"A 	c #BC6E00",
"B 	c #B06800",
"C 	c #A96500",
"D 	c #AA6600",
"E 	c #C57900",
"F 	c #ED9500",
"G 	c #F29700",
"H 	c #CC7B00",
"I 	c #B76E00",
"J 	c #9E5E00",
"K 	c #874C00",
"L 	c #9E5D00",
"M 	c #D08100",
"N 	c #E18C00",
"O 	c #D98500",
"P 	c #E38B00",
"Q 	c #EC9500",
"R 	c #DF8B00",
"S 	c #D48000",
"T 	c #D78100",
"U 	c #EF9600",
"V 	c #E89200",
"W 	c #CF8000",
"X 	c #9D5D00",
"Y 	c #854A00",
"Z 	c #C07500",
"` 	c #E08C00",
" .	c #B76F00",
"..	c #D68400",
"+.	c #E88F00",
"@.	c #DE8A00",
"#.	c #B26A00",
"$.	c #8B4C00",
"%.	c #7F4400",
"&.	c #A46100",
"*.	c #DA8700",
"=.	c #F39800",
"-.	c #E99200",
";.	c #E79100",
">.	c #E69000",
",.	c #D38300",
"'.	c #AD6700",
").	c #DD8900",
"!.	c #EA9300",
"~.	c #D98700",
"{.	c #C27400",
"].	c #C77700",
"^.	c #D27D00",
"/.	c #D38400",
"(.	c #AA6500",
"_.	c #A15E00",
":.	c #D88400",
"<.	c #D58100",
"[.	c #CE7B00",
"}.	c #BD6F00",
"|.	c #A55E00",
"1.	c #894B00",
"2.	c #975600",
"3.	c #C17300",
"4.	c #CB7A00",
"5.	c #B66E00",
"6.	c #A96600",
"7.	c #AC6600",
"8.	c #B06600",
"9.	c #BD6E00",
"0.	c #CD7A00",
"a.	c #A36000",
"b.	c #A66000",
"c.	c #C67600",
"d.	c #C87500",
"e.	c #A86100",
"f.	c #AA6300",
"g.	c #AD6400",
"h.	c #BE7400",
"i.	c #B36700",
"j.	c #B26600",
"k.	c #B06500",
"l.	c #AB6200",
"m.	c #9D5900",
"n.	c #864900",
"o.	c #894C00",
"p.	c #A55D00",
"q.	c #9B5800",
"r.	c #7C4400",
"s.	c #6B3900",
"t.	c #743E00",
"u.	c #874B00",
"v.	c #9E5A00",
"w.	c #763E00",
"x.	c #8A4C00",
"y.	c #A65E00",
"z.	c #B36600",
"A.	c #9A5700",
"B.	c #5E3300",
"C.	c #9B5900",
"D.	c #7D4500",
"E.	c #6C3900",
"F.	c #874A00",
"G.	c #905000",
"H.	c #764100",
"I.	c #6E3D00",
"J.	c #753F00",
"K.	c #804500",
"L.	c #744000",
"M.	c #482400",
"N.	c #4F2800",
"O.	c #6A3800",
"P.	c #733E00",
"Q.	c #764200",
"R.	c #7E4400",
"S.	c #773F00",
"T.	c #774000",
"U.	c #7F4500",
"V.	c #915100",
"W.	c #4D2800",
"X.	c #4C2800",
"Y.	c #915000",
"Z.	c #492300",
"`.	c #653500",
" +	c #7C4300",
".+	c #8C4D00",
"++	c #794100",
"@+	c #894D00",
"#+	c #A05F00",
"$+	c #A26200",
"%+	c #945B00",
"&+	c #A36300",
"*+	c #6C3B00",
"=+	c #743F00",
"-+	c #7E4700",
";+	c #875200",
">+	c #A36200",
",+	c #A36100",
"'+	c #985700",
")+	c #9C5C00",
"!+	c #7E4800",
"~+	c #7D4800",
"{+	c #9C5D00",
"]+	c #7E4900",
"^+	c #5F3400",
"/+	c #442300",
"(+	c #412000",
"_+	c #5D3100",
":+	c #6B3800",
"<+	c #784000",
"[+	c #D18200",
"}+	c #E38F00",
"|+	c #E08E00",
"1+	c #E49000",
"2+	c #CA7E00",
"3+	c #D78600",
"4+	c #BD7100",
"5+	c #BC7000",
"6+	c #D88600",
"7+	c #BB7000",
"8+	c #9F5B00",
"9+	c #7E4600",
"0+	c #4A2500",
"a+	c #4E2700",
"b+	c #763F00",
"c+	c #AB6700",
"d+	c #C57500",
"e+	c #482500",
"f+	c #AD6800",
"g+	c #F69A00",
"h+	c #E48D00",
"i+	c #9C5900",
"j+	c #BD7300",
"k+	c #D88700",
"l+	c #AA6700",
"m+	c #D78700",
"n+	c #BB7200",
"o+	c #C57A00",
"p+	c #FCA100",
"q+	c #C47800",
"r+	c #9D5C00",
"s+	c #EA9100",
"t+	c #F79C00",
"u+	c #CE8000",
"v+	c #EA9200",
"w+	c #DD8600",
"x+	c #D78200",
"y+	c #D98300",
"z+	c #BC7300",
"A+	c #FA9F00",
"B+	c #D47F00",
"C+	c #9F5E00",
"D+	c #CF8100",
"E+	c #E48F00",
"F+	c #D78500",
"G+	c #DE8800",
"H+	c #E18E00",
"I+	c #955B00",
"J+	c #BB6F00",
"K+	c #DC8600",
"L+	c #EB9200",
"M+	c #CB7F00",
"N+	c #845100",
"O+	c #D07C00",
"P+	c #E78F00",
"Q+	c #EE9500",
"R+	c #F19900",
"S+	c #7C4600",
"T+	c #865100",
"U+	c #945A00",
"V+	c #B86E00",
"W+	c #C77500",
"X+	c #B16900",
"Y+	c #AE6900",
"Z+	c #B46D00",
"`+	c #C77B00",
" @	c #B86A00",
".@	c #C06F00",
"+@	c #A75F00",
"@@	c #8B4D00",
"#@	c #6D3A00",
"$@	c #603200",
"%@	c #4D2700",
"&@	c #4C2600",
"*@	c #834900",
"=@	c #A45E00",
"-@	c #623600",
";@	c #6A3B00",
">@	c #AA6200",
",@	c #C47200",
"'@	c #C47100",
")@	c #935200",
"!@	c #B46700",
"~@	c #B56800",
"{@	c #945300",
"]@	c #A86400",
"^@	c #E69200",
"/@	c #A05B00",
"(@	c #B76900",
"_@	c #A05A00",
":@	c #532B00",
"<@	c #5D3000",
"[@	c #5B2F00",
"}@	c #5C3000",
"|@	c #804600",
"1@	c #693B00",
"2@	c #C27000",
"3@	c #8F4F00",
"4@	c #753E00",
"5@	c #955300",
"6@	c #743D00",
"7@	c #925100",
"8@	c #9D5800",
"9@	c #AC6200",
"0@	c #5A2F00",
"a@	c #361A00",
"b@	c #371A00",
"c@	c #693800",
"d@	c #683700",
"e@	c #603500",
"f@	c #7E4500",
"g@	c #814700",
"h@	c #A25D00",
"i@	c #995700",
"j@	c #8E4F00",
"k@	c #AB6100",
"l@	c #522A00",
"m@	c #351900",
"n@	c #1A0900",
"o@	c #1D0B00",
"p@	c #3F1F00",
"q@	c #673600",
"r@	c #401F00",
"s@	c #4B2700",
"t@	c #512B00",
"u@	c #824900",
"v@	c #A25C00",
"w@	c #A65F00",
"x@	c #7A4200",
"y@	c #3E1E00",
"z@	c #A85F00",
"A@	c #B46800",
"B@	c #B96A00",
"C@	c #B96B00",
"D@	c #A15B00",
"E@	c #502A00",
"F@	c #5B3200",
"G@	c #9C5800",
"H@	c #784100",
"I@	c #3E1F00",
"J@	c #1F0C00",
"K@	c #341900",
"L@	c #4D2900",
"M@	c #693700",
"N@	c #B16700",
"O@	c #A55F00",
"P@	c #3D1D00",
"Q@	c #3D1E00",
"R@	c #1E0C00",
"S@	c #3C1D00",
"T@	c #6F3E00",
"U@	c #764300",
"V@	c #804800",
"W@	c #402000",
"X@	c #663800",
"Y@	c #AB6300",
"Z@	c #542B00",
"`@	c #6E3B00",
" #	c #7A4100",
".#	c #6E3A00",
"+#	c #4E2800",
"@#	c #5F3200",
"##	c #391C00",
"$#	c #1C0A00",
"%#	c #1B0A00",
"&#	c #3A1C00",
"*#	c #210E00",
"=#	c #603300",
"-#	c #301600",
";#	c #582E00",
">#	c #391B00",
",#	c #613300",
"'#	c #633400",
")#	c #4F2900",
"!#	c #552C00",
"~#	c #1F0D00",
"{#	c #150700",
"]#	c #2A1300",
"^#	c #301700",
"/#	c #200D00",
"(#	c #291200",
"_#	c #512900",
":#	c #5B3000",
"<#	c #381B00",
"[#	c #5E3100",
"}#	c #472300",
"|#	c #582D00",
"1#	c #502800",
"2#	c #452300",
"3#	c #6C3A00",
"4#	c #592E00",
"5#	c #341800",
"6#	c #703B00",
"7#	c #6F3B00",
"8#	c #3B1C00",
"9#	c #242E00",
"0#	c #222B00",
"a#	c #1F2700",
"b#	c #192100",
"c#	c #0F1400",
"d#	c #311700",
"e#	c #3D4D00",
"f#	c #3C4B00",
"g#	c #3C4A00",
"h#	c #364300",
"i#	c #1D2800",
"j#	c #1C0B00",
"k#	c #425100",
"l#	c #435200",
"m#	c #465600",
"n#	c #404F00",
"o#	c #252F00",
"p#	c #293300",
"q#	c #313D00",
"r#	c #415000",
"s#	c #3E4D00",
"t#	c #252E00",
"u#	c #1F2800",
"v#	c #3D4B00",
"  . + @ @ @ @ @ @ @ @ @ @ @ @ @ @ @ @ @ @ @ @ @ @ @ @ + # $ % % $ # + @ @ @ @ @ @ @ @ @ @ @ @ @ @ @ @ @ @ @ @ @ @ @ @ & # * = - ",
"# ; > @ @ @ @ @ @ @ @ @ @ @ @ @ @ @ @ @ @ @ @ @ @ @ @ , ; ' ) ! ' ; , @ @ @ @ @ @ @ @ @ @ @ @ @ @ @ @ @ @ @ @ @ @ @ @ ~ { ] ^ / ",
"& ~ ( @ @ @ @ @ @ @ @ @ @ @ @ @ @ @ @ @ @ @ @ @ @ @ @ _ ~ : < < : ~ _ @ @ @ @ @ @ @ @ @ @ @ @ @ @ @ @ @ @ @ @ @ @ @ @ [ & } | 1 ",
"@ @ @ @ @ @ @ @ @ @ @ @ @ @ @ @ @ @ @ @ @ @ @ @ @ [ ~ + & : 2 3 4 @ 5 @ @ @ @ @ @ @ @ @ @ @ @ @ @ @ @ @ @ @ @ @ @ 6 7 8 [ ~ 9 # ",
"@ @ @ @ @ @ @ @ @ @ @ @ @ @ @ @ @ @ @ @ @ @ @ @ @ ~ ; . # ' 0 a b @ 5 @ @ @ @ @ @ @ @ @ @ @ @ @ @ @ @ @ @ @ @ @ @ 7 c d ~ e > & ",
"@ [ ~ ~ f 5 5 @ @ @ @ @ @ @ @ @ @ @ @ @ @ @ @ @ @ ~ ; g h i j a k [ , ~ f 5 5 @ @ @ @ @ @ @ @ @ @ @ @ @ @ @ @ @ @ 8 l 9 ~ @ @ @ ",
"@ m n ; ~ @ @ @ @ @ @ @ @ @ @ @ @ @ @ @ @ @ @ @ @ ( ~ o p i % a k ~ l ; ~ @ @ @ @ @ @ @ @ @ @ @ @ @ @ @ @ @ @ @ @ [ ~ ~ e @ @ @ ",
"@ q r s t u v w x @ @ @ @ @ @ @ @ @ @ f ~ ~ [ @ @ 5 @ , ; ' ) y k & . s t u v w x @ @ @ @ @ @ @ @ @ @ f ~ z [ @ @ @ @ @ @ @ @ @ ",
"@ q r A B C D E F @ @ @ @ @ @ @ @ @ @ ~ ; ; ~ @ @ @ @ _ ~ : < y 4 & . A B C D E F @ @ @ @ @ @ @ @ @ @ ~ ; { G @ @ @ @ @ @ @ @ @ ",
"@ ~ ; H I J K L M F 7 @ 5 @ 5 5 5 7 F N O l , f , , f _ ~ : < y k , P H I J K L M F 7 @ 5 @ 5 5 5 x Q R S T c ~ e @ @ @ @ @ @ @ ",
"@ [ ~ U V W X Y X E w @ @ @ @ @ @ Q E Z ` ~ f ~ ; ; ~ , l ' ) a k ( , U V W X Y X E w @ @ @ @ @ @ Q E  ...+.{ 9 z @ @ @ @ @ @ @ ",
"G G G + G @.#.$.%.&.*.+ =.U -.;.>.,.'.#.).U !.~.{.].d +.^.$ j 2 ,.G =.+ G @.#.$.%.&.*.+ =.U -.v u /.(._.W N :.; ~ @ @ @ @ @ @ @ ",
"# # <.. . [.}.|.1.2.3.# . 4.5.D 6.7.8.9.0.H I a.2.b.c.g d.e.j ) ' # . . . [.}.|.1.2.3.# . 4.5.D 6.C f.g.7.h.` ~ f @ @ @ @ @ @ @ ",
"i.i.j.j.j.k.l.m.n.o.p.k.l.q.r.s.t.u.v.l.k.|.o.w.w.x.y.i.z.A.B.B.A.j.z.j.j.k.l.m.n.o.p.k.1 C.D.E.t.F.|.8.'.E Q @ @ @ @ @ @ @ @ @ ",
"G.G.G.G.G.u.H.I.J.K.$.u.L.B.M.N.O.P.I.Q.u.x.R.S.T.U.x.V.V.D.W.X.r.G.Y.G.G.u.H.I.J.K.$.u.L.B.M.Z.`. +.+7./.Q x @ @ @ @ @ @ @ @ @ ",
"++@+#+D D $+%+%+$+D D &+%+< ! *+=+-+;+%+>+D D D D ,+2.'+,+)+!+~+)+D D D D $+%+%+$+D D {+]+^+/+(+_+:+J.6.u @ 5 @ @ @ @ @ @ @ @ @ ",
"<+#+[+u v }+|+|+1+>.u 1+|+,.' v.F.)+2+|+1+u >.v >.~.] {.~.3+4+5+3+u v u u }+|+|+1+v u 6+7+8+9+_+0+a+E.D v @ 5 @ @ @ @ @ @ @ @ @ ",
"b+c+V 5 5 @ @ @ @ @ @ 5 @ , ; 3.2.D u @ 5 @ @ @ @ ~ ; ; ~ ~ ; ; ~ @ @ @ @ @ @ @ @ @ @ ~ { d+b.r.e+M.D.5.-.@ 5 @ @ @ @ @ @ @ @ @ ",
"++f+V 5 5 5 5 5 5 5 5 5 5 _ , *.&.D v 5 5 5 5 5 5 f g+, f f , , f 5 5 5 5 5 5 5 5 5 5 f =.h+c.i+B.B.C.4.U @ @ @ @ @ @ @ @ @ @ @ ",
"D j+k+u v F x [ ~ & & & & , ( u l+D u @ 5 @ @ @ @ @ @ @ @ @ @ @ @ @ @ @ @ @ @ @ @ @ @ @ @ , 9 7+]+L.1 . =.@ 5 @ @ @ @ @ @ @ @ @ ",
">.m+n+C 6.o+F ~ l # S S # l ~ u c+D u @ 5 @ @ @ @ @ @ @ @ @ @ @ @ @ @ @ @ @ @ @ @ @ @ @ @ p+> 6+{+u.k.# + @ @ @ @ @ @ @ @ @ @ @ ",
"@ Q q+r+Y D v , l # S S # { s+6+&.D u @ 5 @ @ @ @ @ @ @ @ @ @ @ @ @ @ @ @ [ ~ + ~ t+( @ @ 5 @ u D $.p.3.*.w 7 @ @ @ @ @ @ @ @ @ ",
"5 7 Q u+X C u [ g+& & & & v+w+3.'+D u @ 5 @ @ @ @ @ @ @ @ @ @ @ @ @ @ @ @ ~ ; x+y+l ~ @ @ 5 @ v D K.o.2.&.E F @ @ @ @ @ @ @ @ @ ",
"@ 5 @ Q E z+3+w A+@ @ @ @ g+; 3.'+c+>.( , ~ [ @ @ @ @ @ @ @ @ @ @ @ @ @ @ z { 0.h B+& @ @ 5 @ 1+$+J.n.1.%.X M F x @ @ @ @ @ @ @ ",
"@ @ @ A+w 3+z+o+F @ 5 5 @ _ ~ 6+,+c+u ~ l ; ~ @ @ @ @ @ @ @ @ @ @ @ @ @ @ [ & h+p # & @ @ 5 @ |+%+I.m.|.$.Y L E w @ @ @ @ @ @ @ ",
"@ @ @ 5 @ u D C+D+w A+5 5 5 @ E+&+X F+s+G+; ~ @ 5 5 5 5 5 f ~ ~ f 5 5 @ @ @ @ ~ 9 ; ~ @ @ 5 @ |+%+H.l.}.#.X K D v @ 5 @ @ @ @ @ ",
"@ @ @ 5 @ v 6.Y r+E w @ @ 5 @ H+I+!+J+K+L+~ ( @ @ @ @ @ @ ~ ; ; ~ @ @ @ @ @ @ e z ~ [ @ @ 5 @ }+$+u.k.[.@.W J C u @ 5 @ @ @ @ @ ",
"G G & + G *.&.T.T.{+M+H+u !.U ,.N+% $ O+P+& + Q+-.>.>.v >.).0.0.).V w R+x @ @ @ @ @ @ @ @ 5 @ u D G.j.. G V I B t ~ f @ @ @ @ @ ",
"# # # . # {.'+<+w.S+T+U+&+V+4.' 0 % i W+^.. # 4.5.D 6.D D X+A A X+Y+Z+`+Q @ @ @ @ @ @ @ @ 5 @ u D G.j.. + U H A s ; ~ @ @ @ @ @ ",
"i. @.@.@ @+@@@b+#@$@%@&@$@*@=@C.-@;@>@  ,@'@  i.G.<+<+<+++)@!@~@{@<+S.]@^@@ 5 @ @ @ @ @ @ 5 @ v D Y.z.. =., P . . l , 5 5 _ , + ",
"G./@(@(@_@@@U.#@:@&@<@[@M.}@|@r.W.1@>@      2@j.3@b+4@4@b+G.i. @5@6@6@C v @ 5 @ @ @ @ @ @ 5 @ u D G.j.# G ( , & & ~ [ @ @ ~ ; # ",
"7@8@9@+@.+b+#@0@a@b@0@0@b@(+c@d@(+e@i+ @.@,@'@ @/@@@f@P.#@g@h@l.i@j@V.X+).~ f @ @ @ @ @ @ f ~ 3+)+r.A.' ,.k k 4 k k k b 4 : ' $ ",
"i.k@A.@@U.#@l@m@n@o@a@m@o@p@d@q@r@s@f@/@ @    .@ @+@@@#@l@t@;@u@v@i.!@A 0.; ~ @ @ @ @ @ @ , ; 5+~+X.B.) 2 a y y y a a a 3 < ! % ",
"!@w@@@x@++O.p@- - - - - - b@[@0@b@y@c@.+z@!@A@B@.@C@D@g@E@- - F@G@i.!@A 0.; ~ @ @ @ @ @ @ , ; 4+!+W.B.j j ) < < ) % j 0 2 < ) % ",
"7@@@U.++H@c@I@- - - - - - J@a@K@J@y@d@U..+G.V./@ @.@ @h@;@- - L@|@G.)@X+).~ f @ @ @ @ @ @ f ~ 3+)+D.A.e.$ ' : : ' i i ' : : ' $ ",
"c@c@M@c@d@0@K@- - - - - - - - - - m@[@c@O.d@c@9+i+g.N@O@-+F@X.l@#@b+++D >.@ 5 @ @ @ @ @ @ f ~ ~.,+V.z.d.^.l ~ ~ ; p h # & ~ ; # ",
"P@Q@I@p@p@a@R@- - - - - - - - - - R@a@I@y@S@P@s@e@T@U@V@i@q.|@#@P.4@<+D v @ 5 @ @ @ @ @ @ , ; {.'+V.i.g +., _ _ , o g . + _ , + ",
"- o@a@p@p@p@p@p@p@p@p@r@W@a@o@o@a@b@o@- - - - - - - - X@>@ @D@@@f@4@<+6.>.@ 5 @ @ @ @ @ @ g+; ] 2.x.y.c.d ~ f @ @ ~ ; ; ~ @ @ @ ",
"- a@[@d@c@M@c@c@c@c@c@O.c@0@a@b@0@[@a@- - - - - - - - 1@Y@.@C@+@@@b+<+D >.@ 5 @ @ @ @ @ @ f ~ ~.,+U.x.b.].; , @ 5 ( ~ ~ [ @ @ @ ",
"p@Z@`@++++++++++++ # #b+.#$@%@+#@#$@+#b@o@- - - - - - e@i+ @.@ @/@3@G.5.-.@ 5 @ @ @ @ @ @ 5 @ >.D T.w.2.{.; , @ @ @ @ @ @ @ @ @ ",
"c@`@b+ # # # # # #x@ #.#Z@+#$@$@+#+#$@[@b@- - - - - - s@9+/@B@.@ @j.i.4.Q+@ @ @ @ @ @ @ @ 5 @ v D S.w.a.~.~ f @ @ @ @ @ @ @ @ @ ",
"++++++++++++++J.#@c@M@0@a@a@0@@#+#+#$@}@##- - - - - - P@c@V.A@  '@2@  # + ( ~ ~ [ @ @ @ @ 5 @ >.D R.o.I !.f , ~ [ @ @ @ @ @ @ @ ",
" #++++++++++++#@:@p@I@m@$#%#a@+#$@$@+#&#*#- - - - - - S@d@G.!@  ,@  '@. & ~ ; ; ~ @ @ @ @ 5 @ u D x.|.H U ~ l ; ~ @ @ @ @ @ @ @ ",
" #++++++++b+#@$@%@b@%#- - o@b@+#=#@#M.-#%#%#a@b@o@- - y@O..+z@ @.@  ,@^.P+L+G+l , 5 5 5 5 5 5 1+>+u.k.0.).` O ; ~ @ @ @ @ @ @ @ ",
"++++++++++#@:@%@@#0@m@- - a@0@$@+#M.;#0@>#b@[@[@b@- - I@c@U..+/@ @    W+O+K+s+~ ( @ @ @ @ 5 @ |+%+Q.l.9.#.Z N ~ f @ @ @ @ @ @ @ ",
"c@`@b+b+.#$@%@+#$@,#+#a@o@b@[@}@&#-#0@'#)#+#$@$@+#a@o@a@[@d@c@f@i+>@>@i $ J+F+u >.u u u u v u 2+;+I.v.8.'.E F @ @ @ @ @ @ @ @ @ ",
"p@!#`@#@Z@%@@#@#+#+#$@[@b@~#a@##*#%#>#)#,#$@+#+#$@[@b@R@m@y@y@s@e@1@;@% % !+X c+c+D D D D D D )+-+P.u.7.,.Q 7 @ @ @ @ @ @ @ @ @ ",
"- b@[@0@a@a@0@0@a@a@0@[@a@- - - - %#b@+#=#$@+#+#@#0@a@- - J@b@r@(+W.-@0 N+I+&+,+'+'+&.c+l+&.2.F.=+O.t.6.>.@ 5 @ @ @ @ @ @ @ @ @ ",
"- R@a@m@o@o@a@a@o@o@a@b@~#- - - - a@[@$@+#+#@#$@+#b@o@- - K@0@q@d@r.C.' ,.H+E+6+3.3.6+u u *.3.v.*+N.s.D ;.@ 5 @ @ @ @ @ @ @ @ @ ",
"p@p@p@p@p@p@p@r@W@b@J@{#]#^#/#- - a@[@0@b@a@0@$@%@a@o@- - a@[@d@c@|@=@4.U @ @ ~ ; w+s+~ ( , ; ' ! M.r.5.-.@ 5 @ @ @ @ @ @ @ @ @ ",
"c@c@M@M@c@c@M@c@c@0@m@(#_#}@&#- - ~#b@a@o@%#a@+#$@0@a@- - J@b@p@(+}@*@V+!.5 5 _ g+v+{ l , _ , ,.< B.q.4.U @ @ @ @ @ @ @ @ @ @ @ ",
"++++++++++++++b+#@:#<#^#0@[###~#a@b@o@- - $#a@Z@.#c@W@- - - - o@b@M.$@&+u @ 5 @ @ & # # & 5 @ |+%+L.l.. =.@ 5 @ @ @ @ @ @ @ @ @ ",
" # # # # #x@ #`@Z@##/#/###<#/#b@[@[@a@- - m@0@.#b+O.r@- - - - m@0@[@&@U+H+@ 5 5 @ & S S & 5 5 1+&+u.k.# + @ @ @ @ @ @ @ @ @ @ @ ",
"++++++ #++J.#@@#}#^#$#n@m@m@J@a@0@$@+#m@%#I@M@ # #c@p@- - - - a@0@<@%@T+M+w A+5 @ & S S & 5 @ u D $.p.3.*.w 7 @ @ @ @ @ @ @ @ @ ",
"++++++++++#@:@}#|#[@##a@0@0@b@o@a@+#,#0@b@p@c@x@ #c@p@- - - - o@b@&@$@S+{+E w @ @ & # # & 5 @ >.D K.o.2.&.E F @ @ @ @ @ @ @ @ @ ",
" #J.#@`@J.#@1#2#$@'#+#Z@#@c@W@o@a@+#$@@#%@:@#@ #++c@p@- - - - n@a@:@#@w.T.r+D+F A+g+l l ~ 5 @ 1+$+J.n.1.%.X M F x @ @ @ @ @ @ @ ",
"++3#l@:@#@t.s.,#_#+#=#`@b+c@r@a@0@@#+#%@$@#@J. #++c@p@- - - - m@0@#@b+<+T.Y C+o+w [ , ~ [ 5 @ |+%+I.m.|.$.Y L E w @ @ @ @ @ @ @ ",
"M@4#5#b@[#6#b+7#!#:@#@ #++M@p@a@0@@#%@:@#@++++ #++c@p@R@K@I@p@l@#@U.@@'+&.6.D z+3+u v F x 5 @ |+%+H.l.}.#.X K D v @ 5 @ @ @ @ @ ",
"p@K@%#R@8#l@#@J..##@J.x@++c@p@o@a@%@$@#@b+++++ #++M@p@a@0@c@O.#@b+@@+@{.*.v u 3+z+C D o+F 5 @ }+$+u.k.[.@.W J C u @ 5 @ @ @ @ @ ",
"9#0#a#b#c#d#4##@J.++++ #++c@p@o@a@Z@.#++++++++ #++c@p@p@d@H@++U..+_@ @# G @ @ w E X Y 6.v 5 5 v D G.j.. G V I B t ~ f @ @ @ @ @ ",
"e#f#g#h#i#j#a@:@`@++ # #++M@p@m@0@#@b+++++++++ #++d@p@p@c@++x@@@+@(@.@. + 5 5 A+Q u+r+C u 5 5 u D G.j.. + U H A s ; ~ @ @ @ @ @ ",
"k#l#m#n#o#%#5#l@#@++++ #++M@p@a@[@`@b+++++++++b+`@[@a@I@M@U.@@A.9@(@.@# & @ @ @ @ Q q+n+k+V V [+#+G.j.<.G ~ ; r r n ~ @ @ ( > + ",
"p#q#r#s#t#K@4#3#J.++++ #++c@p@R@b@!#`@++++++++`@Z@a@o@Q@c@@@w@k@8@/@ @# G @ @ @ 5 7 Q m+j+f+c+#+@+G.i.# G [ ~ q q m [ @ @ ~ ; . ",
"- u#v#e#9#p@M@++ #++++ #++c@p@- - p@c@++ # #++c@p@- - P@c@7@!@i.7@G.i.# G @ @ @ @ 5 @ >.D ++b+<+++G.i.# G @ @ @ @ @ @ @ @ & #   "};
