/* XPM */
static char * CornerUL_xpm[] = {
"64 64 429 2",
"  	c #000000",
". 	c #794400",
"+ 	c #B56900",
"@ 	c #D58000",
"# 	c #F19700",
"$ 	c #FFA200",
"% 	c #F29800",
"& 	c #A96100",
"* 	c #683900",
"= 	c #D68100",
"- 	c #C37100",
"; 	c #653700",
"> 	c #915400",
", 	c #C27300",
"' 	c #DD8700",
") 	c #F59A00",
"! 	c #F69B00",
"~ 	c #E18A00",
"{ 	c #B96F00",
"] 	c #724200",
"^ 	c #734300",
"/ 	c #F59B00",
"( 	c #AC6300",
"_ 	c #C07300",
": 	c #E08B00",
"< 	c #FB9F00",
"[ 	c #FDA000",
"} 	c #D28300",
"| 	c #835000",
"1 	c #FC9F00",
"2 	c #E08A00",
"3 	c #F89C00",
"4 	c #FA9E00",
"5 	c #FDA100",
"6 	c #FFA300",
"7 	c #DE8C00",
"8 	c #8C5600",
"9 	c #845000",
"0 	c #FBA000",
"a 	c #E38C00",
"b 	c #E89000",
"c 	c #DF8D00",
"d 	c #8C5700",
"e 	c #744300",
"f 	c #E28B00",
"g 	c #FCA000",
"h 	c #DE8D00",
"i 	c #683A00",
"j 	c #A86000",
"k 	c #C77400",
"l 	c #D17D00",
"m 	c #CF7C00",
"n 	c #E68E00",
"o 	c #E08900",
"p 	c #F49900",
"q 	c #F49A00",
"r 	c #F99E00",
"s 	c #ED9600",
"t 	c #E69100",
"u 	c #E59000",
"v 	c #DC8800",
"w 	c #CC7A00",
"x 	c #8D5700",
"y 	c #D37F00",
"z 	c #F09600",
"A 	c #F29700",
"B 	c #ED9500",
"C 	c #C57900",
"D 	c #AA6600",
"E 	c #A96500",
"F 	c #B06800",
"G 	c #BC6E00",
"H 	c #D78100",
"I 	c #D48000",
"J 	c #DF8B00",
"K 	c #EC9500",
"L 	c #D08100",
"M 	c #9E5D00",
"N 	c #874C00",
"O 	c #9E5E00",
"P 	c #B76E00",
"Q 	c #CC7B00",
"R 	c #E38B00",
"S 	c #D98500",
"T 	c #E18C00",
"U 	c #E88F00",
"V 	c #D68400",
"W 	c #B76F00",
"X 	c #9D5D00",
"Y 	c #854A00",
"Z 	c #CF8000",
"` 	c #E89200",
" .	c #EF9600",
"..	c #E08C00",
"+.	c #C07500",
"@.	c #D88400",
"#.	c #A15E00",
"$.	c #AA6500",
"%.	c #D38400",
"&.	c #E99200",
"*.	c #F39800",
"=.	c #DA8700",
"-.	c #A46100",
";.	c #7F4400",
">.	c #8B4C00",
",.	c #B26A00",
"'.	c #DE8A00",
").	c #D38300",
"!.	c #D27D00",
"~.	c #C77700",
"{.	c #C27400",
"].	c #D98700",
"^.	c #EA9300",
"/.	c #DD8900",
"(.	c #AD6700",
"_.	c #E69000",
":.	c #E79100",
"<.	c #BE7400",
"[.	c #AC6600",
"}.	c #AD6400",
"|.	c #AA6300",
"1.	c #A96600",
"2.	c #B66E00",
"3.	c #CB7A00",
"4.	c #C17300",
"5.	c #975600",
"6.	c #894B00",
"7.	c #A55E00",
"8.	c #BD6F00",
"9.	c #CE7B00",
"0.	c #A86100",
"a.	c #C87500",
"b.	c #C67600",
"c.	c #A66000",
"d.	c #A36000",
"e.	c #CD7A00",
"f.	c #BD6E00",
"g.	c #B06600",
"h.	c #D58100",
"i.	c #874A00",
"j.	c #743E00",
"k.	c #6C3900",
"l.	c #7D4500",
"m.	c #9B5900",
"n.	c #B06500",
"o.	c #A55D00",
"p.	c #894C00",
"q.	c #864900",
"r.	c #9D5900",
"s.	c #AB6200",
"t.	c #B26600",
"u.	c #B36600",
"v.	c #9A5700",
"w.	c #5E3300",
"x.	c #B36700",
"y.	c #A65E00",
"z.	c #8A4C00",
"A.	c #763E00",
"B.	c #9E5A00",
"C.	c #874B00",
"D.	c #6B3900",
"E.	c #7C4400",
"F.	c #9B5800",
"G.	c #8C4D00",
"H.	c #7C4300",
"I.	c #653500",
"J.	c #492300",
"K.	c #482400",
"L.	c #744000",
"M.	c #804500",
"N.	c #753F00",
"O.	c #6E3D00",
"P.	c #764100",
"Q.	c #905000",
"R.	c #915000",
"S.	c #4C2800",
"T.	c #4D2800",
"U.	c #915100",
"V.	c #7F4500",
"W.	c #774000",
"X.	c #773F00",
"Y.	c #7E4400",
"Z.	c #764200",
"`.	c #733E00",
" +	c #6A3800",
".+	c #4F2800",
"++	c #6B3800",
"@+	c #5D3100",
"#+	c #412000",
"$+	c #442300",
"%+	c #5F3400",
"&+	c #7E4900",
"*+	c #9C5D00",
"=+	c #A26200",
"-+	c #945B00",
";+	c #9C5C00",
">+	c #7D4800",
",+	c #7E4800",
"'+	c #A36100",
")+	c #985700",
"!+	c #A36200",
"~+	c #875200",
"{+	c #7E4700",
"]+	c #743F00",
"^+	c #6C3B00",
"/+	c #A36300",
"(+	c #A05F00",
"_+	c #894D00",
":+	c #794100",
"<+	c #4E2700",
"[+	c #4A2500",
"}+	c #7E4600",
"|+	c #9F5B00",
"1+	c #BB7000",
"2+	c #D88600",
"3+	c #E49000",
"4+	c #E08E00",
"5+	c #E38F00",
"6+	c #D78600",
"7+	c #BC7000",
"8+	c #BD7100",
"9+	c #CA7E00",
"0+	c #D18200",
"a+	c #784000",
"b+	c #482500",
"c+	c #C57500",
"d+	c #AB6700",
"e+	c #763F00",
"f+	c #9C5900",
"g+	c #E48D00",
"h+	c #F69A00",
"i+	c #AD6800",
"j+	c #AA6700",
"k+	c #D88700",
"l+	c #BD7300",
"m+	c #FCA100",
"n+	c #C57A00",
"o+	c #BB7200",
"p+	c #D78700",
"q+	c #F79C00",
"r+	c #EA9100",
"s+	c #9D5C00",
"t+	c #C47800",
"u+	c #D98300",
"v+	c #D78200",
"w+	c #DD8600",
"x+	c #EA9200",
"y+	c #CE8000",
"z+	c #D47F00",
"A+	c #FA9F00",
"B+	c #BC7300",
"C+	c #DE8800",
"D+	c #D78500",
"E+	c #E48F00",
"F+	c #CF8100",
"G+	c #9F5E00",
"H+	c #EB9200",
"I+	c #DC8600",
"J+	c #BB6F00",
"K+	c #955B00",
"L+	c #E18E00",
"M+	c #F19900",
"N+	c #EE9500",
"O+	c #E78F00",
"P+	c #D07C00",
"Q+	c #845100",
"R+	c #CB7F00",
"S+	c #C77B00",
"T+	c #B46D00",
"U+	c #AE6900",
"V+	c #B16900",
"W+	c #C77500",
"X+	c #B86E00",
"Y+	c #945A00",
"Z+	c #865100",
"`+	c #7C4600",
" @	c #E69200",
".@	c #A86400",
"+@	c #945300",
"@@	c #B56800",
"#@	c #B46700",
"$@	c #935200",
"%@	c #C47100",
"&@	c #C47200",
"*@	c #AA6200",
"=@	c #6A3B00",
"-@	c #623600",
";@	c #A45E00",
">@	c #834900",
",@	c #603200",
"'@	c #4C2600",
")@	c #4D2700",
"!@	c #6D3A00",
"~@	c #8B4D00",
"{@	c #A75F00",
"]@	c #B86A00",
"^@	c #C06F00",
"/@	c #743D00",
"(@	c #955300",
"_@	c #753E00",
":@	c #8F4F00",
"<@	c #C27000",
"[@	c #693B00",
"}@	c #804600",
"|@	c #5C3000",
"1@	c #5B2F00",
"2@	c #5D3000",
"3@	c #532B00",
"4@	c #A05A00",
"5@	c #B76900",
"6@	c #A05B00",
"7@	c #8E4F00",
"8@	c #995700",
"9@	c #A25D00",
"0@	c #814700",
"a@	c #7E4500",
"b@	c #603500",
"c@	c #683700",
"d@	c #693800",
"e@	c #371A00",
"f@	c #5A2F00",
"g@	c #361A00",
"h@	c #AC6200",
"i@	c #9D5800",
"j@	c #925100",
"k@	c #A25C00",
"l@	c #824900",
"m@	c #512B00",
"n@	c #522A00",
"o@	c #4B2700",
"p@	c #401F00",
"q@	c #673600",
"r@	c #3F1F00",
"s@	c #1D0B00",
"t@	c #351900",
"u@	c #1A0900",
"v@	c #AB6100",
"w@	c #9C5800",
"x@	c #5B3200",
"y@	c #502A00",
"z@	c #A15B00",
"A@	c #B96B00",
"B@	c #B96A00",
"C@	c #B46800",
"D@	c #A85F00",
"E@	c #3E1E00",
"F@	c #7A4200",
"G@	c #A65F00",
"H@	c #4D2900",
"I@	c #1F0C00",
"J@	c #341900",
"K@	c #3E1F00",
"L@	c #784100",
"M@	c #A55F00",
"N@	c #B16700",
"O@	c #693700",
"P@	c #804800",
"Q@	c #764300",
"R@	c #6F3E00",
"S@	c #3D1D00",
"T@	c #3C1D00",
"U@	c #1E0C00",
"V@	c #3D1E00",
"W@	c #663800",
"X@	c #402000",
"Y@	c #AB6300",
"Z@	c #4E2800",
"`@	c #5F3200",
" #	c #6E3A00",
".#	c #7A4100",
"+#	c #6E3B00",
"@#	c #542B00",
"##	c #391C00",
"$#	c #210E00",
"%#	c #3A1C00",
"&#	c #1B0A00",
"*#	c #1C0A00",
"=#	c #301600",
"-#	c #603300",
";#	c #391B00",
">#	c #582E00",
",#	c #4F2900",
"'#	c #633400",
")#	c #613300",
"!#	c #1F0D00",
"~#	c #552C00",
"{#	c #200D00",
"]#	c #301700",
"^#	c #2A1300",
"/#	c #150700",
"(#	c #512900",
"_#	c #291200",
":#	c #5E3100",
"<#	c #381B00",
"[#	c #5B3000",
"}#	c #472300",
"|#	c #582D00",
"1#	c #452300",
"2#	c #502800",
"3#	c #6C3A00",
"4#	c #6F3B00",
"5#	c #703B00",
"6#	c #341800",
"7#	c #592E00",
"8#	c #3B1C00",
"9#	c #311700",
"0#	c #0F1400",
"a#	c #192100",
"b#	c #1F2700",
"c#	c #222B00",
"d#	c #242E00",
"e#	c #1C0B00",
"f#	c #1D2800",
"g#	c #364300",
"h#	c #3C4A00",
"i#	c #3C4B00",
"j#	c #3D4D00",
"k#	c #252F00",
"l#	c #404F00",
"m#	c #465600",
"n#	c #435200",
"o#	c #425100",
"p#	c #252E00",
"q#	c #3E4D00",
"r#	c #415000",
"s#	c #313D00",
"t#	c #293300",
"u#	c #3D4B00",
"v#	c #1F2800",
"  . + @ # $ $ $ $ $ $ $ $ $ $ $ $ $ $ $ $ $ $ $ $ $ $ $ $ % @ & * * & @ % $ $ $ $ $ $ $ $ $ $ $ $ $ $ $ $ $ $ $ $ $ $ $ $ % = - ",
"; > , ' ) $ $ $ $ $ $ $ $ $ $ $ $ $ $ $ $ $ $ $ $ $ $ $ $ ! ~ { ] ^ { ~ ! $ $ $ $ $ $ $ $ $ $ $ $ $ $ $ $ $ $ $ $ $ $ $ $ / ~ @ ",
"( _ : # < $ $ $ $ $ $ $ $ $ $ $ $ $ $ $ $ $ $ $ $ $ $ $ $ [ ) } | | } ) [ $ $ $ $ $ $ $ $ $ $ $ $ $ $ $ $ $ $ $ $ $ $ $ $ 1 ) # ",
"@ 2 ) < 3 4 5 $ $ $ $ $ $ $ $ $ $ $ $ $ $ $ $ $ $ $ $ $ $ 6 $ 7 8 9 } # % ) < $ $ $ $ $ $ $ $ $ $ $ $ $ $ $ $ $ $ $ $ $ $ $ $ $ ",
"# / 0 ) a b 4 $ $ $ $ $ $ $ $ $ $ $ $ $ $ $ $ $ $ $ $ $ $ 6 $ c d e { @ = ~ ) $ $ $ $ $ $ $ $ $ $ $ $ $ $ $ $ $ $ $ $ $ $ $ $ $ ",
"$ $ $ ) 2 f 3 $ $ $ $ $ $ $ $ $ $ $ $ $ $ $ $ $ $ 6 6 g ) ! < h d i j k l ~ ) $ $ $ $ $ $ $ $ $ $ $ $ $ $ $ $ $ $ 6 6 g ) ) < $ ",
"$ $ $ 0 ) ) < $ $ $ $ $ $ $ $ $ $ $ $ $ $ $ $ $ $ $ $ ) ~ f ) h d * j m n ) 1 $ $ $ $ $ $ $ $ $ $ $ $ $ $ $ $ $ $ $ $ ) ~ o p $ ",
"$ $ $ $ $ $ $ $ $ < q ) g $ $ $ $ $ $ $ $ $ $ r s t u v w = # h x ^ { ~ ! $ 6 $ $ < ) ) g $ $ $ $ $ $ $ $ $ $ r s t u v w y z $ ",
"$ $ $ $ $ $ $ $ $ A ' ~ ) $ $ $ $ $ $ $ $ $ $ B C D E F G = # 7 x | } ) [ $ $ $ $ ) ~ ~ ) $ $ $ $ $ $ $ $ $ $ B C D E F G y z $ ",
"$ $ $ $ $ $ $ 0 ) b H I J K r 6 6 6 $ 6 $ 4 B L M N O P Q R ! h x | } ) [ g ! ! g ! f S T B 4 6 6 6 $ 6 $ 4 B L M N O P Q ~ ) $ ",
"$ $ $ $ $ $ $ q 2 ' U V W C K $ $ $ $ $ $ s C X Y X Z `  .! 1 h d ^ { f ! ) ~ ~ ) g ) ..+.C K $ $ $ $ $ $ s C X Y X Z `  .) < $ ",
"$ $ $ $ $ $ $ ) ~ @.T Z #.$.%.u t &. .*.% =.-.;.>.,.'.A % *.A ).9 i & !.U a ~.{.].^. ./.,.(.)._.:.&. .*.% =.-.;.>.,.'.A % A A A ",
"$ $ $ $ $ $ $ g ) ..<.[.}.|.E 1.D 2.3.= @ 4.5.6.7.8.9.= = = @ { ^ i 0.a.l b.c.5.d.P Q e.f.g.[.1.D 2.3.= @ 4.5.6.7.8.9.= = h.@ @ ",
"$ $ $ $ $ $ $ $ $ K C (.g.7.i.j.k.l.m.( n.o.p.q.r.s.n.t.t.u.t.v.w.w.v.u.x.y.z.A.A.p.7.n.s.B.C.j.D.E.F.s.n.o.p.q.r.s.n.t.t.t.x.x.",
"$ $ $ $ $ $ $ $ $ r K %.[.G.H.I.J.K.w.L.C.>.M.N.O.P.C.Q.Q.R.Q.E.S.T.l.U.U.z.V.W.X.Y.z.C.Z.O.`. +.+K.w.L.C.>.M.N.O.P.C.Q.Q.Q.Q.Q.",
"$ $ $ $ $ $ $ $ $ 6 $ u 1.N.++@+#+$+%+&+*+D D =+-+-+=+D D D D ;+>+,+;+'+)+5.'+D D D D !+-+~+{+]+^+] | -+/+D D =+-+-+=+D D (+_+:+",
"$ $ $ $ $ $ $ $ $ 6 $ t D k.<+[+@+}+|+1+2+u t 3+4+4+5+u u t u 6+7+8+6+].{., ]._.t _.u 3+4+9+;+i.B.{ ).4+3+u _.3+4+4+5+t u 0+(+a+",
"$ $ $ $ $ $ $ $ $ 6 $ &.2.l.K.b+E.c.c+' ) $ $ $ $ $ $ $ $ $ $ ) ~ ~ ) ) ~ ~ ) $ $ $ $ 6 $ u D 5.4.~ ! $ 6 $ $ $ $ $ $ 6 6 ` d+e+",
"$ $ $ $ $ $ $ $ $ $ $  .3.m.w.w.f+b.g+*.g 6 6 6 6 6 6 6 6 6 6 g ! ! g g ! h+g 6 6 6 6 6 6 t D -.=.! [ 6 6 6 6 6 6 6 6 6 6 ` i+:+",
"$ $ $ $ $ $ $ $ $ 6 $ *.= ( L.&+1+2 ! $ $ $ $ $ $ $ $ $ $ $ $ $ $ $ $ $ $ $ $ $ $ $ $ 6 $ u D j+u 1 ! # # # # ) < r B t u k+l+D ",
"$ $ $ $ $ $ $ $ $ $ $ % @ n.C.*+2+/ m+$ $ $ $ $ $ $ $ $ $ $ $ $ $ $ $ $ $ $ $ $ $ $ $ 6 $ u D d+u ) f @ I I @ f ) B n+1.E o+p+_.",
"$ $ $ $ $ $ $ $ $ 4 s =.4.o.>.D u $ 6 $ $ 1 q+) % ) < $ $ $ $ $ $ $ $ $ $ $ $ $ $ $ $ 6 $ u D -.2+r+' @ I I @ f ! t D Y s+t+K $ ",
"$ $ $ $ $ $ $ $ $ B C -.5.p.M.D t $ 6 $ $ ) f u+v+~ ) $ $ $ $ $ $ $ $ $ $ $ $ $ $ $ $ 6 $ u D )+4.w+x+# # # # h+< u E X y+K 4 6 ",
"$ $ $ $ $ $ $ r B L X ;.6.q.N.=+3+$ 6 $ $ # z+k e.' q $ $ $ $ $ $ $ $ $ $ $ $ $ $ < ) ! 1 _.d+)+4.~ h+$ $ $ $ A+s 6+B+C K $ 6 $ ",
"$ $ $ $ $ $ $ s C M Y >.7.r.O.-+4+$ 6 $ $ # @ m g+# < $ $ $ $ $ $ $ $ $ $ $ $ $ $ ) ~ f ) u d+'+2+) [ $ 6 6 $ B n+B+6+s A+$ $ $ ",
"$ $ $ $ $ 6 $ t D N X ,.8.s.P.-+4+$ 6 $ $ ) ~ 2 ) $ $ $ $ 6 6 g ) ) g 6 6 6 6 6 $ ) ~ C+r+D+X /+E+$ 6 6 6 A+s F+G+D u $ 6 $ $ $ ",
"$ $ $ $ $ 6 $ u E O Z '.9.n.C.=+5+$ 6 $ $ < ) q 0 $ $ $ $ $ $ ) ~ ~ ) $ $ $ $ $ $ 1 ) H+I+J+,+K+L+$ 6 $ $ s C s+Y 1.t $ 6 $ $ $ ",
"$ $ $ $ $ g ) v F P ` A = t.Q.D u $ 6 $ $ $ $ $ $ $ $ r M+s ` /.e.e./._.t _._.&.N+% # O+P+& * Q+). .^.u L+R+*+W.W.-.=.A % # A A ",
"$ $ $ $ $ ) ~ w G Q  .% = t.Q.D u $ 6 $ $ $ $ $ $ $ $ K S+T+U+V+G G V+D D 1.D 2.3.@ = !.W+j * e { 3.X+/+Y+Z+`+A.a+)+{.@ = @ @ @ ",
"% ! [ 6 6 ! f = = R ! *.= u.R.D t $ 6 $ $ $ $ $ $ 6 $  @.@X.a++@@@#@$@:+a+a+a+Q.x.- %@&@- *@=@-@m.;@>@,@'@)@,@!@e+~@{@]@^@^@]@x.",
"@ ~ ) $ $ < ) # # ! 1 A @ t.Q.D u $ 6 $ $ $ $ $ $ 6 $ t E /@/@(@]@x.Q.e+_@_@e+:@t.<@- - - *@[@T.E.}@|@K.1@2@'@3@!@V.~@4@5@5@6@Q.",
"& { } 7 c h h h 7 h h ).{ v.E.;+6+) g $ $ $ $ $ $ g ) /.V+U.7@8@s.9@0@!@`.a@~@6@]@%@&@^@]@f+b@#+c@d@#+e@f@f@e@g@f@!@e+G.{@h@i@j@",
"* ] | 8 d d d x x x d 9 ^ w.S.>+7+~ ! $ $ $ $ $ $ ) ~ e.G #@x.k@l@=@m@n@!@~@{@]@^@- - ]@6@a@o@p@q@c@r@s@t@g@s@u@t@n@!@V.~@v.v@x.",
"* ^ | 9 e i * ^ | | ^ i i w.T.,+8+~ ! $ $ $ $ $ $ ) ~ e.G #@x.w@x@    y@0@z@A@^@B@C@#@D@G.d@E@e@f@1@e@            r@ +:+F@~@G@#@",
"& { } } { j j { } } { & 0.v.l.;+6+) g $ $ $ $ $ $ g ) /.V+$@Q.}@H@    =@9@]@^@]@6@U.Q.G.V.c@E@I@J@g@I@            K@d@L@:+V.~@j@",
"@ ~ ) # @ k m ~ ) ) f !.a.u.U.'+].) g $ $ $ $ $ $ 6 $ _.D :+e+!@n@S.x@{+M@N@}.f+}+d@c@ +d@1@t@                    J@f@c@d@O@d@d@",
"% ! [ % = l n ! [ [ ! U l x.U.)+{.~ ! $ $ $ $ $ $ 6 $ t D a+_@`.!@}@F.8@P@Q@R@b@o@S@T@E@K@g@U@                    U@g@r@r@K@V@S@",
"$ $ $ ) ~ ~ ) $ $ g ) a b.y.z.5., ~ h+$ $ $ $ $ $ 6 $ _.1.a+_@a@~@z@]@*@W@                s@e@g@s@s@g@X@p@r@r@r@r@r@r@r@r@g@s@  ",
"$ $ $ < ) ) 1 6 $ ! ~ ~.c.z.V.'+].) g $ $ $ $ $ $ 6 $ _.D a+e+~@{@A@^@Y@[@                g@1@f@e@g@f@d@ +d@d@d@d@d@O@d@c@1@g@  ",
"$ $ $ $ $ $ $ $ $ ! ~ {.5.A.W.D _.$ 6 $ $ $ $ $ $ 6 $ &.2.Q.:@6@]@^@]@f+b@            s@e@Z@,@`@Z@)@,@ #e+.#.#:+:+:+:+:+:++#@#r@",
"$ $ $ $ $ $ $ $ $ g ) ].d.A.X.D t $ 6 $ $ $ $ $ $ $ $ N+3.x.t.]@^@B@6@}+o@            e@1@,@Z@Z@,@,@Z@@# #.#F@.#.#.#.#.#.#e++#d@",
"$ $ $ $ $ $ $ < ) ! g ^.P p.Y.D _.$ 6 $ $ $ $ < ) ) 1 % @ - <@%@- C@U.d@S@            ##|@,@Z@Z@`@f@g@g@f@O@d@!@N.:+:+:+:+:+:+:+",
"$ $ $ $ $ $ $ ) ~ f )  .Q 7.z.D u $ 6 $ $ $ $ ) ~ ~ ) # = %@- &@- #@Q.c@T@            $#%#Z@,@,@Z@g@&#*#t@K@r@3@!@:+:+:+:+:+:+.#",
"$ $ $ $ $ $ $ ) ~ S ../.e.n.C.!+3+6 6 6 6 6 6 ! f C+H+O+!.&@- ^@]@D@G. +E@    s@e@g@&#&#=#K.`@-#Z@e@s@    &#e@)@,@!@e+:+:+:+:+.#",
"$ $ $ $ $ $ $ g ) T +.,.f.s.Z.-+4+$ 6 $ $ $ $ 1 ) r+I+P+W+- - ]@6@G.V.d@K@    e@1@1@e@;#f@>#K.Z@,@f@g@    t@f@`@)@3@!@:+:+:+:+:+",
"$ $ $ $ $ $ $ $ $ B C (.g.B.O.~+9+u t u u u u _.u D+J+& j *@*@f+a@d@c@1@g@s@g@Z@,@,@Z@,#'#f@=#%#|@1@e@s@g@Z@)#,@Z@)@,@ #e+e++#d@",
"$ $ $ $ $ $ $ $ $ 4 K ).[.C.`.{+;+D D D D D D d+d+X ,+* * =@[@b@o@E@E@t@U@e@1@,@Z@Z@,@)#,#;#&#$###g@!#e@1@,@Z@Z@`@`@)@@#!@+#~#r@",
"$ $ $ $ $ $ $ $ $ 6 $ _.1.j. +]+i.5.-.j+d+-.)+)+'+/+K+Q+e -@T.#+p@e@I@    g@f@`@Z@Z@,@-#Z@e@&#        g@1@f@g@g@f@f@g@g@f@1@e@  ",
"$ $ $ $ $ $ $ $ $ 6 $ :.D D..+^+B.4.=.u u 2+4.4.2+E+L+).{ m.E.c@q@f@J@    s@e@Z@,@`@Z@Z@,@1@g@        !#e@g@s@s@g@g@s@s@t@g@U@  ",
"$ $ $ $ $ $ $ $ $ 6 $ &.2.E.K.] { ~ ! 1 ) r+w+~ ) $ $  .3.;@}@d@c@1@g@    s@g@)@,@f@g@e@f@1@g@    {#]#^#/#I@e@X@p@r@r@r@r@r@r@r@",
"$ $ $ $ $ $ $ $ $ $ $  .3.F.w.| ).! [ ! f ' x+h+[ 6 6 ^.X+>@|@#+r@e@I@    g@f@,@Z@g@&#s@g@e@!#    %#|@(#_#t@f@d@d@O@d@d@O@O@d@d@",
"$ $ $ $ $ $ $ $ $ 6 $ *.= s.L.-+4+$ 6 # @ @ # $ $ 6 $ u /+,@K.e@s@        X@d@ #@#g@*#    s@e@g@!###:#f@]#<#[#!@e+:+:+:+:+:+:+:+",
"$ $ $ $ $ $ $ $ $ $ $ % @ n.C./+3+6 6 # I I # $ 6 6 $ L+Y+'@1@f@t@        p@ +e+ #f@t@    g@1@1@e@{#<###{#{###@#+#.#F@.#.#.#.#.#",
"$ $ $ $ $ $ $ $ $ 4 s =.4.o.>.D u $ 6 # I I # $ 6 A+s R+Z+)@2@f@g@        r@d@.#.#O@K@&#t@Z@,@f@g@I@t@t@u@*#]#}#`@!@N.:+.#:+:+:+",
"$ $ $ $ $ $ $ $ $ B C -.5.p.M.D _.$ 6 # @ @ # $ $ s C *+`+,@'@e@s@        r@d@.#F@d@r@e@f@)#Z@g@s@e@f@f@g@##1@|#}#3@!@:+:+:+:+:+",
"$ $ $ $ $ $ $ r B L X ;.6.q.N.=+3+$ 6 ) f f h+A+B F+s+W.A.!@3@g@u@        r@d@:+.#!@3@)@`@,@Z@g@s@X@d@!@@#Z@'#,@1#2#!@N.+#!@N..#",
"$ $ $ $ $ $ $ s C M Y >.7.r.O.-+4+$ 6 < ) ! < s n+G+Y W.a+e+!@f@t@        r@d@:+.#N.!@,@)@Z@`@f@g@p@d@e++#-#Z@(#)#D.j.!@3@n@3#:+",
"$ $ $ $ $ 6 $ t D N X ,.8.s.P.-+4+$ 6 r B t u 6+B+D 1.-.)+~@V.!@n@r@K@J@U@r@d@:+.#:+:+!@3@)@`@f@g@r@O@:+.#!@3@~#4#e+5#:#e@6#7#O@",
"$ $ $ $ $ 6 $ u E O Z '.9.n.C.=+5+$ 6 B n+D E B+6+u t =.{.{@~@e+!@ +d@f@g@r@O@:+.#:+:+e+!@,@)@g@s@r@d@:+F@N.!@ #N.!@n@8#U@&#J@r@",
"$ $ $ $ $ g ) v F P ` A = t.Q.D t 6 6 t 1.Y X C s $ $ A @ ]@4@G.V.:+L@c@r@r@d@:+.#:+:+:+:+ #@#g@s@r@d@:+.#:+:+N.!@7#9#0#a#b#c#d#",
"$ $ $ $ $ ) ~ w G Q  .% = t.Q.D u 6 6 u E s+y+K A+6 6 % = ^@5@{@~@F@:+d@r@r@c@:+.#:+:+:+:+e+!@f@t@r@O@:+.#.#:++#3@g@e#f#g#h#i#j#",
"% / 1 $ $ ) o y y ~ ) A h.t.Q.(+0+` ` k+o+t+K $ $ $ $ # @ ^@5@h@v.~@V.O@K@g@1@+#e+:+:+:+:+e++#1@g@r@O@:+.#:+:+!@n@6#&#k#l#m#n#o#",
"= ~ ) $ $ < p z z ) < A @ x.Q._+(+d+i+l+p+K 4 6 $ $ $ A @ ]@6@i@v@G@~@d@V@s@g@@#+#:+:+:+:++#~#e@U@r@d@:+.#:+:+N.3#7#J@p#q#r#s#t#",
"- @ # $ $ $ $ $ $ $ $ A @ x.Q.:+a+e+:+D _.$ 6 $ $ $ $ A @ x.Q.j@x.#@j@d@S@    r@d@:+.#.#:+d@r@    r@d@:+.#:+:+.#:+O@r@d#j#u#v#  "};
