/* XPM */
static char * CornerLL_xpm[] = {
"64 64 429 2",
"  	c #C37100",
". 	c #D58000",
"+ 	c #F19700",
"@ 	c #FFA200",
"# 	c #F29700",
"$ 	c #B36700",
"% 	c #905000",
"& 	c #794100",
"* 	c #784000",
"= 	c #763F00",
"- 	c #AA6600",
"; 	c #E69000",
"> 	c #FFA300",
", 	c #925100",
"' 	c #B46700",
") 	c #693800",
"! 	c #3D1D00",
"~ 	c #000000",
"{ 	c #3F1F00",
"] 	c #7A4100",
"^ 	c #693700",
"/ 	c #242E00",
"( 	c #3D4D00",
"_ 	c #3D4B00",
": 	c #1F2800",
"< 	c #D68100",
"[ 	c #E18A00",
"} 	c #F59A00",
"| 	c #FB9F00",
"1 	c #F49900",
"2 	c #F09600",
"3 	c #894D00",
"4 	c #A05F00",
"5 	c #AB6700",
"6 	c #AD6800",
"7 	c #BD7300",
"8 	c #D78700",
"9 	c #EC9500",
"0 	c #FA9E00",
"a 	c #B86A00",
"b 	c #A05B00",
"c 	c #9D5800",
"d 	c #AB6100",
"e 	c #A65F00",
"f 	c #8B4D00",
"g 	c #3D1E00",
"h 	c #1D0B00",
"i 	c #361A00",
"j 	c #542B00",
"k 	c #6E3B00",
"l 	c #552C00",
"m 	c #371A00",
"n 	c #1E0C00",
"o 	c #753F00",
"p 	c #6C3A00",
"q 	c #592E00",
"r 	c #341900",
"s 	c #252E00",
"t 	c #3E4D00",
"u 	c #415000",
"v 	c #313D00",
"w 	c #293300",
"x 	c #F29800",
"y 	c #F59B00",
"z 	c #FC9F00",
"A 	c #E08900",
"B 	c #D37F00",
"C 	c #D58100",
"D 	c #B26600",
"E 	c #D18200",
"F 	c #E89200",
"G 	c #D88700",
"H 	c #BB7200",
"I 	c #C47800",
"J 	c #C06F00",
"K 	c #B76900",
"L 	c #AC6200",
"M 	c #9A5700",
"N 	c #7F4500",
"O 	c #3E1F00",
"P 	c #5B2F00",
"Q 	c #6D3A00",
"R 	c #522A00",
"S 	c #341800",
"T 	c #1B0A00",
"U 	c #252F00",
"V 	c #404F00",
"W 	c #465600",
"X 	c #435200",
"Y 	c #425100",
"Z 	c #CC7A00",
"` 	c #BC6E00",
" .	c #CC7B00",
"..	c #EF9600",
"+.	c #E59000",
"@.	c #A96500",
"#.	c #9D5C00",
"$.	c #CE8000",
"%.	c #FA9F00",
"&.	c #A75F00",
"*.	c #7A4200",
"=.	c #683700",
"-.	c #5A2F00",
";.	c #351900",
">.	c #532B00",
",.	c #1C0B00",
"'.	c #1D2800",
").	c #364300",
"!.	c #3C4A00",
"~.	c #3C4B00",
"{.	c #FCA000",
"].	c #DC8800",
"^.	c #B06800",
"/.	c #B76E00",
"(.	c #E69100",
"_.	c #A96600",
":.	c #854A00",
"<.	c #9D5D00",
"[.	c #C57900",
"}.	c #ED9600",
"|.	c #A05A00",
"1.	c #8C4D00",
"2.	c #784100",
"3.	c #6E3A00",
"4.	c #311700",
"5.	c #0F1400",
"6.	c #192100",
"7.	c #1F2700",
"8.	c #222B00",
"9.	c #9E5E00",
"0.	c #CF8000",
"a.	c #DE8A00",
"b.	c #CE7B00",
"c.	c #B06500",
"d.	c #874B00",
"e.	c #A26200",
"f.	c #E38F00",
"g.	c #ED9500",
"h.	c #C57A00",
"i.	c #BC7300",
"j.	c #D78600",
"k.	c #DA8700",
"l.	c #C27400",
"m.	c #6A3800",
"n.	c #603200",
"o.	c #4D2700",
"p.	c #3B1C00",
"q.	c #874C00",
"r.	c #B26A00",
"s.	c #BD6F00",
"t.	c #AB6200",
"u.	c #764100",
"v.	c #945B00",
"w.	c #E08E00",
"x.	c #F99E00",
"y.	c #A46100",
"z.	c #985700",
"A.	c #5F3200",
"B.	c #6F3B00",
"C.	c #703B00",
"D.	c #5E3100",
"E.	c #9E5D00",
"F.	c #8B4C00",
"G.	c #A55E00",
"H.	c #9D5900",
"I.	c #6E3D00",
"J.	c #F69B00",
"K.	c #9F5E00",
"L.	c #774000",
"M.	c #4E2800",
"N.	c #401F00",
"O.	c #603300",
"P.	c #512900",
"Q.	c #613300",
"R.	c #6B3900",
"S.	c #743E00",
"T.	c #D08100",
"U.	c #7F4400",
"V.	c #894B00",
"W.	c #864900",
"X.	c #E49000",
"Y.	c #E28B00",
"Z.	c #F69A00",
"`.	c #CF8100",
" +	c #763E00",
".+	c #1A0900",
"++	c #402000",
"@+	c #633400",
"#+	c #452300",
"$+	c #502800",
"%+	c #975600",
"&+	c #894C00",
"*+	c #804500",
"=+	c #9C5D00",
"-+	c #7C4600",
";+	c #4C2600",
">+	c #391C00",
",+	c #582D00",
"'+	c #472300",
")+	c #C17300",
"!+	c #A55D00",
"~+	c #D48000",
"{+	c #CB7F00",
"]+	c #865100",
"^+	c #5D3000",
"/+	c #1F0C00",
"(+	c #1C0A00",
"_+	c #301700",
":+	c #A36300",
"<+	c #E18E00",
"[+	c #945A00",
"}+	c #200D00",
"|+	c #381B00",
"1+	c #F39800",
"2+	c #744000",
"3+	c #482400",
"4+	c #1F0D00",
"5+	c #5B3000",
"6+	c #CB7A00",
"7+	c #9B5800",
"8+	c #5E3300",
"9+	c #835000",
"0+	c #D38300",
"a+	c #FDA000",
"b+	c #DD8700",
"c+	c #EA9200",
"d+	c #EA9300",
"e+	c #B86E00",
"f+	c #834900",
"g+	c #5C3000",
"h+	c #412000",
"i+	c #3A1C00",
"j+	c #291200",
"k+	c #E99200",
"l+	c #B66E00",
"m+	c #7C4400",
"n+	c #724200",
"o+	c #B96F00",
"p+	c #EA9100",
"q+	c #DD8600",
"r+	c #A45E00",
"s+	c #804600",
"t+	c #2A1300",
"u+	c #150700",
"v+	c #E79100",
"w+	c #4F2800",
"x+	c #6C3B00",
"y+	c #9E5A00",
"z+	c #D88600",
"A+	c #E48F00",
"B+	c #9B5900",
"C+	c #673600",
"D+	c #743F00",
"E+	c #874A00",
"F+	c #AA6700",
"G+	c #A36100",
"H+	c #955B00",
"I+	c #845100",
"J+	c #744300",
"K+	c #623600",
"L+	c #4D2800",
"M+	c #AC6600",
"N+	c #733E00",
"O+	c #7E4700",
"P+	c #9C5C00",
"Q+	c #7E4800",
"R+	c #683900",
"S+	c #6A3B00",
"T+	c #693B00",
"U+	c #603500",
"V+	c #4B2700",
"W+	c #3E1E00",
"X+	c #4F2900",
"Y+	c #391B00",
"Z+	c #210E00",
"`+	c #AD6700",
" @	c #B06600",
".@	c #875200",
"+@	c #CA7E00",
"@@	c #D78500",
"#@	c #BB6F00",
"$@	c #A96100",
"%@	c #A86000",
"&@	c #AA6200",
"*@	c #9C5900",
"=@	c #7E4500",
"-@	c #301600",
";@	c #E18C00",
">@	c #C07500",
",@	c #BD6E00",
"'@	c #764200",
")@	c #DC8600",
"!@	c #D07C00",
"~@	c #C77500",
"{@	c #582E00",
"]@	c #D98500",
"^@	c #E08C00",
"/@	c #DD8900",
"(@	c #CD7A00",
"_@	c #A36200",
":@	c #DE8800",
"<@	c #EB9200",
"[@	c #E78F00",
"}@	c #D27D00",
"|@	c #C47200",
"1@	c #A85F00",
"2@	c #8A4C00",
"3@	c #C47100",
"4@	c #3C1D00",
"5@	c #7E4400",
"6@	c #C27000",
"7@	c #B46800",
"8@	c #915100",
"9@	c #D98700",
"0@	c #A36000",
"a@	c #773F00",
"b@	c #EE9500",
"c@	c #B96A00",
"d@	c #7E4600",
"e@	c #8F4F00",
"f@	c #C77700",
"g@	c #A66000",
"h@	c #B96B00",
"i@	c #AB6300",
"j@	c #E38C00",
"k@	c #C67600",
"l@	c #A65E00",
"m@	c #C27300",
"n@	c #753E00",
"o@	c #A15B00",
"p@	c #663800",
"q@	c #D17D00",
"r@	c #E68E00",
"s@	c #E88F00",
"t@	c #995700",
"u@	c #804800",
"v@	c #764300",
"w@	c #6F3E00",
"x@	c #C77400",
"y@	c #CF7C00",
"z@	c #C87500",
"A@	c #B36600",
"B@	c #4C2800",
"C@	c #5B3200",
"D@	c #A55F00",
"E@	c #B16700",
"F@	c #AD6400",
"G@	c #D28300",
"H@	c #A86100",
"I@	c #7D4500",
"J@	c #B16900",
"K@	c #935200",
"L@	c #4D2900",
"M@	c #A25D00",
"N@	c #734300",
"O@	c #845000",
"P@	c #683A00",
"Q@	c #BD7100",
"R@	c #9C5800",
"S@	c #502A00",
"T@	c #814700",
"U@	c #8C5600",
"V@	c #8C5700",
"W@	c #8D5700",
"X@	c #7D4800",
"Y@	c #BC7000",
"Z@	c #A25C00",
"`@	c #824900",
" #	c #512B00",
".#	c #DE8C00",
"+#	c #DF8D00",
"@#	c #DE8D00",
"##	c #8E4F00",
"$#	c #743D00",
"%#	c #955300",
"&#	c #E38B00",
"*#	c #915000",
"=#	c #E69200",
"-#	c #A86400",
";#	c #945300",
">#	c #B56800",
",#	c #C77B00",
"'#	c #B46D00",
")#	c #AE6900",
"!#	c #F19900",
"~#	c #F49A00",
"{#	c #FBA000",
"]#	c #E08A00",
"^#	c #E48D00",
"/#	c #D47F00",
"(#	c #D98300",
"_#	c #D78200",
":#	c #F79C00",
"<#	c #FCA100",
"[#	c #AC6300",
"}#	c #7E4900",
"|#	c #BB7000",
"1#	c #482500",
"2#	c #C57500",
"3#	c #6C3900",
"4#	c #4E2700",
"5#	c #4A2500",
"6#	c #5D3100",
"7#	c #9F5B00",
"8#	c #6B3800",
"9#	c #442300",
"0#	c #5F3400",
"a#	c #D38400",
"b#	c #7C4300",
"c#	c #653500",
"d#	c #492300",
"e#	c #BE7400",
"f#	c #AA6300",
"g#	c #D88400",
"h#	c #A15E00",
"i#	c #AA6500",
"j#	c #D68400",
"k#	c #B76F00",
"l#	c #E89000",
"m#	c #D78100",
"n#	c #DF8B00",
"o#	c #F89C00",
"p#	c #FDA100",
"q#	c #C07300",
"r#	c #E08B00",
"s#	c #653700",
"t#	c #915400",
"u#	c #794400",
"v#	c #B56900",
"  . + @ @ @ @ @ @ @ @ # . $ % & * = & - ; @ > @ @ @ @ # . $ % , $ ' , ) ! ~ ~ { ) & ] ] & ) { ~ ~ { ) & ] & & ] & ^ { / ( _ : ~ ",
"< [ } @ @ | 1 2 2 } | # . $ % 3 4 5 6 7 8 9 0 > @ @ @ # . a b c d e f ) g h i j k & & & & k l m n { ) & ] & & o p q r s t u v w ",
"x y z @ @ } A B B [ } # C D % 4 E F F G H I 9 @ @ @ @ + . J K L M f N ^ O i P k = & & & & = k P i { ^ & ] & & Q R S T U V W X Y ",
"@ @ @ @ @ } [ Z `  ...x < D % - +.> > +.@.#.$.9 %.> > x < J K &.f *.& ) { { =.& ] & & & & = Q -.;.{ ^ & ] ] & k >.i ,.'.).!.~.( ",
"@ @ @ @ @ {.} ].^./.F # < D % - (.> > (._.:.<.[.}.@ @ # . a |.1.N & 2.=.{ { ) & ] & & & & 3.j i h { ) & ] & & o Q q 4.5.6.7.8./ ",
"@ @ @ @ @ > @ +.@.9.0.a.b.c.d.e.f.@ > g.h.- @.i.j.+.(.k.l.&.f = Q m.) -.i { ^ & ] & & = Q n.o.i h { ) & *.o Q 3.o Q R p.n T r { ",
"@ @ @ @ @ > @ (.- q.<.r.s.t.u.v.w.@ > x.g.(.+.j.i.- _.y.z.f N Q R { O r n { ) & ] & & Q >.o.A.-.i { ^ & ] Q >.l B.= C.D.m S q ^ ",
"@ @ @ @ @ @ @ }.[.E.:.F.G.H.I.v.w.@ > | } J.| }.h.K.:.L.* = Q -.;.~ ~ ~ ~ { ) & ] o Q n.o.M.A.-.i N.) = k O.M.P.Q.R.S.Q >.R p & ",
"@ @ @ @ @ @ @ x.g.T.<.U.V.W.o e.X.@ > } Y.Y.Z.%.g.`.#.L. +Q >.i .+~ ~ ~ ~ { ) & ] Q >.o.A.n.M.i h ++) Q j M.@+n.#+$+Q o k Q o ] ",
"@ @ @ @ @ @ @ @ @ g.[.y.%+&+*+- ; @ > + . . + @ @ }.[.=+-+n.;+m h ~ ~ ~ ~ { ) ] *.) { m -.Q.M.i h m -.-.i >+P ,+'+>.Q & & & & & ",
"@ @ @ @ @ @ @ @ @ 0 }.k.)+!+F.- +.@ > + ~+~++ @ > %.}.{+]+o.^+-.i ~ ~ ~ ~ { ) ] ] ^ O T ;.M.n.-.i /+;.;..+(+_+'+A.Q o & ] & & & ",
"@ @ @ @ @ @ @ @ @ @ @ x . c.d.:+X.> > + ~+~++ @ > > @ <+[+;+P -.;.~ ~ ~ ~ N.m.= 3.-.;.~ ~ i P P m }+|+>+}+}+>+j k ] *.] ] ] ] ] ",
"@ @ @ @ @ @ @ @ @ > @ 1+< t.2+v.w.@ > + . . + @ @ > @ +.:+n.3+m h ~ ~ ~ ~ ++) 3.j i (+~ ~ h m i 4+>+D.-._+|+5+Q = & & & & & & & ",
"@ @ @ @ @ @ @ @ @ @ @ ..6+7+8+9+0+J.a+J.Y.b+c+Z.a+> > d+e+f+g+h+{ m /+~ ~ i -.n.M.i T h i m 4+~ ~ i+g+P.j+;.-.) ) ^ ) ) ^ ^ ) ) ",
"@ @ @ @ @ @ @ @ @ > @ k+l+m+3+n+o+[ J.z } p+q+[ } @ @ ..6+r+s+) =.P i ~ ~ h i o.n.-.i m -.P i ~ ~ }+_+t+u+/+m ++N.{ { { { { { { ",
"@ @ @ @ @ @ @ @ @ > @ v+- R.w+x+y+)+k.+.+.z+)+)+z+A+<+0+o+B+m+=.C+-.r ~ ~ h m M.n.A.M.M.n.P i ~ ~ ~ ~ 4+m i h h i i h h ;.i n ~ ",
"@ @ @ @ @ @ @ @ @ > @ ; _.S.m.D+E+%+y.F+5 y.z.z.G+:+H+I+J+K+L+h+N.m /+~ ~ i -.A.M.M.n.O.M.m T ~ ~ ~ ~ i P -.i i -.-.i i -.P m ~ ",
"@ @ @ @ @ @ @ @ @ 0 9 0+M+d.N+O+P+- - - - - - 5 5 <.Q+R+R+S+T+U+V+W+W+;.n m P n.M.M.n.Q.X+Y+T Z+>+i 4+m P n.M.M.A.A.o.j Q k l { ",
"@ @ @ @ @ @ @ @ @ g.[.`+ @y+I..@+@+.(.+.+.+.+.; +.@@#@$@%@&@&@*@=@) =.P i h i M.n.n.M.X+@+-.-@i+g+P m h i M.Q.n.M.o.n.3.= = k ) ",
"@ @ @ @ @ @ @ {.} ;@>@r.,@t.'@v.w.@ > @ @ @ @ z } p+)@!@~@    a b 1.N ) O ~ ~ m P P m Y+-.{@3+M.n.-.i ~ ~ ;.-.A.o.>.Q & & & & & ",
"@ @ @ @ @ @ @ } [ ]@^@/@(@c.d._@X.> > > > > > J.Y.:@<@[@}@|@  J a 1@1.m.W+~ ~ h m i T T -@3+A.O.M.m h ~ ~ T m o.n.Q = & & & & ] ",
"@ @ @ @ @ @ @ } [ Y.} .. .G.2@- +.@ > @ @ @ @ } [ [ } + < 3@  |@  ' % =.4@~ ~ ~ ~ ~ ~ Z+i+M.n.n.M.i T (+;.O { >.Q & & & & & & ] ",
"@ @ @ @ @ @ @ | } J.{.d+/.&+5@- ; @ > @ @ @ @ | } } z x .   6@3@  7@8@) ! ~ ~ ~ ~ ~ ~ >+g+n.M.M.A.-.i i -.^ ) Q o & & & & & & & ",
"@ @ @ @ @ @ @ @ @ {.} 9@0@ +a@- (.@ > @ @ @ @ @ @ @ @ b@6+$ D a J c@b d@V+~ ~ ~ ~ ~ ~ m P n.M.M.n.n.M.j 3.] *.] ] ] ] ] ] = k ) ",
"@ @ @ @ @ @ @ @ @ J.[ l.%+ +L.- ; @ > @ @ @ @ @ @ > @ k+l+% e@b a J a *@U+~ ~ ~ ~ ~ ~ h m M.n.A.M.o.n.3.= ] ] & & & & & & k j { ",
"@ @ @ | } } z > @ J.[ f@g@2@N G+9@} {.@ @ @ @ @ @ > @ ; - * = f &.h@J i@T+~ ~ ~ ~ ~ ~ ~ ~ i P -.m i -.) m.) ) ) ) ) ^ ) =.P i ~ ",
"@ @ @ } [ [ } @ @ {.} j@k@l@2@%+m@[ Z.@ @ @ @ @ @ > @ ; _.* n@=@f o@a &@p@~ ~ ~ ~ ~ ~ ~ ~ h m i h h i ++N.{ { { { { { { { i h ~ ",
"x J.a+x < q@r@J.a+a+J.s@q@$ 8@z.l.[ J.@ @ @ @ @ @ > @ (.- * n@N+Q s+7+t@u@v@w@U+V+! 4@W+O i n ~ ~ ~ ~ ~ ~ ~ ~ ~ ~ n i { { O g ! ",
". [ } + . x@y@[ } } Y.}@z@A@8@G+9@} {.@ @ @ @ @ @ > @ ; - & = Q R B@C@O+D@E@F@*@d@) =.m.) P ;.~ ~ ~ ~ ~ ~ ~ ~ ~ ~ r -.=.) ^ ) ) ",
"$@o+G@G@o+%@%@o+G@G@o+$@H@M I@P+j.} {.@ @ @ @ @ @ {.} /@J@K@% s+L@~ ~ S+M@a J a b 8@% 1.N =.W+/+r i /+~ ~ ~ ~ ~ ~ O ) 2.& N f , ",
"R+N@9+O@J+P@R+N@9+9+N@P@P@8+L+Q+Q@[ J.@ @ @ @ @ @ } [ (@` ' $ R@C@~ ~ S@T@o@h@J c@7@' 1@1.) W+m -.P m ~ ~ ~ ~ ~ ~ { m.& *.f e ' ",
"R+n+9+U@V@V@V@W@W@W@V@O@N@8+B@X@Y@[ J.@ @ @ @ @ @ } [ (@` ' $ Z@`@S+ #R Q f &.a J     a b =@V+N.C+=.{ h ;.i h .+;.R Q N f M d $ ",
"$@o+G@.#+#@#@#@#.#@#@#0+o+M m+P+j.} {.@ @ @ @ @ @ {.} /@J@8@##t@t.M@T@Q N+=@f b a 3@|@J a *@U+h+=.) h+m -.-.m i -.Q = 1.&.L c , ",
". [ } @ @ | } + + J.z # . D % - +.@ > @ @ @ @ @ @ > @ (.@.$#$#%#a $ % = n@n@= e@D 6@      &@T+L+m+s+g+3+P ^+;+>.Q N f |.K K b % ",
"x J.a+> > J.Y.< < &#J.1+< A@*#- (.@ > @ @ @ @ @ @ > @ =#-#a@* ;#>#' K@& * * * % $   3@|@  &@S+K+B+r+f+n.;+o.n.Q = f &.a J J a $ ",
"@ @ @ @ @ } [ Z `  ...x < D % - +.@ > @ @ @ @ @ @ @ @ 9 ,#'#)#J@` ` J@- - _.- l+6+. < }@~@%@R+J+o+6+e+:+[+]+-+ +* z.l.. < . . . ",
"@ @ @ @ @ {.} ].^./.F # < D % - +.@ > @ @ @ @ @ @ @ @ x.!#}.F /@(@(@/@; (.; ; k+b@x + [@!@$@R+I+0+..d++.<+{+=+L.L.y.k.# x + # # ",
"@ @ @ @ @ > @ +.@.9.0.a.b.c.d.e.f.@ > @ @ | } ~#{#@ @ @ @ @ @ } [ [ } @ @ @ @ @ @ z } <@)@#@Q+H+<+@ > @ @ }.[.#.:._.(.@ > @ @ @ ",
"@ @ @ @ @ > @ (.- q.<.r.s.t.u.v.w.@ > @ @ } [ ]#} @ @ @ @ > > {.} } {.> > > > > @ } [ :@p+@@<.:+A+@ > > > %.}.`.K.- +.@ > @ @ @ ",
"@ @ @ @ @ @ @ }.[.E.:.F.G.H.I.v.w.@ > @ @ + . y@^#+ | @ @ @ @ @ @ @ @ @ @ @ @ @ @ } [ Y.} +.5 G+z+} a+@ > > @ g.h.i.j.}.%.@ @ @ ",
"@ @ @ @ @ @ @ x.g.T.<.U.V.W.o e.X.@ > @ @ + /#x@(@b+~#@ @ @ @ @ @ @ @ @ @ @ @ @ @ | } J.z ; 5 z.)+[ Z.@ @ @ @ %.}.j.i.[.9 @ > @ ",
"@ @ @ @ @ @ @ @ @ g.[.y.%+&+*+- (.@ > @ @ } Y.(#_#[ } @ @ @ @ @ @ @ @ @ @ @ @ @ @ @ @ > @ +.- z.)+q+c++ + + + Z.| +.@.<.$.9 0 > ",
"@ @ @ @ @ @ @ @ @ 0 }.k.)+!+F.- +.@ > @ @ z :#} x } | @ @ @ @ @ @ @ @ @ @ @ @ @ @ @ @ > @ +.- y.z+p+b+. ~+~+. Y.J.(.- :.#.I 9 @ ",
"@ @ @ @ @ @ @ @ @ @ @ x . c.d.=+z+y <#@ @ @ @ @ @ @ @ @ @ @ @ @ @ @ @ @ @ @ @ @ @ @ @ > @ +.- 5 +.} Y.. ~+~+. Y.} g.h._.@.H 8 ; ",
"@ @ @ @ @ @ @ @ @ > @ 1+< [#2+}#|#]#J.@ @ @ @ @ @ @ @ @ @ @ @ @ @ @ @ @ @ @ @ @ @ @ @ > @ +.- F++.z J.+ + + + } | x.g.(.+.G 7 - ",
"@ @ @ @ @ @ @ @ @ @ @ ..6+B+8+8+*@k@^#1+{.> > > > > > > > > > {.J.J.{.{.J.Z.{.> > > > > > (.- y.k.J.a+> > > > > > > > > > F 6 & ",
"@ @ @ @ @ @ @ @ @ > @ k+l+I@3+1#m+g@2#b+} @ @ @ @ @ @ @ @ @ @ } [ [ } } [ [ } @ @ @ @ > @ +.- %+)+[ J.@ > @ @ @ @ @ @ > > F 5 = ",
"@ @ @ @ @ @ @ @ @ > @ (.- 3#4#5#6#d@7#|#z++.(.X.w.w.f.+.+.(.+.j.Y@Q@j.9@l.m@9@; (.; +.X.w.+@P+E+y+o+0+w.X.+.; X.w.w.f.(.+.E 4 * ",
"@ @ @ @ @ @ @ @ @ > @ +._.o 8#6#h+9#0#}#=+- - e.v.v.e.- - - - P+X@Q+P+G+z.%+G+- - - - _@v..@O+D+x+n+9+v.:+- - e.v.v.e.- - 4 3 & ",
"@ @ @ @ @ @ @ @ @ x.9 a#M+1.b#c#d#3+8+2+d.F.*+o I.u.d.% % *#% m+B@L+I@8@8@2@N L.a@5@2@d.'@I.N+m.w+3+8+2+d.F.*+o I.u.d.% % % % % ",
"@ @ @ @ @ @ @ @ @ 9 [.`+ @G.E+S.3#I@B+[#c.!+&+W.H.t.c.D D A@D M 8+8+M A@$ l@2@ + +&+G.c.t.y+d.S.R.m+7+t.c.!+&+W.H.t.c.D D D $ $ ",
"@ @ @ @ @ @ @ {.} ^@e#M+F@f#@._.- l+6+< . )+%+V.G.s.b.< < < . o+N@P@H@z@q@k@g@%+0@/. .(@,@ @M+_.- l+6+< . )+%+V.G.s.b.< < C . . ",
"@ @ @ @ @ @ @ } [ g#;@0.h#i#a#+.(.k+..1+x k.y.U.F.r.a.# x 1+# 0+O@P@$@}@s@j@f@l.9@d+../@r.`+0+; v+k+..1+x k.y.U.F.r.a.# x # # # ",
"@ @ @ @ @ @ @ ~#]#b+s@j#k#[.9 @ @ @ @ @ @ }.[.<.:.<.0.F ..J.z @#V@N@o+Y.J.} [ [ } {.} ^@>@[.9 @ @ @ @ @ @ }.[.<.:.<.0.F ..} | @ ",
"@ @ @ @ @ @ @ {#} l#m#~+n#9 x.> > > @ > @ 0 g.T.E.q.9./. .&#J.@#W@9+G@} a+{.J.J.{.J.Y.]@;@g.0 > > > @ > @ 0 g.T.E.q.9./. .[ } @ ",
"@ @ @ @ @ @ @ @ @ # b+[ } @ @ @ @ @ @ @ @ @ @ g.[.- @.^.` < + .#W@9+G@} a+@ @ @ @ } [ [ } @ @ @ @ @ @ @ @ @ @ g.[.- @.^.` B 2 @ ",
"@ @ @ @ @ @ @ @ @ | ~#} {.@ @ @ @ @ @ @ @ @ @ x.}.(.+.].Z < + @#W@N@o+[ J.@ > @ @ | } } {.@ @ @ @ @ @ @ @ @ @ x.}.(.+.].Z B 2 @ ",
"@ @ @ {#} } | @ @ @ @ @ @ @ @ @ @ @ @ @ @ @ @ @ @ @ @ } [ Y.} @#V@R+%@y@r@} z @ @ @ @ @ @ @ @ @ @ @ @ @ @ @ @ @ @ @ @ } [ A 1 @ ",
"@ @ @ } ]#Y.o#@ @ @ @ @ @ @ @ @ @ @ @ @ @ @ @ @ @ > > {.} J.| @#V@P@%@x@q@[ } @ @ @ @ @ @ @ @ @ @ @ @ @ @ @ @ @ @ > > {.} } | @ ",
"+ y {#} j@l#0 @ @ @ @ @ @ @ @ @ @ @ @ @ @ @ @ @ @ @ @ @ @ > @ +#V@J+o+. < [ } @ @ @ @ @ @ @ @ @ @ @ @ @ @ @ @ @ @ @ @ @ @ @ @ @ ",
". ]#} | o#0 p#@ @ @ @ @ @ @ @ @ @ @ @ @ @ @ @ @ @ @ @ @ @ > @ .#U@O@G@+ x } | @ @ @ @ @ @ @ @ @ @ @ @ @ @ @ @ @ @ @ @ @ @ @ @ @ ",
"[#q#r#+ | @ @ @ @ @ @ @ @ @ @ @ @ @ @ @ @ @ @ @ @ @ @ @ @ a+} G@9+9+G@} a+@ @ @ @ @ @ @ @ @ @ @ @ @ @ @ @ @ @ @ @ @ @ @ @ z } + ",
"s#t#m@b+} @ @ @ @ @ @ @ @ @ @ @ @ @ @ @ @ @ @ @ @ @ @ @ @ J.[ o+n+N@o+[ J.@ @ @ @ @ @ @ @ @ @ @ @ @ @ @ @ @ @ @ @ @ @ @ @ y [ . ",
"~ u#v#. + @ @ @ @ @ @ @ @ @ @ @ @ @ @ @ @ @ @ @ @ @ @ @ @ x . $@R+R+$@. x @ @ @ @ @ @ @ @ @ @ @ @ @ @ @ @ @ @ @ @ @ @ @ @ x <   "};
