/* XPM */
static char * CornerLR_xpm[] = {
"64 64 407 2",
"  	c #000000",
". 	c #3F1F00",
"+ 	c #693800",
"@ 	c #794100",
"# 	c #7A4100",
"$ 	c #683700",
"% 	c #391A00",
"& 	c #AA6600",
"* 	c #E69100",
"= 	c #FFA200",
"- 	c #FFA300",
"; 	c #F29800",
"> 	c #D58000",
", 	c #AA6200",
"' 	c #683900",
") 	c #242E00",
"! 	c #252E00",
"~ 	c #1E2600",
"{ 	c #0F1400",
"] 	c #0F1500",
"^ 	c #1F2700",
"/ 	c #3D1D00",
"( 	c #673600",
"_ 	c #7D4400",
": 	c #8A4C00",
"< 	c #975600",
"[ 	c #A46100",
"} 	c #905000",
"| 	c #8B4C00",
"1 	c #7F4500",
"2 	c #6C3900",
"3 	c #522A00",
"4 	c #502800",
"5 	c #6D3A00",
"6 	c #A36100",
"7 	c #DA8700",
"8 	c #F59A00",
"9 	c #FCA000",
"0 	c #F69B00",
"a 	c #E18A00",
"b 	c #BB7000",
"c 	c #734300",
"d 	c #3F4D00",
"e 	c #354200",
"f 	c #364200",
"g 	c #3D1E00",
"h 	c #A75F00",
"i 	c #C27400",
"j 	c #B46700",
"k 	c #B36700",
"l 	c #8B4D00",
"m 	c #753F00",
"n 	c #F69A00",
"o 	c #FDA000",
"p 	c #D38400",
"q 	c #835000",
"r 	c #3D4D00",
"s 	c #3E4D00",
"t 	c #344100",
"u 	c #1B2500",
"v 	c #1C2500",
"w 	c #5A3400",
"x 	c #955900",
"y 	c #B66E00",
"z 	c #CC7B00",
"A 	c #D48000",
"B 	c #C67600",
"C 	c #A66000",
"D 	c #774000",
"E 	c #784000",
"F 	c #7D4C00",
"G 	c #C97E00",
"H 	c #E99200",
"I 	c #F09600",
"J 	c #F29700",
"K 	c #E48D00",
"L 	c #784100",
"M 	c #351900",
"N 	c #1C0A00",
"O 	c #401F00",
"P 	c #402000",
"Q 	c #371A00",
"R 	c #1D0B00",
"S 	c #D38300",
"T 	c #7E4400",
"U 	c #B76E00",
"V 	c #693700",
"W 	c #5A2E00",
"X 	c #351800",
"Y 	c #6A3800",
"Z 	c #5B2F00",
"` 	c #361800",
" .	c #E28B00",
"..	c #A65E00",
"+.	c #CB7A00",
"@.	c #EF9600",
"#.	c #AA6100",
"$.	c #673900",
"%.	c #532B00",
"&.	c #603200",
"*.	c #4D2700",
"=.	c #A55E00",
"-.	c #CA7A00",
";.	c #FC9F00",
">.	c #E78F00",
",.	c #D07C00",
"'.	c #6E3A00",
").	c #6E3B00",
"!.	c #542B00",
"~.	c #4E2800",
"{.	c #D17D00",
"].	c #C77500",
"^.	c #693A00",
"/.	c #5F3200",
"(.	c #5A2F00",
"_.	c #361A00",
":.	c #C77400",
"<.	c #683A00",
"[.	c #7A4200",
"}.	c #1F0C00",
"|.	c #412000",
"1.	c #B06500",
"2.	c #874B00",
"3.	c #B16600",
"4.	c #BA6F00",
"5.	c #724200",
"6.	c #763F00",
"7.	c #AC6300",
"8.	c #744000",
"9.	c #C17000",
"0.	c #C37100",
"a.	c #AB6200",
"b.	c #6C3B00",
"c.	c #9F5A00",
"d.	c #E08E00",
"e.	c #8C5700",
"f.	c #693B00",
"g.	c #C27000",
"h.	c #F19700",
"i.	c #723D00",
"j.	c #1F0D00",
"k.	c #744300",
"l.	c #D68100",
"m.	c #DC8600",
"n.	c #EA9100",
"o.	c #C07300",
"p.	c #8F5200",
"q.	c #663500",
"r.	c #965900",
"s.	c #CE8000",
"t.	c #E59000",
"u.	c #C37B00",
"v.	c #794A00",
"w.	c #845000",
"x.	c #DD8700",
"y.	c #D58500",
"z.	c #8D5500",
"A.	c #381900",
"B.	c #683B00",
"C.	c #975A00",
"D.	c #AB6700",
"E.	c #A36300",
"F.	c #945B00",
"G.	c #794B00",
"H.	c #492B00",
"I.	c #DF8D00",
"J.	c #341A00",
"K.	c #562E00",
"L.	c #754100",
"M.	c #884B00",
"N.	c #915100",
"O.	c #5A3100",
"P.	c #613300",
"Q.	c #FB9F00",
"R.	c #925300",
"S.	c #B16500",
"T.	c #B26600",
"U.	c #935300",
"V.	c #D48400",
"W.	c #C87500",
"X.	c #1B0A00",
"Y.	c #BF7200",
"Z.	c #E68E00",
"`.	c #F39800",
" +	c #3E1F00",
".+	c #8C5600",
"++	c #B36600",
"@+	c #E99300",
"#+	c #874A00",
"$+	c #6B3A00",
"%+	c #9D5900",
"&+	c #341900",
"*+	c #1E0C00",
"=+	c #3E1E00",
"-+	c #3C1D00",
";+	c #4B2700",
">+	c #603500",
",+	c #6A3B00",
"'+	c #6B3B00",
")+	c #5C3300",
"!+	c #371C00",
"~+	c #7E4600",
"{+	c #955500",
"]+	c #5B3200",
"^+	c #925100",
"/+	c #8C4D00",
"(+	c #A05B00",
"_+	c #B86A00",
":+	c #C06F00",
"<+	c #5F3400",
"[+	c #7B4B00",
"}+	c #ED9500",
"|+	c #FA9E00",
"1+	c #C37400",
"2+	c #985700",
"3+	c #894C00",
"4+	c #B66D00",
"5+	c #A85F00",
"6+	c #B46800",
"7+	c #B96A00",
"8+	c #B96B00",
"9+	c #A15B00",
"0+	c #7F4600",
"a+	c #4C2800",
"b+	c #583200",
"c+	c #945800",
"d+	c #C57900",
"e+	c #ED9600",
"f+	c #9B5700",
"g+	c #1A0900",
"h+	c #7E4500",
"i+	c #4D2800",
"j+	c #754000",
"k+	c #E79100",
"l+	c #D88600",
"m+	c #9C5D00",
"n+	c #8E5100",
"o+	c #9C5800",
"p+	c #AC6200",
"q+	c #9C5900",
"r+	c #C47200",
"s+	c #C47100",
"t+	c #733E00",
"u+	c #A96500",
"v+	c #7E4800",
"w+	c #A05A00",
"x+	c #B76900",
"y+	c #4C2600",
"z+	c #5D3000",
"A+	c #482400",
"B+	c #5C3000",
"C+	c #804600",
"D+	c #7C4400",
"E+	c #8F4F00",
"F+	c #753E00",
"G+	c #915000",
"H+	c #9D5D00",
"I+	c #CF8000",
"J+	c #E48F00",
"K+	c #C07200",
"L+	c #6D3B00",
"M+	c #955B00",
"N+	c #E18E00",
"O+	c #BF6F00",
"P+	c #834900",
"Q+	c #A45E00",
"R+	c #9B5900",
"S+	c #623600",
"T+	c #935200",
"U+	c #925200",
"V+	c #884D00",
"W+	c #9E5E00",
"X+	c #A36200",
"Y+	c #854900",
"Z+	c #743F00",
"`+	c #E49000",
" @	c #763E00",
".@	c #7C4600",
"+@	c #865100",
"@@	c #945A00",
"#@	c #B86E00",
"$@	c #B96F00",
"%@	c #A86000",
"&@	c #D27D00",
"*@	c #A96600",
"=@	c #B16900",
"-@	c #BC6E00",
";@	c #985B00",
">@	c #693C00",
",@	c #5D3100",
"'@	c #814700",
")@	c #864A00",
"!@	c #9C5C00",
"~@	c #CB7F00",
"{@	c #EA9300",
"]@	c #845100",
"^@	c #A96100",
"/@	c #EE9500",
"(@	c #E69000",
"_@	c #DD8900",
":@	c #CD7A00",
"<@	c #CD7F00",
"[@	c #955800",
"}@	c #A25C00",
"|@	c #9E5A00",
"1@	c #6F3D00",
"2@	c #BC7000",
"3@	c #854A00",
"4@	c #9D5C00",
"5@	c #BB6F00",
"6@	c #EB9200",
"7@	c #EC9500",
"8@	c #AB6500",
"9@	c #B66800",
"0@	c #764100",
"a@	c #9F5E00",
"b@	c #CF8100",
"c@	c #FA9F00",
"d@	c #D78500",
"e@	c #DE8800",
"f@	c #EE9600",
"g@	c #C67A00",
"h@	c #AE6700",
"i@	c #884C00",
"j@	c #D78600",
"k@	c #E99100",
"l@	c #DE8700",
"m@	c #BC7300",
"n@	c #C57A00",
"o@	c #DC8800",
"p@	c #B06800",
"q@	c #A65F00",
"r@	c #C57500",
"s@	c #C17300",
"t@	c #CC7900",
"u@	c #BB6D00",
"v@	c #E38C00",
"w@	c #D98600",
"x@	c #EA9200",
"y@	c #DD8600",
"z@	c #D88700",
"A@	c #F99E00",
"B@	c #AA6700",
"C@	c #E89300",
"D@	c #784A00",
"E@	c #B47100",
"F@	c #452900",
"G@	c #D08100",
"H@	c #E38F00",
"I@	c #CA7E00",
"J@	c #D98700",
"K@	c #C27300",
"L@	c #BD7100",
"M@	c #9A5800",
"N@	c #875200",
"O@	c #341800",
"P@	c #0E0200",
"Q@	c #A26200",
"R@	c #7E4700",
"S@	c #7D4800",
"T@	c #5E3300",
"U@	c #6A3C00",
"V@	c #582D00",
"W@	c #311600",
"X@	c #6E3D00",
"Y@	c #804500",
"Z@	c #4F2800",
"`@	c #764200",
" #	c #773F00",
".#	c #7D4500",
"+#	c #864900",
"@#	c #A55D00",
"##	c #9B5800",
"$#	c #6B3900",
"%#	c #743E00",
"&#	c #9A5700",
"*#	c #723C00",
"=#	c #613500",
"-#	c #D58100",
";#	c #CE7B00",
">#	c #BD6F00",
",#	c #894B00",
"'#	c #AC6600",
")#	c #B06600",
"!#	c #BD6E00",
"~#	c #A36000",
"{#	c #A86100",
"]#	c #DE8A00",
"^#	c #B26A00",
"/#	c #7F4400",
"(#	c #AD6700",
"_#	c #C77700",
":#	c #E88F00",
"<#	c #E89200",
"[#	c #C07500",
"}#	c #E08C00",
"|#	c #DE8D00",
"1#	c #874C00",
"2#	c #9E5D00",
"3#	c #E18C00",
"4#	c #D98500",
"5#	c #D28300",
"6#	c #8D5700",
"7#	c #E38B00",
"8#	c #DE8C00",
"9#	c #CC7A00",
"0#	c #CF7C00",
"                                                              . + @ # @ @ @ @ @ @ @ @ # @ $ . % $ & * = - = = = = = = ; > , '   ",
") ) ) ! ) ~ { { ~ ) ! ! ) ~ { ] ~ ^ ]                         / ( _ : < [ & & [ < } } | 1 2 3 4 5 6 7 8 9 = = = = = = 0 a b c   ",
"d d d d d e ~ ~ e d d d d e ~ ^ e f ^                         g + : h i 7 * * 7 i j k h l m 5 2 m < i a n = = = = = = o 8 p q   ",
"r s s d s t u v e d d d d e ~ ^ e f ^                         w x y z a 8 = = 8 a > A B C l 1 D E < i a n = = = = = = o 8 p q   ",
") ) ) ! ) ~ { { ~ ) ! ! ) ~ { ] ~ ^ ]                         F G H I n 9 - - 9 n ; J K B h | D L 6 7 8 9 = = = = = = 0 a b c   ",
". M N N M O P Q R                                             q S 8 9 = = = = = = = = J > k } T l U H = - = = = = - = ; > , '   ",
"V W X X W V Y Z `                                             c b  .0 = = = = = = - = ; > k } : ..+.@.= - = = = = = = J A #.$.  ",
"@ 5 %.%.5 m 5 &.*.Q R                                         c b a 0 = = = = = = = = J > k } : =.-.@.= = = = = = ;.8 >.,., '   ",
"# m '.).m '.!.~.&.Z Q                                         q S 8 9 = = = = = = = = J > k } T l U H = - = = = = 8 a {.]., ^.  ",
"@ @ @ @ @ 5 %.*./.(._.                                        q p 8 o = = = = = = = = J > k } T l y H = - = = = = 8 a {.:.#.<.  ",
"@ @ @ # @ m 5 &.*.Q R                                         c b a 0 = = = = = = = = J > k } : =.-.@.= = = = = = ;.8 >.,., '   ",
"# # # # # [.# ).!.Q R }.Q |.|.Q }.                            ' , ,.>.8 9 = = = = = = J > 1.2.2.3.> ; = = = = = = = = 0 a 4.5.  ",
"@ @ @ @ @ @ @ 6.5 (.M _.(.Y Y Z _.                            <.#.:.{.a 8 = = = = = = ; > 7.8.8.7.> ; = = = = = = = = o 8 p q   ",
"+ + V V + + V + + (.M M (.Y Y Z _.                            ^.#.9.0.A J = - = = = = J A a.8.b.c.+.I - - - - - - - - - - d.e.  ",
". . . . . . . O P Q }.}.Q |.|.Q }.                            f., g.0.A h.= = = = = = J > 3.2.i.2.y H = - = = = = = = - = d.e.  ",
"  R _.M R R _._.R R _.Q j.                                    k.b > l.m.n.8 ;.= = = = n a o.p.q.q.r.s.t.* t.t.t.t.t.t.t.d.u.v.  ",
"  _.(.(._._.(.(._._.(.Z _.                                    w.p J ; n.x.a 8 = = = = o 8 y.z./ A.B.C.& D.& & & & & & E.F.G.H.  ",
". !.5 5 !.*././.~.~.&.Z Q j._._.R R _.Q j.                    q p 8 o 8 a a 8 = = = = - = I.e.J.K.L.M.} } } } } N.N.} 2.8.O.J.  ",
"+ '.6.6.'.&.*.~.&.P.~._.R Q Z (.Q Q (.Z Q                     c b  .0 ;.8 8 Q.= = = = - = I.e.O.R.7.S.T.T.T.T.T.T.T.T.1.a.U.O.  ",
"@ @ @ @ @ 5 %.*./.(.M     _.(./.~.~./.(._.                    $.#.A J = = = = = = = = o 8 V.z.L.7.W.{.> > > > ,.].].,.l.> 4.c   ",
"# @ @ @ @ 6.5 &.*.Q X.    R Q ~.P.P.~.Q R                     $.#.A J = - = = = = = = n a Y.p.M.3.{.>.J ; ; J Z.{.{.Z.`.; V.w.  ",
"# @ @ @ @ @ @ 5 %..  +M N X._.~.&.&.~.Q R                     5.4.a 0 = = = = = = = = J A T.} : ..-.@.= = = = 8 a a 8 - = I..+  ",
"@ @ @ @ @ @ @ m 5 + V (._._.(./.~.~./.(._.                    q p 8 o = = = = = = = = J A ++} T l U @+= - - = ;.8 8 ;.- - d.e.  ",
"+ '.6.# # # # # # [.# '.!.~.&.&.~.~.&.Z Q                     .+I.= - = = = = = = = = 0 a o.p.i.#+y H = - = = = = = = - = d.e.  ",
". %.5 @ @ @ @ @ @ # # 6.'.&.*.~./.&.~.Q R                     e.d.= - = = = = = = = = o 8 V.z.$+%+-.@.= = = = = = = = - = I..+  ",
"  &+(.$ + V + + + + + Y + (._.Q (.Z _.                        .+I.= - = = = = = = = = o 8 V.z.8.7.> ; = = = = = = = = o 8 p q   ",
"  N _.. . . . . . . . O P _.R R _.Q R                         .+I.= - = = = = = = = = 0 a o.p.2.S.> ; = = = = = = = = 0 a 4.5.  ",
"/ g  +. . _.*+                    *+_. +=+-+/ ;+>+,+'+)+!+    e.d.= - = = = = = = = = J A T.} : =.-.@.= = = = = = ;.8 >.,., '   ",
"+ + V + $ (.&+                    M Z + Y $ + ~+%+a.a.{+]+    .+I.= - = = = = = = = = J A ++} T l y H = - = = = = 8 a {.:.#.<.  ",
"^+/+1 @ L +  +            }._.&+}.=+$ 1 /+} N.(+_+:+_+%+<+    [+G }+|+= = = = = = = = 0 a 1+2+T 3+4+H = - = = = = 8 a {.:.#.<.  ",
"j h /+[.@ Y .             Q Z (.Q =++ /+5+j 6+7+:+8+9+0+a+    b+c+d+e+= = = = = = = = 9 8 7 [ : =.-.@.= = = = = = ;.8 >.,., '   ",
"k a.f+l 1 5 3 M g+R _.M R . $ ( O ;+h+(+_+0.0.:+_+h l 5 3 i+>+$+j+& k+- - - - - - - - o n l+m+n+Y.a n = = = = = = = = 0 a 4.5.  ",
"^+o+p+h /+6.5 (._.Q (.(.Q |.+ $ |.>+q+_+:+r+s+_+(+l h+t+5 0+%+%+#+u+t.= - = = = = = = 0 a b v+z.V.8 o = = = = = = = = o 8 p q   ",
"} w+x+x+w+l 1 5 %.y+z+Z A+B+C+D+i+f., 0.0.0.g.T.E+6.F+F+6.G+k T.G+H+I+t.t.t.t.t.t.J+d.y.K+%+L+M+N+= - = = = = = = = = - = d.e.  ",
"k _+O+:+_+h l 6.5 &.*.y+&.P+Q+R+S+,+, 0.r+s+0.k } E E E @ T+6+j U+V+W+& & & & & & X+F.z.n+Y+Z+X+`+= - = = = = = = = = - = d.e.  ",
"> > > l.> i 2+E  @.@+@@@E.#@+.$@k.' %@].&@l.> +.y & *@& & =@-@-@=@& & & & & & D.D.;@>@,@'@)@j+!@l+8 o = = = = = = = = 9 8 S q   ",
"J J h.; J 7 [ D D m+~@N+t.{@@.S ]@' ^@,.>.h.; /@H (@(@* (@_@:@:@_@t.t.t.t.t.t.(@t.<@[@'@}@|@1@v+2@a 0 = = = = = = = = 0 a 4.5.  ",
"= = = - = * *@3@4@d+e+= = - = N+M+v+5@m.6@8 ;.= = = = = = 8 a a 8 = = = = = = |+7@S 8@w+9@a.0@v+b m.6@8 ;.= = = = = = 0 a 4.5.  ",
"= = = - = t.& a@b@e+c@- - - = J+E.H+d@n.e@a 8 = - - - - - 9 8 8 9 - - - - - - f@g@h@3.7+:+1.i@m+j@k@l@a 8 = = = = = = 9 8 S q   ",
"= = = c@e+j@m@n@}+= - - = o 8 l+6 D.t.8  .a 8 = = = = = = = = = = = = = = 9 8 o@p@q@r@l.> s@2+D.t.8  .a 8 = = = = = = - = I..+  ",
"= = = 7@d+m@j@e+c@= = = = n a s@2+D.(@;.0 8 Q.= = = = = = = = = = = = = = 8 a t@u@r@v@; ; w@[ D.t.;.0 8 Q.= = = = = = - = d.e.  ",
"- c@7@s.4@u+t.Q.n h.h.h.h.x@y@s@2+& t.= - = = = = = = = = = = = = = = = = 8 a A A a 8 - = t.& & t.= - = = = = = = = = - = I..+  ",
"= e+d+4@3@& * 0  .> A A > x.n.l+[ & t.= - = = = = = = = = = = = = = = = = Q.8 h.h.8 9 - - t.& & t.= - = = = = = = = = - = I..+  ",
"(@z@m@u+*@n@}+8  .> A A >  .8 t.D.& t.= - = = = = = = = = = = = = = = = = = = = = = = - = t.& & t.= - = = = = = = = = - - d.e.  ",
"& m@j@t.* }+A@Q.8 h.h.h.h.0 ;.t.B@& t.= - = = = = = = = = = = = = = = = = = = = = = = - = t.& & t.= - = = = = = = = = - = I..+  ",
"@ & k+- - - - - - - - - - o 0 7 [ & * - - - - - - 9 n 0 9 9 0 0 9 - - - - - - - - - - o 0 7 [ D.(@- - - - - - 9 n 0 9 A@C@u.D@  ",
"6.*@* - - = = = = = = - = 0 a s@< & t.= - = = = = 8 a a 8 8 a a 8 = = = = = = = = = = n a s@< & t.= - = = = = 8 a  .8 C@E@G.F@  ",
"E W+G@t.* H@d.d.`+(@t.`+d.S $@|@#+!@I@d.`+t.(@* (@J@K@i J@j@L@2@j@t.* t.t.H@d.d.`+* t.l+b M@D+C.s.`+N+d.H@* (@7 i 1+J@I@N@O@P@  ",
"@ V+a@& & Q@F.F.Q@& & E.F.q 5.b.Z+R@N@F.X+& & & & 6 < 2+6 !@v+S@!@& & & & Q@F.F.Q@& & m+S@T@;+U@C.Q@M+F.Q@& & 6 < 2+6 !@.@V@W@  ",
"} } } } } 2.0@X@m Y@| 2.8.T@A+Z@Y t+X@`@2.: T  #D 1 : N.N..#i+a+D+} G+} } 2.0@X@m Y@| 2.8.T@A+Z@Y t+X@`@2.: T  #D 1 : N.N.~+i+  ",
"k k T.T.T.1.a.%++#3+@#1.a.##D+$#%#2.|@a.1.=.3+ @ @: ..k ++&#T@T@&#T.++T.T.1.a.%++#3+@#1.7.q+.#2 *#+#%+a.1.=.3+6. #: =.k j %+=#  ",
"> > -#l.l.;#>#=.,#< s@> l.+.y & *@'#)#!#:@z U ~#< C B {.W.{#<.c $@> l.l.l.;#>#=.,#< s@> l.+.y & *@'#)#!#:@z U ~#< C B {.W.#.<.  ",
"J J J ; J ]#^#| /#[ 7 ; `.@.H k+(@S (#^#_@@.{@J@i _#v@:#&@^@<.w.S J `.; J ]#^#| /#[ 7 ; `.@.H k+(@S (#^#_@@.{@J@i _#v@:#&@a.<.  ",
"= ;.8 @.<#I+H+3@H+d+e+= = = = = = 7@d+[#}#8 9 8 a a 8 0  .$@c e.|#;.0 @.<#I+H+3@H+d+e+= = = = = = 7@d+[#}#8 9 8 a a 8 0  .b c   ",
"= 0 a z U W+1#2#G@}+|+= - = - - - |+}+3#4# .0 9 0 0 9 o 8 5#q 6#|#0 7#z U W+1#2#G@}+|+= - = - - - |+}+3#4# .0 9 0 0 9 o 8 p q   ",
"= h.A -@p@u+& d+}+= = = = = = = = = = 8 a a 8 = = = = o 8 5#q 6#8#h.l.-@p@u+& d+}+= = = = = = = = = = 8 a a 8 = = = = o 8 p q   ",
"= h.A 9#o@t.* e+A@= = = = = = = = = = 9 8 8 Q.= = - = 0 a $@c 6#|#h.l.9#o@t.* e+A@= = = = = = = = = = 9 8 8 Q.= = - = 0 a b c   ",
"= 8 a a 8 = = = = = = = = = = = = = = = = = = = = ;.8 Z.0#%@' e.|#8  .a 8 = = = = = = = = = = = = = = = = = = = = ;.8 Z.0##.'   ",
"= Q.8 8 9 - - = = = = = = = = = = = = = = = = = = 8 a {.:.%@<.e.|#Q.0 8 9 - - = = = = = = = = = = = = = = = = = = 8 a {.:.#.<.  ",
"= = = = = = = = = = = = = = = = = = = = = = = = = 8 a l.> $@k.e.I.= - = = = = = = = = = = = = = = = = = = = = = = 8 a l.> b k.  ",
"= = = = = = = = = = = = = = = = = = = = = = = = = Q.8 ; h.5#w..+8#= - = = = = = = = = = = = = = = = = = = = = = = Q.8 ; h.p w.  ",
"h.8 ;.= = = = = = = = = = = = = = = = = = = = = = = = o 8 5#q q 5#8 o = = = = = = = = = = = = = = = = = = = = = = = = o 8 p q   ",
"> a 8 = = = = = = = = = = = = = = = = = = = = = = = = 0 a $@c 5.$@a 0 = = = = = = = = = = = = = = = = = = = = = = = = 0 a b c   ",
"0.> h.= = = = = = = = = = = = = = = = = = = = = = = = ; > ^@' ' ^@> ; = = = = = = = = = = = = = = = = = = = = = = = = ; > , '   "};
