/* XPM */
static char * CornerUL_xpm[] = {
"64 64 407 2",
"  	c #000000",
". 	c #683900",
"+ 	c #AA6200",
"@ 	c #D58000",
"# 	c #F29800",
"$ 	c #FFA200",
"% 	c #A96100",
"& 	c #F19700",
"* 	c #C37100",
"= 	c #734300",
"- 	c #BB7000",
"; 	c #E18A00",
"> 	c #F69B00",
", 	c #B96F00",
"' 	c #724200",
") 	c #F59A00",
"! 	c #835000",
"~ 	c #D38400",
"{ 	c #FDA000",
"] 	c #D28300",
"^ 	c #FC9F00",
"/ 	c #845000",
"( 	c #FB9F00",
"_ 	c #FFA300",
": 	c #DE8C00",
"< 	c #8C5600",
"[ 	c #744300",
"} 	c #D68100",
"| 	c #DF8D00",
"1 	c #8C5700",
"2 	c #683A00",
"3 	c #AA6100",
"4 	c #C77400",
"5 	c #D17D00",
"6 	c #FCA000",
"7 	c #DE8D00",
"8 	c #A86000",
"9 	c #CF7C00",
"0 	c #E68E00",
"a 	c #E28B00",
"b 	c #F99E00",
"c 	c #ED9600",
"d 	c #E69100",
"e 	c #E59000",
"f 	c #DC8800",
"g 	c #CC7A00",
"h 	c #8D5700",
"i 	c #D48000",
"j 	c #ED9500",
"k 	c #C57900",
"l 	c #AA6600",
"m 	c #A96500",
"n 	c #B06800",
"o 	c #BC6E00",
"p 	c #D98500",
"q 	c #E18C00",
"r 	c #FA9E00",
"s 	c #D08100",
"t 	c #9E5D00",
"u 	c #874C00",
"v 	c #9E5E00",
"w 	c #B76E00",
"x 	c #CC7B00",
"y 	c #E38B00",
"z 	c #E08C00",
"A 	c #C07500",
"B 	c #EC9500",
"C 	c #9D5D00",
"D 	c #854A00",
"E 	c #CF8000",
"F 	c #E89200",
"G 	c #EF9600",
"H 	c #AB6200",
"I 	c #D27D00",
"J 	c #E88F00",
"K 	c #E38C00",
"L 	c #C77700",
"M 	c #C27400",
"N 	c #D98700",
"O 	c #EA9300",
"P 	c #DD8900",
"Q 	c #B26A00",
"R 	c #AD6700",
"S 	c #D38300",
"T 	c #E69000",
"U 	c #E79100",
"V 	c #E99200",
"W 	c #F39800",
"X 	c #DA8700",
"Y 	c #A46100",
"Z 	c #7F4400",
"` 	c #8B4C00",
" .	c #DE8A00",
"..	c #F29700",
"+.	c #C87500",
"@.	c #C67600",
"#.	c #A66000",
"$.	c #975600",
"%.	c #A36000",
"&.	c #CD7A00",
"*.	c #BD6E00",
"=.	c #B06600",
"-.	c #AC6600",
";.	c #A96600",
">.	c #B66E00",
",.	c #CB7A00",
"'.	c #C17300",
").	c #894B00",
"!.	c #A55E00",
"~.	c #BD6F00",
"{.	c #CE7B00",
"].	c #A86100",
"^.	c #D58100",
"/.	c #613500",
"(.	c #9D5900",
"_.	c #B46700",
":.	c #B36700",
"<.	c #8A4C00",
"[.	c #773F00",
"}.	c #763F00",
"|.	c #894C00",
"1.	c #B06500",
"2.	c #864900",
"3.	c #723C00",
"4.	c #6C3900",
"5.	c #7D4500",
"6.	c #9C5900",
"7.	c #AC6300",
"8.	c #A55D00",
"9.	c #B26600",
"0.	c #B36600",
"a.	c #9A5700",
"b.	c #5E3300",
"c.	c #A65E00",
"d.	c #763E00",
"e.	c #9E5A00",
"f.	c #874B00",
"g.	c #743E00",
"h.	c #6B3900",
"i.	c #7C4400",
"j.	c #9B5800",
"k.	c #4D2800",
"l.	c #7E4600",
"m.	c #915100",
"n.	c #7F4500",
"o.	c #774000",
"p.	c #7E4400",
"q.	c #764200",
"r.	c #6E3D00",
"s.	c #733E00",
"t.	c #6A3800",
"u.	c #4F2800",
"v.	c #482400",
"w.	c #744000",
"x.	c #804500",
"y.	c #753F00",
"z.	c #764100",
"A.	c #905000",
"B.	c #915000",
"C.	c #4C2800",
"D.	c #311600",
"E.	c #582D00",
"F.	c #7C4600",
"G.	c #9C5C00",
"H.	c #A36100",
"I.	c #985700",
"J.	c #A26200",
"K.	c #945B00",
"L.	c #955B00",
"M.	c #975A00",
"N.	c #6A3C00",
"O.	c #4B2700",
"P.	c #7D4800",
"Q.	c #9C5D00",
"R.	c #7E4800",
"S.	c #A36200",
"T.	c #875200",
"U.	c #7E4700",
"V.	c #743F00",
"W.	c #6C3B00",
"X.	c #A36300",
"Y.	c #9F5E00",
"Z.	c #884D00",
"`.	c #794100",
" +	c #0E0200",
".+	c #341800",
"++	c #CA7E00",
"@+	c #C37400",
"#+	c #E38F00",
"$+	c #E08E00",
"%+	c #E18E00",
"&+	c #E49000",
"*+	c #CE8000",
"=+	c #9A5800",
"-+	c #D88600",
";+	c #D78600",
">+	c #BC7000",
",+	c #BD7100",
"'+	c #C27300",
")+	c #874A00",
"!+	c #784000",
"~+	c #452900",
"{+	c #794B00",
"]+	c #B47100",
"^+	c #E89300",
"/+	c #F69A00",
"(+	c #784A00",
"_+	c #C37B00",
":+	c #AB6700",
"<+	c #AA6700",
"[+	c #BC7300",
"}+	c #C57A00",
"|+	c #D88700",
"1+	c #EA9100",
"2+	c #DD8700",
"3+	c #9D5C00",
"4+	c #DD8600",
"5+	c #EA9200",
"6+	c #FA9F00",
"7+	c #D98600",
"8+	c #C57500",
"9+	c #BB6D00",
"0+	c #CC7900",
"a+	c #A65F00",
"b+	c #DE8700",
"c+	c #E99100",
"d+	c #884C00",
"e+	c #C06F00",
"f+	c #B96A00",
"g+	c #B16600",
"h+	c #AE6700",
"i+	c #C67A00",
"j+	c #EE9600",
"k+	c #DE8800",
"l+	c #D78500",
"m+	c #E48F00",
"n+	c #CF8100",
"o+	c #BA6F00",
"p+	c #EB9200",
"q+	c #DC8600",
"r+	c #B66800",
"s+	c #A05A00",
"t+	c #AB6500",
"u+	c #BB6F00",
"v+	c #6F3D00",
"w+	c #A25C00",
"x+	c #814700",
"y+	c #955800",
"z+	c #CD7F00",
"A+	c #EE9500",
"B+	c #E78F00",
"C+	c #D07C00",
"D+	c #845100",
"E+	c #CB7F00",
"F+	c #754000",
"G+	c #864A00",
"H+	c #5D3100",
"I+	c #693C00",
"J+	c #985B00",
"K+	c #B16900",
"L+	c #C77500",
"M+	c #B86E00",
"N+	c #945A00",
"O+	c #865100",
"P+	c #854900",
"Q+	c #8E5100",
"R+	c #8D5500",
"S+	c #925200",
"T+	c #B46800",
"U+	c #935200",
"V+	c #C47100",
"W+	c #C47200",
"X+	c #6A3B00",
"Y+	c #623600",
"Z+	c #9B5900",
"`+	c #A45E00",
" @	c #834900",
".@	c #603200",
"+@	c #4C2600",
"@@	c #4D2700",
"#@	c #6D3A00",
"$@	c #8B4D00",
"%@	c #A75F00",
"&@	c #B86A00",
"*@	c #BF6F00",
"=@	c #6D3B00",
"-@	c #C07200",
";@	c #D58500",
">@	c #753E00",
",@	c #8F4F00",
"'@	c #C27000",
")@	c #693B00",
"!@	c #804600",
"~@	c #5C3000",
"{@	c #5B2F00",
"]@	c #5D3000",
"^@	c #532B00",
"/@	c #B76900",
"(@	c #D48400",
"_@	c #7F4600",
":@	c #7E4500",
"<@	c #A05B00",
"[@	c #603500",
"}@	c #412000",
"|@	c #683700",
"1@	c #693800",
"2@	c #371A00",
"3@	c #5A2F00",
"4@	c #361A00",
"5@	c #8C4D00",
"6@	c #AC6200",
"7@	c #9C5800",
"8@	c #925100",
"9@	c #BF7200",
"0@	c #6B3A00",
"a@	c #522A00",
"b@	c #401F00",
"c@	c #673600",
"d@	c #3F1F00",
"e@	c #1D0B00",
"f@	c #351900",
"g@	c #1A0900",
"h@	c #9B5700",
"i@	c #CA7A00",
"j@	c #945800",
"k@	c #583200",
"l@	c #A15B00",
"m@	c #B96B00",
"n@	c #A85F00",
"o@	c #3E1E00",
"p@	c #7A4200",
"q@	c #B66D00",
"r@	c #C97E00",
"s@	c #7B4B00",
"t@	c #5F3400",
"u@	c #1F0C00",
"v@	c #341900",
"w@	c #3E1F00",
"x@	c #784100",
"y@	c #5B3200",
"z@	c #955500",
"A@	c #693700",
"B@	c #371C00",
"C@	c #5C3300",
"D@	c #6B3B00",
"E@	c #3D1D00",
"F@	c #3C1D00",
"G@	c #1E0C00",
"H@	c #3D1E00",
"I@	c #B16500",
"J@	c #8F5200",
"K@	c #C07300",
"L@	c #402000",
"M@	c #1C0A00",
"N@	c #4E2800",
"O@	c #5F3200",
"P@	c #6E3A00",
"Q@	c #7A4100",
"R@	c #723D00",
"S@	c #542B00",
"T@	c #E99300",
"U@	c #1B0A00",
"V@	c #884B00",
"W@	c #673900",
"X@	c #613300",
"Y@	c #754100",
"Z@	c #5A3100",
"`@	c #935300",
" #	c #925300",
".#	c #341A00",
"+#	c #562E00",
"@#	c #1F0D00",
"##	c #492B00",
"$#	c #683B00",
"%#	c #381900",
"&#	c #794A00",
"*#	c #965900",
"=#	c #663500",
"-#	c #F09600",
";#	c #9F5A00",
">#	c #C17000",
",#	c #693A00",
"'#	c #6E3B00",
")#	c #361800",
"!#	c #5A2E00",
"~#	c #351800",
"{#	c #E48D00",
"]#	c #7D4C00",
"^#	c #0F1500",
"/#	c #1F2700",
"(#	c #1E2600",
"_#	c #0F1400",
":#	c #242E00",
"<#	c #252E00",
"[#	c #955900",
"}#	c #5A3400",
"|#	c #364200",
"1#	c #354200",
"2#	c #3F4D00",
"3#	c #1C2500",
"4#	c #1B2500",
"5#	c #344100",
"6#	c #3E4D00",
"7#	c #3D4D00",
"8#	c #502800",
"9#	c #7D4400",
"0#	c #391A00",
"  . + @ # $ $ $ $ $ $ $ $ $ $ $ $ $ $ $ $ $ $ $ $ $ $ $ $ # @ % . . % @ # $ $ $ $ $ $ $ $ $ $ $ $ $ $ $ $ $ $ $ $ $ $ $ $ & @ * ",
"  = - ; > $ $ $ $ $ $ $ $ $ $ $ $ $ $ $ $ $ $ $ $ $ $ $ $ > ; , ' = , ; > $ $ $ $ $ $ $ $ $ $ $ $ $ $ $ $ $ $ $ $ $ $ $ $ ) ; @ ",
"  ! ~ ) { $ $ $ $ $ $ $ $ $ $ $ $ $ $ $ $ $ $ $ $ $ $ $ $ { ) ] ! ! ] ) { $ $ $ $ $ $ $ $ $ $ $ $ $ $ $ $ $ $ $ $ $ $ $ $ ^ ) & ",
"  / ~ & # ) ( $ $ $ $ $ $ $ $ $ $ $ $ $ $ $ $ $ $ $ $ $ $ _ $ : < / ] & # ) ( $ $ $ $ $ $ $ $ $ $ $ $ $ $ $ $ $ $ $ $ $ $ $ $ $ ",
"  [ - @ } ; ) $ $ $ $ $ $ $ $ $ $ $ $ $ $ $ $ $ $ $ $ $ $ _ $ | 1 [ , @ } ; ) $ $ $ $ $ $ $ $ $ $ $ $ $ $ $ $ $ $ $ $ $ $ $ $ $ ",
"  2 3 4 5 ; ) $ $ $ $ $ $ $ $ $ $ $ $ $ $ $ $ $ $ _ _ 6 ) > ( 7 1 2 8 4 5 ; ) $ $ $ $ $ $ $ $ $ $ $ $ $ $ $ $ $ $ _ _ 6 ) ) ( $ ",
"  . 3 9 0 ) ^ $ $ $ $ $ $ $ $ $ $ $ $ $ $ $ $ $ $ $ $ ) ; a ) 7 1 . 8 9 0 ) ^ $ $ $ $ $ $ $ $ $ $ $ $ $ $ $ $ $ $ $ $ ) ; ; ) $ ",
"  = - ; > $ _ $ $ ( ) ) 6 $ $ $ $ $ $ $ $ $ $ b c d e f g } & 7 h = , ; > $ _ $ $ ( ) ) 6 $ $ $ $ $ $ $ $ $ $ b c d e f g i & $ ",
"  ! ~ ) { $ $ $ $ ) ; ; ) $ $ $ $ $ $ $ $ $ $ j k l m n o } & : h ! ] ) { $ $ $ $ ) ; ; ) $ $ $ $ $ $ $ $ $ $ j k l m n o i & $ ",
"  ! ~ ) { 6 > > 6 > a p q j r _ _ _ $ _ $ r j s t u v w x y > 7 h ! ] ) { 6 > > 6 > a p q j r _ _ _ $ _ $ r j s t u v w x ; > $ ",
"  = - a > ) ; ; ) 6 ) z A k B $ $ $ $ $ $ c k C D C E F G > ^ 7 1 = , a > ) ; ; ) 6 ) z A k B $ $ $ $ $ $ c k C D C E F G ) ^ $ ",
"  2 H I J K L M N O G P Q R S T U V G W # X Y Z ` Q  ...# W ..S / 2 % I J K L M N O G P Q R S T U V G W # X Y Z ` Q  ...# ......",
"  2 3 +.5 @.#.$.%.w x &.*.=.-.;.l >.,.} @ '.$.).!.~.{.} } } @ , = 2 ].+.5 @.#.$.%.w x &.*.=.-.;.l >.,.} @ '.$.).!.~.{.} } ^.@ @ ",
"  /.(._.:.!.<.[.}.|.!.1.H (.2.3.4.5.6.7.1.8.|.2.(.H 1.9.9.0.9.a.b.b.a.0.:.c.<.d.d.|.!.1.H e.f.g.h.i.j.H 1.8.|.2.(.H 1.9.9.9.:.:.",
"  k.l.m.m.<.n.o.[.p.<.f.q.r.s.t.u.v.b.w.f.` x.y.r.z.f.A.A.B.A.i.C.k.5.m.m.<.n.o.[.p.<.f.q.r.s.t.u.v.b.w.f.` x.y.r.z.f.A.A.A.A.A.",
"  D.E.F.G.H.I.$.H.l l J.K.L.J.M.N.O.b.P.Q.l l J.K.K.J.l l l l G.P.R.G.H.I.$.H.l l l l S.K.T.U.V.W.' ! K.X.l l J.K.K.J.l l Y.Z.`.",
"   +.+T.++N @+M X T d #+$+%+&+*+M.i.=+- -+e d &+$+$+#+e e d e ;+>+,+;+N M '+N T d T e &+$+++G.)+e., S $+&+e T &+$+$+#+d e s v !+",
"  ~+{+]+^+) a ; ) $ $ $ $ _ $ e l $.'.; /+$ $ $ $ $ $ $ $ $ $ ) ; ; ) ) ; ; ) $ $ $ $ _ $ e l $.'.; > $ _ $ $ $ $ $ $ _ _ d ;.}.",
"  (+_+^+b 6 > /+6 _ _ _ _ _ _ T :+Y X > { _ _ _ _ _ _ _ _ _ _ 6 > > 6 6 > /+6 _ _ _ _ _ _ d l Y X > { _ _ _ _ _ _ _ _ _ _ U l `.",
"  < | $ _ $ $ $ $ $ $ $ $ _ $ e l l e $ _ $ $ $ $ $ $ $ $ $ $ $ $ $ $ $ $ $ $ $ $ $ $ _ $ e l <+e ^ > & & & & ) ( b j d e ;+[+l ",
"  1 $+_ _ $ $ $ $ $ $ $ $ _ $ e l l e $ _ $ $ $ $ $ $ $ $ $ $ $ $ $ $ $ $ $ $ $ $ $ $ _ $ e l :+e ) a @ i i @ a ) j }+;.m [+|+T ",
"  < | $ _ $ $ $ $ $ $ $ $ _ $ e l l e _ _ 6 ) & & ) ( $ $ $ $ $ $ $ $ $ $ $ $ $ $ $ $ _ $ e l Y -+1+2+@ i i @ a > d l D 3+k c $ ",
"  < | $ _ $ $ $ $ $ $ $ $ _ $ e l l e $ _ ) ; i i ; ) $ $ $ $ $ $ $ $ $ $ $ $ $ $ $ $ _ $ e l I.'.4+5+& & & & /+( e m 3+*+B 6+_ ",
"  1 $+$ _ $ $ $ $ $ $ ( ) > ^ e :+Y 7+# # K 8+9+0+; ) $ $ $ $ $ $ $ $ $ $ $ $ $ $ ( ) > ^ T :+I.'.; /+$ $ $ $ 6+c ;+[+k B $ $ $ ",
"  < | $ _ $ $ $ $ $ $ ) ; a ) e :+I.'.@ } 8+a+n f ) 6 $ $ $ $ $ $ $ $ $ $ $ $ $ $ ) ; a ) e :+H.-+) { $ _ _ $ j }+[+;+c 6+$ $ $ ",
"  ! S ) 6 $ $ $ $ $ $ ) ; b+c+;+Q.d+1.e+f+g+h+i+j+_ _ _ _ _ _ 6 ) ) 6 _ _ _ _ _ $ ) ; k+1+l+C X.m+$ _ _ _ 6+c n+Y.l e $ _ $ $ $ ",
"  ' o+; > $ $ $ $ $ $ ^ ) p+q+- R.z.H r+s+t+S B r $ $ $ $ $ $ ) ; ; ) $ $ $ $ $ $ ^ ) p+q+u+R.L.%+$ _ $ $ c k 3+D ;.d $ _ $ $ $ ",
"  ' o+; > $ $ $ $ $ $ $ $ > ; >+R.v+e.w+x+y+z+e T e e e e e e P &.&.P T d T T V A+# & B+C+% . D+S G O e %+E+Q.o.o.Y X ..# & ....",
"  ! S ) 6 $ $ $ $ $ $ $ $ { ) -+G.F+G+x+H+I+J+:+:+l l l l l l K+o o K+l l ;.l >.,.@ } I L+8 . [ , ,.M+X.N+O+F.d.!+I.M @ } @ @ @ ",
"  1 $+$ _ $ $ $ $ $ $ $ $ _ $ &+S.V.P+Q+R+K.S.l l l l l l v Z.S+_.T+U+`.!+!+!+A.:.* V+W+* + X+Y+Z+`+ @.@+@@@.@#@}.$@%@&@e+*@&@:.",
"  1 $+$ _ $ $ $ $ $ $ $ $ _ $ %+L.=@(.-@;@$+m+e e e e e e E C B.9.:.B.}.>@>@}.,@9.'@* * * + )@k.i.!@~@v.{@]@+@^@#@n.$@s+/@/@s+A.",
"  ! ~ ) { $ $ $ $ $ $ $ $ { ) (@R+R.- ; > $ $ $ $ $ $ _ $ e m )+(.(._@#@s.:@$@<@&@V+W+e+&@6.[@}@|@1@}@2@3@3@2@4@3@#@}.5@%@6@7@8@",
"  ' o+; > $ $ $ $ $ $ $ $ /+; 9@Q+Q.-+/+{ _ _ _ _ _ _ _ _ U l F+0@[@k.a@#@$@%@&@e+* * &@<@:@O.b@c@|@d@e@f@4@e@g@f@a@#@n.$@h@H :.",
"  . + C+B+) ^ $ $ $ $ $ $ G i@!.<.Y X ) 6 $ $ $ $ $ $ $ $ c k j@k@    C._@l@m@e+f+T+_.n@5@1@o@2@3@{@2@            d@t.`.p@5@%@_.",
"  2 3 4 5 ; ) $ $ $ $ _ $ V q@|.p.I.@+; > $ $ $ $ $ $ $ $ r j r@s@    t@(.&@e+&@<@m.A.5@n.|@o@u@v@4@u@            w@1@x@`.n.5@8@",
"  2 3 4 5 ; ) $ $ $ $ _ $ V >.$@p.A.0.i ..$ $ $ $ $ $ $ $ _ $ | <     y@z@H H (.l.1@|@t.1@{@f@                    v@3@|@1@A@1@1@",
"  . + C+B+) ^ $ $ $ $ $ $ G i@!.<.A.9.i ..$ $ $ $ $ $ $ $ _ $ $+1     B@C@D@X+[@O.E@F@o@w@4@G@                    G@4@d@d@w@H@E@",
"  ' o+; > $ $ $ $ $ $ $ $ # @ I@f.J@K@; > $ $ $ $ $ $ $ $ _ $ | <                         e@2@4@e@e@4@L@b@d@d@d@d@d@d@d@d@4@M@  ",
"  ! ~ ) { $ $ $ $ $ $ $ $ # @ 7.w.R+(@) { $ $ $ $ $ $ $ $ _ $ | <                         4@{@3@2@4@3@1@t.1@1@1@1@1@A@1@|@3@v@  ",
"  < | $ _ $ $ $ $ $ $ $ $ G i@(.0@R+(@) { $ $ $ $ $ $ $ $ _ $ $+1                     e@2@N@.@O@N@@@.@P@}.Q@Q@`.`.`.`.`.`.#@^@d@",
"  1 $+$ _ $ $ $ $ $ $ _ $ V >.)+R@J@K@; > $ $ $ $ $ $ $ $ _ $ | <                     2@{@.@N@N@.@.@N@S@P@Q@p@Q@Q@Q@Q@Q@Q@}.P@1@",
"  1 $+_ _ ^ ) ) ^ $ _ _ $ T@w $@p.A.0.i ..$ $ $ $ $ $ $ $ { ) ~ !                     4@3@O@N@N@O@3@4@4@3@A@1@#@y.`.`.`.`.`.`.`.",
"  < | $ _ ) ; ; ) $ $ $ $ G i@c.<.A.9.i ..$ $ $ $ $ $ $ $ > ; o+'                     e@2@N@.@.@N@4@U@M@f@w@d@^@#@`.`.`.`.`.`.Q@",
"  / (@# W 0 5 5 0 ..# # ..B+5 g+V@J@9@; /+$ $ $ $ $ $ _ $ ..i 3 W@                    e@2@N@X@X@N@2@e@    U@2@@@.@#@}.`.`.`.`.Q@",
"  = o+@ } C+L+L+C+@ @ @ @ 5 +.7.Y@R+(@) { $ $ $ $ $ $ $ $ ..i 3 W@                    4@3@O@N@N@O@3@4@    f@3@O@@@^@#@`.`.`.`.`.",
"  Z@`@H 1.9.9.9.9.9.9.9.9.I@7. #Z@1 | $ _ $ $ $ $ ( ) ) ^ > a - =                     2@{@3@2@2@3@{@2@e@4@N@X@.@N@@@.@P@}.}.P@1@",
"  .#Z@w.f.A.m.m.A.A.A.A.A.V@Y@+#.#1 | $ _ $ $ $ $ ) ; ; ) { ) ~ !                     @#2@4@e@e@4@4@@#2@{@.@N@N@O@O@@@S@#@#@S@d@",
"  ##{+K.X.l l l l l l :+l M.$#%#E@R+;@) { $ $ $ $ ) ; 2+1+# ..~ /                                     4@{@3@4@4@3@3@4@4@3@3@4@  ",
"  &#_+$+e e e e e e e d e *+*#=#=#J@K@; /+$ $ $ $ ^ ) 1+q+} @ - [                                     @#2@4@e@e@4@4@e@e@f@4@e@  ",
"  1 $+$ _ $ $ $ $ $ $ _ $ V >.f.R@f.g+@ ..$ $ $ $ $ $ & i * '@+ )@                            u@2@}@}@2@u@u@2@L@b@d@d@d@d@d@d@d@",
"  1 $+_ _ _ _ _ _ _ _ _ _ -#,.;#W.w.H i ..$ $ $ $ _ $ ..i * >#3 ,#                            4@{@t.t.3@f@f@3@1@1@A@1@1@A@A@1@1@",
"  ! ~ ) { $ $ $ $ $ $ $ $ # @ 7.w.w.7.@ # $ $ $ $ $ $ ) ; 5 4 3 2                             4@{@t.t.3@4@f@3@#@}.`.`.`.`.`.`.`.",
"  ' o+; > $ $ $ $ $ $ $ $ # @ g+f.f.1.@ ..$ $ $ $ $ $ 6 ) B+C++ .                             u@2@}@}@2@u@e@2@S@'#Q@p@Q@Q@Q@Q@Q@",
"  . + C+B+) ^ $ $ $ $ $ $ G i@!.<.A.:.@ ..$ $ $ $ $ $ $ $ > ; - =                                         e@2@@@.@#@y.`.Q@`.`.`.",
"  2 3 4 5 ; ) $ $ $ $ _ $ V >.$@p.A.:.@ ..$ $ $ $ $ $ $ $ { ) ~ !                                         4@3@O@@@^@#@`.`.`.`.`.",
"  ,#+ L+5 ; ) $ $ $ $ _ $ V w $@p.A.:.@ ..$ $ $ $ $ $ $ $ 6 ) S !                                         2@{@.@N@S@P@y.'#P@y.Q@",
"  . + C+B+) ^ $ $ $ $ $ $ G i@!.<.A.:.@ ..$ $ $ $ $ $ $ $ > ; - =                                         e@2@@@.@#@y.#@^@^@#@`.",
"  W@3 i ..$ $ $ $ $ $ _ $ G ,.c.<.A.:.@ # $ _ $ $ $ $ $ $ > a - =                                             )#{@t.A@!#~#~#!#A@",
"  . + @ # $ _ $ $ $ $ _ $ V w $@p.A.:.@ ..$ $ $ $ $ $ $ $ 6 ) S !                                             e@2@L@b@f@M@M@f@d@",
"  = - ; > $ $ $ $ $ $ 6 ) X H.x@o.` %@@.{#..# /+6 _ _ 6 /+-#V r@]#                        ^#/#(#^#_#(#:#<#<#:#(#_#_#(#:#<#:#:#:#",
"  ! ~ ) { $ $ $ $ $ $ /+; M $.!+o.n.$@#.@.i @ ; ) $ $ ) ; x >.[#}#                        /#|#1#/#(#1#2#2#2#2#1#3#4#5#6#2#6#6#7#",
"  ! ~ ) { $ $ $ $ $ $ /+; M $.y.4.#@y.$@%@:._.M X d d X M %@<.1@H@                        /#|#1#/#(#1#2#2#2#2#1#(#(#1#2#2#2#2#2#",
"  = - ; > $ $ $ $ $ $ 6 ) X H.#@8#a@4.n.` A.A.$.Y l l Y $.<.9#c@E@                        ^#/#(#^#_#(#:#<#<#:#(#_#_#(#:#<#:#:#:#",
"  . + @ # $ $ $ $ $ $ _ $ d l |@0#d@|@`.Q@`.`.`.`.`.`.`.`.Q@`.1@d@                                                              "};
