/* XPM */
static char * CornerUR_xpm[] = {
"64 64 407 2",
"  	c #C37100",
". 	c #D58000",
"+ 	c #F19700",
"@ 	c #FFA200",
"# 	c #F29800",
"$ 	c #A96100",
"% 	c #683900",
"& 	c #AA6200",
"* 	c #000000",
"= 	c #E18A00",
"- 	c #F59A00",
"; 	c #F69B00",
"> 	c #B96F00",
", 	c #734300",
"' 	c #724200",
") 	c #BB7000",
"! 	c #FC9F00",
"~ 	c #FDA000",
"{ 	c #D28300",
"] 	c #835000",
"^ 	c #D38400",
"/ 	c #FB9F00",
"( 	c #845000",
"_ 	c #8C5600",
": 	c #DE8C00",
"< 	c #FFA300",
"[ 	c #D68100",
"} 	c #744300",
"| 	c #8C5700",
"1 	c #DF8D00",
"2 	c #FCA000",
"3 	c #D17D00",
"4 	c #C77400",
"5 	c #A86000",
"6 	c #683A00",
"7 	c #DE8D00",
"8 	c #AA6100",
"9 	c #E68E00",
"0 	c #CF7C00",
"a 	c #E28B00",
"b 	c #D48000",
"c 	c #CC7A00",
"d 	c #DC8800",
"e 	c #E59000",
"f 	c #E69100",
"g 	c #ED9600",
"h 	c #F99E00",
"i 	c #8D5700",
"j 	c #BC6E00",
"k 	c #B06800",
"l 	c #A96500",
"m 	c #AA6600",
"n 	c #C57900",
"o 	c #ED9500",
"p 	c #CC7B00",
"q 	c #B76E00",
"r 	c #9E5E00",
"s 	c #874C00",
"t 	c #9E5D00",
"u 	c #D08100",
"v 	c #FA9E00",
"w 	c #E18C00",
"x 	c #D98500",
"y 	c #E38B00",
"z 	c #EF9600",
"A 	c #E89200",
"B 	c #CF8000",
"C 	c #9D5D00",
"D 	c #854A00",
"E 	c #EC9500",
"F 	c #C07500",
"G 	c #E08C00",
"H 	c #F29700",
"I 	c #DE8A00",
"J 	c #B26A00",
"K 	c #8B4C00",
"L 	c #7F4400",
"M 	c #A46100",
"N 	c #DA8700",
"O 	c #F39800",
"P 	c #E99200",
"Q 	c #E79100",
"R 	c #E69000",
"S 	c #D38300",
"T 	c #AD6700",
"U 	c #DD8900",
"V 	c #EA9300",
"W 	c #D98700",
"X 	c #C27400",
"Y 	c #C77700",
"Z 	c #E38C00",
"` 	c #E88F00",
" .	c #D27D00",
"..	c #AB6200",
"+.	c #D58100",
"@.	c #CE7B00",
"#.	c #BD6F00",
"$.	c #A55E00",
"%.	c #894B00",
"&.	c #975600",
"*.	c #C17300",
"=.	c #CB7A00",
"-.	c #B66E00",
";.	c #A96600",
">.	c #AC6600",
",.	c #B06600",
"'.	c #BD6E00",
").	c #CD7A00",
"!.	c #A36000",
"~.	c #A66000",
"{.	c #C67600",
"].	c #C87500",
"^.	c #A86100",
"/.	c #B36700",
"(.	c #B26600",
"_.	c #B06500",
":.	c #9D5900",
"<.	c #864900",
"[.	c #894C00",
"}.	c #A55D00",
"|.	c #9B5800",
"1.	c #7C4400",
"2.	c #6B3900",
"3.	c #743E00",
"4.	c #874B00",
"5.	c #9E5A00",
"6.	c #763E00",
"7.	c #8A4C00",
"8.	c #A65E00",
"9.	c #B36600",
"0.	c #9A5700",
"a.	c #5E3300",
"b.	c #AC6300",
"c.	c #9C5900",
"d.	c #7D4500",
"e.	c #6C3900",
"f.	c #723C00",
"g.	c #763F00",
"h.	c #773F00",
"i.	c #B46700",
"j.	c #613500",
"k.	c #905000",
"l.	c #764100",
"m.	c #6E3D00",
"n.	c #753F00",
"o.	c #804500",
"p.	c #744000",
"q.	c #482400",
"r.	c #4F2800",
"s.	c #6A3800",
"t.	c #733E00",
"u.	c #764200",
"v.	c #7E4400",
"w.	c #774000",
"x.	c #7F4500",
"y.	c #915100",
"z.	c #4D2800",
"A.	c #4C2800",
"B.	c #915000",
"C.	c #7E4600",
"D.	c #794100",
"E.	c #884D00",
"F.	c #9F5E00",
"G.	c #A26200",
"H.	c #945B00",
"I.	c #A36300",
"J.	c #6C3B00",
"K.	c #743F00",
"L.	c #7E4700",
"M.	c #875200",
"N.	c #A36200",
"O.	c #A36100",
"P.	c #985700",
"Q.	c #9C5C00",
"R.	c #7E4800",
"S.	c #7D4800",
"T.	c #9C5D00",
"U.	c #4B2700",
"V.	c #6A3C00",
"W.	c #975A00",
"X.	c #955B00",
"Y.	c #7C4600",
"Z.	c #582D00",
"`.	c #311600",
" +	c #784000",
".+	c #E38F00",
"++	c #E08E00",
"@+	c #E49000",
"#+	c #874A00",
"$+	c #CA7E00",
"%+	c #C27300",
"&+	c #D78600",
"*+	c #BD7100",
"=+	c #BC7000",
"-+	c #D88600",
";+	c #9A5800",
">+	c #CE8000",
",+	c #E18E00",
"'+	c #C37400",
")+	c #341800",
"!+	c #0E0200",
"~+	c #F69A00",
"{+	c #E89300",
"]+	c #B47100",
"^+	c #794B00",
"/+	c #452900",
"(+	c #AB6700",
"_+	c #C37B00",
":+	c #784A00",
"<+	c #BC7300",
"[+	c #AA6700",
"}+	c #D88700",
"|+	c #C57A00",
"1+	c #9D5C00",
"2+	c #DD8700",
"3+	c #EA9100",
"4+	c #FA9F00",
"5+	c #EA9200",
"6+	c #DD8600",
"7+	c #CC7900",
"8+	c #BB6D00",
"9+	c #C57500",
"0+	c #D98600",
"a+	c #A65F00",
"b+	c #CF8100",
"c+	c #E48F00",
"d+	c #D78500",
"e+	c #DE8800",
"f+	c #EE9600",
"g+	c #C67A00",
"h+	c #AE6700",
"i+	c #B16600",
"j+	c #B96A00",
"k+	c #C06F00",
"l+	c #884C00",
"m+	c #E99100",
"n+	c #DE8700",
"o+	c #BB6F00",
"p+	c #DC8600",
"q+	c #EB9200",
"r+	c #AB6500",
"s+	c #A05A00",
"t+	c #B66800",
"u+	c #BA6F00",
"v+	c #CB7F00",
"w+	c #845100",
"x+	c #D07C00",
"y+	c #E78F00",
"z+	c #EE9500",
"A+	c #CD7F00",
"B+	c #955800",
"C+	c #814700",
"D+	c #A25C00",
"E+	c #6F3D00",
"F+	c #865100",
"G+	c #945A00",
"H+	c #B86E00",
"I+	c #C77500",
"J+	c #B16900",
"K+	c #985B00",
"L+	c #693C00",
"M+	c #5D3100",
"N+	c #864A00",
"O+	c #754000",
"P+	c #B86A00",
"Q+	c #BF6F00",
"R+	c #A75F00",
"S+	c #8B4D00",
"T+	c #6D3A00",
"U+	c #603200",
"V+	c #4D2700",
"W+	c #4C2600",
"X+	c #834900",
"Y+	c #A45E00",
"Z+	c #9B5900",
"`+	c #623600",
" @	c #6A3B00",
".@	c #C47200",
"+@	c #C47100",
"@@	c #935200",
"#@	c #B46800",
"$@	c #925200",
"%@	c #8D5500",
"&@	c #8E5100",
"*@	c #854900",
"=@	c #B76900",
"-@	c #532B00",
";@	c #5D3000",
">@	c #5B2F00",
",@	c #5C3000",
"'@	c #804600",
")@	c #693B00",
"!@	c #C27000",
"~@	c #8F4F00",
"{@	c #753E00",
"]@	c #D58500",
"^@	c #C07200",
"/@	c #6D3B00",
"(@	c #925100",
"_@	c #9C5800",
":@	c #AC6200",
"<@	c #8C4D00",
"[@	c #5A2F00",
"}@	c #361A00",
"|@	c #371A00",
"1@	c #412000",
"2@	c #693800",
"3@	c #683700",
"4@	c #603500",
"5@	c #A05B00",
"6@	c #7E4500",
"7@	c #7F4600",
"8@	c #D48400",
"9@	c #9B5700",
"0@	c #522A00",
"a@	c #351900",
"b@	c #1A0900",
"c@	c #1D0B00",
"d@	c #3F1F00",
"e@	c #673600",
"f@	c #401F00",
"g@	c #6B3A00",
"h@	c #BF7200",
"i@	c #7A4200",
"j@	c #3E1E00",
"k@	c #A85F00",
"l@	c #B96B00",
"m@	c #A15B00",
"n@	c #583200",
"o@	c #945800",
"p@	c #CA7A00",
"q@	c #784100",
"r@	c #3E1F00",
"s@	c #1F0C00",
"t@	c #341900",
"u@	c #5F3400",
"v@	c #7B4B00",
"w@	c #C97E00",
"x@	c #B66D00",
"y@	c #693700",
"z@	c #955500",
"A@	c #5B3200",
"B@	c #3D1D00",
"C@	c #3D1E00",
"D@	c #1E0C00",
"E@	c #3C1D00",
"F@	c #6B3B00",
"G@	c #5C3300",
"H@	c #371C00",
"I@	c #1C0A00",
"J@	c #402000",
"K@	c #C07300",
"L@	c #8F5200",
"M@	c #B16500",
"N@	c #7A4100",
"O@	c #6E3A00",
"P@	c #4E2800",
"Q@	c #5F3200",
"R@	c #542B00",
"S@	c #723D00",
"T@	c #E99300",
"U@	c #1B0A00",
"V@	c #613300",
"W@	c #673900",
"X@	c #884B00",
"Y@	c #754100",
"Z@	c #5A3100",
"`@	c #925300",
" #	c #935300",
".#	c #1F0D00",
"+#	c #341A00",
"@#	c #562E00",
"##	c #381900",
"$#	c #683B00",
"%#	c #492B00",
"&#	c #663500",
"*#	c #965900",
"=#	c #794A00",
"-#	c #693A00",
";#	c #C17000",
">#	c #9F5A00",
",#	c #F09600",
"'#	c #6E3B00",
")#	c #5A2E00",
"!#	c #351800",
"~#	c #361800",
"{#	c #242E00",
"]#	c #252E00",
"^#	c #1E2600",
"/#	c #0F1400",
"(#	c #0F1500",
"_#	c #1F2700",
":#	c #7D4C00",
"<#	c #E48D00",
"[#	c #3D4D00",
"}#	c #3E4D00",
"|#	c #3F4D00",
"1#	c #344100",
"2#	c #1B2500",
"3#	c #1C2500",
"4#	c #354200",
"5#	c #364200",
"6#	c #5A3400",
"7#	c #955900",
"8#	c #7D4400",
"9#	c #502800",
"0#	c #391A00",
"  . + @ @ @ @ @ @ @ @ @ @ @ @ @ @ @ @ @ @ @ @ @ @ @ @ # . $ % % $ . # @ @ @ @ @ @ @ @ @ @ @ @ @ @ @ @ @ @ @ @ @ @ @ @ # . & % * ",
". = - @ @ @ @ @ @ @ @ @ @ @ @ @ @ @ @ @ @ @ @ @ @ @ @ ; = > , ' > = ; @ @ @ @ @ @ @ @ @ @ @ @ @ @ @ @ @ @ @ @ @ @ @ @ ; = ) , * ",
"+ - ! @ @ @ @ @ @ @ @ @ @ @ @ @ @ @ @ @ @ @ @ @ @ @ @ ~ - { ] ] { - ~ @ @ @ @ @ @ @ @ @ @ @ @ @ @ @ @ @ @ @ @ @ @ @ @ ~ - ^ ] * ",
"@ @ @ @ @ @ @ @ @ @ @ @ @ @ @ @ @ @ @ @ @ @ @ @ @ / - # + { ( _ : @ < @ @ @ @ @ @ @ @ @ @ @ @ @ @ @ @ @ @ @ @ @ @ / - # + ^ ( * ",
"@ @ @ @ @ @ @ @ @ @ @ @ @ @ @ @ @ @ @ @ @ @ @ @ @ - = [ . > } | 1 @ < @ @ @ @ @ @ @ @ @ @ @ @ @ @ @ @ @ @ @ @ @ @ - = [ . ) } * ",
"@ / - - 2 < < @ @ @ @ @ @ @ @ @ @ @ @ @ @ @ @ @ @ - = 3 4 5 6 | 7 / ; - 2 < < @ @ @ @ @ @ @ @ @ @ @ @ @ @ @ @ @ @ - = 3 4 8 6 * ",
"@ - = = - @ @ @ @ @ @ @ @ @ @ @ @ @ @ @ @ @ @ @ @ ! - 9 0 5 % | 7 - a = - @ @ @ @ @ @ @ @ @ @ @ @ @ @ @ @ @ @ @ @ ! - 9 0 8 % * ",
"@ + b c d e f g h @ @ @ @ @ @ @ @ @ @ 2 - - / @ @ < @ ; = > , i 7 + [ c d e f g h @ @ @ @ @ @ @ @ @ @ 2 - - / @ @ < @ ; = ) , * ",
"@ + b j k l m n o @ @ @ @ @ @ @ @ @ @ - = = - @ @ @ @ ~ - { ] i : + [ j k l m n o @ @ @ @ @ @ @ @ @ @ - = = - @ @ @ @ ~ - ^ ] * ",
"@ ; = p q r s t u o v @ < @ < < < v o w x a ; 2 ; ; 2 ~ - { ] i 7 ; y p q r s t u o v @ < @ < < < v o w x a ; 2 ; ; 2 ~ - ^ ] * ",
"@ ! - z A B C D C n g @ @ @ @ @ @ E n F G - 2 - = = - ; a > , | 7 ! ; z A B C D C n g @ @ @ @ @ @ E n F G - 2 - = = - ; a ) , * ",
"H H H # H I J K L M N # O z P Q R S T J U z V W X Y Z `  .$ 6 ( S H O # H I J K L M N # O z P Q R S T J U z V W X Y Z `  ...6 * ",
". . +.[ [ @.#.$.%.&.*.. [ =.-.m ;.>.,.'.).p q !.&.~.{.3 ].^.6 , > . [ [ [ @.#.$.%.&.*.. [ =.-.m ;.>.,.'.).p q !.&.~.{.3 ].8 6 * ",
"/./.(.(.(._...:.<.[.}._...|.1.2.3.4.5..._.$.[.6.6.7.8./.9.0.a.a.0.(.9.(.(._...:.<.[.}._.b.c.d.e.f.<.:..._.$.[.g.h.7.$./.i.:.j.* ",
"k.k.k.k.k.4.l.m.n.o.K 4.p.a.q.r.s.t.m.u.4.7.v.h.w.x.7.y.y.d.z.A.1.k.B.k.k.4.l.m.n.o.K 4.p.a.q.r.s.t.m.u.4.7.v.h.w.x.7.y.y.C.z.* ",
"D.E.F.m m G.H.H.G.m m I.H.] ' J.K.L.M.H.N.m m m m O.&.P.O.Q.R.S.Q.m m m m G.H.H.G.m m T.S.a.U.V.W.G.X.H.G.m m O.&.P.O.Q.Y.Z.`.* ",
" +r u e f .+++++@+R e @+++S > 5.#+Q.$+++@+e R f R W %+X W &+*+=+&+e f e e .+++++@+f e -+) ;+1.W.>+@+,+++.+f R N X '+W $+M.)+!+* ",
"g.;.f < < @ @ @ @ @ @ < @ ; = *.&.m e @ < @ @ @ @ - = = - - = = - @ @ @ @ @ @ @ @ @ @ ~+= *.&.m e @ < @ @ @ @ - = a - {+]+^+/+* ",
"D.m Q < < < < < < < < < < ~ ; N M m f < < < < < < 2 ~+; 2 2 ; ; 2 < < < < < < < < < < ~ ; N M (+R < < < < < < 2 ~+; 2 h {+_+:+* ",
"m <+&+e f o h / - + + + + ; ! e [+m e @ < @ @ @ @ @ @ @ @ @ @ @ @ @ @ @ @ @ @ @ @ @ @ < @ e m m e @ < @ @ @ @ @ @ @ @ < @ 1 _ * ",
"R }+<+l ;.|+o - a . b b . a - e (+m e @ < @ @ @ @ @ @ @ @ @ @ @ @ @ @ @ @ @ @ @ @ @ @ < @ e m m e @ < @ @ @ @ @ @ @ @ < < ++| * ",
"@ g n 1+D m f ; a . b b . 2+3+-+M m e @ < @ @ @ @ @ @ @ @ @ @ @ @ @ @ @ @ / - + + - 2 < < e m m e @ < @ @ @ @ @ @ @ @ < @ 1 _ * ",
"< 4+E >+1+l e / ~++ + + + 5+6+*.P.m e @ < @ @ @ @ @ @ @ @ @ @ @ @ @ @ @ @ - = b b = - < @ e m m e @ < @ @ @ @ @ @ @ @ < @ 1 _ * ",
"@ @ @ E n <+&+g 4+@ @ @ @ ~+= *.P.(+R ! ; - / @ @ @ @ @ @ @ @ @ @ @ @ @ @ - = 7+8+9+Z # # 0+M (+e ! ; - / @ @ @ @ @ @ < @ ++| * ",
"@ @ @ 4+g &+<+|+o @ < < @ ~ - -+O.(+e - a = - @ @ @ @ @ @ @ @ @ @ @ @ @ @ 2 - d k a+9+[ . *.P.(+e - a = - @ @ @ @ @ @ < @ 1 _ * ",
"@ @ @ < @ e m F.b+g 4+< < < @ c+I.C d+3+e+= - @ < < < < < 2 - - 2 < < < < < < f+g+h+i+j+k+_.l+T.&+m+n+= - @ @ @ @ @ @ 2 - S ] * ",
"@ @ @ < @ f ;.D 1+n g @ @ < @ ,+X.R.o+p+q+- ! @ @ @ @ @ @ - = = - @ @ @ @ @ @ v E S r+s+t+..l.R.) p+q+- ! @ @ @ @ @ @ ; = u+' * ",
"H H + # H N M w.w.T.v+,+e V z S w+% $ x+y++ # z+P R R f R U ).).U e e e e e e R e A+B+C+D+5.E+R.=+= ; @ @ @ @ @ @ @ @ ; = u+' * ",
". . . [ . X P. +6.Y.F+G+I.H+=.> } % 5 I+ .[ . =.-.m ;.m m J+j j J+m m m m m m (+(+K+L+M+C+N+O+Q.-+- ~ @ @ @ @ @ @ @ @ 2 - S ] * ",
"/.P+Q+k+P+R+S+g.T+U+V+W+U+X+Y+Z+`+ @&   .@+@  /.k. + + +D.@@#@i.$@E.r m m m m m m N.H.%@&@*@K.N.@+@ < @ @ @ @ @ @ @ @ < @ ++| * ",
"k.s+=@=@s+S+x.T+-@W+;@>@q.,@'@1.z.)@&       !@(.~@g.{@{@g.B./.(.B.C B e e e e e e c+++]@^@:./@X.,+@ < @ @ @ @ @ @ @ @ < @ ++| * ",
"(@_@:@R+<@g.T+[@}@|@[@[@|@1@2@3@1@4@c.P+k+.@+@P+5@S+6@t.T+7@:.:.#+l e @ < @ @ @ @ @ @ ; = ) R.%@8@- ~ @ @ @ @ @ @ @ @ ~ - ^ ] * ",
"/...9@S+x.T+0@a@b@c@}@a@c@d@3@e@f@U.6@5@P+    k+P+R+S+T+0@z.4@g@O+m Q < < < < < < < < ~ ~+-+T.&@h@= ~+@ @ @ @ @ @ @ @ ; = u+' * ",
"i.R+<@i@D.s.d@* * * * * * |@>@[@|@j@2@<@k@i.#@j+k+l@m@7@A.* * n@o@n g @ @ @ @ @ @ @ @ 2 - N M 7.$.p@z @ @ @ @ @ @ ! - y+x+& % * ",
"(@<@x.D.q@2@r@* * * * * * s@}@t@s@j@3@x.<@k.y.5@P+k+P+:.u@* * v@w@o v @ @ @ @ @ @ @ @ ; = '+P.v.[.x@P @ < @ @ @ @ - = 3 4 8 6 * ",
"2@2@y@2@3@[@t@* * * * * * * * * * a@>@2@s.3@2@C.:.....z@A@* * _ 1 @ < @ @ @ @ @ @ @ @ H b 9.k.v.S+-.P @ < @ @ @ @ - = 3 4 8 6 * ",
"B@C@r@d@d@}@D@* * * * * * * * * * D@}@r@j@E@B@U.4@ @F@G@H@* * | ++@ < @ @ @ @ @ @ @ @ H b (.k.7.$.p@z @ @ @ @ @ @ ! - y+x+& % * ",
"* I@}@d@d@d@d@d@d@d@d@f@J@}@c@c@}@|@c@* * * * * * * * * * * * _ 1 @ < @ @ @ @ @ @ @ @ ; = K@L@4.M@. # @ @ @ @ @ @ @ @ ; = u+' * ",
"* t@[@3@2@y@2@2@2@2@2@s.2@[@}@|@[@>@}@* * * * * * * * * * * * _ 1 @ < @ @ @ @ @ @ @ @ ~ - 8@%@p.b.. # @ @ @ @ @ @ @ @ ~ - ^ ] * ",
"d@-@T+D.D.D.D.D.D.N@N@g.O@U+V+P@Q@U+P@|@c@* * * * * * * * * * | ++@ < @ @ @ @ @ @ @ @ ~ - 8@%@g@:.p@z @ @ @ @ @ @ @ @ < @ 1 _ * ",
"2@O@g.N@N@N@N@N@N@i@N@O@R@P@U+U+P@P@U+>@|@* * * * * * * * * * _ 1 @ < @ @ @ @ @ @ @ @ ; = K@L@S@#+-.P @ < @ @ @ @ @ @ < @ ++| * ",
"D.D.D.D.D.D.D.n.T+2@y@[@}@}@[@Q@P@P@Q@[@}@* * * * * * * * * * ] ^ - ~ @ @ @ @ @ @ @ @ H b 9.k.v.S+q T@@ < < @ ! - - ! < < ++| * ",
"N@D.D.D.D.D.D.T+-@d@r@a@I@U@}@P@U+U+P@|@c@* * * * * * * * * * ' u+= ; @ @ @ @ @ @ @ @ H b (.k.7.8.p@z @ @ @ @ - = = - < @ 1 _ * ",
"N@D.D.D.D.g.T+U+V+|@U@* * c@|@P@V@V@P@|@c@* * * * * * * * * * W@8 b H @ < @ @ @ @ @ @ ~+= h@L@X@i+3 y+H # # H 9 3 3 9 O # 8@( * ",
"D.D.D.D.D.T+-@V+Q@[@a@* * }@[@Q@P@P@Q@[@}@* * * * * * * * * * W@8 b H @ @ @ @ @ @ @ @ ~ - 8@%@Y@b.].3 . . . . x+I+I+x+[ . u+, * ",
"2@O@g.g.O@U+V+P@U+V@P@}@c@|@>@[@|@|@[@>@|@* * * * * * * * * * , ) a ; ! - - / @ @ @ @ < @ 1 | Z@`@b.M@(.(.(.(.(.(.(.(._... #Z@* ",
"d@R@T+T+R@V+Q@Q@P@P@U+>@|@.#}@}@c@c@}@|@.#* * * * * * * * * * ] ^ - ~ - = = - @ @ @ @ < @ 1 | +#@#Y@X@k.k.k.k.k.y.y.k.4.p.Z@+#* ",
"* }@[@[@}@}@[@[@}@}@[@>@}@* * * * * * * * * * * * * * * * * * ( ^ H # 3+2+= - @ @ @ @ ~ - ]@%@B@##$#W.m (+m m m m m m I.H.^+%#* ",
"* c@}@a@c@c@}@}@c@c@}@|@.#* * * * * * * * * * * * * * * * * * } ) . [ p+3+- ! @ @ @ @ ~+= K@L@&#&#*#>+e f e e e e e e e ++_+=#* ",
"d@d@d@d@d@d@d@f@J@|@s@s@|@1@1@|@s@* * * * * * * * * * * * * * )@& !@  b + @ @ @ @ @ @ H . i+4.S@4.-.P @ < @ @ @ @ @ @ < @ ++| * ",
"2@2@y@y@2@2@y@2@2@[@a@a@[@s.s.>@}@* * * * * * * * * * * * * * -#8 ;#  b H @ < @ @ @ @ H b ..p.J.>#=.,#< < < < < < < < < < ++| * ",
"D.D.D.D.D.D.D.g.T+[@a@}@[@s.s.>@}@* * * * * * * * * * * * * * 6 8 4 3 = - @ @ @ @ @ @ # . b.p.p.b.. # @ @ @ @ @ @ @ @ ~ - ^ ] * ",
"N@N@N@N@N@i@N@'#R@|@c@s@|@1@1@|@s@* * * * * * * * * * * * * * % & x+y+- 2 @ @ @ @ @ @ H . _.4.4.i+. # @ @ @ @ @ @ @ @ ; = u+' * ",
"D.D.D.N@D.n.T+U+V+|@c@* * * * * * * * * * * * * * * * * * * * , ) = ; @ @ @ @ @ @ @ @ H . /.k.7.$.p@z @ @ @ @ @ @ ! - y+x+& % * ",
"D.D.D.D.D.T+-@V+Q@[@}@* * * * * * * * * * * * * * * * * * * * ] ^ - ~ @ @ @ @ @ @ @ @ H . /.k.v.S+-.P @ < @ @ @ @ - = 3 4 8 6 * ",
"N@n.O@'#n.O@R@P@U+>@|@* * * * * * * * * * * * * * * * * * * * ] S - 2 @ @ @ @ @ @ @ @ H . /.k.v.S+q P @ < @ @ @ @ - = 3 I+& -#* ",
"D.T+-@-@T+n.T+U+V+|@c@* * * * * * * * * * * * * * * * * * * * , ) = ; @ @ @ @ @ @ @ @ H . /.k.7.$.p@z @ @ @ @ @ @ ! - y+x+& % * ",
"y@)#!#!#)#y@s.>@~#* * * * * * * * * * * * * * * * * * * * * * , ) a ; @ @ @ @ @ @ < @ # . /.k.7.8.=.z @ < @ @ @ @ @ @ H b 8 W@* ",
"d@a@I@I@a@f@J@|@c@* * * * * * * * * * * * * * * * * * * * * * ] S - 2 @ @ @ @ @ @ @ @ H . /.k.v.S+q P @ < @ @ @ @ < @ # . & % * ",
"{#{#{#]#{#^#/#/#^#{#]#]#{#^#/#(#^#_#(#* * * * * * * * * * * * :#w@P ,#~+2 < < 2 ~+# H <#{.R+K w.q@O.N - 2 @ @ @ @ @ @ ; = ) , * ",
"[#}#}#|#}#1#2#3#4#|#|#|#|#4#^#_#4#5#_#* * * * * * * * * * * * 6#7#-.p = - @ @ - = . b {.~.S+x.w. +&.X = ~+@ @ @ @ @ @ ~ - ^ ] * ",
"|#|#|#|#|#4#^#^#4#|#|#|#|#4#^#_#4#5#_#* * * * * * * * * * * * C@2@7.R+X N f f N X i./.R+S+n.T+e.n.&.X = ~+@ @ @ @ @ @ ~ - ^ ] * ",
"{#{#{#]#{#^#/#/#^#{#]#]#{#^#/#(#^#_#(#* * * * * * * * * * * * B@e@8#7.&.M m m M &.k.k.K x.e.0@9#T+O.N - 2 @ @ @ @ @ @ ; = ) , * ",
"* * * * * * * * * * * * * * * * * * * * * * * * * * * * * * * d@2@D.N@D.D.D.D.D.D.D.D.N@D.3@d@0#3@m f @ < @ @ @ @ @ @ # . & % * "};
