/* XPM */
static char * CornerLL_xpm[] = {
"64 64 407 2",
"  	c #000000",
". 	c #683900",
"+ 	c #AA6200",
"@ 	c #D58000",
"# 	c #F29800",
"$ 	c #FFA200",
"% 	c #FFA300",
"& 	c #E69100",
"* 	c #AA6600",
"= 	c #683700",
"- 	c #391A00",
"; 	c #3F1F00",
"> 	c #794100",
", 	c #7A4100",
"' 	c #693800",
") 	c #734300",
"! 	c #BB7000",
"~ 	c #E18A00",
"{ 	c #F69B00",
"] 	c #FCA000",
"^ 	c #F59A00",
"/ 	c #DA8700",
"( 	c #A36100",
"_ 	c #6D3A00",
": 	c #502800",
"< 	c #522A00",
"[ 	c #6C3900",
"} 	c #7F4500",
"| 	c #8B4C00",
"1 	c #905000",
"2 	c #975600",
"3 	c #A46100",
"4 	c #8A4C00",
"5 	c #7D4400",
"6 	c #673600",
"7 	c #3D1D00",
"8 	c #0F1500",
"9 	c #1F2700",
"0 	c #1E2600",
"a 	c #0F1400",
"b 	c #242E00",
"c 	c #252E00",
"d 	c #835000",
"e 	c #D38400",
"f 	c #FDA000",
"g 	c #F69A00",
"h 	c #C27400",
"i 	c #753F00",
"j 	c #8B4D00",
"k 	c #A75F00",
"l 	c #B36700",
"m 	c #B46700",
"n 	c #3D1E00",
"o 	c #364200",
"p 	c #354200",
"q 	c #3F4D00",
"r 	c #784000",
"s 	c #774000",
"t 	c #A66000",
"u 	c #C67600",
"v 	c #D48000",
"w 	c #CC7B00",
"x 	c #B66E00",
"y 	c #955900",
"z 	c #5A3400",
"A 	c #1C2500",
"B 	c #1B2500",
"C 	c #344100",
"D 	c #3E4D00",
"E 	c #3D4D00",
"F 	c #784100",
"G 	c #E48D00",
"H 	c #F29700",
"I 	c #F09600",
"J 	c #E99200",
"K 	c #C97E00",
"L 	c #7D4C00",
"M 	c #B76E00",
"N 	c #7E4400",
"O 	c #D38300",
"P 	c #1D0B00",
"Q 	c #371A00",
"R 	c #402000",
"S 	c #401F00",
"T 	c #351900",
"U 	c #1C0A00",
"V 	c #673900",
"W 	c #AA6100",
"X 	c #EF9600",
"Y 	c #CB7A00",
"Z 	c #A65E00",
"` 	c #E28B00",
" .	c #361800",
"..	c #5B2F00",
"+.	c #6A3800",
"@.	c #693700",
"#.	c #5A2E00",
"$.	c #351800",
"%.	c #D07C00",
"&.	c #E78F00",
"*.	c #FC9F00",
"=.	c #CA7A00",
"-.	c #A55E00",
";.	c #4D2700",
">.	c #603200",
",.	c #532B00",
"'.	c #693A00",
").	c #C77500",
"!.	c #D17D00",
"~.	c #4E2800",
"{.	c #542B00",
"].	c #6E3A00",
"^.	c #6E3B00",
"/.	c #683A00",
"(.	c #C77400",
"_.	c #361A00",
":.	c #5A2F00",
"<.	c #5F3200",
"[.	c #724200",
"}.	c #BA6F00",
"|.	c #B16600",
"1.	c #874B00",
"2.	c #B06500",
"3.	c #1F0C00",
"4.	c #412000",
"5.	c #7A4200",
"6.	c #AC6300",
"7.	c #744000",
"8.	c #763F00",
"9.	c #8C5700",
"0.	c #E08E00",
"a.	c #9F5A00",
"b.	c #6C3B00",
"c.	c #AB6200",
"d.	c #C37100",
"e.	c #C17000",
"f.	c #723D00",
"g.	c #F19700",
"h.	c #C27000",
"i.	c #693B00",
"j.	c #794A00",
"k.	c #C37B00",
"l.	c #E59000",
"m.	c #CE8000",
"n.	c #965900",
"o.	c #663500",
"p.	c #8F5200",
"q.	c #C07300",
"r.	c #EA9100",
"s.	c #DC8600",
"t.	c #D68100",
"u.	c #744300",
"v.	c #1F0D00",
"w.	c #492B00",
"x.	c #794B00",
"y.	c #945B00",
"z.	c #A36300",
"A.	c #AB6700",
"B.	c #975A00",
"C.	c #683B00",
"D.	c #381900",
"E.	c #8D5500",
"F.	c #D58500",
"G.	c #DD8700",
"H.	c #845000",
"I.	c #341A00",
"J.	c #5A3100",
"K.	c #915100",
"L.	c #884B00",
"M.	c #754100",
"N.	c #562E00",
"O.	c #DF8D00",
"P.	c #935300",
"Q.	c #B26600",
"R.	c #B16500",
"S.	c #925300",
"T.	c #FB9F00",
"U.	c #613300",
"V.	c #C87500",
"W.	c #D48400",
"X.	c #F39800",
"Y.	c #E68E00",
"Z.	c #BF7200",
"`.	c #1B0A00",
" +	c #8C5600",
".+	c #3E1F00",
"++	c #E99300",
"@+	c #B36600",
"#+	c #874A00",
"$+	c #9D5900",
"%+	c #6B3A00",
"&+	c #341900",
"*+	c #371C00",
"=+	c #5C3300",
"-+	c #6B3B00",
";+	c #6A3B00",
">+	c #603500",
",+	c #4B2700",
"'+	c #3C1D00",
")+	c #3E1E00",
"!+	c #1E0C00",
"~+	c #5B3200",
"{+	c #955500",
"]+	c #7E4600",
"^+	c #B66D00",
"/+	c #894C00",
"(+	c #985700",
"_+	c #C37400",
":+	c #FA9E00",
"<+	c #ED9500",
"[+	c #7B4B00",
"}+	c #5F3400",
"|+	c #B86A00",
"1+	c #C06F00",
"2+	c #A05B00",
"3+	c #8C4D00",
"4+	c #925100",
"5+	c #ED9600",
"6+	c #C57900",
"7+	c #945800",
"8+	c #583200",
"9+	c #4C2800",
"0+	c #7F4600",
"a+	c #A15B00",
"b+	c #B96B00",
"c+	c #B96A00",
"d+	c #B46800",
"e+	c #A85F00",
"f+	c #8E5100",
"g+	c #9C5D00",
"h+	c #D88600",
"i+	c #E79100",
"j+	c #754000",
"k+	c #4D2800",
"l+	c #7E4500",
"m+	c #1A0900",
"n+	c #9B5700",
"o+	c #7E4800",
"p+	c #A96500",
"q+	c #733E00",
"r+	c #C47100",
"s+	c #C47200",
"t+	c #9C5900",
"u+	c #AC6200",
"v+	c #9C5800",
"w+	c #E18E00",
"x+	c #955B00",
"y+	c #6D3B00",
"z+	c #C07200",
"A+	c #E48F00",
"B+	c #CF8000",
"C+	c #9D5D00",
"D+	c #915000",
"E+	c #753E00",
"F+	c #8F4F00",
"G+	c #7C4400",
"H+	c #804600",
"I+	c #5C3000",
"J+	c #482400",
"K+	c #5D3000",
"L+	c #4C2600",
"M+	c #A05A00",
"N+	c #B76900",
"O+	c #E49000",
"P+	c #A36200",
"Q+	c #743F00",
"R+	c #854900",
"S+	c #9E5E00",
"T+	c #884D00",
"U+	c #925200",
"V+	c #935200",
"W+	c #623600",
"X+	c #9B5900",
"Y+	c #A45E00",
"Z+	c #834900",
"`+	c #BF6F00",
" @	c #9C5C00",
".@	c #864A00",
"+@	c #814700",
"@@	c #5D3100",
"#@	c #693C00",
"$@	c #985B00",
"%@	c #B16900",
"&@	c #BC6E00",
"*@	c #A96600",
"=@	c #D27D00",
"-@	c #A86000",
";@	c #B96F00",
">@	c #B86E00",
",@	c #945A00",
"'@	c #865100",
")@	c #7C4600",
"!@	c #763E00",
"~@	c #BC7000",
"{@	c #6F3D00",
"]@	c #9E5A00",
"^@	c #A25C00",
"/@	c #955800",
"(@	c #CD7F00",
"_@	c #E69000",
":@	c #DD8900",
"<@	c #CD7A00",
"[@	c #EE9500",
"}@	c #A96100",
"|@	c #845100",
"1@	c #EA9300",
"2@	c #CB7F00",
"3@	c #EB9200",
"4@	c #764100",
"5@	c #B66800",
"6@	c #AB6500",
"7@	c #EC9500",
"8@	c #BB6F00",
"9@	c #9D5C00",
"0@	c #854A00",
"a@	c #DE8700",
"b@	c #E99100",
"c@	c #D78600",
"d@	c #884C00",
"e@	c #AE6700",
"f@	c #C67A00",
"g@	c #EE9600",
"h@	c #DE8800",
"i@	c #D78500",
"j@	c #FA9F00",
"k@	c #CF8100",
"l@	c #9F5E00",
"m@	c #C17300",
"n@	c #C57500",
"o@	c #A65F00",
"p@	c #B06800",
"q@	c #DC8800",
"r@	c #C57A00",
"s@	c #BC7300",
"t@	c #D98600",
"u@	c #E38C00",
"v@	c #BB6D00",
"w@	c #CC7900",
"x@	c #DD8600",
"y@	c #EA9200",
"z@	c #D88700",
"A@	c #AA6700",
"B@	c #F99E00",
"C@	c #784A00",
"D@	c #E89300",
"E@	c #452900",
"F@	c #B47100",
"G@	c #0E0200",
"H@	c #341800",
"I@	c #875200",
"J@	c #CA7E00",
"K@	c #D98700",
"L@	c #E38F00",
"M@	c #9A5800",
"N@	c #BD7100",
"O@	c #C27300",
"P@	c #D08100",
"Q@	c #311600",
"R@	c #582D00",
"S@	c #A26200",
"T@	c #6A3C00",
"U@	c #5E3300",
"V@	c #7D4800",
"W@	c #7E4700",
"X@	c #773F00",
"Y@	c #764200",
"Z@	c #6E3D00",
"`@	c #4F2800",
" #	c #804500",
".#	c #7D4500",
"+#	c #613500",
"@#	c #864900",
"##	c #723C00",
"$#	c #A55D00",
"%#	c #9A5700",
"&#	c #743E00",
"*#	c #6B3900",
"=#	c #9B5800",
"-#	c #A36000",
";#	c #BD6E00",
">#	c #B06600",
",#	c #AC6600",
"'#	c #894B00",
")#	c #BD6F00",
"!#	c #CE7B00",
"~#	c #A86100",
"{#	c #D58100",
"]#	c #E88F00",
"^#	c #C77700",
"/#	c #B26A00",
"(#	c #AD6700",
"_#	c #7F4400",
":#	c #DE8A00",
"<#	c #E08C00",
"[#	c #C07500",
"}#	c #E89200",
"|#	c #DE8D00",
"1#	c #D98500",
"2#	c #E18C00",
"3#	c #9E5D00",
"4#	c #874C00",
"5#	c #E38B00",
"6#	c #8D5700",
"7#	c #D28300",
"8#	c #DE8C00",
"9#	c #CC7A00",
"0#	c #CF7C00",
"  . + @ # $ $ $ $ $ $ % $ & * = - ; = > , > > > > > > > > , > ' ;                                                               ",
"  ) ! ~ { $ $ $ $ $ $ ] ^ / ( _ : < [ } | 1 1 2 3 * * 3 2 4 5 6 7                         8 9 0 8 a 0 b c c b 0 a a 0 b c b b b ",
"  d e ^ f $ $ $ $ $ $ g ~ h 2 i [ _ i j k l m h / & & / h k 4 ' n                         9 o p 9 0 p q q q q p 0 0 p q q q q q ",
"  d e ^ f $ $ $ $ $ $ g ~ h 2 r s } j t u v @ ~ ^ $ $ ^ ~ w x y z                         9 o p 9 0 p q q q q p A B C D q D D E ",
"  ) ! ~ { $ $ $ $ $ $ ] ^ / ( F s | k u G H # g ] % % ] g I J K L                         8 9 0 8 a 0 b c c b 0 a a 0 b c b b b ",
"  . + @ # $ % $ $ $ $ % $ J M j N 1 l @ H $ $ $ $ $ $ $ $ ] ^ O d                                             P Q R S T U U T ; ",
"  V W v H $ $ $ $ $ $ % $ X Y Z 4 1 l @ # $ % $ $ $ $ $ $ { ` ! )                                              ...+.@.#.$.$.#.@.",
"  . + %.&.^ *.$ $ $ $ $ $ X =.-.4 1 l @ H $ $ $ $ $ $ $ $ { ~ ! )                                         P Q ;.>._ i _ ,.,._ > ",
"  '.+ ).!.~ ^ $ $ $ $ % $ J M j N 1 l @ H $ $ $ $ $ $ $ $ ] ^ O d                                         Q ..>.~.{.].i ^.].i , ",
"  /.W (.!.~ ^ $ $ $ $ % $ J x j N 1 l @ H $ $ $ $ $ $ $ $ f ^ e d                                         _.:.<.;.,._ > > > > > ",
"  . + %.&.^ *.$ $ $ $ $ $ X =.-.4 1 l @ H $ $ $ $ $ $ $ $ { ~ ! )                                         P Q ;.>._ i > , > > > ",
"  [.}.~ { $ $ $ $ $ $ $ $ # @ |.1.1.2.@ H $ $ $ $ $ $ ] ^ &.%.+ .                             3.Q 4.4.Q 3.P Q {.^., 5., , , , , ",
"  d e ^ f $ $ $ $ $ $ $ $ # @ 6.7.7.6.@ # $ $ $ $ $ $ ^ ~ !.(.W /.                            _...+.+.:._.T :._ 8.> > > > > > > ",
"  9.0.% % % % % % % % % % I Y a.b.7.c.v H $ $ $ $ % $ H v d.e.W '.                            _...+.+.:.T T :.' ' @.' ' @.@.' ' ",
"  9.0.$ % $ $ $ $ $ $ % $ J x 1.f.1.|.@ H $ $ $ $ $ $ g.v d.h.+ i.                            3.Q 4.4.Q 3.3.Q R S ; ; ; ; ; ; ; ",
"  j.k.0.l.l.l.l.l.l.l.& l.m.n.o.o.p.q.~ g $ $ $ $ *.^ r.s.t.@ ! u.                                    v.Q _.P P _._.P P T _.P   ",
"  w.x.y.z.* * * * * * A.* B.C.D.7 E.F.^ f $ $ $ $ ^ ~ G.r.# H e H.                                    _...:._._.:.:._._.:.:._.  ",
"  I.J.7.1.1 K.K.1 1 1 1 1 L.M.N.I.9.O.$ % $ $ $ $ ^ ~ ~ ^ f ^ e d                     v.Q _.P P _._.v.Q ..>.~.~.<.<.;.{._ _ {.; ",
"  J.P.c.2.Q.Q.Q.Q.Q.Q.Q.Q.R.6.S.J.9.O.$ % $ $ $ $ T.^ ^ *.{ ` ! )                     Q ..:.Q Q :...Q P _.~.U.>.~.;.>.].8.8.].' ",
"  ) }.@ t.%.).).%.@ @ @ @ !.V.6.M.E.W.^ f $ $ $ $ $ $ $ $ H v W V                     _.:.<.~.~.<.:._.    T :.<.;.,._ > > > > > ",
"  H.W.# X.Y.!.!.Y.H # # H &.!.|.L.p.Z.~ g $ $ $ $ $ $ % $ H v W V                     P Q ~.U.U.~.Q P     `.Q ;.>._ 8.> > > > , ",
"   +O.$ % ^ ~ ~ ^ $ $ $ $ X =.Z 4 1 Q.v H $ $ $ $ $ $ $ $ { ~ }.[.                    P Q ~.>.>.~._.`.U T .+; ,._ > > > > > > , ",
"  9.0.% % *.^ ^ *.$ % % $ ++M j N 1 @+v H $ $ $ $ $ $ $ $ f ^ e d                     _.:.<.~.~.<.:._._.:.@.' _ i > > > > > > > ",
"  9.0.$ % $ $ $ $ $ $ % $ J x #+f.p.q.~ { $ $ $ $ $ $ $ $ % $ O. +                    Q ..>.~.~.>.>.~.{.]., 5., , , , , , 8.].' ",
"   +O.$ % $ $ $ $ $ $ $ $ X =.$+%+E.W.^ f $ $ $ $ $ $ $ $ % $ 0.9.                    P Q ~.>.<.~.;.>.].8., , > > > > > > _ ,.; ",
"  d e ^ f $ $ $ $ $ $ $ $ # @ 6.7.E.W.^ f $ $ $ $ $ $ $ $ % $ O. +                        _...:.Q _.:.' +.' ' ' ' ' @.' = :.&+  ",
"  [.}.~ { $ $ $ $ $ $ $ $ # @ R.1.p.q.~ { $ $ $ $ $ $ $ $ % $ O. +                        P Q _.P P _.R S ; ; ; ; ; ; ; ; _.U   ",
"  . + %.&.^ *.$ $ $ $ $ $ X =.-.4 1 Q.v H $ $ $ $ $ $ $ $ % $ 0.9.    *+=+-+;+>+,+7 '+)+.+_.!+                    !+_.; ; .+n 7 ",
"  /.W (.!.~ ^ $ $ $ $ % $ J x j N 1 @+v H $ $ $ $ $ $ $ $ % $ O. +    ~+{+c.c.$+]+' = +.' ..T                     &+:.= ' @.' ' ",
"  /.W (.!.~ ^ $ $ $ $ % $ J ^+/+N (+_+~ { $ $ $ $ $ $ $ $ :+<+K [+    }+$+|+1+|+2+K.1 3+} = )+3.&+_.3.            .+' F > } 3+4+",
"  . + %.&.^ *.$ $ $ $ $ $ X =.-.4 3 / ^ ] $ $ $ $ $ $ $ $ 5+6+7+8+    9+0+a+b+1+c+d+m e+3+' )+Q :...Q             ; +.> 5.3+k m ",
"  [.}.~ { $ $ $ $ $ $ $ $ g ~ Z.f+g+h+g f % % % % % % % % i+* j+%+>+k+< _ j k |+1+d.d.|+2+l+,+S 6 = ; P T _.P m+T < _ } j n+c.l ",
"  d e ^ f $ $ $ $ $ $ $ $ f ^ W.E.o+! ~ { $ $ $ $ $ $ % $ l.p+#+$+$+0+_ q+l+j 2+|+r+s+1+|+t+>+4.= ' 4.Q :.:.Q _.:._ 8.3+k u+v+4+",
"  9.0.$ % $ $ $ $ $ $ $ $ % $ w+x+y+$+z+F.0.A+l.l.l.l.l.l.B+C+D+Q.l D+8.E+E+8.F+Q.h.d.d.d.+ i.k+G+H+I+J+..K+L+,._ } j M+N+N+M+1 ",
"  9.0.$ % $ $ $ $ $ $ $ $ % $ O+P+Q+R+f+E.y.P+* * * * * * S+T+U+m d+V+> r r r 1 l d.r+s+d.+ ;+W+X+Y+Z+>.L+;.>._ 8.j k |+1+`+|+l ",
"  d O ^ ] $ $ $ $ $ $ $ $ f ^ h+ @j+.@+@@@#@$@A.A.* * * * * * %@&@&@%@* * *@* x Y @ t.=@).-@. u.;@Y >@z.,@'@)@!@r (+h @ t.@ @ @ ",
"  [.}.~ { $ $ $ $ $ $ $ $ { ~ ~@o+{@]@^@+@/@(@l._@l.l.l.l.l.l.:@<@<@:@_@& _@_@J [@# g.&.%.}@. |@O X 1@l.w+2@g+s s 3 / H # g.H H ",
"  [.}.~ { $ $ $ $ $ $ *.^ 3@s.! o+4@c.5@M+6@O 7@:+$ $ $ $ $ $ ^ ~ ~ ^ $ $ $ $ $ $ *.^ 3@s.8@o+x+w+$ % $ $ 5+6+9@0@*@& $ % $ $ $ ",
"  d O ^ ] $ $ $ $ $ $ ^ ~ a@b@c@g+d@2.1+c+|.e@f@g@% % % % % % ] ^ ^ ] % % % % % $ ^ ~ h@r.i@C+z.A+$ % % % j@5+k@l@* l.$ % $ $ $ ",
"   +O.$ % $ $ $ $ $ $ ^ ~ ` ^ l.A.(+m@@ t.n@o@p@q@^ ] $ $ $ $ $ $ $ $ $ $ $ $ $ $ ^ ~ ` ^ l.A.( h+^ f $ % % $ <+r@s@c@5+j@$ $ $ ",
"  9.0.$ % $ $ $ $ $ $ T.^ { *.l.A.3 t@# # u@n@v@w@~ ^ $ $ $ $ $ $ $ $ $ $ $ $ $ $ T.^ { *._@A.(+m@~ g $ $ $ $ j@5+c@s@6+7@$ $ $ ",
"   +O.$ % $ $ $ $ $ $ $ $ % $ l.* * l.$ % ^ ~ v v ~ ^ $ $ $ $ $ $ $ $ $ $ $ $ $ $ $ $ % $ l.* (+m@x@y@g.g.g.g.g T.l.p+9@m.7@j@% ",
"   +O.$ % $ $ $ $ $ $ $ $ % $ l.* * l.% % ] ^ g.g.^ T.$ $ $ $ $ $ $ $ $ $ $ $ $ $ $ $ % $ l.* 3 h+r.G.@ v v @ ` { & * 0@9@6+5+$ ",
"  9.0.% % $ $ $ $ $ $ $ $ % $ l.* * l.$ % $ $ $ $ $ $ $ $ $ $ $ $ $ $ $ $ $ $ $ $ $ $ % $ l.* A.l.^ ` @ v v @ ` ^ <+r@*@p+s@z@_@",
"   +O.$ % $ $ $ $ $ $ $ $ % $ l.* * l.$ % $ $ $ $ $ $ $ $ $ $ $ $ $ $ $ $ $ $ $ $ $ $ % $ l.* A@l.*.{ g.g.g.g.^ T.B@<+& l.c@s@* ",
"  C@k.D@B@] { g ] % % % % % % _@A.3 / { f % % % % % % % % % % ] { { ] ] { g ] % % % % % % & * 3 / { f % % % % % % % % % % i+* > ",
"  E@x.F@D@^ ` ~ ^ $ $ $ $ % $ l.* 2 m@~ g $ $ $ $ $ $ $ $ $ $ ^ ~ ~ ^ ^ ~ ~ ^ $ $ $ $ % $ l.* 2 m@~ { $ % $ $ $ $ $ $ % % & *@8.",
"  G@H@I@J@K@_+h / _@& L@0.w+O+m.B.G+M@! h+l.& O+0.0.L@l.l.& l.c@~@N@c@K@h O@K@_@& _@l.O+0.J@ @#+]@;@O 0.O+l._@O+0.0.L@& l.P@S+r ",
"  Q@R@)@ @( (+2 ( * * S@y.x+S@B.T@,+U@V@g+* * S@y.y.S@* * * *  @V@o+ @( (+2 ( * * * * P+y.I@W@Q+b.[.d y.z.* * S@y.y.S@* * l@T+> ",
"  k+]+K.K.4 } s X@N 4 1.Y@Z@q++.`@J+U@7.1.|  #i Z@4@1.1 1 D+1 G+9+k+.#K.K.4 } s X@N 4 1.Y@Z@q++.`@J+U@7.1.|  #i Z@4@1.1 1 1 1 1 ",
"  +#$+m l -.4 X@8./+-.2.c.$+@###[ .#t+6.2.$#/+@#$+c.2.Q.Q.@+Q.%#U@U@%#@+l Z 4 !@!@/+-.2.c.]@1.&#*#G+=#c.2.$#/+@#$+c.2.Q.Q.Q.l l ",
"  /.W V.!.u t 2 -#M w <@;#>#,#*@* x Y t.@ m@2 '#-.)#!#t.t.t.@ ;@) /.~#V.!.u t 2 -#M w <@;#>#,#*@* x Y t.@ m@2 '#-.)#!#t.t.{#@ @ ",
"  /.c.=@]#u@^#h K@1@X :@/#(#O _@i+J X X.# / 3 _#| /#:#H # X.H O H./.}@=@]#u@^#h K@1@X :@/#(#O _@i+J X X.# / 3 _#| /#:#H # H H H ",
"  ) ! ` { ^ ~ ~ ^ ] ^ <#[#6+7@$ $ $ $ $ $ 5+6+C+0@C+B+}#X { *.|#9.) ;@` { ^ ~ ~ ^ ] ^ <#[#6+7@$ $ $ $ $ $ 5+6+C+0@C+B+}#X ^ *.$ ",
"  d e ^ f ] { { ] { ` 1#2#<+:+% % % $ % $ :+<+P@3#4#S+M w 5#{ |#6#d 7#^ f ] { { ] { ` 1#2#<+:+% % % $ % $ :+<+P@3#4#S+M w ~ { $ ",
"  d e ^ f $ $ $ $ ^ ~ ~ ^ $ $ $ $ $ $ $ $ $ $ <+6+* p+p@&@t.g.8#6#d 7#^ f $ $ $ $ ^ ~ ~ ^ $ $ $ $ $ $ $ $ $ $ <+6+* p+p@&@v g.$ ",
"  ) ! ~ { $ % $ $ T.^ ^ ] $ $ $ $ $ $ $ $ $ $ B@5+& l.q@9#t.g.|#6#) ;@~ { $ % $ $ T.^ ^ ] $ $ $ $ $ $ $ $ $ $ B@5+& l.q@9#v g.$ ",
"  . W 0#Y.^ *.$ $ $ $ $ $ $ $ $ $ $ $ $ $ $ $ $ $ $ $ ^ ~ ` ^ |#9.. -@0#Y.^ *.$ $ $ $ $ $ $ $ $ $ $ $ $ $ $ $ $ $ $ $ ^ ~ ~ ^ $ ",
"  /.W (.!.~ ^ $ $ $ $ $ $ $ $ $ $ $ $ $ $ $ $ $ $ % % ] ^ { T.|#9./.-@(.!.~ ^ $ $ $ $ $ $ $ $ $ $ $ $ $ $ $ $ $ $ % % ] ^ ^ T.$ ",
"  u.! @ t.~ ^ $ $ $ $ $ $ $ $ $ $ $ $ $ $ $ $ $ $ $ $ $ $ % $ O.9.u.;@@ t.~ ^ $ $ $ $ $ $ $ $ $ $ $ $ $ $ $ $ $ $ $ $ $ $ $ $ $ ",
"  H.e g.# ^ T.$ $ $ $ $ $ $ $ $ $ $ $ $ $ $ $ $ $ $ $ $ $ % $ 8# +H.7#g.# ^ T.$ $ $ $ $ $ $ $ $ $ $ $ $ $ $ $ $ $ $ $ $ $ $ $ $ ",
"  d e ^ f $ $ $ $ $ $ $ $ $ $ $ $ $ $ $ $ $ $ $ $ $ $ $ $ f ^ 7#d d 7#^ f $ $ $ $ $ $ $ $ $ $ $ $ $ $ $ $ $ $ $ $ $ $ $ $ *.^ g.",
"  ) ! ~ { $ $ $ $ $ $ $ $ $ $ $ $ $ $ $ $ $ $ $ $ $ $ $ $ { ~ ;@[.) ;@~ { $ $ $ $ $ $ $ $ $ $ $ $ $ $ $ $ $ $ $ $ $ $ $ $ ^ ~ @ ",
"  . + @ # $ $ $ $ $ $ $ $ $ $ $ $ $ $ $ $ $ $ $ $ $ $ $ $ # @ }@. . }@@ # $ $ $ $ $ $ $ $ $ $ $ $ $ $ $ $ $ $ $ $ $ $ $ $ g.@ d."};
