/* XPM */
static char * CornerLR_xpm[] = {
"64 64 429 2",
"  	c #000000",
". 	c #1F2800",
"+ 	c #3D4B00",
"@ 	c #3D4D00",
"# 	c #242E00",
"$ 	c #3F1F00",
"% 	c #693700",
"& 	c #794100",
"* 	c #7A4100",
"= 	c #693800",
"- 	c #3D1D00",
"; 	c #925100",
"> 	c #B46700",
", 	c #B36700",
"' 	c #905000",
") 	c #D58000",
"! 	c #F29700",
"~ 	c #FFA200",
"{ 	c #FFA300",
"] 	c #E69000",
"^ 	c #AA6600",
"/ 	c #763F00",
"( 	c #784000",
"_ 	c #F19700",
": 	c #C37100",
"< 	c #293300",
"[ 	c #313D00",
"} 	c #415000",
"| 	c #3E4D00",
"1 	c #252E00",
"2 	c #341900",
"3 	c #592E00",
"4 	c #6C3A00",
"5 	c #753F00",
"6 	c #1E0C00",
"7 	c #371A00",
"8 	c #552C00",
"9 	c #6E3B00",
"0 	c #542B00",
"a 	c #361A00",
"b 	c #1D0B00",
"c 	c #3D1E00",
"d 	c #8B4D00",
"e 	c #A65F00",
"f 	c #AB6100",
"g 	c #9D5800",
"h 	c #A05B00",
"i 	c #B86A00",
"j 	c #FA9E00",
"k 	c #EC9500",
"l 	c #D78700",
"m 	c #BD7300",
"n 	c #AD6800",
"o 	c #AB6700",
"p 	c #A05F00",
"q 	c #894D00",
"r 	c #FB9F00",
"s 	c #F59A00",
"t 	c #F09600",
"u 	c #F49900",
"v 	c #E18A00",
"w 	c #D68100",
"x 	c #425100",
"y 	c #435200",
"z 	c #465600",
"A 	c #404F00",
"B 	c #252F00",
"C 	c #1B0A00",
"D 	c #341800",
"E 	c #522A00",
"F 	c #6D3A00",
"G 	c #5B2F00",
"H 	c #3E1F00",
"I 	c #7F4500",
"J 	c #9A5700",
"K 	c #AC6200",
"L 	c #B76900",
"M 	c #C06F00",
"N 	c #C47800",
"O 	c #BB7200",
"P 	c #D88700",
"Q 	c #E89200",
"R 	c #D18200",
"S 	c #B26600",
"T 	c #D58100",
"U 	c #D37F00",
"V 	c #E08900",
"W 	c #FC9F00",
"X 	c #F59B00",
"Y 	c #F29800",
"Z 	c #3C4B00",
"` 	c #3C4A00",
" .	c #364300",
"..	c #1D2800",
"+.	c #1C0B00",
"@.	c #532B00",
"#.	c #351900",
"$.	c #5A2F00",
"%.	c #683700",
"&.	c #7A4200",
"*.	c #A75F00",
"=.	c #FA9F00",
"-.	c #CE8000",
";.	c #9D5C00",
">.	c #A96500",
",.	c #E59000",
"'.	c #EF9600",
").	c #CC7B00",
"!.	c #BC6E00",
"~.	c #CC7A00",
"{.	c #222B00",
"].	c #1F2700",
"^.	c #192100",
"/.	c #0F1400",
"(.	c #311700",
"_.	c #6E3A00",
":.	c #784100",
"<.	c #8C4D00",
"[.	c #A05A00",
"}.	c #ED9600",
"|.	c #C57900",
"1.	c #9D5D00",
"2.	c #854A00",
"3.	c #A96600",
"4.	c #E69100",
"5.	c #B76E00",
"6.	c #B06800",
"7.	c #DC8800",
"8.	c #FCA000",
"9.	c #3B1C00",
"0.	c #4D2700",
"a.	c #603200",
"b.	c #6A3800",
"c.	c #C27400",
"d.	c #DA8700",
"e.	c #D78600",
"f.	c #BC7300",
"g.	c #C57A00",
"h.	c #ED9500",
"i.	c #E38F00",
"j.	c #A26200",
"k.	c #874B00",
"l.	c #B06500",
"m.	c #CE7B00",
"n.	c #DE8A00",
"o.	c #CF8000",
"p.	c #9E5E00",
"q.	c #5E3100",
"r.	c #703B00",
"s.	c #6F3B00",
"t.	c #5F3200",
"u.	c #985700",
"v.	c #A46100",
"w.	c #F99E00",
"x.	c #E08E00",
"y.	c #945B00",
"z.	c #764100",
"A.	c #AB6200",
"B.	c #BD6F00",
"C.	c #B26A00",
"D.	c #874C00",
"E.	c #743E00",
"F.	c #6B3900",
"G.	c #613300",
"H.	c #512900",
"I.	c #4E2800",
"J.	c #603300",
"K.	c #401F00",
"L.	c #774000",
"M.	c #9F5E00",
"N.	c #F69B00",
"O.	c #6E3D00",
"P.	c #9D5900",
"Q.	c #A55E00",
"R.	c #8B4C00",
"S.	c #9E5D00",
"T.	c #502800",
"U.	c #452300",
"V.	c #633400",
"W.	c #402000",
"X.	c #1A0900",
"Y.	c #763E00",
"Z.	c #CF8100",
"`.	c #F69A00",
" +	c #E28B00",
".+	c #E49000",
"++	c #864900",
"@+	c #894B00",
"#+	c #7F4400",
"$+	c #D08100",
"%+	c #472300",
"&+	c #582D00",
"*+	c #391C00",
"=+	c #4C2600",
"-+	c #7C4600",
";+	c #9C5D00",
">+	c #804500",
",+	c #894C00",
"'+	c #975600",
")+	c #301700",
"!+	c #1C0A00",
"~+	c #1F0C00",
"{+	c #5D3000",
"]+	c #865100",
"^+	c #CB7F00",
"/+	c #D48000",
"(+	c #A55D00",
"_+	c #C17300",
":+	c #200D00",
"<+	c #381B00",
"[+	c #945A00",
"}+	c #E18E00",
"|+	c #A36300",
"1+	c #5B3000",
"2+	c #1F0D00",
"3+	c #482400",
"4+	c #744000",
"5+	c #F39800",
"6+	c #291200",
"7+	c #5C3000",
"8+	c #3A1C00",
"9+	c #412000",
"0+	c #834900",
"a+	c #B86E00",
"b+	c #EA9300",
"c+	c #FDA000",
"d+	c #EA9200",
"e+	c #DD8700",
"f+	c #D38300",
"g+	c #835000",
"h+	c #5E3300",
"i+	c #9B5800",
"j+	c #CB7A00",
"k+	c #150700",
"l+	c #2A1300",
"m+	c #804600",
"n+	c #A45E00",
"o+	c #DD8600",
"p+	c #EA9100",
"q+	c #B96F00",
"r+	c #724200",
"s+	c #7C4400",
"t+	c #B66E00",
"u+	c #E99200",
"v+	c #673600",
"w+	c #9B5900",
"x+	c #E48F00",
"y+	c #D88600",
"z+	c #9E5A00",
"A+	c #6C3B00",
"B+	c #4F2800",
"C+	c #E79100",
"D+	c #4D2800",
"E+	c #623600",
"F+	c #744300",
"G+	c #845100",
"H+	c #955B00",
"I+	c #A36100",
"J+	c #AA6700",
"K+	c #874A00",
"L+	c #743F00",
"M+	c #210E00",
"N+	c #391B00",
"O+	c #4F2900",
"P+	c #3E1E00",
"Q+	c #4B2700",
"R+	c #603500",
"S+	c #693B00",
"T+	c #6A3B00",
"U+	c #683900",
"V+	c #7E4800",
"W+	c #9C5C00",
"X+	c #7E4700",
"Y+	c #733E00",
"Z+	c #AC6600",
"`+	c #301600",
" @	c #7E4500",
".@	c #9C5900",
"+@	c #AA6200",
"@@	c #A86000",
"#@	c #A96100",
"$@	c #BB6F00",
"%@	c #D78500",
"&@	c #CA7E00",
"*@	c #875200",
"=@	c #B06600",
"-@	c #AD6700",
";@	c #582E00",
">@	c #C77500",
",@	c #D07C00",
"'@	c #DC8600",
")@	c #764200",
"!@	c #BD6E00",
"~@	c #C07500",
"{@	c #E18C00",
"]@	c #A85F00",
"^@	c #C47200",
"/@	c #D27D00",
"(@	c #E78F00",
"_@	c #EB9200",
":@	c #DE8800",
"<@	c #A36200",
"[@	c #CD7A00",
"}@	c #DD8900",
"|@	c #E08C00",
"1@	c #D98500",
"2@	c #3C1D00",
"3@	c #C47100",
"4@	c #8A4C00",
"5@	c #915100",
"6@	c #B46800",
"7@	c #C27000",
"8@	c #7E4400",
"9@	c #7E4600",
"0@	c #B96A00",
"a@	c #EE9500",
"b@	c #773F00",
"c@	c #A36000",
"d@	c #D98700",
"e@	c #8F4F00",
"f@	c #AB6300",
"g@	c #B96B00",
"h@	c #A66000",
"i@	c #C77700",
"j@	c #663800",
"k@	c #A15B00",
"l@	c #753E00",
"m@	c #C27300",
"n@	c #A65E00",
"o@	c #C67600",
"p@	c #E38C00",
"q@	c #6F3E00",
"r@	c #764300",
"s@	c #804800",
"t@	c #995700",
"u@	c #D17D00",
"v@	c #E88F00",
"w@	c #E68E00",
"x@	c #AD6400",
"y@	c #B16700",
"z@	c #A55F00",
"A@	c #5B3200",
"B@	c #4C2800",
"C@	c #B36600",
"D@	c #C87500",
"E@	c #CF7C00",
"F@	c #C77400",
"G@	c #A25D00",
"H@	c #4D2900",
"I@	c #935200",
"J@	c #B16900",
"K@	c #7D4500",
"L@	c #A86100",
"M@	c #D28300",
"N@	c #814700",
"O@	c #502A00",
"P@	c #9C5800",
"Q@	c #BD7100",
"R@	c #683A00",
"S@	c #734300",
"T@	c #845000",
"U@	c #512B00",
"V@	c #824900",
"W@	c #A25C00",
"X@	c #BC7000",
"Y@	c #7D4800",
"Z@	c #8C5700",
"`@	c #8D5700",
" #	c #8C5600",
".#	c #8E4F00",
"+#	c #DE8D00",
"@#	c #DE8C00",
"##	c #DF8D00",
"$#	c #955300",
"%#	c #743D00",
"&#	c #B56800",
"*#	c #945300",
"=#	c #A86400",
"-#	c #E69200",
";#	c #915000",
">#	c #E38B00",
",#	c #AE6900",
"'#	c #B46D00",
")#	c #C77B00",
"!#	c #F19900",
"~#	c #FBA000",
"{#	c #F49A00",
"]#	c #E08A00",
"^#	c #E48D00",
"/#	c #D47F00",
"(#	c #D78200",
"_#	c #D98300",
":#	c #F79C00",
"<#	c #FCA100",
"[#	c #BB7000",
"}#	c #7E4900",
"|#	c #AC6300",
"1#	c #C57500",
"2#	c #482500",
"3#	c #9F5B00",
"4#	c #5D3100",
"5#	c #4A2500",
"6#	c #4E2700",
"7#	c #6C3900",
"8#	c #5F3400",
"9#	c #442300",
"0#	c #6B3800",
"a#	c #492300",
"b#	c #653500",
"c#	c #7C4300",
"d#	c #D38400",
"e#	c #AA6300",
"f#	c #BE7400",
"g#	c #AA6500",
"h#	c #A15E00",
"i#	c #D88400",
"j#	c #B76F00",
"k#	c #D68400",
"l#	c #DF8B00",
"m#	c #D78100",
"n#	c #E89000",
"o#	c #F89C00",
"p#	c #FDA100",
"q#	c #E08B00",
"r#	c #C07300",
"s#	c #915400",
"t#	c #653700",
"u#	c #B56900",
"v#	c #794400",
"  . + @ # $ % & * & & * & = $     $ = & * * & = $     - = ; > , ; ' , ) ! ~ ~ ~ ~ { ~ ] ^ & / ( & ' , ) ! ~ ~ ~ ~ ~ ~ ~ ~ _ ) : ",
"< [ } | 1 2 3 4 5 & & * & = $ 6 7 8 9 & & & & 9 0 a b c = d e f g h i ) ! ~ ~ ~ { j k l m n o p q ' , ) ! r s t t u r ~ ~ s v w ",
"x y z A B C D E F & & * & % $ a G 9 / & & & & / 9 G a H % I d J K L M ) _ ~ ~ ~ ~ k N O P Q Q R p ' S T ! s v U U V s ~ ~ W X Y ",
"@ Z `  ...+.a @.9 & * * & % $ #.$.F / & & & & * & %.$ $ = & &.d *.L M w Y { { =.k -.;.>.,.{ { ,.^ ' S w Y '.).!.~.v s ~ ~ ~ ~ ~ ",
"# {.].^./.(.3 F 5 & & * & = $ b a 0 _.& & & & * & = $ $ %.:.& I <.[.i ) ! ~ ~ }.|.1.2.3.4.{ { 4.^ ' S w ! Q 5.6.7.s 8.~ ~ ~ ~ ~ ",
"$ 2 C 6 9.E F 5 _.F 5 &.& = $ b a 0.a.F / & & * & % $ a $.= b.F / d *.c.d.4.,.e.f.>.^ g.h.{ ~ i.j.k.l.m.n.o.p.>.,.~ { ~ ~ ~ ~ ~ ",
"% 3 D 7 q.r./ s.8 @.F * & % $ a $.t.0.@.F & & * & = $ 6 2 H $ E F I d u.v.3.^ f.e.,.4.h.w.{ ~ x.y.z.A.B.C.1.D.^ 4.~ { ~ ~ ~ ~ ~ ",
"& 4 E @.F E.F.G.H.I.J.9 / = K.a $.t.I.0.a.F 5 * & = $         #.$.F / ( L.2.M.g.}.r N.s r { ~ x.y.O.P.Q.R.2.S.|.}.~ ~ ~ ~ ~ ~ ~ ",
"* 5 F 9 5 F T.U.a.V.I.0 F = W.b a I.a.t.0.@.F * & = $         X.a @.F Y.L.;.Z.h.=.`. + +s { ~ .+j.5 ++@+#+1.$+h.w.~ ~ ~ ~ ~ ~ ~ ",
"& & & & & F @.%+&+G *+a $.$.7 b a I.G.$.7 $ = &.* = $         b 7 =+a.-+;+|.}.~ ~ _ ) ) _ { ~ ] ^ >+,+'+v.|.h.~ ~ ~ ~ ~ ~ ~ ~ ~ ",
"& & & * & 5 F t.%+)+!+X.#.#.~+a $.a.I.#.C H % * * = $         a $.{+0.]+^+}.=.{ ~ _ /+/+_ { ~ ,.^ R.(+_+d.}.j ~ ~ ~ ~ ~ ~ ~ ~ ~ ",
"* * * * * &.* 9 0 *+:+:+*+<+:+7 G G a     #.$._./ b.K.        #.$.G =+[+}+~ { { ~ _ /+/+_ { { .+|+k.l.) Y ~ ~ ~ ~ ~ ~ ~ ~ ~ ~ ~ ",
"& & & & & & & / F 1+<+)+$.q.*+2+a 7 b     !+a 0 _.= W.        b 7 3+a.|+,.~ { ~ ~ _ ) ) _ { ~ x.y.4+A.w 5+~ { ~ ~ ~ ~ ~ ~ ~ ~ ~ ",
"= = % % = = % = = $.#.6+H.7+8+    2+7 a b C a I.a.$.a     ~+7 $ 9+7+0+a+b+{ { c+`.d+e+ +N.c+N.f+g+h+i+j+'.~ ~ ~ ~ ~ ~ ~ ~ ~ ~ ~ ",
"$ $ $ $ $ $ $ K.W.7 ~+k+l+)+:+    a G $.7 a $.a.0.a b     a G %.= m+n+j+'.~ ~ s v o+p+s W N.v q+r+3+s+t+u+~ { ~ ~ ~ ~ ~ ~ ~ ~ ~ ",
"  6 a #.b b a a b b a 7 2+        a G a.I.I.t.a.I.7 b     2 $.v+%.s+w+q+f+}+x+y+_+_+y+,.,.d._+z+A+B+F.^ C+~ { ~ ~ ~ ~ ~ ~ ~ ~ ~ ",
"  7 G $.a a $.$.a a $.G a         C 7 I.J.a.I.I.t.$.a     ~+7 K.9+D+E+F+G+H+|+I+u.u.v.o J+v.'+K+L+b.E.3.] ~ { ~ ~ ~ ~ ~ ~ ~ ~ ~ ",
"$ 8 9 F 0 0.t.t.I.I.a.G 7 2+a *+M+C N+O+G.a.I.I.a.G 7 6 #.P+P+Q+R+S+T+U+U+V+1.o o ^ ^ ^ ^ ^ ^ W+X+Y+k.Z+f+k j ~ ~ ~ ~ ~ ~ ~ ~ ~ ",
"= 9 / / _.a.0.I.a.G.I.a b 7 G 7+8+`+$.V.O+I.a.a.I.a b a G %.=  @.@+@+@@@#@$@%@,.] ,.,.,.,.4.,.&@*@O.z+=@-@|.h.~ ~ ~ ~ ~ ~ ~ ~ ~ ",
"& & & & & F @.0.t.$.#.    a $.a.I.3+;@$.N+7 G G 7     H = I <.h i : : >@,@'@p+s W ~ ~ ~ ~ { ~ x.y.)@A.!@C.~@{@s 8.~ ~ ~ ~ ~ ~ ~ ",
"* & & & & / F a.0.7 C     b 7 I.J.t.3+`+C C a 7 b     P+b.<.]@i M : ^@/@(@_@:@ +N.{ { { { { { .+<@k.l.[@}@|@1@v s ~ ~ ~ ~ ~ ~ ~ ",
"* & & & & & & F @.$ H #.!+C a I.a.a.I.8+M+            2@%.' > : ^@: 3@w _ s v v s ~ ~ ~ ~ { ~ ,.^ 4@Q.).'.s  +v s ~ ~ ~ ~ ~ ~ ~ ",
"& & & & & & & 5 F = % $.a a $.t.I.I.a.7+*+            - = 5@6@: 3@7@: ) Y W s s r ~ ~ ~ ~ { ~ ] ^ 8@,+5.b+8.N.s r ~ ~ ~ ~ ~ ~ ~ ",
"= 9 / * * * * * * &.* _.0 I.a.a.I.I.a.G 7             Q+9@h 0@M i S , j+a@~ ~ ~ ~ ~ ~ ~ ~ { ~ 4.^ b@Y.c@d@s 8.~ ~ ~ ~ ~ ~ ~ ~ ~ ",
"$ 0 9 & & & & & & * * / _.a.0.I.t.a.I.7 b             R+.@i M i h e@' t+u+~ { ~ ~ ~ ~ ~ ~ { ~ ] ^ L.Y.'+c.v N.~ ~ ~ ~ ~ ~ ~ ~ ~ ",
"  a G %.= % = = = = = b.= $.a 7 $.G a                 S+f@M g@*.d / ( ^ ] ~ { ~ ~ ~ ~ ~ ~ 8.s d@I+I 4@h@i@v N.~ { W s s r ~ ~ ~ ",
"  b a $ $ $ $ $ $ $ $ K.W.a b b a 7 b                 j@+@i k@d  @l@( 3.] ~ { ~ ~ ~ ~ ~ ~ `.v m@'+4@n@o@p@s 8.~ ~ s v v s ~ ~ ~ ",
"- c H $ $ a 6                     6 a H P+2@- Q+R+q@r@s@t@i+m+F Y+l@( ^ 4.~ { ~ ~ ~ ~ ~ ~ N.v c.u.5@, u@v@N.c+c+N.w@u@w Y c+N.Y ",
"= = % = %.$.2                     #.G = b.%.= 9@.@x@y@z@X+A@B@E F / & ^ ] ~ { ~ ~ ~ ~ ~ ~ 8.s d@I+5@C@D@/@ +s s v E@F@) _ s v ) ",
"; d I & :.= H             ~+a 2 ~+P+%.I <.' 5@h i M i G@T+    H@m+' I@J@}@s 8.~ ~ ~ ~ ~ ~ 8.s e.W+K@J L@#@q+M@M@q+@@@@q+M@M@q+#@",
"> e d &.& b.$             7 G $.7 P+= <.]@> 6@0@M g@k@N@O@    A@P@, > !.[@v s ~ ~ ~ ~ ~ ~ N.v Q@V+D+h+R@R@S@g+g+S@U+R@F+T@g+S@U+",
", f J d I F E #.X.b a #.b $ %.v+K.Q+ @h i : : M i *.d F E U@T+V@W@, > !.[@v s ~ ~ ~ ~ ~ ~ N.v X@Y@B@h+S@T@Z@`@`@`@Z@Z@Z@ #g+r+U+",
"; g K *.<./ F $.a 7 $.$.7 9+= %.9+R+.@i M ^@3@i h d  @Y+F N@G@A.t@.#5@J@}@s 8.~ ~ ~ ~ ~ ~ 8.s e.W+s+J q+f++#+#@#+#+#+###@#M@q+#@",
"' h L L [.d I F @.=+{+G 3+7+m+s+D+S++@: : : 7@S e@/ l@l@/ ' , i $#%#%#>.4.~ { ~ ~ ~ ~ ~ ~ { ~ ,.^ ' S ) ! W N._ _ s r ~ ~ s v ) ",
", i M M i *.d / F a.0.=+a.0+n+w+E+T++@: ^@3@: , ' ( ( ( & I@> &#*#( b@=#-#~ { ~ ~ ~ ~ ~ ~ { ~ 4.^ ;#C@w 5+N.>#w w  +N.{ { c+N.Y ",
") ) ) w ) c.u.( Y.-+]+[+|+a+j+q+F+U+@@>@/@w ) j+t+^ 3.^ ^ J@!.!.J@,#'#)#k ~ ~ ~ ~ ~ ~ ~ ~ { ~ ,.^ ' S w Y '.).!.~.v s ~ ~ ~ ~ ~ ",
"! ! _ Y ! d.v.L.L.;+^+}+,.b+'.f+G+U+#@,@(@_ Y a@u+] ] 4.] }@[@[@}@Q }.!#w.~ ~ ~ ~ ~ ~ ~ ~ { ~ ,.^ ' S w ! Q 5.6.7.s 8.~ ~ ~ ~ ~ ",
"~ ~ ~ { ~ 4.3.2.;.|.}.~ ~ { ~ }+H+V+$@'@_@s W ~ ~ ~ ~ ~ ~ s v v s ~ ~ ~ ~ ~ ~ ~#{#s r ~ ~ { ~ i.j.k.l.m.n.o.p.>.,.~ { ~ ~ ~ ~ ~ ",
"~ ~ ~ { ~ ,.^ M.Z.}.=.{ { { ~ x+|+1.%@p+:@v s ~ { { { { { 8.s s 8.{ { ~ ~ ~ ~ s ]#v s ~ ~ { ~ x.y.z.A.B.C.1.D.^ 4.~ { ~ ~ ~ ~ ~ ",
"~ ~ ~ =.}.e.f.g.h.~ { { ~ c+s y+I+o ,.s  +v s ~ ~ ~ ~ ~ ~ ~ ~ ~ ~ ~ ~ ~ ~ r _ ^#E@) _ ~ ~ { ~ x.y.O.P.Q.R.2.S.|.}.~ ~ ~ ~ ~ ~ ~ ",
"~ { ~ k |.f.e.}.=.~ ~ ~ ~ `.v _+u.o ] W N.s r ~ ~ ~ ~ ~ ~ ~ ~ ~ ~ ~ ~ ~ ~ {#e+[@F@/#_ ~ ~ { ~ .+j.5 ++@+#+1.$+h.w.~ ~ ~ ~ ~ ~ ~ ",
"{ j k -.1.>.,.r `._ _ _ _ d+o+_+u.^ ,.~ { ~ ~ ~ ~ ~ ~ ~ ~ ~ ~ ~ ~ ~ ~ ~ ~ s v (#_# +s ~ ~ { ~ 4.^ >+,+'+v.|.h.~ ~ ~ ~ ~ ~ ~ ~ ~ ",
"~ k N ;.2.^ 4.N. +) /+/+) e+p+y+v.^ ,.~ { ~ ~ ~ ~ ~ ~ ~ ~ ~ ~ ~ ~ ~ ~ ~ ~ r s Y s :#W ~ ~ { ~ ,.^ R.(+_+d.}.j ~ ~ ~ ~ ~ ~ ~ ~ ~ ",
"] l O >.3.g.h.s  +) /+/+)  +s ,.o ^ ,.~ { ~ ~ ~ ~ ~ ~ ~ ~ ~ ~ ~ ~ ~ ~ ~ ~ ~ ~ ~ ~ ~ ~ ~ ~ <#X y+;+k.l.) Y ~ ~ ~ ~ ~ ~ ~ ~ ~ ~ ~ ",
"^ m P ,.4.h.w.r s _ _ _ _ N.W ,.J+^ ,.~ { ~ ~ ~ ~ ~ ~ ~ ~ ~ ~ ~ ~ ~ ~ ~ ~ ~ ~ ~ ~ ~ ~ ~ ~ N.]#[#}#4+|#w 5+~ { ~ ~ ~ ~ ~ ~ ~ ~ ~ ",
"& n Q { { { { { { { { { { c+N.d.v.^ 4.{ { { { { { 8.`.N.8.8.N.N.8.{ { { { { { { { { { 8.5+^#o@.@h+h+w+j+'.~ ~ ~ ~ ~ ~ ~ ~ ~ ~ ~ ",
"/ o Q { { ~ ~ ~ ~ ~ ~ { ~ N.v _+'+^ ,.~ { ~ ~ ~ ~ s v v s s v v s ~ ~ ~ ~ ~ ~ ~ ~ ~ ~ s e+1#h@s+2#3+K@t+u+~ { ~ ~ ~ ~ ~ ~ ~ ~ ~ ",
"( p R ,.4.i.x.x..+] ,..+x.f+q+z+K+W+&@x..+,.] 4.] d@m@c.d@e.Q@X@e.,.4.,.,.i.x.x..+4.,.y+[#3#9@4#5#6#7#^ 4.~ { ~ ~ ~ ~ ~ ~ ~ ~ ~ ",
"& q p ^ ^ j.y.y.j.^ ^ |+y.g+r+A+L+X+*@y.<@^ ^ ^ ^ I+'+u.I+W+V+Y@W+^ ^ ^ ^ j.y.y.j.^ ^ ;+}#8#9#9+4#0#5 3.,.~ { ~ ~ ~ ~ ~ ~ ~ ~ ~ ",
"' ' ' ' ' k.z.O.5 >+R.k.4+h+3+B+b.Y+O.)@k.4@8@b@L.I 4@5@5@K@D+B@s+' ;#' ' k.z.O.5 >+R.k.4+h+3+a#b#c#<.Z+d#k w.~ ~ ~ ~ ~ ~ ~ ~ ~ ",
", , S S S l.A.P.++,+(+l.A.i+s+F.E.k.z+A.l.Q.,+Y.Y.4@n@, C@J h+h+J S C@S S l.A.P.++,+(+l.|#w+K@7#E.K+Q.=@-@|.k ~ ~ ~ ~ ~ ~ ~ ~ ~ ",
") ) T w w m.B.Q.@+'+_+) w j+t+^ 3.Z+=@!@[@).5.c@'+h@o@u@D@L@R@S@q+) w w w m.B.Q.@+'+_+) w j+t+^ 3.>.e#x@Z+f#|@s 8.~ ~ ~ ~ ~ ~ ~ ",
"! ! ! Y ! n.C.R.#+v.d.Y 5+'.u+C+] f+-@C.}@'.b+d@c.i@p@v@/@#@R@T@f+! 5+Y ! n.C.R.#+v.d.Y 5+'.u+4.,.d#g#h#o.{@i#v s ~ ~ ~ ~ ~ ~ ~ ",
"~ r s '.Q o.1.2.1.|.}.~ ~ ~ ~ ~ ~ k |.~@|@s 8.s v v s N. +q+S@Z@+#W N.'.Q o.1.2.1.|.}.~ ~ ~ ~ ~ ~ k |.j#k#v@e+]#{#~ ~ ~ ~ ~ ~ ~ ",
"~ s v ).5.p.D.S.$+h.j ~ { ~ { { { j h.{@1@ +N.8.N.N.8.c+s M@g+`@+#N.>#).5.p.D.S.$+h.j ~ { ~ { { { w.k l#/+m#n#s ~#~ ~ ~ ~ ~ ~ ~ ",
"~ t U !.6.>.^ |.h.~ ~ ~ ~ ~ ~ ~ ~ ~ ~ s v v s ~ ~ ~ ~ c+s M@g+`@@#_ w !.6.>.^ |.h.~ ~ ~ ~ ~ ~ ~ ~ ~ ~ s v e+! ~ ~ ~ ~ ~ ~ ~ ~ ~ ",
"~ t U ~.7.,.4.}.w.~ ~ ~ ~ ~ ~ ~ ~ ~ ~ 8.s s r ~ ~ { ~ N.v q+S@`@+#_ w ~.7.,.4.}.w.~ ~ ~ ~ ~ ~ ~ ~ ~ ~ 8.s {#r ~ ~ ~ ~ ~ ~ ~ ~ ~ ",
"~ u V v s ~ ~ ~ ~ ~ ~ ~ ~ ~ ~ ~ ~ ~ ~ ~ ~ ~ ~ ~ ~ W s w@E@@@U+Z@+#s  +v s ~ ~ ~ ~ ~ ~ ~ ~ ~ ~ ~ ~ ~ ~ ~ ~ ~ ~ ~ ~ r s s ~#~ ~ ~ ",
"~ r s s 8.{ { ~ ~ ~ ~ ~ ~ ~ ~ ~ ~ ~ ~ ~ ~ ~ ~ ~ ~ s v u@F@@@R@Z@+#r N.s 8.{ { ~ ~ ~ ~ ~ ~ ~ ~ ~ ~ ~ ~ ~ ~ ~ ~ ~ ~ o# +]#s ~ ~ ~ ",
"~ ~ ~ ~ ~ ~ ~ ~ ~ ~ ~ ~ ~ ~ ~ ~ ~ ~ ~ ~ ~ ~ ~ ~ ~ s v w ) q+F+Z@##~ { ~ ~ ~ ~ ~ ~ ~ ~ ~ ~ ~ ~ ~ ~ ~ ~ ~ ~ ~ ~ ~ ~ j n#p@s ~#X _ ",
"~ ~ ~ ~ ~ ~ ~ ~ ~ ~ ~ ~ ~ ~ ~ ~ ~ ~ ~ ~ ~ ~ ~ ~ ~ r s Y _ M@T@ #@#~ { ~ ~ ~ ~ ~ ~ ~ ~ ~ ~ ~ ~ ~ ~ ~ ~ ~ ~ ~ ~ ~ ~ p#j o#r s ]#) ",
"_ s W ~ ~ ~ ~ ~ ~ ~ ~ ~ ~ ~ ~ ~ ~ ~ ~ ~ ~ ~ ~ ~ ~ ~ ~ c+s M@g+g+M@s c+~ ~ ~ ~ ~ ~ ~ ~ ~ ~ ~ ~ ~ ~ ~ ~ ~ ~ ~ ~ ~ ~ ~ ~ r _ q#r#|#",
") v X ~ ~ ~ ~ ~ ~ ~ ~ ~ ~ ~ ~ ~ ~ ~ ~ ~ ~ ~ ~ ~ ~ ~ ~ N.v q+S@r+q+v N.~ ~ ~ ~ ~ ~ ~ ~ ~ ~ ~ ~ ~ ~ ~ ~ ~ ~ ~ ~ ~ ~ ~ ~ s e+m@s#t#",
": w Y ~ ~ ~ ~ ~ ~ ~ ~ ~ ~ ~ ~ ~ ~ ~ ~ ~ ~ ~ ~ ~ ~ ~ ~ Y ) #@U+U+#@) Y ~ ~ ~ ~ ~ ~ ~ ~ ~ ~ ~ ~ ~ ~ ~ ~ ~ ~ ~ ~ ~ ~ ~ ~ _ ) u#v#  "};
