/* XPM */
static char *f5b74eaee53046c6c5d2d034605e0a001sYrfhT4hmomaQJJ[] = {
/* columns rows colors chars-per-pixel */
"96 94 6 1 ",
"  c #514136",
". c #554134",
"X c #614B3B",
"o c #725949",
"O c #76695F",
"+ c #90847A",
/* pixels */
"XXXXXXXXXXXXXXXXXXXXXXXX........XXXXXXXXXXXXXXXXXXXXXXooXXXXXXXXXXXXXXXXXXXXXXXXXXXXXXXXXXXXXXXX",
"XXXXXX......................XXXXXXXXooXXXXXXXXXXXXXXXXXXXXXXXXXXXXXXXXXXXXXXXXXXXXXXXXXXXXXXXXXX",
"XXXXXX......................XXXXXXXXooXXXXXXXXXXXXXXXXXXXXXXXXXXXXXXXXXXXXXXXXXXXXXXXXXXXXXXXXXX",
"XXooXXXX........OO++++XXXXXXXXXXXXXXXXXXXXXXXXXXXXXXXXXXXXXXXXXXXXooXXXXXXXXXXXXXXXXXXXXXXXXXXXX",
"XXooXXXX........OO++++XXXXXXXXXXXXXXXXXXXXXXXXXXXXXXXXXXXXXXXXXXXXooXXXXXXXXXXXXXXXXXXXXXXXXXXXX",
"XXXXXXXXXXXXXX..OOOO++++....XXXXXXXXXXXXXXXXXXXXXXXXXXXXXXXXXXXXXXXXXXXXXXXXXXXX..............XX",
"XXXXXXXXXXXXXX..OOOO++++....XXXXXXXXXXXXXXXXXXXXXXXXXXXXXXXXXXXXXXXXXXXXXXXXXXXX..............XX",
"XXXXXXXXXXXXXX....OOOOOO....XXXXXXXXXXXXXXXXXXXXXX..........XXXXXXXXXXXXXX..........XXXXXXXXXXXX",
"XXXXXXXXXXXXXX....OOOOOO....XXXXXXXXXXXXXXXXXXXXXX..........XXXXXXXXXXXXXX..........XXXXXXXXXXXX",
"........XXXXXX..................XXXXXXXX..........XXXXXXXXXXXXXXXXXXXXXXXXXXXXXXXXXXXXXXXXXXXXoo",
"........XXXXXX..................XXXXXXXX..........XXXXXXXXXXXXXXXXXXXXXXXXXXXXXXXXXXXXXXXXXXXXoo",
"XXXX............XXXX......XXXXXXXXXXXXXXXXXXXXXXXXXXXXXXXXXXXXXXXXXXXXXXXXOO++++....XXXXXXXXXXXX",
"XXXX............XXXX......XXXXXXXXXXXXXXXXXXXXXXXXXXXXXXXXXXXXXXXXXXXXXXXXOO++++....XXXXXXXXXXXX",
"XXXXXXXXXXXXXXXXXXXXXXXXXXXXXXXXXXXXXXXXXXXXXXXXXXXXXXooooXXXXXX........OO++++OOOOXXXXXXXXXXXXXX",
"XXXXXXXXXXXXXXXXXXXXXXXXXXXXXXXXXXXXXXXXXXXXXXXXXXXXXXooooXXXXXX........OO++++OOOOXXXXXXXXXXXXXX",
"XXXXXXXXXXXXXXXXXXXXXXXXXXXXXXXXXXXXXXXXXXXXXXXXXXXXXXooooXXXXXX........OO..OO..OO....XXXXXXXXXX",
"XXXXXXXXXXXXXXXXXXXXXXXXXXXXXXXXXXXXXXXXXXXXXXXXXXXXXXooooXXXXXX........OO..OO..OO....XXXXXXXXXX",
"XXooXXXXXXXXXXXXXXXXXXXXXXooXXXXXX..........XXXXXXXXXXXXXXXXXXXXXXXXXX..OO..OO..OO..XXXX++OOXXXX",
"XXooXXXXXXXXXXXXXXXXXXXXXXooXXXXXX..........XXXXXXXXXXXXXXXXXXXXXXXXXX..OO..OO..OO..XXXX++OOXXXX",
"XXXXXX++XXXX....XXXXXXXX......XXXXXXXXXXXX........XXXXXXXXXXXXXXXXXX......OO..........OOXXXXXXXX",
"XXXXXX++XXXX....XXXXXXXX......XXXXXXXXXXXX........XXXXXXXXXXXXXXXXXX......OO..........OOXXXXXXXX",
"XXXX++++++OOXXXXXXXXXX....XXXXXXXXXXXXXXXXXXXXXX........XXXXXXXXXXXX..OOOO..OO....OOXX..........",
"XXXX++++++OOXXXXXXXXXX....XXXXXXXXXXXXXXXXXXXXXX........XXXXXXXXXXXX..OOOO..OO....OOXX..........",
"XX....++OOOO............XXXXXXXXXXXXXXXXXXXXXXXXXXXXXXXXXXXXXXXXXX........OO..OO..OO++....XXXXXX",
"XX....++OOOO............XXXXXXXXXXXXXXXXXXXXXXXXXXXXXXXXXXXXXXXXXX........OO..OO..OO++....XXXXXX",
"XXXX....OO......XXXXXXXXXXXXXXXXXXXXXXXXXXXXXXXXXXXXXXXXXXXX....XXXXXXXXXXXXXXXXXXXXXXOOOOXXXXXX",
"XXXX....OO......XXXXXXXXXXXXXXXXXXXXXXXXXXXXXXXXXXXXXXXXXXXX....XXXXXXXXXXXXXXXXXXXXXXOOOOXXXXXX",
"XXXXXX....ooooXXXXXXXXXXXXXXXXXXXXXXXXXXXXXXooXX............XXXXXXXXXXXXXXXXXXXXXX..XXXXXXOOXXXX",
"XXXXXX....ooooXXXXXXXXXXXXXXXXXXXXXXXXXXXXXXooXX............XXXXXXXXXXXXXXXXXXXXXX..XXXXXXOOXXXX",
"XXXXXXXXXXXXXXXXXXXXXXXXXXXXXXXXXXXXXXXXXXXXXXXXXXXXXXXXXXXXXXXXXXXXXXXXXXXXXXXXXXXX......XXXXXX",
"XXXXXXXXXXXXXXXXXXXXXXXXXXXXXXXXXXXXXXXXXXXXXXXXXXXXXXXXXXXXXXXXXXXXXXXXXXXXXXXXXXXX......XXXXXX",
"......XXXXXXXXXXXXXXXXXXXXXXXXXXXXXXXXXXXXXXXXXXXXXXXXXXXXXXXXXXXXXXXXXXXXXXXXXXXXXXXXXXXXXXXXXX",
"......XXXXXXXXXXXXXXXXXXXXXXXXXXXXXXXXXXXXXXXXXXXXXXXXXXXXXXXXXXXXXXXXXXXXXXXXXXXXXXXXXXXXXXXXXX",
"XX..............XXXXXXXXXXXXooXXXXXX....XXXXXXXXXXXXXXXXXXXXXXXXXXXXooXXXXXXXXXXXXXXXX..........",
"XX..............XXXXXXXXXXXXooXXXXXX....XXXXXXXXXXXXXXXXXXXXXXXXXXXXooXXXXXXXXXXXXXXXX..........",
"XXXXXXXXXXXXXX............XXXXXXXXXXXXXX..............XXXXXXXXXXXXXXXXXX..................XXXXXX",
"XXXXXXXXXXXXXX............XXXXXXXXXXXXXX..............XXXXXXXXXXXXXXXXXX..................XXXXXX",
"XXXXXXXXXXXXXXXXXXXXXXXXXXXXXXXXXXXXXXXXXXXXXXXXXXXXXXXXXXXXXXXXooXXXXXXXXXXXXXXXXXXXXXXXXXXXXXX",
"XXXXXXXXXXXXXXXXXXXXXXXXXXXXXXXXXXXXXXXXXXXXXXXXXXXXXXXXXXXXXXXXooXXXXXXXXXXXXXXXXXXXXXXXXXXXXXX",
"XXXXXXXXooXXXXXXXXXXXXXXXXXXXXXXXXXXXXXXXXXXXXooXXXXXXXXXXXXXXXXXXXXXXXXXXXXXXXXXXXXXXXXXXXXXXXX",
"XXXXXXXXooXXXXXXXXXXXXXXXXXXXXXXXXXXXXXXXXXXXXooXXXXXXXXXXXXXXXXXXXXXXXXXXXXXXXXXXXXXXXXXXXXXXXX",
"XXXXXXXXXXXXXXXXXXXXooXXXXXXXXXXXXXXXXXXXXXXXXXXXXXXXXXXXXXXXXXXXXXXXXXXXXXXooXXXXXXXXXXXXXXXXXX",
"XXXXXXXXXXXXXXXXXXXXooXXXXXXXXXXXXXXXXXXXXXXXXXXXXXXXXXXXXXXXXXXXXXXXXXXXXXXooXXXXXXXXXXXXXXXXXX",
"XX....XXXXXXooXXXXXXXXXXXXXXXXXXXXXXXXXXXXXXXX++++....XX........XXXXXXXXXXXXXXXXXX....XXXXooXXXX",
"XX....XXXXXXooXXXXXXXXXXXXXXXXXXXXXXXXXXXXXXXX++++....XX........XXXXXXXXXXXXXXXXXX....XXXXooXXXX",
"XXXXXXXXXXXXooooXXXXXX..........XXXXXXooooXX++++OOOO......XXXXXXXXXXXXXXXXXXXXXXXXXX......XXXXXX",
"XXXXXXXXXXXXooooXXXXXX..........XXXXXXooooXX++++OOOO......XXXXXXXXXXXXXXXXXXXXXXXXXX......XXXXXX",
"XXXXXXXXXXXX............XXXXXXXXXX........OO..OO..OO..XXXXXXXXXXXXXXXXXXXXXXXXXXXXXXXXXXXXXXXXXX",
"XXXXXXXXXXXX............XXXXXXXXXX........OO..OO..OO..XXXXXXXXXXXXXXXXXXXXXXXXXXXXXXXXXXXXXXXXXX",
"XXXXXXXX........XXooXXXXXXXXXXXXXXXXXXXX..OO..OO..OO..XXXXXXXXXXXXXXXXXXXXXXXXXXXXXXXXXXXXXXXXXX",
"XXXXXXXX........XXooXXXXXXXXXXXXXXXXXXXX..OO..OO..OO..XXXXXXXXXXXXXXXXXXXXXXXXXXXXXXXXXXXXXXXXXX",
"XXXXXXXXXXXXXXXXXXXXXXXXXXXXXXXXXXXXXXXX....OO..........XXXXooXXXXXXXX..........XXXXXXXXXXXXXXXX",
"XXXXXXXXXXXXXXXXXXXXXXXXXXXXXXXXXXXXXXXX....OO..........XXXXooXXXXXXXX..........XXXXXXXXXXXXXXXX",
"XXXXXXXXXXXXXXXXXXXXXXXXXXXXXXXX............XXXXXXXXXXXXXXooooXXXXXXXXXXXXXX..........XXXXXXXXXX",
"XXXXXXXXXXXXXXXXXXXXXXXXXXXXXXXX............XXXXXXXXXXXXXXooooXXXXXXXXXXXXXX..........XXXXXXXXXX",
"XXXXXXooXXXXXXXXXXXXXXXXXXXXXXXXXXXXXXXX............OO++XXXXXXXXXXXXXXXXooooXXXXXXXXXXXXXXXXXXXX",
"XXXXXXooXXXXXXXXXXXXXXXXXXXXXXXXXXXXXXXX............OO++XXXXXXXXXXXXXXXXooooXXXXXXXXXXXXXXXXXXXX",
"XXXXXXXXXXXXXX......XXXXXXooXXXXXXXXXXXXXXXXXXXX........OOOOXXXXXXXXXXXXooooXXXXXXXXXXXXXXXXXXXX",
"XXXXXXXXXXXXXX......XXXXXXooXXXXXXXXXXXXXXXXXXXX........OOOOXXXXXXXXXXXXooooXXXXXXXXXXXXXXXXXXXX",
"XXXXXXXXXXXXXXXXXXXXXXXXXXXXXXXXXXXXXXXXXXXXXXXXXXXX..XXXXXXOOXXXXXXXX............XXXXXXooooXXXX",
"XXXXXXXXXXXXXXXXXXXXXXXXXXXXXXXXXXXXXXXXXXXXXXXXXXXX..XXXXXXOOXXXXXXXX............XXXXXXooooXXXX",
"XXXXXXXXXXXXXXXXXXXXXXXXXXXXXXXXooXXXXXXXXXXXXXXXXXXXX......XXXX......XXXXXXXXXXXXXXXXXXXXXXXXXX",
"XXXXXXXXXXXXXXXXXXXXXXXXXXXXXXXXooXXXXXXXXXXXXXXXXXXXX......XXXX......XXXXXXXXXXXXXXXXXXXXXXXXXX",
"XXXXXXXXXXXXXXXXXXXXXXXX........XXXXXXXXXXXXXXXXXXXXXXXX........XXXXXXXXXXXXXXXXXXXXXXXXXXXXXXXX",
"XXXXXXXXXXXXXXXXXXXXXXXX........XXXXXXXXXXXXXXXXXXXXXXXX........XXXXXXXXXXXXXXXXXXXXXXXXXXXXXXXX",
"XXXXXX......................XXXXXXXXXXXXXXXXXXXXXXXX....XXXXXXXXXXXXooXXXXXXXXXXXXXXXXXXXXXXXXXX",
"XXXXXX......................XXXXXXXXXXXXXXXXXXXXXXXX....XXXXXXXXXXXXooXXXXXXXXXXXXXXXXXXXXXXXXXX",
"XXooXXXXXXXXXXXXXXXXXXXXXXXXXXXXXXXXXXXXXXXXXXXXXXXXXXXXXXXXXXXXXXXXXXXXXXXXXXXXXXXXXXXXXXXXXXXX",
"XXooXXXXXXXXXXXXXXXXXXXXXXXXXXXXXXXXXXXXXXXXXXXXXXXXXXXXXXXXXXXXXXXXXXXXXXXXXXXXXXXXXXXXXXXXXXXX",
"XXXXXXXXXXXXXXXXXXXXXXXXXXXXXXXXXXXXXXXXXXXXXXXXXXXXXXXXXXXXXXXXXXXXXXXXXXXXXXXXXX..........XXXX",
"XXXXXXXXXXXXXXXXXXXXXXXXXXXXXXXXXXXXXXXXXXXXXXXXXXXXXXXXXXXXXXXXXXXXXXXXXXXXXXXXXX..........XXXX",
"XXXXXXXXXXXXXXXXXXXXXXXXXXXXXXXXXXXXXXXXXXXXXXXXXXXXXXXXXXXXXXXXXXXXXXXXXX++++++OO......XXXXXXXX",
"XXXXXXXXXXXXXXXXXXXXXXXXXXXXXXXXXXXXXXXXXXXXXXXXXXXXXXXXXXXXXXXXXXXXXXXXXX++++++OO......XXXXXXXX",
"........XXXXXXXXooXXOO++++......XXXXXXXXXXXXooXXXXXXXXXXXXXXXXXXXXXXXXXX++OO..XXXXOOOOXXXXXXXXXX",
"........XXXXXXXXooXXOO++++......XXXXXXXXXXXXooXXXXXXXXXXXXXXXXXXXXXXXXXX++OO..XXXXOOOOXXXXXXXXXX",
"XXXX............XXOO++++++OOXXXX..........XXXXXXXXXXXX......XXXX......XXOOXX..XXXX........XXXXXX",
"XXXX............XXOO++++++OOXXXX..........XXXXXXXXXXXX......XXXX......XXOOXX..XXXX........XXXXXX",
"XXXXXXXXXXXXXX........OOOOOOOOXXXXXXXXXXXXXXXXXXXXXXXXXXXXXXXXXXXXXX....OOOO......XXXXXXXXXXXXXX",
"XXXXXXXXXXXXXX........OOOOOOOOXXXXXXXXXXXXXXXXXXXXXXXXXXXXXXXXXXXXXX....OOOO......XXXXXXXXXXXXXX",
"XXXXXXXXXX......OO++++..........XXXXXXXXXXXXXXXXXXXXXXooooXXXXXXXXXX........XXXXXXXXXXXXXXooXXXX",
"XXXXXXXXXX......OO++++..........XXXXXXXXXXXXXXXXXXXXXXooooXXXXXXXXXX........XXXXXXXXXXXXXXooXXXX",
"XXooXXXXXXXXXXOO++++OOOOOOooXXXXXXXXXXXXXXXXXXXXXXXXXXooXXXXXXXXXX....XXXXXXXXXXXXXXXXXXXXXXXXXX",
"XXooXXXXXXXXXXOO++++OOOOOOooXXXXXXXXXXXXXXXXXXXXXXXXXXooXXXXXXXXXX....XXXXXXXXXXXXXXXXXXXXXXXXXX",
"XXXXXXXXXXXXXXXXOOOOOOOO......XXXXXXXXXXXXXXXXXX......XXXXXXXXXXXXXXXXXXXXXXXXOOOOOO++++XXXXXXXX",
"XXXXXXXXXXXXXXXXOOOOOOOO......XXXXXXXXXXXXXXXXXX......XXXXXXXXXXXXXXXXXXXXXXXXOOOOOO++++XXXXXXXX",
"XXXXXXXXXXXXXXXX........  XXXXXXXXXXXXXXXXXXXXXXXXXXXX......XXXXXXXXXXXXXXXXXXXXOO..OOOOOOXXXXXX",
"XXXXXXXXXXXXXXXX........  XXXXXXXXXXXXXXXXXXXXXXXXXXXX......XXXXXXXXXXXXXXXXXXXXOO..OOOOOOXXXXXX",
"XXXXXXXXXX..............XXXXXXXXXXXXXXXXXXXXXXXXXXXXXXXXXXXXXXXXXXooXX........XXoo..XXOOOOXXXXXX",
"XXXXXXXXXX..............XXXXXXXXXXXXXXXXXXXXXXXXXXXXXXXXXXXXXXXXXXooXX........XXoo..XXOOOOXXXXXX",
"XXXXXXXXXXXXooXXXXXXXXXXXXXXXXXXXXXXXX..XXXXXXooXXXXXXXXXXXXXXXXXXXXXXXXXX........XXXX..OOXXXXXX",
"XXXXXXXXXXXXooXXXXXXXXXXXXXXXXXXXXXXXX..XXXXXXooXXXXXXXXXXXXXXXXXXXXXXXXXX........XXXX..OOXXXXXX",
"XXXXXXXXXXooooXXXXXXXXXXXXXXXXXXXXXXXXXX......XXXXXXXXXXooXXXXXXXXXXXXXXXXXXXX..............XXXX",
"XXXXXXXXXXooooXXXXXXXXXXXXXXXXXXXXXXXXXX......XXXXXXXXXXooXXXXXXXXXXXXXXXXXXXX..............XXXX",
"XXXXXXXXXXXXXXXXXXXXXXXXXXXXXXXXXXXXXXXXXXXXXXXXXXXXXXXXXXXXXXXXXXXXXXXXXXXXXXXXXX........XXXXXX"
};
