/* XPM */
static char * Empty_xpm[] = {
"64 64 126 2",
"  	c #8A8A00",
". 	c #7D7F00",
"+ 	c #5F6900",
"@ 	c #8B8B00",
"# 	c #878700",
"$ 	c #808200",
"% 	c #878800",
"& 	c #7C7F00",
"* 	c #727600",
"= 	c #5A6500",
"- 	c #6D7200",
"; 	c #818200",
"> 	c #5F6800",
", 	c #606900",
"' 	c #596400",
") 	c #505D00",
"! 	c #767900",
"~ 	c #686F00",
"{ 	c #767A00",
"] 	c #485800",
"^ 	c #495900",
"/ 	c #6D7300",
"( 	c #757900",
"_ 	c #475800",
": 	c #818300",
"< 	c #697000",
"[ 	c #7E8000",
"} 	c #6E7300",
"| 	c #7D8000",
"1 	c #888800",
"2 	c #707500",
"3 	c #545D00",
"4 	c #5A6200",
"5 	c #7C7E00",
"6 	c #586200",
"7 	c #495500",
"8 	c #555D00",
"9 	c #717500",
"0 	c #727700",
"a 	c #8B8A00",
"b 	c #535C00",
"c 	c #394200",
"d 	c #4F5200",
"e 	c #797A00",
"f 	c #6E7100",
"g 	c #494D00",
"h 	c #3A4300",
"i 	c #4F5D00",
"j 	c #5A6400",
"k 	c #7C7D00",
"l 	c #797900",
"m 	c #6C6E00",
"n 	c #515900",
"o 	c #323F00",
"p 	c #172100",
"q 	c #3D3D00",
"r 	c #676700",
"s 	c #707400",
"t 	c #5B6500",
"u 	c #717600",
"v 	c #192200",
"w 	c #404F00",
"x 	c #465600",
"y 	c #7B7D00",
"z 	c #777700",
"A 	c #414300",
"B 	c #2F3400",
"C 	c #1A2300",
"D 	c #0A1000",
"E 	c #222200",
"F 	c #3E3E00",
"G 	c #5B6200",
"H 	c #505300",
"I 	c #3F3F00",
"J 	c #232200",
"K 	c #0A0F00",
"L 	c #2F3B00",
"M 	c #405000",
"N 	c #5A6100",
"O 	c #494900",
"P 	c #485900",
"Q 	c #484800",
"R 	c #4A4900",
"S 	c #4A4A00",
"T 	c #787800",
"U 	c #6E7400",
"V 	c #606A00",
"W 	c #4E5C00",
"X 	c #3D4B00",
"Y 	c #596100",
"Z 	c #3C4B00",
"` 	c #3C4A00",
" .	c #576200",
"..	c #242D00",
"+.	c #222B00",
"@.	c #1F2900",
"#.	c #3A4200",
"$.	c #505E00",
"%.	c #494E00",
"&.	c #485400",
"*.	c #5F5F00",
"=.	c #7D7D00",
"-.	c #868600",
";.	c #696F00",
">.	c #777A00",
",.	c #616A00",
"'.	c #3F4E00",
").	c #2E3B00",
"!.	c #334000",
"~.	c #182100",
"{.	c #414200",
"].	c #3B4300",
"^.	c #1C2400",
"/.	c #303500",
"(.	c #525A00",
"_.	c #555E00",
":.	c #7A7A00",
"<.	c #344100",
"[.	c #1B2400",
"}.	c #424300",
"|.	c #6C6F00",
"1.	c #5B6600",
"2.	c #3E4C00",
"3.	c #242E00",
"4.	c #3F4D00",
"5.	c #000000",
"                      . + + .                                                         . + + .                                   ",
"                      . + + .   @ # $ $ #                                 % $ . & . . * = + .   @                               ",
"                      . + + .     $ - - $                                 ; - + > , + ' ) + .                                   ",
". $ #                 . + , . # ; ! ~ ~ ! $ #                 # $ $ # % $ { ~ , > = ) ] ^ , . # ; $ #                           ",
"+ - ;                 . + , . $ / ~ ( ( ~ - $                 $ - / $ $ / ~ ( . . * ' _ ] , . $ / - $                           ",
", / ;             @   . , , . $ / / $ $ / / $ # : ; #         $ / < ! ! < / $     . > _ ] , [ : } ~ { ; % @ @ # $ $ #           ",
". $ #                 . + , . # ; $ # # $ ; # $ / - $         # $ ! ~ ~ ! $ % @ @ | , ] ] , . # ; ( ~ - $     $ - - $           ",
". ; %   @     @ @ 1 : 2 3 4 5 @ @         @   . , , .   @ @   % ; { ~ ~ { ; % @ @ : / 6 7 8 9 [ [ 0 = = 0 | | { < / :   @ a @ @ ",
", / ;             : - b c d e   @         @   & > > &         $ / < ! ! < / $     % ; f g h 3 , , = i i j > , ~ { $ #           ",
"^ = 0 . . . . k l m n o p q r l 5 . . . . . . s b b s . . . . 0 = t u u = ' u . . 5 l r q v o w x ] ] ] ] _ ] ' * . . . . y l z ",
"] i = + , , + 4 d A B C D E F d 4 + , + + , + 3 h h 3 + , , + j i i = = i i j , , G H I J K C L M ] ^ ^ ] ] ] i t , , , + N d O ",
"^ P ] i = , , N d O Q O O O R H 4 , , , , , , G H d N , , = i ] P ) = + , + + , + N d O Q Q O H G , , + + + + + + + + , , G H S ",
"^ ] ] ' * . . y l z T T T T z l y . . . . . . y e e y . . * ' _ ] = 0 . | . . . . y l z T T T e 5 . | . . . . . . . . . . y l z ",
"^ i = - ;                 % ; ; # # $ $ # # $ $ #         ; - ' i + .                         # $ $ #             @   % ; . . . ",
"^ = 0 ; 1   @ a @ @ @ @ @ : / U : ; } } ; ; } / : @ @ @   1 ; * = , .   @         a @ @ @ @ @ : / / ;   @         @   : / , , V ",
"^ + .         # ; : % 1 : * ' + . $ / ~ ( ( ~ - $             . + , .   @ # ; : % % : ; # # $ { ~ ~ { : % % : . . | . 0 = ^ ] ^ ",
"^ , |   @     $ - / $ ; / ' W > . # ; ! ~ ~ ! $ #         @   . , + .     $ - / $ $ / / $ $ / ~ ( ( ~ / $ ; / + > , + = i ] ] ] ",
"^ , |         . + t * 0 = W ' - ;     $ - - $                 . , = 0 : 1 . , t * * t , . : U < { 0 t t 0 0 t ^ ] ^ ^ ^ ^ ^ ^ ^ ",
"^ + .         . > i ' ' i ' 0 ; %     # $ $ #                 . + i ' / ; . + i ' ' i > . # ; { ~ = i i j = i ] ] ] ] ] ^ ^ ^ ^ ",
"X Y k   a @   | > ] ] i = - ;                             a   k Y Z ` 3 s * = ] _ _ ] ' * k e f  .] _ ] ] ] ] ] ] ] ] ] ] ] ^ ^ ",
"..d e   @     . + ] _ ' 0 ; 1                             @   e d +.@.#.3 = $.^ ] ] ^ $.= 4 H %.&.] ^ ^ ] ] ^ ^ ^ ^ ^ ^ ^ ^ ^ ^ ",
"O *.=.    # $ { ~ j i > |   @                                 =.*.Q Q H G , , + + + + , + 3 h h 3 + , + + + + + + + + , + = i ] ",
"T =.-.    $ - < { * t , .   @                                 -.=.T T e y . . . . . . | . s b 3 s . [ . . . . . . . . | . 0 = ^ ",
"          $ - ~ { { < ~ { ; %                     # ; ; #             # $ $ #   @     @   . , + .                         ; / , ",
"@         # $ { ~ < { { ~ - $                     $ - - $         @ @ : / / ;   @     @   . , , .   @                 @   % ; . ",
"              . > = u u t + .                 @   . > > &   @         : / ~ ! . | ; # % ; 0 = , .   @ # $ $ # # $ $ #     % ; . ",
"          @   | > i j j i > .                     & > > &             # $ { ~ > > / ; ; / ' i + .     $ - / $ $ / - $     ; / , ",
"  % ; ; % @ @ : / , , = $., | a @ @ @ @ @ @ a % : { ;./ : % : : % % : | . >.< = i , | [ ,.x M G 5 % : { ~ } : ; } / ; 1 : 0 = ^ ",
"  $ - - $     # ; | . u = + .                 $ - ~ { : % $ / / $ ; / > + < { u j , . | , '.).H e $ / ~ ( $ # # $ ; # ; / = W ] ",
". u ' ' u . . . . . . s 3 3 s y e z z z z e y s 3 b s . . u ' = u * = _ _ = * u = = u 9 8 !.~.{.m u = ' u . . . . . . * ' ] _ ] ",
"+ j i i j + , , , ,., 8 ].].3 N H O Q Q O H N 3 #.#.8 , , j i i j = i ] ] i t t $.$.= 8 ].^.K /.(.j i i = , , , , , , = i ] P ^ ",
"+ + + + + + + + + , + 3 h ].3 N H O O O O H N N H d N + , + + + + + + + + , , , , ,., _.]./.{.d 4 + , + + + + + + + + + + + + + ",
". . . . . . . . . . . s 3 3 s y e z z z z l y y e e y . . . . . . . . . . . . . . | . s 3 (.m e 5 . . . . . . . . . . . . . . . ",
"                      . + + .   @ # $ $ #                                 % $ . & . . * = + .   @                               ",
"                  @   . , , . @ @ : / / : @ @ a @ @ a                 @   : / , , , , = $., [ @ @                               ",
". $ #                 . + , . # ; ! ~ ~ ! $ #                 # $ $ # % $ { ~ , > = ) ] ^ , . # ; $ #                           ",
"+ - ;                 . + , . $ / ~ ( ( ~ - $                 $ - / $ $ / ~ ( . . * ' _ ] , . $ / - $                           ",
", / ;             @   . , , . $ / / $ $ / / $ # : ; #         $ / < ! ! < / $     . > _ ] , [ : } ~ { ; % @ @ # $ $ #           ",
". $ #                 . + , . # ; $ # # $ ; # $ / - $         # $ ! ~ ~ ! $ % @ @ | , ] ] , . # ; ( ~ - $     $ - - $           ",
". ; %   @     @ @ 1 : 2 3 4 5 @ @         @   . , , .   @ @   % ; { ~ ~ { ; % @ @ : / 6 7 8 9 [ [ 0 = = 0 | | { < / :   @ a @ @ ",
", / ;             : - b c d e   @         @   & > > &         $ / < ! ! < / $     % ; f g h 3 , , = i i j > , ~ { $ #           ",
"^ = 0 . . . . k l m n o p q r l 5 . . . . . . s b b s . . . . 0 = t u u = ' u . . 5 l r q v o w x ] ] ] ] _ ] ' * . . . . y l z ",
"] i = + , , + 4 d A B C D E F d 4 + , + + , + 3 h h 3 + , , + j i i = = i i j , , G H I J K C L M ] ^ ^ ] ] ] i t , , , + N d O ",
"^ P ] i = , , N d O Q O O O R H 4 , , , , , , G H d N , , = i ] P ) = + , + + , + N d O Q Q O H G , , + + + + + + + + , , G H S ",
"^ ] ] ' * . . y l z T T T T z l y . . . . . . y e e y . . * ' _ ] = 0 . | . . . . y l z T T T e 5 . | . . . . . . . . . . y l z ",
"^ i = - ;                 % ; ; # # $ $ # # $ $ #         ; - ' i + .                         # $ $ #             @   % ; . . . ",
"^ = 0 ; 1   @ a @ @ @ @ @ : / U : ; } } ; ; } / : @ @ @   1 ; * = , .   @         a @ @ @ @ @ : / / ;   @         @   : / , , V ",
"^ + .         # ; : % 1 : * ' + . $ / ~ ( ( ~ - $             . + , .   @ # ; : % % : ; # # $ { ~ ~ { : % % : . . | . 0 = ^ ] ^ ",
"^ , |   @     $ - / $ ; / ' W > . # ; ! ~ ~ ! $ #         @   . , + .     $ - / $ $ / / $ $ / ~ ( ( ~ / $ ; / + > , + = i ] ] ] ",
"^ , |         . + t * 0 = W ' - ;     $ - - $                 . , = 0 : 1 . , t * * t , . : U < { 0 t t 0 0 t ^ ] ^ ^ ^ ^ ^ ^ ^ ",
"^ + .         . > i ' ' i ' 0 ; %     # $ $ #                 . + i ' / ; . + i ' ' i > . # ; { ~ = i i j = i ] ] ] ] ] ^ ^ ^ ^ ",
"X Y k   a @   | > ] ] i = - ;                             a   k Y Z ` 3 s * = ] _ _ ] ' * k e f  .] _ ] ] ] ] ] ] ] ] ] ] ] ^ ^ ",
"..d e   @     . + ] _ ' 0 ; 1                             @   e d +.@.#.3 = $.^ ] ] ^ $.= 4 H %.&.] ^ ^ ] ] ^ ^ ^ ^ ^ ^ ^ ^ ^ ^ ",
"O *.=.    # $ { ~ j i > |   @                                 =.*.Q Q H G , , + + + + , + 3 h h 3 + , + + + + + + + + , + = i ] ",
"T =.-.    $ - < { * t , .   @                                 -.=.T T e y . . . . . . | . s b 3 s . [ . . . . . . . . | . 0 = ^ ",
"          $ - ~ { { < ~ { ; %                     # ; ; #             # $ $ #   @     @   . , + .                         ; / , ",
"@         # $ { ~ < { { ~ - $                     $ - - $         @ @ : / / ;   @     @   . , , .   @                 @   % ; . ",
"              . > = u u t + .                 @   . > > &   @         : / ~ ! . | ; # % ; 0 = , .   @ # $ $ # # $ $ #     % ; . ",
"          @   | > i j j i > .                     & > > &             # $ { ~ > > / ; ; / ' i + .     $ - / $ $ / - $     ; / , ",
"  % ; ; % @ @ : / , , = $., | a @ @ @ @ @ @ a % : { ;./ : % : : % % : | . >.< = i , | [ ,.x M G 5 % : { ~ } : ; } / ; 1 : 0 = ^ ",
"  $ - - $     # ; | . u = + .                 $ - ~ { : % $ / / $ ; / > + < { u j , . | , '.).H e $ / ~ ( $ # # $ ; # ; / = W ] ",
". 0 = = 0 . | . . [ . s 8 8 s 5 :.T T T T :.5 s 8 8 s | [ 0 = t 0 0 t ] ] t 0 0 t t 0 9 _.<.[.}.|.0 1.= 0 . | . . | . 0 = ^ ] ^ ",
"+ j i i j + , , , ,., 8 ].].3 N H O Q Q O H N 3 #.#.8 , , j i i j = i ] ] i t t $.$.= 8 ].^.K /.(.j i i = , , , , , , = i ] P ^ ",
"^ ^ ^ ^ ^ ^ ^ ^ ^ ^ ^ 2...3.2.4.3.5.5.5.5.3.4.2.3...2.^ ^ ^ ^ ^ ^ ^ ^ ^ ^ ^ ^ ^ ^ ^ ^ 4...5.5...4.^ ^ ^ ^ ^ ^ ^ ^ ^ ^ ^ ^ ^ ^ ^ "};
