/* XPM */
static char * Exit_open_xpm[] = {
"64 64 4 1",
" 	c #070707",
".	c #110E0E",
"+	c #1C1616",
"@	c #231E1C",
" .............      .......         ........       .......      ",
"+++@@@@@@@+.+@@@@@@+++..@@@@@@+++++ ++++@@@@@@++++++ +@@@@@@++++",
"+++++++++++.++++++++++.@@++++++++++ ++++++++++++++++ ++++++@@+++",
"+++++++++++.++++++++++ ++++++++++++ ..++++++++++++++ +++++++++++",
"+++++++++++.++++++++++.+++++++++++. ...+++++++++++++.+++++++++++",
"++++++++++..+++...++++.+++++....... ....++.....++....+++++++++++",
" @@@@@@@@@@     ............                 ............       ",
" @@+++++@@@@@@@+ @@@@@@@@ ++++++ +@@@@@@@@@@@@@@ @@@@@ +@@@@@@@+",
" +++++++++++++++ @+++++++ ++++++ +++++@@@@@@@@@@ +++++ +++++++++",
" +++++++++++++++ ++++++++ ++++++ .+++++++++++++@ +++++ +++++++++",
" .++++++++++++++ ++++++++ +++++. .++++++++++++++ +++++ +++++++++",
" ....++++++++++. ++++++++ +++++. .++++++++++++.. ++++. .+++++++.",
" .....++++++.... ...++... ...... ....+++++...... ..... .........",
" ............... ........ ......  .............. ..... .........",
"  .............. .......  ......   .............. .... . .......",
"                                                .               ",
"                                                                ",
"....++++ ...++++++++.... ...+++++++.... ..+++........ ++++++....",
"........ ............... .............. ............. ..........",
"........ ............... .............. ............. ..........",
"........ ............... .............. ............. ..........",
"......      ............ ...........       ..........  .........",
"                                                                ",
" ...............  .............. .... .......... ...............",
" ............... ............... .... .......... ...............",
" ..         .... ..        ....  .... .  ....... ...............",
" ...             .......         ..       .   .. ..           ..",
"                                                                ",
"                                                                ",
"                                                                ",
"                                                                ",
"                                                                ",
"                                                                ",
"                                                                ",
"                                                                ",
"                                                                ",
"                                                                ",
"                                                                ",
"                                                                ",
"                                                                ",
"                                                                ",
"                                                                ",
"                                                                ",
"                                                                ",
"                                                                ",
"                                                                ",
"                                                                ",
"                                                                ",
"                                                                ",
"                                                                ",
"                                                                ",
"                                                                ",
"                                                                ",
"                                                                ",
"                                                                ",
"                                                                ",
"                                                                ",
"                                                                ",
"                                                                ",
"                                                                ",
"                                                                ",
"                                                                ",
"                                                                ",
"                                                                "};
