/* XPM */
static char *_bbed17bc8574e25d5419bdb0de0307bMmHMRdKxI3lzPXFg[] = {
/* columns rows colors chars-per-pixel */
"64 64 21 1 ",
"  c None",
". c #171A0F",
"X c #3A1F1D",
"o c #243117",
"O c #302D21",
"+ c #3D3734",
"@ c #364922",
"# c #4E5332",
"$ c #6B3840",
"% c #62784A",
"& c #796E67",
"* c #80592D",
"= c #8D4953",
"- c #B34D5C",
"; c #AB7B44",
": c #BD7247",
"> c #84AE56",
", c #9F8965",
"< c #CD9757",
"1 c #E6DAAD",
"2 c #FDFFD6",
/* pixels */
"                                                                ",
"                                                                ",
"                                                                ",
"                                                                ",
"                                                                ",
"                                      %#%%%%%                   ",
"                                    %#%%####.                   ",
"                                  %#%%######.                   ",
"                                %#%%#######o.                   ",
"                              %#%%########o.                    ",
"                          %%%%%%#########oo.                    ",
"                        %%%%%%%oo######ooo.                     ",
"                      %%%########o###ooooo.                     ",
"                     %%############oooooo.                      ",
"                    %%##############ooooo.                      ",
"                    %%%##############oooo.                      ",
"                     ,,%%##############oo.                      ",
"                    ,11,,%%#############.                       ",
"                    ,211&&+%#############.                      ",
"                    1OO,1&&%#############.                      ",
"                    11111&&+%############o.                     ",
"                    11,2&&&&%############o.                     ",
"                    11@>OO11%o############o.                    ",
"                    11@>>211,%o#############.                   ",
"                   111@>22211,%o###########oo.                  ",
"                  OO211221111,,%o#########oooo.                 ",
"                  ,111111111,,.o#########oooo.                  ",
"                  ,11111111,,.o########ooooo.                   ",
"                   ,111111,,.o########oooo..                    ",
"                    ,1111,,.o######ooooo..                      ",
"                      ,,,..ooooooooooo..                        ",
"                        ..............                          ",
"                        $$X.oooooo.                             ",
"                       -=$X.ooooooo.                            ",
"                      -=$XO.ooooooo.                            ",
"                      =$XOO.oo#ooooo.                           ",
"                      XXOOO.o##o#ooo.                           ",
"                       ,1:O.o##o###oo.                          ",
"                       ,<:*.o###o##o#.                          ",
"                       ,2;:O.###o#####.                         ",
"                       22<<O.#########.                         ",
"                      2211:O.###o######.                        ",
"                      211,OO.##########.                        ",
"                     221,,OO.###########.                       ",
"                     ,11,O1O.############.                      ",
"                     ,1,O11,.#############.                     ",
"                     O1O,11,.##############.      2222          ",
"                      OO,11,.###############.    211112         ",
"                        ,11,.###########o####.  2111111         ",
"                        ,11,.###o##o##########. 111111          ",
"                        ,11.#############o####.1,,,             ",
"                        ,&1.####o###o#####o##o.OOO              ",
"                        ,&1.####o###o######oo.OOO               ",
"                        +&1.#####o###o####oo.                   ",
"                         &+o#####o##oooooo..                    ",
"                         ++oo###ooooo.....                      ",
"                       2211oooooo....                           ",
"                      2,,,,......                               ",
"                                                                ",
"                                                                ",
"                                                                ",
"                                                                ",
"                                                                ",
"                                                                "
};
