/* XPM */
static char *feb6fddffdbc40f4a5bc600430e60c20Sqx3KrkKbH7L2vLI[] = {
/* columns rows colors chars-per-pixel */
"64 64 10 1 ",
"  c None",
". c #171A0F",
"X c #243117",
"o c #302D21",
"O c #4E5332",
"+ c #62784A",
"@ c #8D4953",
"# c #9F8965",
"$ c #E6DAAD",
"% c #FDFFD6",
/* pixels */
"                                                                ",
"                                                                ",
"                                                                ",
"                  +                          +                  ",
"                 .++                        ++.                 ",
"                 .O++                      ++O.                 ",
"                .OOO++                    ++OOO.                ",
"                .OOO+++                  +++OOO.                ",
"                .OOOO+++                +++OOOO.                ",
"               .XOOOOO+++              +++OOOOOX.               ",
"               .XOOOOOO++++++++++++++++++OOOOOOX.               ",
"               .XOOOOOOOO++++++++++++++OOOOOOOOX.               ",
"               .XOOOOOOOOOOOOOOOOOOOOOOOOOOOOOOX.               ",
"               .XOOOOOOOOOOOOOOOOOOOOOOOOOOOOOOX.               ",
"               .XXOOOXXOOOOOOOOOOOOOOOOOOOXXOOOX.               ",
"               .XXXXXXOOOOOOOOOOOOOOOOOOOOOXXXXX.               ",
"               .XXXXOOOOOOOOOOOOOOOOOOOOOOOOXXXX.               ",
"                .XXOOOOOOOOOOOOOOOOOOOOOOOOOOXX.                ",
"                ..OOOOOOOOOOOOOOOOOOOOOOOOOOOOXX                ",
"                .OOOOOOOOOOOOOOOOOOOOOOOOOOOOOO.                ",
"               .OOOOOOOOOOOOOOOOOOOOOOOOOOOOOOOO.               ",
"               .OOOOOOOOOOOOOOOOOOOOOOOOOOOOOOOO.               ",
"              .XOOOOOOOOOOOOOOOOOOOOOOOOOOOOOOOOO.              ",
"             .XXXOOOOOOOOOOOOOOOOOOOOOOOOOOOOOOXXX.             ",
"            .XXXXXOOOOOOOOOOOOOOOOOOOOOOOOOOOXXXXXX.            ",
"           .XXXXXXXXOOOOOOOOOOOOOOOOOOOOOOXXXXXXXXXX.           ",
"            ..XXXXXXXXXXOOOOOOOOOOOOOOXXXXXXXXXXXX..            ",
"              ..XXXXXXXXXXXXXXXXXXXXXXXXXXXXXXXX..              ",
"                ..XXXXXXXXXXXXXXXXXXXXXXXXXXXX..                ",
"                  .....XXXXXXXXXXXXXXXXXX.....                  ",
"                       ...XXXXXXXXXXXX...                       ",
"                          ............                          ",
"                         .X@@@@@@@@@@X.                         ",
"                        .XXXX@@@@@@XXXX.                        ",
"                       .XXXXXXXXXXXXXXXX.                       ",
"                      .XXXXXXXXXXXXXXXXXX.                      ",
"                      .XXXXXXXXXXXXXXXXXX.                      ",
"                     .OOOOXXXXXXXXXXXXXOOO.                     ",
"                     .OOOOOOOXXXXXXOOOOOOO.                     ",
"                    .OOOOOOOOOOOOOOOOOOOOOO.                    ",
"                    .OOOOOOOOOOOOOOOOOOOOOO.                    ",
"                   .OOOOOOOOOOOOOOOOO%%OOOOO.                   ",
"                   .OOOOOOOOOOOOOOOO%$$%OOOO.                   ",
"                   .OOOOOOOOOOOOOOOO$$$$OOOO.                   ",
"                  .XOOOOOOOOOOOOOOOO$$$#OOOOX.                  ",
"                  .XOOOOOOOOOOOOOOOO$$$OOOOOX.                  ",
"                 .XXOOOOOOOOOOOOOOOO$$$OOOOOXX.                 ",
"                .XXOOOOOOOOOOOOOOOOO$$$OOOOOOXX.                ",
"               .XOOOOOOOOOOOOOOOOOOO$$$OOOOOOOXX.               ",
"              .OOOOOOOOOOOOOOOOOOOOO$$$OOXOOOOOOX.              ",
"            ..OOOOOOOOOOOOXOOOOOOOOO#$$OOOOOOOOOOO..            ",
"          ..OOOOOOOOOOOOOOOOOOOOOOO####OOOOOOOOOOOOO..          ",
"         .OOOOOOOOOOOXOOOXOOOOOOXXX####OOOOXOOOOOOOOOO.         ",
"        .OOOOXOOOOOOXOOOOOOOOOOX..####OOOOOOOOOXOOOOOOO.        ",
"         ..XXOOOOOOOOOOOXXOOOOX.o####XXOOOOOXOOOXOOOO..         ",
"           ..XXOOOXOOOOXXOOXXX.oo###oX.XXOOOOXOOOXX..           ",
"             ..XXXXXXXXXXXX...o######o..XXXXXXXXX..             ",
"               ...XXXXXX...ooo######ooo.OXXXXX...               ",
"                  ......oooooooooooooooo......                  ",
"                        o###o     o###o                         ",
"                         ooo       ooo                          ",
"                                                                ",
"                                                                ",
"                                                                "
};
