/* XPM */
static char *bd590260a1b04712c4dbe93fea4ffc67oWwVj4ke2zN35v8O[] = {
/* columns rows colors chars-per-pixel */
"64 64 21 1 ",
"  c None",
". c #171A0F",
"X c #3A1F1D",
"o c #243117",
"O c #302D21",
"+ c #364922",
"@ c #4E5332",
"# c #6B3840",
"$ c #62784A",
"% c #80592D",
"& c #8D4953",
"* c #B34D5C",
"= c #AB7B44",
"- c #BD7247",
"; c #BC8D57",
": c #84AE56",
"> c #9F8965",
", c #CD9757",
"< c #E2B179",
"1 c #E6DAAD",
"2 c #FDFFD6",
/* pixels */
"                                                                ",
"                                                                ",
"                                                                ",
"                                                                ",
"                                                                ",
"                                                                ",
"                 $$$$$@$                                        ",
"                 .@@@@$$@$                                      ",
"                 .@@@@@@$$@$                                    ",
"                 .o@@@@@@@$$@$                                  ",
"                  .o@@@@@@@@$$@$                                ",
"                  .oo@@@@@@@@@$$$$$$                            ",
"                   .ooo@@@@@@oo$$$$$$$                          ",
"                   .ooooo@@@o@@@@@@@@$$$                        ",
"                    .oooooo@@@@@@@@@@@@$$                       ",
"                    .ooooo@@@@@@@@@@@@@@$$                      ",
"                    .oooo@@@@@@@@@@@@@@$$$                      ",
"                    .oo@@@@@@@@@@@@@@$$>>                       ",
"                     .@@@@@@@@@@@@@$$>>11>                      ",
"                    .@@@@@@@@@@@@@$>11112>                      ",
"                    .@@@@@@@@@@@@@$111>OO1                      ",
"                   .o@@@@@@@@@@@@$-,111111                      ",
"                   .o@@@@@@@@@@@@$=,,12>11                      ",
"                  .o@@@@@@@@@@@@o$,=OO:+11                      ",
"                 .@@@@@@@@@@@@@o$-,,<::+11                      ",
"                .oo@@@@@@@@@@@o$%==;;;:+111                     ",
"               .oooo@@@@@@@@@o$--,,,,<<112OO                    ",
"                .oooo@@@@@@@@@o.%%==1111111>                    ",
"                 .ooooo@@@@@@@@o.--11111111>                    ",
"                  ..oooo@@@@@@@@o.>>111111>                     ",
"                    ..ooooo@@@@@@o.>>1111>                      ",
"                      ..ooooooooooo..>>>                        ",
"                        ..............                          ",
"                           .oooooo.X##                          ",
"                          .ooooooo.X#&*                         ",
"                          .ooooooo.OX#&*                        ",
"                         .ooooo@oo.OOX#&                        ",
"                         .ooo@o@@o.OOOXX                        ",
"                        .oo@@@o@@o.O>1>                         ",
"                        .@o@@o@@@o.>>1>                         ",
"                       .@@@@@o@@@.O>12>                         ",
"                       .@@@@@@@@@.O1122                         ",
"                      .@@@@@@o@@@.O>1122                        ",
"                      .@@@@@@@@@@.OO>112                        ",
"                     .@@@@@@@@@@@.OO>>122                       ",
"                    .@@@@@@@@@@@@.O1O>11>                       ",
"                   .@@@@@@@@@@@@@.>11O>1>                       ",
"        2222      .@@@@@@@@@@@@@@.>11>O1O                       ",
"       211112    .@@@@@@@@@@@@@@@.-,1>OO                        ",
"       1111112  .@@@@o@@@@@@@@@@@.%==>                          ",
"        111111 .@@@@@@@@@@o@@o@@@.-,1>                          ",
"           >>>1.@@@@o@@@@@@@@@@@@@.11>                          ",
"            OOO.o@@o@@@@@o@@@o@@@@.11>                          ",
"             OOO.oo@@@@@@o@@@o@@@@.11>                          ",
"                 .oo@@@@o@@@o@@@@@.11>                          ",
"                  ..oooooo@@o@@@@@o>1                           ",
"                    .....ooooo@@@oo>>                           ",
"                         ....oooooo1122                         ",
"                             ......>>>>2                        ",
"                                                                ",
"                                                                ",
"                                                                ",
"                                                                ",
"                                                                "
};
