/* XPM */
static char * WallD_xpm[] = {
"64 64 535 2",
"  	c #000000",
". 	c #0D1400",
"+ 	c #1C2600",
"@ 	c #222D00",
"# 	c #222E00",
"$ 	c #232D00",
"% 	c #242E00",
"& 	c #0E1400",
"* 	c #212D00",
"= 	c #1F2D00",
"- 	c #1E2C00",
"; 	c #1E2600",
"> 	c #364200",
", 	c #3F4D00",
"' 	c #354200",
") 	c #2D2A00",
"! 	c #4D4800",
"~ 	c #5A5400",
"{ 	c #535200",
"] 	c #474F00",
"^ 	c #3E4D00",
"/ 	c #595400",
"( 	c #4C4800",
"_ 	c #2C2900",
": 	c #645800",
"< 	c #745E00",
"[ 	c #6F5C00",
"} 	c #545300",
"| 	c #645700",
"1 	c #735D00",
"2 	c #392400",
"3 	c #603E00",
"4 	c #704900",
"5 	c #624300",
"6 	c #423600",
"7 	c #6F4900",
"8 	c #372200",
"9 	c #845400",
"0 	c #A16400",
"a 	c #986000",
"b 	c #634500",
"c 	c #614200",
"d 	c #6E4800",
"e 	c #A06400",
"f 	c #361A00",
"g 	c #5B2F00",
"h 	c #6A3800",
"i 	c #5A2F00",
"j 	c #693800",
"k 	c #341900",
"l 	c #683700",
"m 	c #693700",
"n 	c #6E3A00",
"o 	c #753F00",
"p 	c #401F00",
"q 	c #341800",
"r 	c #5A2E00",
"s 	c #7F4600",
"t 	c #9D5900",
"u 	c #945400",
"v 	c #5C3200",
"w 	c #351900",
"x 	c #592D00",
"y 	c #673700",
"z 	c #9C5900",
"A 	c #1E0B00",
"B 	c #371900",
"C 	c #361800",
"D 	c #1E0900",
"E 	c #401E00",
"F 	c #3F1E00",
"G 	c #552B00",
"H 	c #1D0A00",
"I 	c #351800",
"J 	c #4F2800",
"K 	c #623500",
"L 	c #371B00",
"M 	c #4E2800",
"N 	c #1D0B00",
"O 	c #371A00",
"P 	c #1F0C00",
"Q 	c #1B0900",
"R 	c #311600",
"S 	c #391A00",
"T 	c #3A1B00",
"U 	c #2F1400",
"V 	c #130500",
"W 	c #140600",
"X 	c #321700",
"Y 	c #4B2600",
"Z 	c #5E3100",
"` 	c #592E00",
" .	c #0A1300",
"..	c #1B2500",
"+.	c #292900",
"@.	c #382300",
"#.	c #282900",
"$.	c #362200",
"%.	c #3E1E00",
"&.	c #1C0B00",
"*.	c #182500",
"=.	c #1E2D00",
"-.	c #2C2A00",
";.	c #392300",
">.	c #3F1F00",
",.	c #603200",
"'.	c #4D2700",
").	c #1D2600",
"!.	c #344200",
"~.	c #3C4D00",
"{.	c #3C4C00",
"].	c #4B4700",
"^.	c #4B4800",
"/.	c #5F3E00",
"(.	c #4A4700",
"_.	c #5F3D00",
":.	c #170800",
"<.	c #3E1F00",
"[.	c #5F3200",
"}.	c #542B00",
"|.	c #402000",
"1.	c #5B3400",
"2.	c #945800",
"3.	c #AA6600",
"4.	c #AB6700",
"5.	c #9D5E00",
"6.	c #7F4900",
"7.	c #764100",
"8.	c #874B00",
"9.	c #884C00",
"0.	c #603400",
"a.	c #4B2700",
"b.	c #3E3500",
"c.	c #434E00",
"d.	c #575B00",
"e.	c #6F5F00",
"f.	c #795900",
"g.	c #794A00",
"h.	c #784A00",
"i.	c #805C00",
"j.	c #8B5500",
"k.	c #8B4D00",
"l.	c #7F4500",
"m.	c #6C3900",
"n.	c #512900",
"o.	c #3D1E00",
"p.	c #3C1D00",
"q.	c #321600",
"r.	c #403100",
"s.	c #695300",
"t.	c #715D00",
"u.	c #625700",
"v.	c #614F00",
"w.	c #704600",
"x.	c #784000",
"y.	c #4D2800",
"z.	c #6E3B00",
"A.	c #763F00",
"B.	c #7D4D00",
"C.	c #C97E00",
"D.	c #E69100",
"E.	c #E79100",
"F.	c #D88600",
"G.	c #BC7100",
"H.	c #AD6300",
"I.	c #B16500",
"J.	c #B26600",
"K.	c #7E4600",
"L.	c #525200",
"M.	c #705F00",
"N.	c #9B6800",
"O.	c #A26200",
"P.	c #8B4F00",
"Q.	c #8A4F00",
"R.	c #B06B00",
"S.	c #B36900",
"T.	c #A75F00",
"U.	c #8C4D00",
"V.	c #6D3A00",
"W.	c #5E3800",
"X.	c #975D00",
"Y.	c #724700",
"Z.	c #764300",
"`.	c #7A4100",
" +	c #6B3C00",
".+	c #6F3D00",
"++	c #764000",
"@+	c #7A4200",
"#+	c #8D5700",
"$+	c #E08E00",
"%+	c #FDA000",
"&+	c #F79B00",
"*+	c #F29800",
"=+	c #F29700",
"-+	c #E78F00",
";+	c #D17D00",
">+	c #C47200",
",+	c #C37100",
"'+	c #B96A00",
")+	c #A15B00",
"!+	c #8C5600",
"~+	c #815D00",
"{+	c #936600",
"]+	c #B46E00",
"^+	c #B86A00",
"/+	c #A25C00",
"(+	c #925200",
"_+	c #925100",
":+	c #935200",
"<+	c #7E4500",
"[+	c #4E2900",
"}+	c #6B3B00",
"|+	c #AB6200",
"1+	c #AA6200",
"2+	c #9F5B00",
"3+	c #884B00",
"4+	c #794100",
"5+	c #1C0A00",
"6+	c #F69B00",
"7+	c #E38C00",
"8+	c #D68100",
"9+	c #C97600",
"0+	c #C06F00",
"a+	c #B26800",
"b+	c #AF6A00",
"c+	c #B46D00",
"d+	c #BE7000",
"e+	c #C47100",
"f+	c #B46700",
"g+	c #B56800",
"h+	c #613500",
"i+	c #6A3B00",
"j+	c #B36700",
"k+	c #7A4B00",
"l+	c #C37B00",
"m+	c #D38400",
"n+	c #BB7000",
"o+	c #A96100",
"p+	c #935400",
"q+	c #5B3100",
"r+	c #6C3C00",
"s+	c #623600",
"t+	c #4A2C00",
"u+	c #794B00",
"v+	c #835000",
"w+	c #734300",
"x+	c #683900",
"y+	c #673900",
"z+	c #693A00",
"A+	c #693B00",
"B+	c #371C00",
"C+	c #361B00",
"D+	c #5B3200",
"E+	c #1A0A00",
"F+	c #331800",
"G+	c #3D1D00",
"H+	c #3E1D00",
"I+	c #392100",
"J+	c #2B2800",
"K+	c #202C00",
"L+	c #2A2800",
"M+	c #582E00",
"N+	c #572D00",
"O+	c #562C00",
"P+	c #311700",
"Q+	c #673600",
"R+	c #5E3D00",
"S+	c #3A4C00",
"T+	c #522A00",
"U+	c #512A00",
"V+	c #784100",
"W+	c #532B00",
"X+	c #6B3900",
"Y+	c #5D3100",
"Z+	c #814700",
"`+	c #8D5400",
" @	c #845900",
".@	c #765F00",
"+@	c #676600",
"@@	c #666700",
"#@	c #726300",
"$@	c #8C5500",
"%@	c #785900",
"&@	c #804500",
"*@	c #865800",
"=@	c #6F6300",
"-@	c #666000",
";@	c #714E00",
">@	c #532A00",
",@	c #753E00",
"'@	c #834700",
")@	c #A45E00",
"!@	c #AA6D00",
"~@	c #957800",
"{@	c #837D00",
"]@	c #7F7F00",
"^@	c #8C7B00",
"/@	c #A37100",
"(@	c #B36800",
"_@	c #8A5000",
":@	c #A86F00",
"<@	c #8F7A00",
"[@	c #7C7300",
"}@	c #7A5700",
"|@	c #7A4000",
"1@	c #915100",
"2@	c #754100",
"3@	c #905000",
"4@	c #A15A00",
"5@	c #B67800",
"6@	c #9C8400",
"7@	c #8E8900",
"8@	c #968600",
"9@	c #A77F00",
"0@	c #BA7600",
"a@	c #B76900",
"b@	c #A05B00",
"c@	c #BA7700",
"d@	c #A78000",
"e@	c #997900",
"f@	c #936200",
"g@	c #915000",
"h@	c #603500",
"i@	c #B16600",
"j@	c #B46800",
"k@	c #B67900",
"l@	c #9C8500",
"m@	c #978600",
"n@	c #AC7E00",
"o@	c #C17300",
"p@	c #BF6F00",
"q@	c #C07300",
"r@	c #B67400",
"s@	c #B46C00",
"t@	c #7D4500",
"u@	c #4C2800",
"v@	c #B97700",
"w@	c #9B5900",
"x@	c #C16F00",
"y@	c #1B0A00",
"z@	c #1E0C00",
"A@	c #663600",
"B@	c #2F1500",
"C@	c #9B5800",
"D@	c #AC6200",
"E@	c #9C5800",
"F@	c #A85F00",
"G@	c #A65F00",
"H@	c #1A0900",
"I@	c #9B5700",
"J@	c #BF6E00",
"K@	c #412000",
"L@	c #8F4F00",
"M@	c #C27000",
"N@	c #7C4400",
"O@	c #804600",
"P@	c #5C3000",
"Q@	c #482400",
"R@	c #5D3000",
"S@	c #4C2600",
"T@	c #A05A00",
"U@	c #B66900",
"V@	c #9F5A00",
"W@	c #834900",
"X@	c #BC6E00",
"Y@	c #B16900",
"Z@	c #A96600",
"`@	c #B66E00",
" #	c #CB7A00",
".#	c #D58000",
"+#	c #D27D00",
"@#	c #C77500",
"##	c #A86000",
"$#	c #744300",
"%#	c #B96F00",
"&#	c #B86E00",
"*#	c #A36300",
"=#	c #945A00",
"-#	c #865100",
";#	c #7C4600",
">#	c #763E00",
",#	c #985700",
"'#	c #C27400",
")#	c #D07C00",
"!#	c #A86100",
"~#	c #CD7A00",
"{#	c #DD8900",
"]#	c #E69000",
"^#	c #E99200",
"/#	c #EE9500",
"(#	c #F19700",
"_#	c #845100",
":#	c #D38300",
"<#	c #EF9600",
"[#	c #EA9300",
"}#	c #E59000",
"|#	c #E18E00",
"1#	c #CB7F00",
"2#	c #9C5D00",
"3#	c #774000",
"4#	c #A46100",
"5#	c #DA8700",
"6#	c #E68E00",
"7#	c #D17C00",
"8#	c #E18A00",
"9#	c #F59A00",
"0#	c #FFA200",
"a#	c #FC9F00",
"b#	c #EB9200",
"c#	c #DC8600",
"d#	c #BB6F00",
"e#	c #7E4800",
"f#	c #955B00",
"g#	c #FFA300",
"h#	c #ED9600",
"i#	c #C57900",
"j#	c #9D5C00",
"k#	c #854A00",
"l#	c #7D4800",
"m#	c #FCA000",
"n#	c #DE8800",
"o#	c #EA9100",
"p#	c #D78500",
"q#	c #9D5D00",
"r#	c #E48F00",
"s#	c #FA9F00",
"t#	c #CF8100",
"u#	c #9F5E00",
"v#	c #D78600",
"w#	c #E28B00",
"x#	c #A36100",
"y#	c #ED9500",
"z#	c #C57A00",
"A#	c #BC7300",
"B#	c #FB9F00",
"C#	c #F69A00",
"D#	c #EC9500",
"E#	c #DD8600",
"F#	c #EA9200",
"G#	c #A96500",
"H#	c #CE8000",
"I#	c #DD8700",
"J#	c #D48000",
"K#	c #D88700",
"L#	c #FA9E00",
"M#	c #AA6700",
"N#	c #F99E00",
"O#	c #975600",
"P#	c #965500",
"Q#	c #C07200",
"R#	c #BD7100",
"S#	c #D98700",
"T#	c #C27300",
"U#	c #E49000",
"V#	c #CA7E00",
"W#	c #9C5C00",
"X#	c #874A00",
"Y#	c #9E5A00",
"Z#	c #E38F00",
"`#	c #D08100",
" $	c #9E5E00",
".$	c #864A00",
"+$	c #A36200",
"@$	c #945B00",
"#$	c #875200",
"$$	c #7E4700",
"%$	c #743F00",
"&$	c #6C3B00",
"*$	c #724200",
"=$	c #884D00",
"-$	c #743E00",
";$	c #8A4C00",
">$	c #773F00",
",$	c #7E4400",
"'$	c #764200",
")$	c #6E3D00",
"!$	c #733E00",
"~$	c #5E3300",
"{$	c #744000",
"]$	c #8B4C00",
"^$	c #723D00",
"/$	c #6B3800",
"($	c #5F3400",
"_$	c #6B3A00",
":$	c #B36600",
"<$	c #A65E00",
"[$	c #894C00",
"}$	c #A55E00",
"|$	c #B06500",
"1$	c #A55D00",
"2$	c #864900",
"3$	c #9A5700",
"4$	c #683A00",
"5$	c #AA6100",
"6$	c #C87500",
"7$	c #C67600",
"8$	c #A66000",
"9$	c #A36000",
"0$	c #B76E00",
"a$	c #CC7B00",
"b$	c #BD6E00",
"c$	c #B06600",
"d$	c #AC6600",
"e$	c #894B00",
"f$	c #BD6F00",
"g$	c #CE7B00",
"h$	c #E88F00",
"i$	c #C77700",
"j$	c #B26A00",
"k$	c #AD6700",
"l$	c #F39800",
"m$	c #7F4400",
"n$	c #DE8A00",
"o$	c #845000",
"p$	c #E99300",
"q$	c #E08C00",
"r$	c #C07500",
"s$	c #CF8000",
"t$	c #E89200",
"u$	c #DE8D00",
"v$	c #8C5700",
"w$	c #D98500",
"x$	c #E18C00",
"y$	c #9E5D00",
"z$	c #874C00",
"A$	c #E38B00",
"B$	c #D28300",
"C$	c #F59B00",
"D$	c #B06800",
"E$	c #DE8C00",
"F$	c #DC8800",
"G$	c #CC7A00",
"H$	c #CF7C00",
"I$	c #C77400",
"J$	c #DF8D00",
"                                                                                                                                ",
"  . + @ # $ % % $ @ @ $ % % $ @ @ $ % % % % $ @ @ @ @ @ @ # @ + . & + * = = $ % $ @ @ @ @ * - - * @ @ @ @ * - - * @ @ @ @ @ @ @ ",
"  ; > , , , , , , , , , , , , , , , , , , , , , , , , , , , , ' ; ; ' , , , , , , , , , , , , , , , , , , , , , , , , , , , , , ",
"  ) ! ~ ~ { ] ] { ~ ~ { ] ] { ~ ~ { ] ^ ^ ] { / ~ / / ~ / ~ / ( ) _ ! : < [ } ] { / ~ / / | 1 1 | / / / / | 1 1 | / / / / / / / ",
"  2 3 4 4 5 6 6 5 4 4 5 6 6 5 4 4 5 6 $ $ 6 5 7 4 7 7 7 7 4 7 3 2 8 3 9 0 a b 6 c 7 4 d 7 9 e e 9 7 d d 7 9 e e 9 7 d 7 7 7 7 7 ",
"  f g h h i f f i j j i f f i j j g f     k i l j m j m m n o j p q r s t u v w x m m y l s t t s j l l m s z z s l y l l l l l ",
"  A B p p C D D C p p C D D C p p B D     D B E p E E F E G n m p H I J K v L D I E p F E M K K M E F F E M K K M E F E E E E E ",
"                  N O f N N w f P     Q R S T T S U V W X Y Z ` k  ...@ = +.@.@.+.#.$.%.F f &.         .*.=.* -.;.>.>.>.>.>.>.>.",
"                  f i i O O i i f     f g j j j l i k w i ,.'.C N ).!.~.{.].3 3 ( ^./.j m i X         ..!.~.~.(._.l m l l l l l ",
"          :.w <.>.'.,.[.'.}.n h |.    1.2.3.4.4.4.5.6.7.8.9.7.0.a.b.c.d.e.f.g.h.f.i.j.k.l.m.n.o.p.q.N r.s.t.u.v.w.x.x.x.x.x.x.x.",
"          f g j h ,.y.'.,.z.A.h p     B.C.D.E.E.D.F.G.H.I.J.H.z K.c L.M.N.O.P.Q.O.R.S.T.U.A.V.h j ` f W.X.e 9 Y.Z.`.`.`.`.`.`.`.",
" + + + + +.+++@+`.n }.}.n A.z.g f     #+$+%+&+*+=+-+;+>+,+>+>+'+)+!+~+{+]+^+/+)+^+>+>+'+)+(+_+:+(+<+[+}+|+'+/+(+_+(+(+(+(+(+(+(+",
"1+1+1+|+1+2+3+`.4+o V.n o z.}.f 5+    #+$+6+7+8+8+;+9+>+,+>+>+0+^+a+b+c+d+0+^+^+0+e+e+0+^+f+f+g+f+z h+i+1+0+'+f+j+j+j+j+j+j+j+j+",
"1+1+1+|+1+z <+m l j m j l i k         k+l+m+n+1+o+1+1+1+1+1+1+1+1+1+1+1+1+1+1+1+1+1+1+1+1+1+1+|+1+p+q+q+p+1+|+1+1+1+1+1+1+1+1+1+",
" + + +r+ +s+[+>.<.>.|.|.>.f 5+        t+u+v+w+x+y+x+z+z+A+z+z+i+i+}+}+}+i+i+i+i+i+z+z+i+i+}+}+ +}+v B+C+D+i+}+}+}+}+}+}+}+}+}+}+",
"  P f w N N f f N 5+w >.>.>.>.>.>.w 5+N f f N N w w N N w f N     P f w N E+F+G+H+I+J+K+- #.$.%.F @.+.+.@.F %.8 L+J+;.>.>.f 5+  ",
"  F+` M+F+F+` i f k i l j m j h j i f w N+O+P+F+M+M+F+F+M+` F+    F+` M+F+P+M+Q+l R+(.S+S+(.R+Q+Q+R+( ( R+Q+Q+R+(.(.R+l Q+` P+  ",
"  >.l m.T+Y Z Z Y U+m.x.V+x.x.V+x.m.U+Y Z Z Y T+m.m.T+T+m.V.W+k &.>.l X+T+Y+Z+`+ @.@+@@@#@i.$@k.l.h.%@%@h.&@k.*@=@-@;@V+x.V.>@>.",
"  p h A.z.,.'.'.,.n A.`.`.`.`.`.`.A.n ,.'.'.,.n A.o n n o A.n i f p j ,@z.'@)@!@~@{@]@^@/@R.(@T.U._@O.O._@U.T.:@<@[@}@`.|@A.n j ",
"  y.K.1@_+9.2@2@9.1@1@1@1@1@1@1@1@1@1@9.2@2@9.1@1@1@1@1@1@U.l.Q+%.y.<+3@_+4@^+5@6@7@8@9@0@,+,+a@b@)+a@a@)+4@a@c@d@e@f@1@g@k.l.x.",
"  h@t f+g+i@H.H.i@f+f+j+j+j+j+j+j+f+f+i@H.H.i@f+f+f+f+j@f+T.U.l %.h@z j+g+'+0+k@l@m@n@c@o@e+e+p@^+^+0+0+^+^+p@q@c@r@s@f+j+T.U.`.",
"  i+|+e+>+,+,+,+,+,+,+,+,+,+,+,+,+,+,+,+,+,+,+,+,+,+,+,+,+^+)+t@u@i+1+e+>+e+,+v@9@9@v@,+,+,+,+,+,+,+,+,+,+,+,+,+,+,+,+,+,+^+b@1@",
"  i+|+e+>+e+>+>+e+e+e+e+e+e+e+e+e+e+e+e+>+>+e+e+e+e+e+e+e+0+^+w@h@i+1+e+>+e+,+q@0@0@q@,+,+,+,+,+,+,+,+,+,+,+,+,+,+e+e+e+e+0+^+j+",
"  h+t f+g+^+0+>+>+>+>+0+^+^+0+0+^+^+0+>+>+>+>+>+>+>+>+>+>+x@^+z h@h+z f+g+^+0+>+>+>+>+>+>+>+>+>+>+>+>+>+>+>+>+>+>+>+>+>+>+>+>+>+",
"  y.K.3@_+b@^+,+,+,+,+a@b@)+a@a@)+b@a@,+,+,+,+,+,+,+,+,+,+^+)+K.u@y.t@3@_+b@^+,+e+,+,+,+,+,+,+,+,+,+,+,+,+,+,+,+,+,+,+,+,+,+,+e+",
"  k i Q+l t@w@o+1+1+1+z <+s z z s K.z 1+|+1+1+1+1+1+1+1+1+t <+i X k i Q+l t@w@o+1+1+1+1+1+1+1+1+1+1+o+o+o+o+o+o+o+o+1+1+1+1+1+1+",
"  N q p.o.a.h@z+i+i+z+0.a.u@0.0.u@a.0.z+i+z+z+z+z+z+z+i+z+h@a.F+y@N F+p.o.a.h@z+i+z+z+z+z+z+z+z+z+z+z+z+z+z+z+z+z+z+z+z+z+z+z+z+",
"G+p.G+u@h+}+i+h@a.G+p.%.<.f z@                    z@f >.>.<.o.G+G+p.G+a.h@i+i+h@a.G+p.%.<.f z@N f y.h+z+i+z+z+i+z+h@a.G+p.G+G+G+",
"j l m <+z 1+1+w@t@Q+A@l l i X                     P+` Q+l y l m j l m <+z 1+1+w@t@Q+A@l Q+M+P+B@M+t@z o+1+o+o+1+o+w@t@Q+A@Q+Q+Q+",
"1@1@_+C@D@^+0+^+b@1@3@U.l.l %.P k f P             <.j V+4+l.U._+_+3@1@b@^+,+,+^+b@1@3@U.l.y %.p.y 3@f+,+e+,+,+,+,+^+b@1@3@1@_+_+",
"f+f+f+|+E@)+^+0+'+j@f+F@U.j %.O i g O             >.h 4+@+U.T.f+j@f+f+^+0+>+>+0+^+j@f+F@U.j %.o.j _+g+>+>+>+>+>+>+0+^+f+f+f+f+f+",
",+0+^+G@k.k.G@^+0+,+,+^+b@<+a.p Q+l >.N w f N H@w T+V.l.k.I@|+a@p@,+,+,+,+,+,+,+,+,+,+^+b@t@a.a.t@b@^+,+,+,+,+,+,+,+,+,+,+J@a@j+",
"e+^+)+U.l.<+k.b@^+e+>+0+^+z h@K@l j K@O i i O f i V.A.U.T.|+E@)+^+e+>+,+,+,+,+,+,+e+e+0+^+z h@h@z ^+0+,+,+,+,+,+,+,+,+>+e+^+)+_+",
",+j+3@A.,@,@A.L@J.M@,+,+,+1+A+y.N@O@P@Q@g R@S@W+V.l.k.T@a@U@T@V@a@,+,+M@M@M@M@M@M@M@M@,+,+o+A+A+o+,+,+M@M@M@M@M@M@M@M@,+M@a@V@3@",
",+j+3@x.x.x.x.3@j+,+e+>+,+1+i+s+w@)@W@,.S@'.,.V.A.k.T.^+0+p@^+a@J@,+,+,+,+,+,+,+,+,+,+>+,+1+i+i+1+,+>+,+,+,+,+,+,+,+,+,+,+J@a@j+",
"M@X@Y@3.3.Z@3.`@ #.#8++#@###x+$#%# #&#*#=#-#;#>#x.,#'#.#8+.#.#)#@#@#)#.#.#.#.#.#.#.#.#;+@#!#x+x+!#@#;+.#.#.#.#.#.#.#.#.#.#.#.#.#",
",+~#{#]#D.]#]#^#/#*+(#-+)#o+x+_#:#<#[#}#|#1#2#3#3#4#5#=+*+*+=+6#7#)#6#(#*+(#(#(#(#*+(#-+)#o+x+x+o+)#-+(#*+(#(#(#(#(#(#(#(#(#=+=+",
".#8#9#0#0#0#0#0#0#a#9#b#c#d#e#f#|#0#g#0#0#h#i#j#k#Z@D.0#g#0#0#9#8#8#9#0#0#0#0#0#0#0#0#6+8#n+l#l#n+8#6+0#0#0#0#0#0#0#0#0#0#0#0#0#",
"(#9#m#g#g#g#g#g#0#9#8#n#o#p#q#*#r#0#g#g#g#s#h#t#u#3.}#0#g#g#0#a#9#9#a#0#g#0#0#0#0#g#0#%+9#v#2#2#v#9#%+0#g#0#0#0#0#0#0#0#0#0#0#0#",
"0#0#0#0#0#0#0#0#0#9#8#w#9#}#4.x#F.9#%+0#g#g#0#y#z#A#v#h#s#0#0#0#0#0#0#0#0#0#0#0#0#0#0#g#0#}#3.3.}#0#g#0#0#0#0#0#0#0#0#0#0#0#0#0#",
"0#0#0#0#0#0#0#0#0#B#9#6+a#]#4.,#o@8#C#0#0#0#0#s#h#v#A#i#D#0#0#0#0#0#0#0#0#0#0#0#0#0#0#g#0#}#3.3.}#0#g#0#0#0#0#0#0#0#0#0#0#0#0#0#",
"0#0#0#0#0#0#0#0#0#0#0#g#0#}#3.,#o@E#F#(#(#(#(#C#B#}#G#j#H#D#s#0#0#0#0#0#0#0#0#0#0#0#0#g#0#}#3.3.}#0#g#0#0#0#0#0#0#0#0#0#0#0#0#0#",
"0#0#0#0#0#0#0#0#0#0#0#g#0#}#3.4#F.o#I#.#J#J#.#w#6+D.3.k#j#i#h#0#0#0#0#0#0#0#0#0#0#0#0#g#0#}#3.3.}#0#g#0#0#0#0#0#0#0#0#0#0#0#0#0#",
"0#0#0#0#0#0#0#0#0#0#0#g#0#}#3.4.}#9#w#.#J#J#.#w#9#y#z#Z@G#A#K#y#L#0#0#0#0#0#0#0#0#0#0#g#0#}#3.3.}#0#g#0#0#0#0#0#0#0#0#0#0#0#0#0#",
"0#0#0#0#0#0#0#0#0#0#0#g#0#}#3.M#}#a#6+(#(#(#(#9#B#N#y#D.}#v#A#i#D#0#0#0#0#0#0#0#0#0#0#g#0#}#3.3.}#0#g#0#0#0#0#0#0#0#0#0#0#0#0#0#",
"*+6+m#m#6+C#m#g#g#g#g#g#g#D.3.4#5#6+%+g#g#g#g#g#g#g#g#g#g#]#3.4#5#6+%+m#6+C#m#g#g#g#g#g#g#D.3.4#5#6+%+g#g#g#g#g#g#g#g#g#g#g#g#g#",
".#8#9#9#8#8#9#0#0#0#0#g#0#}#3.O#o@8#6+0#g#0#0#0#0#0#0#g#g#]#Z@P#Q#8#C#9#8#8#9#0#0#0#0#g#0#}#3.O#o@8#C#0#0#0#0#0#0#0#0#0#0#0#0#0#",
"1+R#F.S#'#T#S#]#D.]#}#U#$+V#W#X#Y#%#:#$+U#}#]#U#$+$+Z#D.}#`# $.$Y#R#F.S#'#T#S#]#D.]#}#U#$+V#W#X#Y#%#:#$+U#}#]#U#$+$+Z#}#}#}#}#}#",
"x+e#2#x#,#O#x#3.3.3.3.+$@$#$$$%$&$*$v+@$*#3.3.O.@$@$O.3.3.u#=$-$&$e#2#x#,#O#x#3.3.3.3.+$@$#$$$%$&$*$v+@$*#3.3.O.@$@$O.3.3.3.3.3.",
"  y.K.1@1@;$l.3#>$,$;$8.'$)$!$h J Q@~${$8.]$&@o )$7.8.3@3@g@3@N@u@y.t@1@1@;$l.3#>$,$;$8.{$&$^$/$n.a.($2@8.;$,$^$_${$3+1@1@1@3@3@",
"  ~$C@:$j+<$;$>#>#[$}$|$|+Y#8.-$X+N@C@|+|$1$[$2$t |+|$J.J.j+j+C@($~$3$:$j+<$;$>#>#[$}$|$|+Y#8.-$X+N@C@|+|$1$[$2$t |+|$J.J.J.J.J.",
"  4$5$6$;+7$8$O#9$0$a$~#b$c$d$Z@3.`@ #8+.#o@O#e$}$f$g$8+8+8+.#%#w+4$!#6$;+7$8$O#9$`@ #.#.# #`@x#O#V@a@6$7# #0$0$ #;+6$M@M@@#)#.#",
"  4$|++#h$7+i$'#S#[#<#{#j$k$:#]#E.^#<#l$*+5#4#m$]$j$n$=+*+l$=+:#o$4$o++#h$7+i$'#S#^#<#*+*+<#^#5#'#^+J@;+-+<#p$p$<#-+;+,+,+;+-+=+",
"  w+n+w#6+9#8#8#9#m#9#q$r$i#D#0#0#0#0#0#0#h#i#q#k#q#s$t$<#6+a#u$v$w+%#w#6+9#8#8#9#0#0#0#0#0#0#9#8#J#J#8#9#B#9#(#(#o#E#J#J#8#9#0#",
"  v+m+9#%+m#6+6+m#6+w#w$x$y#L#g#g#g#0#g#0#L#y#`#y$z$ $0$a$A$6+u$#+v+B$9#%+m#6+C#m#g#g#0#0#g#g#m#C#(#(#C$m#6+w#8+.#I#F#(#=+9#m#0#",
"  v+m+9#%+0#0#0#0#9#8#8#9#0#0#0#0#0#0#0#0#0#0#y#i#3.G#D$X@8+(#E$#+v+B$9#%+0#0#0#0#0#0#0#0#0#0#0#0#0#0#0#0#9#8#J#J#8#9#0#0#0#0#0#",
"  w+n+8#6+0#g#0#0#B#9#9#m#0#0#0#0#0#0#0#0#0#0#N#h#D.}#F$G$8+(#u$#+w+%#8#6+0#g#0#0#0#0#0#0#0#0#0#0#0#0#0#0#B#9#(#(#9#a#0#g#0#0#0#",
"  x+5$H$6#9#a#0#0#0#0#0#0#0#0#0#0#0#0#0#0#0#0#0#0#0#0#9#8#w#9#u$v$x+##H$6#9#a#0#0#0#0#0#0#0#0#0#0#0#0#0#0#0#0#0#0#0#0#0#0#0#0#0#",
"  4$5$I$;+8#9#0#0#0#0#0#0#0#0#0#0#0#0#0#0#0#0#0#0#g#g#m#9#6+B#u$v$4$##I$;+8#9#0#0#0#0#0#0#0#0#0#0#0#0#0#0#0#0#0#0#0#0#0#0#0#0#0#",
"  $#n+.#8+8#9#0#0#0#0#0#0#0#0#0#0#0#0#0#0#0#0#0#0#0#0#0#0#g#0#J$v$$#%#.#8+8#9#0#0#0#0#0#0#0#0#0#0#0#0#0#0#0#0#0#0#0#0#0#0#0#0#0#",
"  o$m+(#*+9#B#0#0#0#0#0#0#0#0#0#0#0#0#0#0#0#0#0#0#0#0#0#0#g#0#E$!+o$B$(#*+9#B#0#0#0#0#0#0#0#0#0#0#0#0#0#0#0#0#0#0#0#0#0#0#0#0#0#",
"  v+m+9#%+0#0#0#0#0#0#0#0#0#0#0#0#0#0#0#0#0#0#0#0#0#0#0#0#%+9#B$v+v+B$9#%+0#0#0#0#0#0#0#0#0#0#0#0#0#0#0#0#0#0#0#0#0#0#0#0#a#9#(#",
"  w+n+8#6+0#0#0#0#0#0#0#0#0#0#0#0#0#0#0#0#0#0#0#0#0#0#0#0#6+8#%#*$w+%#8#6+0#0#0#0#0#0#0#0#0#0#0#0#0#0#0#0#0#0#0#0#0#0#0#0#9#8#.#",
"  x+1+.#*+0#0#0#0#0#0#0#0#0#0#0#0#0#0#0#0#0#0#0#0#0#0#0#0#*+.#o+x+x+o+.#*+0#0#0#0#0#0#0#0#0#0#0#0#0#0#0#0#0#0#0#0#0#0#0#0#(#.#,+"};
