/* XPM */
static char * WallL_xpm[] = {
"64 64 535 2",
"  	c #C37100",
". 	c #D58000",
"+ 	c #F19700",
"@ 	c #FFA200",
"# 	c #F29700",
"$ 	c #B26600",
"% 	c #905000",
"& 	c #AA6600",
"* 	c #E59000",
"= 	c #FFA300",
"- 	c #B36700",
"; 	c #925100",
"> 	c #B46700",
", 	c #673600",
"' 	c #3D1D00",
") 	c #693A00",
"! 	c #AA6200",
"~ 	c #C47100",
"{ 	c #C47200",
"] 	c #915100",
"^ 	c #7A4100",
"/ 	c #784000",
"( 	c #693800",
"_ 	c #3F1F00",
": 	c #000000",
"< 	c #6B3B00",
"[ 	c #925200",
"} 	c #683700",
"| 	c #401E00",
"1 	c #6F4900",
"2 	c #595400",
"3 	c #3F4D00",
"4 	c #222D00",
"5 	c #E18A00",
"6 	c #F59A00",
"7 	c #FCA000",
"8 	c #E78F00",
"9 	c #D07C00",
"0 	c #B76900",
"a 	c #9F5A00",
"b 	c #A15B00",
"c 	c #B86A00",
"d 	c #A05B00",
"e 	c #8C4D00",
"f 	c #7F4500",
"g 	c #6E3A00",
"h 	c #532A00",
"i 	c #311700",
"j 	c #1C0A00",
"k 	c #FC9F00",
"l 	c #D17D00",
"m 	c #C77500",
"n 	c #BF6E00",
"o 	c #C06F00",
"p 	c #A75F00",
"q 	c #8B4D00",
"r 	c #763F00",
"s 	c #6D3A00",
"t 	c #592E00",
"u 	c #361A00",
"v 	c #D48000",
"w 	c #C27000",
"x 	c #663600",
"y 	c #3C1D00",
"z 	c #915000",
"A 	c #7A4000",
"B 	c #784100",
"C 	c #EA9200",
"D 	c #DD8600",
"E 	c #C87500",
"F 	c #B06500",
"G 	c #884B00",
"H 	c #A26200",
"I 	c #E38F00",
"J 	c #7D4500",
"K 	c #4B2700",
"L 	c #B46C00",
"M 	c #936200",
"N 	c #7A5700",
"O 	c #714E00",
"P 	c #5E3D00",
"Q 	c #392300",
"R 	c #693700",
"S 	c #3F1E00",
"T 	c #673700",
"U 	c #6E4800",
"V 	c #DD8700",
"W 	c #EA9100",
"X 	c #AB6200",
"Y 	c #744000",
"Z 	c #945B00",
"` 	c #E08E00",
" .	c #9B5900",
"..	c #603500",
"+.	c #A96100",
"@.	c #B67400",
"#.	c #997900",
"$.	c #7C7300",
"%.	c #666000",
"&.	c #4A4700",
"*.	c #2B2800",
"=.	c #EF9600",
"-.	c #CB7A00",
";.	c #9D5900",
">.	c #6B3A00",
",.	c #BA7700",
"'.	c #A78000",
").	c #8F7A00",
"!.	c #6F6300",
"~.	c #2A2800",
"{.	c #764300",
"].	c #704600",
"^.	c #5F3D00",
"/.	c #4E2800",
"(.	c #7F4600",
"_.	c #845400",
":.	c #645700",
"<.	c #212D00",
"[.	c #D68100",
"}.	c #E99300",
"|.	c #B76E00",
"1.	c #864900",
"2.	c #723D00",
"3.	c #E49000",
"4.	c #6A3B00",
"5.	c #C07300",
"6.	c #A86F00",
"7.	c #865800",
"8.	c #372200",
"9.	c #724700",
"0.	c #614F00",
"a.	c #2C2A00",
"b.	c #623500",
"c.	c #9C5900",
"d.	c #A06400",
"e.	c #735D00",
"f.	c #1E2C00",
"g.	c #E28B00",
"h.	c #894C00",
"i.	c #7E4400",
"j.	c #E69000",
"k.	c #BF6F00",
"l.	c #3E1E00",
"m.	c #B96A00",
"n.	c #A25C00",
"o.	c #625700",
"p.	c #3C4D00",
"q.	c #FB9F00",
"r.	c #F69B00",
"s.	c #A55D00",
"t.	c #8A4C00",
"u.	c #A15A00",
"v.	c #804500",
"w.	c #715D00",
"x.	c #1E2D00",
"y.	c #D17C00",
"z.	c #874B00",
"A.	c #A36300",
"B.	c #F29800",
"C.	c #8A5000",
"D.	c #784A00",
"E.	c #382300",
"F.	c #5B3200",
"G.	c #935400",
"H.	c #975D00",
"I.	c #695300",
"J.	c #344200",
"K.	c #182500",
"L.	c #F59B00",
"M.	c #754100",
"N.	c #785900",
"O.	c #4C4800",
"P.	c #292900",
"Q.	c #361B00",
"R.	c #5B3100",
"S.	c #5E3800",
"T.	c #403100",
"U.	c #1B2500",
"V.	c #0A1300",
"W.	c #9B5800",
"X.	c #5F3400",
"Y.	c #835000",
"Z.	c #D38300",
"`.	c #F69A00",
" +	c #FDA000",
".+	c #B56800",
"++	c #613500",
"@+	c #371C00",
"#+	c #4E2900",
"$+	c #1D0B00",
"%+	c #7C4400",
"&+	c #724200",
"*+	c #B96F00",
"=+	c #4D2800",
"-+	c #5C3200",
";+	c #7E4500",
">+	c #321600",
",+	c #C27400",
"'+	c #975600",
")+	c #6B3900",
"!+	c #512900",
"~+	c #6C3B00",
"{+	c #9E5A00",
"]+	c #C17300",
"^+	c #DA8700",
"/+	c #D78600",
"(+	c #BB7000",
"_+	c #A86100",
":+	c #582E00",
"<+	c #A36100",
"[+	c #743E00",
"}+	c #6B3800",
"|+	c #743F00",
"1+	c #874A00",
"2+	c #A46100",
"3+	c #9C5D00",
"4+	c #7D4800",
"5+	c #683900",
"6+	c #693B00",
"7+	c #3D1E00",
"8+	c #2F1500",
"9+	c #6B3C00",
"0+	c #935200",
"a+	c #6A3800",
"b+	c #E99200",
"c+	c #B66E00",
"d+	c #7E4700",
"e+	c #9C5C00",
"f+	c #1E0C00",
"g+	c #B36800",
"h+	c #8C5500",
"i+	c #362200",
"j+	c #321700",
"k+	c #1C0B00",
"l+	c #875200",
"m+	c #CA7E00",
"n+	c #E69100",
"o+	c #B06B00",
"p+	c #805C00",
"q+	c #282900",
"r+	c #6C3900",
"s+	c #5A2F00",
"t+	c #3E1F00",
"u+	c #BA7600",
"v+	c #A37100",
"w+	c #726300",
"x+	c #3A4C00",
"y+	c #A36200",
"z+	c #A85F00",
"A+	c #A77F00",
"B+	c #8C7B00",
"C+	c #666700",
"D+	c #202C00",
"E+	c #A55E00",
"F+	c #B97700",
"G+	c #AC7E00",
"H+	c #968600",
"I+	c #7F7F00",
"J+	c #676600",
"K+	c #B36900",
"L+	c #8B5500",
"M+	c #5F3E00",
"N+	c #401F00",
"O+	c #704900",
"P+	c #5A5400",
"Q+	c #B46800",
"R+	c #978600",
"S+	c #8E8900",
"T+	c #837D00",
"U+	c #765F00",
"V+	c #392100",
"W+	c #4B4800",
"X+	c #D98700",
"Y+	c #A36000",
"Z+	c #763E00",
"`+	c #773F00",
" @	c #9C8500",
".@	c #9C8400",
"+@	c #957800",
"@@	c #845900",
"#@	c #3E1D00",
"$@	c #795900",
"%@	c #351800",
"&@	c #592D00",
"*@	c #614200",
"=@	c #535200",
"-@	c #232D00",
";@	c #774000",
">@	c #B67900",
",@	c #B67800",
"'@	c #AA6D00",
")@	c #8D5400",
"!@	c #8A4F00",
"~@	c #603E00",
"{@	c #1E0900",
"]@	c #351900",
"^@	c #423600",
"/@	c #474F00",
"(@	c #242E00",
"_@	c #C77700",
":@	c #A66000",
"<@	c #A45E00",
"[@	c #814700",
"}@	c #331800",
"|@	c #8B4F00",
"1@	c #794A00",
"2@	c #371B00",
"3@	c #634500",
"4@	c #545300",
"5@	c #E38C00",
"6@	c #C67600",
"7@	c #A65E00",
"8@	c #C27300",
"9@	c #834700",
"0@	c #5D3100",
"a@	c #1A0A00",
"b@	c #4B4700",
"c@	c #945400",
"d@	c #986000",
"e@	c #6F5C00",
"f@	c #1F2D00",
"g@	c #E68E00",
"h@	c #E88F00",
"i@	c #985700",
"j@	c #6E3B00",
"k@	c #522A00",
"l@	c #BE7000",
"m@	c #B46E00",
"n@	c #9B6800",
"o@	c #6F5F00",
"p@	c #3C4C00",
"q@	c #A16400",
"r@	c #745E00",
"s@	c #C77400",
"t@	c #CF7C00",
"u@	c #D27D00",
"v@	c #B36600",
"w@	c #753E00",
"x@	c #B46D00",
"y@	c #936600",
"z@	c #705F00",
"A@	c #575B00",
"B@	c #4F2800",
"C@	c #645800",
"D@	c #D28300",
"E@	c #A86000",
"F@	c #9A5700",
"G@	c #D88600",
"H@	c #AF6A00",
"I@	c #815D00",
"J@	c #525200",
"K@	c #434E00",
"L@	c #5A2E00",
"M@	c #4D4800",
"N@	c #354200",
"O@	c #1C2600",
"P@	c #734300",
"Q@	c #845000",
"R@	c #744300",
"S@	c #683A00",
"T@	c #5E3300",
"U@	c #7E4800",
"V@	c #BD7100",
"W@	c #341900",
"X@	c #1F0C00",
"Y@	c #B26800",
"Z@	c #8C5600",
"`@	c #3E3500",
" #	c #1D2600",
".#	c #1D0A00",
"+#	c #341800",
"@#	c #2C2900",
"##	c #1E2600",
"$#	c #0E1400",
"%#	c #8C5700",
"&#	c #8D5700",
"*#	c #4C2800",
"=#	c #C07200",
"-#	c #EC9500",
";#	c #FA9E00",
">#	c #1B0A00",
",#	c #7E4600",
"'#	c #392400",
")#	c #2D2A00",
"!#	c #0D1400",
"~#	c #DE8C00",
"{#	c #DF8D00",
"]#	c #DE8D00",
"^#	c #864A00",
"/#	c #965500",
"(#	c #C57900",
"_#	c #ED9500",
":#	c #603400",
"<#	c #361800",
"[#	c #884D00",
"}#	c #9E5E00",
"|#	c #A96600",
"1#	c #BC7300",
"2#	c #D88700",
"3#	c #ED9600",
"4#	c #FA9F00",
"5#	c #A05A00",
"6#	c #9C5800",
"7#	c #532B00",
"8#	c #AD6300",
"9#	c #764100",
"0#	c #4D2700",
"a#	c #5E3100",
"b#	c #753F00",
"c#	c #E38B00",
"d#	c #F39800",
"e#	c #9F5E00",
"f#	c #D08100",
"g#	c #B66900",
"h#	c #9B5700",
"i#	c #C16F00",
"j#	c #884C00",
"k#	c #603200",
"l#	c #4B2600",
"m#	c #552B00",
"n#	c #222E00",
"o#	c #CC7A00",
"p#	c #BC6E00",
"q#	c #CC7B00",
"r#	c #A96500",
"s#	c #9D5C00",
"t#	c #CE8000",
"u#	c #7A4200",
"v#	c #794100",
"w#	c #B16500",
"x#	c #DC8800",
"y#	c #B06800",
"z#	c #E89200",
"A#	c #854A00",
"B#	c #140600",
"C#	c #CF8000",
"D#	c #DE8A00",
"E#	c #CE7B00",
"F#	c #C57A00",
"G#	c #C97600",
"H#	c #BC7100",
"I#	c #7F4900",
"J#	c #130500",
"K#	c #874C00",
"L#	c #9D5D00",
"M#	c #B26A00",
"N#	c #BD6F00",
"O#	c #F99E00",
"P#	c #9D5E00",
"Q#	c #2F1400",
"R#	c #9E5D00",
"S#	c #8B4C00",
"T#	c #6E3D00",
"U#	c #673900",
"V#	c #AB6700",
"W#	c #391A00",
"X#	c #7F4400",
"Y#	c #894B00",
"Z#	c #CF8100",
"`#	c #1A0900",
" $	c #E79100",
".$	c #3A1B00",
"+$	c #7C4600",
"@$	c #4C2600",
"#$	c #371A00",
"$$	c #B16600",
"%$	c #F79B00",
"&$	c #371900",
"*$	c #624300",
"=$	c #CB7F00",
"-$	c #865100",
";$	c #5D3000",
">$	c #562C00",
",$	c #D38400",
"'$	c #E18E00",
")$	c #945A00",
"!$	c #5B2F00",
"~$	c #572D00",
"{$	c #794B00",
"]$	c #C37B00",
"^$	c #C97E00",
"/$	c #945800",
"($	c #311600",
"_$	c #3E4D00",
":$	c #482400",
"<$	c #4A2C00",
"[$	c #7A4B00",
"}$	c #7D4D00",
"|$	c #5B3400",
"1$	c #1B0900",
"2$	c #EA9300",
"3$	c #B86E00",
"4$	c #834900",
"5$	c #5C3000",
"6$	c #412000",
"7$	c #512A00",
"8$	c #804600",
"9$	c #E48F00",
"0$	c #402000",
"a$	c #AA6700",
"b$	c #955B00",
"c$	c #845100",
"d$	c #623600",
"e$	c #AC6600",
"f$	c #733E00",
"g$	c #542B00",
"h$	c #AD6700",
"i$	c #B06600",
"j$	c #D78500",
"k$	c #BB6F00",
"l$	c #E18C00",
"m$	c #C07500",
"n$	c #BD6E00",
"o$	c #764200",
"p$	c #DC8600",
"q$	c #D98500",
"r$	c #E08C00",
"s$	c #DD8900",
"t$	c #CD7A00",
"u$	c #DE8800",
"v$	c #EB9200",
"w$	c #5F3200",
"x$	c #EE9500",
"y$	c #8F4F00",
"z$	c #A65F00",
"A$	c #764000",
"B$	c #9F5B00",
"C$	c #6F3D00",
"D$	c #170800",
"E$	c #AC6200",
"F$	c #6C3C00",
"G$	c #AA6100",
"H$	c #B16900",
"I$	c #364200",
"J$	c #1E0B00",
"  . + @ @ @ @ @ @ @ @ # . $ % & * @ = @ @ @ @ @ @ @ @ # . - % ; - > ; , ' ) ! ~ { - ] ^ / ( _ : : < ! - [ ^ / } _ | } 1 2 3 4 : ",
". 5 6 @ @ @ @ @ @ 7 6 8 9 $ % & * @ = @ @ @ @ @ @ @ @ # . 0 a b 0 > ; , ' ) !   { c d e f g h i j < ! - [ ^ / } _ | } 1 2 3 4 : ",
"+ 6 k @ @ @ @ @ @ 6 5 l m $ ] & * @ = @ @ @ @ @ @ @ @ + . n 0 c n > ] , ' ) !   { o c p q r s t u < ! - [ ^ / } _ | } 1 2 3 4 : ",
"@ @ @ @ @ @ @ = @ # v   w $ ] & * @ = @ @ @ @ @ @ @ @ + .   w ~   > % x y ) !   { ~   - z A / , _ < ! - [ ^ / } _ | } 1 2 3 4 : ",
"@ @ @ @ @ @ @ @ @ + v   w $ ] & * @ = @ @ @ @ @ @ @ @ + .     {   > ] , ' ) !   { ~   > ] ^ B } _ < ! - [ ^ / } _ | } 1 2 3 4 : ",
"@ @ @ @ @ @ @ k 6 C D l E F G H I @ = @ @ @ @ @ @ @ @ + .   w     c d J K ) !   { ~   L M N O P Q < ! - [ ^ / R _ S T U 2 3 4 : ",
"@ @ @ @ @ @ @ 6 5 V W 8 l X Y Z ` @ = @ @ @ @ @ @ @ @ + .   w     o c  ...) +.  { ~   @.#.$.%.&.*.< ! - [ ^ / } _ | } 1 2 3 4 : ",
"@ @ @ @ @ @ @ + v . + =.-.;.>.Z ` @ = @ @ @ @ @ @ @ @ + .   w     {   +.) ) +.  {     ,.'.).!.&.~.< ! - ; {.].^.Q /.(._.:.3 <.: ",
"@ @ @ @ @ @ @ + v [.+ }.|.1.2.H 3.@ = @ @ @ @ @ @ @ @ + .   w     {   ! 4.) +.  {     5.,.6.7.P 8.< ! > [ 9.0.&.a.b.c.d.e.3 f.: ",
"@ @ @ @ @ @ @ 6 5 g.6 }.|.h.i.& j.@ = @ @ @ @ @ @ @ @ + .   w     {   +.) ) +.  {     k.0 p q , l.< X m.n._.o.p.<.b.c.d.e.3 f.: ",
"@ @ @ @ @ @ @ q.6 r.q.=.-.s.t.& * @ = @ @ @ @ @ @ @ @ + .   w     {   +.) ) +.  {     c u.e v., S 4.! o m.d.w.p.x./.(._.:.3 <.: ",
"@ @ @ @ @ @ @ @ @ 7 6 8 y.F z.A.3.@ = @ @ @ @ @ @ = @ B..   w     { ~ ! 4.) +.  {     c b C.D.P E.F.G.! X H.I.J.K.| R 1 2 3 4 : ",
"@ @ @ @ @ @ @ @ @ L.5 l E X M.Z ` @ = @ @ @ @ @ @ @ @ + .   w     {   +.) ) +.  {     o 0 H N.O.P.Q.R.4.< S.T.U.V.S } U 2 3 4 : ",
"@ @ @ @ @ @ @ @ @ + v n 0 W.X.Y.Z.`. += = = = = =  +r.8 l {   o c .+> c.++) +.  {     o 0 H N.O.P.@+R.++#+u $+: : S } U 2 3 4 : ",
"@ @ @ @ @ @ @ @ @ + v c a %+K &+*+5 r.@ @ @ @ @ @ 6 5 9 m     c d ; % J =+) !   {     c b C.D.P E.-+G.c.;+t >+: : | ( 1 2 3 4 : ",
"@ @ @ @ @ @ @ @ @ `.5 ,+'+)+!+~+{+]+^+* * * * * * /+(++._+! +.c.J ( T :+u ) !   {     c d e f , S < ! > [ ( y : : /.(._.:.3 <.: ",
"@ @ @ @ @ @ @ @ @ 7 6 ^+<+[+}+|+1+'+2+& & & & & & 3+4+5+5+4.6+..K 7+y 8+$+) !   {     k.0 p q , l.9+X .+0+a+7+: : b.;.d.e.3 f.: ",
"@ @ @ @ @ @ @ @ @ = @ b+c+z.2.d+e+& & & & & & & & 3+4+5+5+4.6+..K l.l.i f+) !   {     ~   g+h+P i+< ! > ; s !+j+k+b.;.d.e.3 f.: ",
"@ @ @ @ @ @ @ @ @ = @ =.-.{+~+l+m+* n+* * * * * * /+(++._+! +.c.J ( T :+u ) !   {     ~   o+p+&.q+< ! > [ r r+s+u /.(._.:.3 <.: ",
"@ @ @ @ @ @ @ @ @ @ @ B.. X Y Z ` @ = @ @ @ @ @ @ 6 5 9 m     c d e f , t+) !   {     ]+u+v+w+x+f.4.! c b e f R S | } 1 2 3 4 : ",
"@ @ @ @ @ @ @ @ @ @ @ B.. F z.y+3.= = = = = = = =  +r.8 l {   o c z+e } l.) !   {     ,.A+B+C+x+D+4.! o m.p q ( l.S T U 2 3 4 : ",
"@ @ @ @ @ @ @ @ @ = @ =.-.E+t.& * @ = @ @ @ @ @ @ @ @ + .   w ~   > % x y ) !   { 5.F+G+H+I+J+&.*.) ! ~ { K+L+M+i+N+R O+P+3 4 : ",
"@ @ @ @ @ @ @ @ @ = @ b+c+h.i.& j.@ = @ @ @ @ @ @ = @ B..   w ~   Q+] , ' ) !   { u+A+R+S+T+U+P V+) ! ~ { o+p+W+q+| R 1 2 3 4 : ",
"@ @ @ @ @ @ @ @ @ 7 6 X+Y+Z+`+& n+@ = @ @ @ @ @ @ @ @ + .   w     c d J K 4.! ~ { u+A+ @.@+@@@} #@4.! o c H $@O.P.%@&@*@=@3 -@: ",
"@ @ @ @ @ @ @ @ @ `.5 ,+'+Z+;@& j.@ = @ @ @ @ @ @ @ @ + .   w     o c  ...) +.  { 5.F+>@,@'@)@, ' 4.! c b !@D.~@E.{@]@^@/@3 (@: ",
"@ @ @ q.6 6 k = @ r.5 _@:@t.f <+X+6 7 @ @ @ @ @ @ @ @ + .   w     {   ! 4... .c o     o c <@[@:+}@4.! c n.|@1@~@E.2@-+3@4@3 -@: ",
"@ @ @ 6 5 5 6 @ @ 7 6 5@6@7@t.'+8@5 `.@ @ @ @ @ @ @ @ + .   w     {   ! 4.K J d c ~ ~ m.u.9@0@i a@4.! o c H $@b@P.-+c@d@e@3 f@: ",
"B.r. +B.[.l g@r. + +r.h@l - ] i@,+5 r.@ @ @ @ @ @ = @ B..   w     o c c...7+} ; .+{ { .+; j@k@}@$+4.! l@m@n@o@p@f@b.;.q@r@3 f@: ",
". 5 6 + . s@t@5 6 6 g.u@E v@] <+X+6 7 @ @ @ @ @ @ @ @ + .   w     c d ;+K y , % > ~ ~ - % w@)+:+]@< ! x@y@z@A@p.4 B@(._.C@3 <.: ",
"+.*+D@D@*+E@E@*+D@D@*++._+F@J 3+G@`. +@ @ @ @ @ @ k 6 g@9     {   > ] R ' }@s+J c.! ! c.;+( } t u < ! H@I@J@K@J.U.%@L@~@M@N@O@: ",
"5+P@Y.Q@R@S@5+P@Y.Y.P@S@S@T@=+U@V@5 r.@ @ @ @ @ @ 6 5 9 m     ~   > % } y $+W@=+++4.4...=+N+_ }@X@< ! Y@Z@*@`@ #V..#+#8.@###$#: ",
"5+&+Y.Z@%#%#%#&#&#&#%#Q@P@X.*#~+{+=#^+-#;#@ @ @ @ 6 5 y.m n 0 c k.Q+; ( ' >#j+*#....*#l.l.u k+: : 4.! c b ,#K $+W@N+N+'#)###!#: ",
"+.*+D@~#{#]#]#]#~#]#]#Z.*+W.%+[+^#/#2+(#_#@ @ @ @ k 6 g@9 0 a b 0 > ; R ' }@s+,#c. .J } , s+W@: : 4.! o m.c.:#<#t R ( ~@O.N@O@: ",
". 5 6 @ @ q.6 + + r.k # . - % [#}#|#& 1#2#3#4#@ @ @ @ # . c 5#6#X p e } 7+K ;+b c c b e f g 7#}@$+) ! { { 8#9#0#a#g b#1 2 3 4 : ",
"B.r. += = r.g.[.[.c#r.d#[.- z e#f#j.j./+1#(#-#@ @ = @ B.. k.g#X h#e f T t+..;.c i#o c p e r s t u ) ! { { $ j#k#l#m#g O+P+3 n#: ",
"@ @ @ @ @ 6 5 o#p#q#=.B.[.$ % & * = = * r#s#t#-#4#= = B.[.o 0 p q u#v#} _ ) !   { ~   > ] b#r+:+]@6+!     w#z.s+j+| R 1 2 3 4 : ",
"@ @ @ @ @ 7 6 x#y#|.z## [.$ % & n+= = n+|#A#s#(#3#@ @ # . c 5#e f v#B , _ 4.!   { ~   Q+] g k@}@$+) ! { { 8#9#]@B#S R 1 P+3 4 : ",
"@ @ @ @ @ = @ * r#}#C#D#E#F z.H I @ = _#F#& r#1#/+* n+^+,+p q r s a+( t u ) !   { ~   > ] g k@}@$+) ! G#l H#I#W@J#| ( 1 2 3 4 : ",
"@ @ @ @ @ = @ n+& K#L#M#N#X 9#Z ` @ = O#_#n+* /+1#& |#2+i@q f s k@_ t+i f+) !   { ~   > ] b#r+:+]@5+! l 8 G@P#s+Q#| R 1 2 3 4 : ",
"@ @ @ @ @ @ @ 3#(#R#A#S#E+;.T#Z ` @ = q.6 r.q.3#F#e#A#;@/ r s s+]@: : : : ) !   { ~   > ] r r+:+]@U#+.[.# n+V#} W#N+( O+P+3 4 : ",
"@ @ @ @ @ @ @ O#_#f#L#X#Y#1.b#H 3.@ = 6 g.g.`.4#_#Z#s#;@Z+s 7#u `#: : : : ) !   { ~   > ] g k@}@$+5+! [.B. $V#( .$| } 1 2 3 4 : ",
"@ @ @ @ @ @ @ @ @ _#(#2+'+h.v.& j.@ = + . . + @ @ 3#(#3++$k#@$#$$+: : : : ) !   { ~   $$j#k#l#i $+P@(+5@%$ $V#( .$&$s+*$=@3 -@: ",
"@ @ @ @ @ @ @ @ @ ;#3#^+]+s.S#& * @ = + v v + @ = 4#3#=$-$0#;$s+u : : : : ) !   { {   8#M.0#a#>$u Y.,$r. +n+& ( W#{@W@^@/@3 (@: ",
"@ @ @ @ @ @ @ @ @ @ @ B.. F z.A.3.= = + v v + @ = = @ '$)$@$!$s+]@: : : : 4.X   { {   8#M.0#a#~$u {$]$` ` ^$/$!$($: : -@_$3 (@: ",
"@ @ @ @ @ @ @ @ @ = @ d#[.X Y Z ` @ = + . . + @ @ = @ * A.k#:$#$$+: : : : ) !   { ~   $$j#k#l#]@$+<$[$&#&#}$|$u 1$: : -@_$3 (@: ",
"@ @ @ @ @ @ @ @ @ @ @ =.-.W.T@Y.Z.r. +r.g.V C `. += = 2$3$4$5$6$_ #$X@: : :#c.0 o ~   > ] g 7$u j : : : : : : : : {@u ^@/@3 (@: ",
"@ @ @ @ @ @ @ @ @ = @ b+c+%+:$&+*+5 r.k 6 W D 5 6 @ @ =.-.<@8$( } !$u : : K ,#d c ~   > ] r r+s+]@: : : : : : : : &$!$*$=@3 -@: ",
"@ @ @ @ @ @ @ @ @ = @  $& )+B@~+{+]+^+* * G@]+]+G@9$'$Z.*+ .%+} , s+W@: : *#(.b c ~   - ] ^ / ( _ : : j u N+0$u X@N+( O+P+3 4 : ",
"@ @ @ @ @ @ @ @ @ = @ j.|#[+a+|+1+'+2+a$V#2+i@i@<+A.b$c$R@d$=+6$N+#$X@: : :#c.0 o ~   - ] ^ B a+_ : : u !$a+a+s+u N+( O+P+3 4 : ",
"@ @ @ @ @ @ @ @ @ ;#-#Z.e$z.f$d+e+& & & & & & V#V#L#U@5+5+4.6+..K l.l.j+f+:#c.0 o ~   - ] ^ / ( _ j W@g$j@r g s+]@<#s+*$=@3 -@: ",
"@ @ @ @ @ @ @ @ @ _#(#h$i${+T#l+m+* n+* * * * j.* j$k$+.E@! ! c.;+( } s+u *#(.b c ~   - ] ^ / R _ u s+j@r j@g$#$$+{@u ^@/@3 (@: ",
"@ @ @ @ @ @ @ 7 6 l$m$M#n$X o$Z ` @ = @ @ @ @ k 6 W p$9 m     c d e f } t+K ;+d c ~   - ] ^ B ( _ _ } b#g k#0##$$+{@u ^@/@3 (@: ",
"@ @ @ @ @ @ @ 6 5 q$r$s$t$F z.y+3.= = = = = = r.g.u$v$8 u@{   o c z+e } l.:#c.0 o ~   - ] ^ / } _ 0$( g g$0#w$s+u <#s+*$=@3 -@: ",
"@ @ @ @ @ @ @ 6 5 g.6 =.q#E+t.& * @ = @ @ @ @ 6 5 5 6 + [.~   {   > % x y ) !   { ~   > ] r r+s+]@0$R s g$=+k#s+#$N+( O+P+3 4 : ",
"@ @ @ @ @ @ @ q.6 r.7 2$|.h.i.& j.@ = @ @ @ @ q.6 6 k B..   w ~   Q+] , ' 4.!   { ~   > ] g 7$W@j _ ( b#g k#0#u $+N+( O+P+3 4 : ",
"@ @ @ @ @ @ @ @ @ 7 6 X+Y+Z+`+& n+@ = @ @ @ @ @ @ @ @ x$-.- $ c o m.d J K 4.!   { ~   $$j#k#l#u $+t+} v#^ a+_ : : <#s+*$=@3 -@: ",
"@ @ @ @ @ @ @ @ @ r.5 ,+'+Z+;@& j.@ = @ @ @ @ @ @ = @ b+c+% y$d c o c  ...) +.  { {   8#M.0#a#s+u _ R ^ u#( t+: : {@u ^@/@3 (@: ",
"@ @ @ q.6 6 k = @ r.5 _@:@t.f <+X+6 7 @ @ @ @ @ @ = @ j.& / r q z$c o ! 4... .c o {   8#M.0#a#t u #+;+G A$!$]@: : {@u ^@/@3 (@: ",
"@ @ @ 6 5 5 6 @ @ 7 6 5@6@7@t.'+8@5 `.@ @ @ @ @ @ = @ j.|#/ w@;+q b c ! < K J d c ~   $$j#k#l#}@$+d$c.B$C$u D$: : <#s+*$=@3 -@: ",
"B.r. +B.[.l g@r. + +r.h@l - ] i@,+5 r.@ @ @ @ @ @ = @ n+& / w@f q 6#E$c.++7+} ; .+{ { .+; j@k@}@$+9+! ! 9+: : : : N+a+O+P+3 n#: ",
". 5 6 + . s@t@5 6 6 g.u@E v@] <+X+6 7 @ @ @ @ @ @ = @ j.& / r e z$X W.;+*#y , % > ~ ~ > ] r r+:+]@F$X X 9+: : : : N+a+O+P+3 4 : ",
"! (+,$,$(+G$G$(+,$,$(+X G$W.,#3+G@6 7 @ @ @ @ @ @ 7 6 s$H$% % b c > ; R ' +#s+,#;.X X ;.,#a+} t u 9+! ! 9+: : : : &$!$~@M@I$O@: ",
"5+P@Y.Q@R@S@5+P@Y.Y.P@S@S@T@=+U@V@5 r.@ @ @ @ @ @ 6 5 t$p#- - c o > ] } y $+W@=+++4.4...=+N+_ }@X@9+! ! 9+: : : : J$u '#)###!#: ",
": : : : : : : : : : : : : : : 5+! . B.@ @ @ @ @ @ + .   w     ~   > ] ( ' : : : : : : : : : : : : 9+! ! 9+: : : : : : : : : : : "};
