/* XPM */
static char * WallU_xpm[] = {
"64 64 535 2",
"  	c #000000",
". 	c #683900",
"+ 	c #AA6200",
"@ 	c #D58000",
"# 	c #F29800",
"$ 	c #FFA200",
"% 	c #A96100",
"& 	c #F19700",
"* 	c #C37100",
"= 	c #734300",
"- 	c #BB7000",
"; 	c #E18A00",
"> 	c #F69B00",
", 	c #B96F00",
"' 	c #724200",
") 	c #F59A00",
"! 	c #835000",
"~ 	c #D38400",
"{ 	c #FDA000",
"] 	c #D28300",
"^ 	c #FC9F00",
"/ 	c #845000",
"( 	c #FB9F00",
"_ 	c #FFA300",
": 	c #DE8C00",
"< 	c #8C5600",
"[ 	c #744300",
"} 	c #D68100",
"| 	c #DF8D00",
"1 	c #8C5700",
"2 	c #683A00",
"3 	c #AA6100",
"4 	c #C77400",
"5 	c #D17D00",
"6 	c #FCA000",
"7 	c #DE8D00",
"8 	c #A86000",
"9 	c #CF7C00",
"0 	c #E68E00",
"a 	c #E28B00",
"b 	c #F99E00",
"c 	c #ED9600",
"d 	c #E69100",
"e 	c #E59000",
"f 	c #DC8800",
"g 	c #CC7A00",
"h 	c #8D5700",
"i 	c #ED9500",
"j 	c #C57900",
"k 	c #AA6600",
"l 	c #A96500",
"m 	c #B06800",
"n 	c #BC6E00",
"o 	c #D48000",
"p 	c #D98500",
"q 	c #E18C00",
"r 	c #FA9E00",
"s 	c #D08100",
"t 	c #9E5D00",
"u 	c #874C00",
"v 	c #9E5E00",
"w 	c #B76E00",
"x 	c #CC7B00",
"y 	c #E38B00",
"z 	c #F69A00",
"A 	c #F59B00",
"B 	c #DD8700",
"C 	c #EA9200",
"D 	c #F29700",
"E 	c #E08C00",
"F 	c #C07500",
"G 	c #EC9500",
"H 	c #9D5D00",
"I 	c #854A00",
"J 	c #CF8000",
"K 	c #E89200",
"L 	c #EF9600",
"M 	c #EA9100",
"N 	c #DD8600",
"O 	c #AB6200",
"P 	c #D27D00",
"Q 	c #E88F00",
"R 	c #E38C00",
"S 	c #C77700",
"T 	c #C27400",
"U 	c #D98700",
"V 	c #EA9300",
"W 	c #DD8900",
"X 	c #B26A00",
"Y 	c #AD6700",
"Z 	c #D38300",
"` 	c #E69000",
" .	c #E79100",
"..	c #E99200",
"+.	c #F39800",
"@.	c #DA8700",
"#.	c #A46100",
"$.	c #7F4400",
"%.	c #8B4C00",
"&.	c #DE8A00",
"*.	c #B86A00",
"=.	c #BF6E00",
"-.	c #E78F00",
";.	c #E99300",
">.	c #C87500",
",.	c #C67600",
"'.	c #A66000",
").	c #975600",
"!.	c #A36000",
"~.	c #CD7A00",
"{.	c #BD6E00",
"].	c #B06600",
"^.	c #AC6600",
"/.	c #A96600",
"(.	c #B66E00",
"_.	c #CB7A00",
":.	c #C17300",
"<.	c #894B00",
"[.	c #A55E00",
"}.	c #BD6F00",
"|.	c #CE7B00",
"1.	c #A86100",
"2.	c #A36100",
"3.	c #9F5A00",
"4.	c #B76900",
"5.	c #D17C00",
"6.	c #C27000",
"7.	c #C77500",
"8.	c #D07C00",
"9.	c #5E3300",
"0.	c #9B5800",
"a.	c #B36600",
"b.	c #B36700",
"c.	c #A65E00",
"d.	c #8A4C00",
"e.	c #763E00",
"f.	c #894C00",
"g.	c #B06500",
"h.	c #9E5A00",
"i.	c #874B00",
"j.	c #743E00",
"k.	c #6B3900",
"l.	c #7C4400",
"m.	c #A55D00",
"n.	c #864900",
"o.	c #9D5900",
"p.	c #B26600",
"q.	c #5F3400",
"r.	c #9A5700",
"s.	c #4D2800",
"t.	c #7E4600",
"u.	c #915100",
"v.	c #7F4500",
"w.	c #774000",
"x.	c #773F00",
"y.	c #7E4400",
"z.	c #764200",
"A.	c #6E3D00",
"B.	c #733E00",
"C.	c #6A3800",
"D.	c #4F2800",
"E.	c #482400",
"F.	c #744000",
"G.	c #804500",
"H.	c #753F00",
"I.	c #764100",
"J.	c #905000",
"K.	c #915000",
"L.	c #4C2800",
"M.	c #7D4500",
"N.	c #6C3B00",
"O.	c #723D00",
"P.	c #6B3800",
"Q.	c #512900",
"R.	c #4B2700",
"S.	c #754100",
"T.	c #6B3A00",
"U.	c #884B00",
"V.	c #7E4800",
"W.	c #9C5D00",
"X.	c #985700",
"Y.	c #A36200",
"Z.	c #945B00",
"`.	c #875200",
" +	c #7E4700",
".+	c #743F00",
"++	c #A36300",
"@+	c #A26200",
"#+	c #9F5E00",
"$+	c #884D00",
"%+	c #BD7100",
"&+	c #D88600",
"*+	c #C27300",
"=+	c #E49000",
"-+	c #E08E00",
";+	c #CA7E00",
">+	c #9C5C00",
",+	c #874A00",
"'+	c #E38F00",
")+	c #864A00",
"!+	c #965500",
"~+	c #C07200",
"{+	c #AA6700",
"]+	c #D78600",
"^+	c #BC7300",
"/+	c #AB6700",
"(+	c #C57A00",
"_+	c #D88700",
":+	c #9D5C00",
"<+	c #CE8000",
"[+	c #FA9F00",
"}+	c #DE8800",
"|+	c #D78500",
"1+	c #E48F00",
"2+	c #CF8100",
"3+	c #EB9200",
"4+	c #DC8600",
"5+	c #BB6F00",
"6+	c #955B00",
"7+	c #E18E00",
"8+	c #7D4800",
"9+	c #EE9500",
"0+	c #845100",
"a+	c #CB7F00",
"b+	c #B16900",
"c+	c #B86E00",
"d+	c #945A00",
"e+	c #865100",
"f+	c #7C4600",
"g+	c #784000",
"h+	c #C47100",
"i+	c #C47200",
"j+	c #6A3B00",
"k+	c #623600",
"l+	c #9B5900",
"m+	c #A45E00",
"n+	c #834900",
"o+	c #603200",
"p+	c #4C2600",
"q+	c #4D2700",
"r+	c #6D3A00",
"s+	c #763F00",
"t+	c #8B4D00",
"u+	c #A75F00",
"v+	c #C06F00",
"w+	c #BF6F00",
"x+	c #753E00",
"y+	c #8F4F00",
"z+	c #693B00",
"A+	c #804600",
"B+	c #5C3000",
"C+	c #5B2F00",
"D+	c #5D3000",
"E+	c #532B00",
"F+	c #A05A00",
"G+	c #B66900",
"H+	c #A15B00",
"I+	c #8C4D00",
"J+	c #7E4500",
"K+	c #A05B00",
"L+	c #9C5900",
"M+	c #603500",
"N+	c #412000",
"O+	c #683700",
"P+	c #693800",
"Q+	c #371A00",
"R+	c #5A2F00",
"S+	c #361A00",
"T+	c #9C5800",
"U+	c #925100",
"V+	c #A65F00",
"W+	c #401F00",
"X+	c #673600",
"Y+	c #3F1F00",
"Z+	c #1D0B00",
"`+	c #351900",
" @	c #1A0900",
".@	c #522A00",
"+@	c #9B5700",
"@@	c #B46700",
"#@	c #B96A00",
"$@	c #B46800",
"%@	c #A85F00",
"&@	c #3E1E00",
"*@	c #794100",
"=@	c #7A4200",
"-@	c #3D1E00",
";@	c #B56800",
">@	c #AC6200",
",@	c #1F0C00",
"'@	c #341900",
")@	c #3E1F00",
"!@	c #784100",
"~@	c #673700",
"{@	c #3C1D00",
"]@	c #693700",
"^@	c #663600",
"/@	c #321700",
"(@	c #311700",
"_@	c #592E00",
":@	c #582E00",
"<@	c #2F1500",
"[@	c #3D1D00",
"}@	c #613500",
"|@	c #6B3B00",
"1@	c #1E0C00",
"2@	c #693A00",
"3@	c #341800",
"4@	c #603400",
"5@	c #331800",
"6@	c #1B0A00",
"7@	c #7F4600",
"8@	c #C16F00",
"9@	c #C07300",
"0@	c #BA7600",
"a@	c #B97700",
"b@	c #A77F00",
"c@	c #B16600",
"d@	c #AD6300",
"e@	c #B67900",
"f@	c #9C8500",
"g@	c #978600",
"h@	c #AC7E00",
"i@	c #BA7700",
"j@	c #B67400",
"k@	c #B46C00",
"l@	c #7A4100",
"m@	c #884C00",
"n@	c #A15A00",
"o@	c #B67800",
"p@	c #9C8400",
"q@	c #8E8900",
"r@	c #968600",
"s@	c #A78000",
"t@	c #997900",
"u@	c #936200",
"v@	c #6E3B00",
"w@	c #6E3A00",
"x@	c #834700",
"y@	c #AA6D00",
"z@	c #957800",
"A@	c #837D00",
"B@	c #7F7F00",
"C@	c #8C7B00",
"D@	c #A37100",
"E@	c #B06B00",
"F@	c #B36800",
"G@	c #8A5000",
"H@	c #A86F00",
"I@	c #8F7A00",
"J@	c #7C7300",
"K@	c #7A5700",
"L@	c #7A4000",
"M@	c #6C3900",
"N@	c #4B2600",
"O@	c #5E3100",
"P@	c #512A00",
"Q@	c #1C0B00",
"R@	c #5D3100",
"S@	c #814700",
"T@	c #8D5400",
"U@	c #845900",
"V@	c #765F00",
"W@	c #676600",
"X@	c #666700",
"Y@	c #726300",
"Z@	c #805C00",
"`@	c #8C5500",
" #	c #784A00",
".#	c #785900",
"+#	c #865800",
"@#	c #6F6300",
"##	c #666000",
"$#	c #714E00",
"%#	c #532A00",
"&#	c #572D00",
"*#	c #562C00",
"=#	c #5E3D00",
"-#	c #4A4700",
";#	c #3A4C00",
">#	c #4C4800",
",#	c #1C0A00",
"'#	c #1A0A00",
")#	c #3E1D00",
"!#	c #392100",
"~#	c #2B2800",
"{#	c #202C00",
"]#	c #1E2C00",
"^#	c #282900",
"/#	c #362200",
"(#	c #3F1E00",
"_#	c #382300",
":#	c #292900",
"<#	c #372200",
"[#	c #2A2800",
"}#	c #392300",
"|#	c #6B3C00",
"1#	c #6C3C00",
"2#	c #4E2900",
"3#	c #402000",
"4#	c #4A2C00",
"5#	c #794B00",
"6#	c #673900",
"7#	c #5C3200",
"8#	c #371C00",
"9#	c #361B00",
"0#	c #5B3200",
"a#	c #7A4B00",
"b#	c #C37B00",
"c#	c #935400",
"d#	c #5B3100",
"e#	c #9F5B00",
"f#	c #542B00",
"g#	c #C97600",
"h#	c #B26800",
"i#	c #AF6A00",
"j#	c #B46D00",
"k#	c #BE7000",
"l#	c #6F3D00",
"m#	c #764000",
"n#	c #F79B00",
"o#	c #815D00",
"p#	c #936600",
"q#	c #B46E00",
"r#	c #A25C00",
"s#	c #925200",
"t#	c #935200",
"u#	c #7D4D00",
"v#	c #C97E00",
"w#	c #BC7100",
"x#	c #B16500",
"y#	c #614200",
"z#	c #525200",
"A#	c #705F00",
"B#	c #9B6800",
"C#	c #8B4F00",
"D#	c #8A4F00",
"E#	c #B36900",
"F#	c #5E3800",
"G#	c #975D00",
"H#	c #A06400",
"I#	c #845400",
"J#	c #724700",
"K#	c #764300",
"L#	c #170800",
"M#	c #5F3200",
"N#	c #5B3400",
"O#	c #945800",
"P#	c #9D5E00",
"Q#	c #7F4900",
"R#	c #3E3500",
"S#	c #434E00",
"T#	c #575B00",
"U#	c #6F5F00",
"V#	c #795900",
"W#	c #794A00",
"X#	c #8B5500",
"Y#	c #321600",
"Z#	c #403100",
"`#	c #695300",
" $	c #715D00",
".$	c #625700",
"+$	c #614F00",
"@$	c #704600",
"#$	c #361800",
"$$	c #1D2600",
"%$	c #344200",
"&$	c #3C4D00",
"*$	c #3C4C00",
"=$	c #4B4700",
"-$	c #603E00",
";$	c #4B4800",
">$	c #5F3E00",
",$	c #1B2500",
"'$	c #5F3D00",
")$	c #1B0900",
"!$	c #311600",
"~$	c #391A00",
"{$	c #3A1B00",
"]$	c #2F1400",
"^$	c #130500",
"/$	c #140600",
"($	c #0A1300",
"_$	c #222D00",
":$	c #1F2D00",
"<$	c #182500",
"[$	c #1E2D00",
"}$	c #212D00",
"|$	c #2C2A00",
"1$	c #1E0B00",
"2$	c #371900",
"3$	c #1E0900",
"4$	c #401E00",
"5$	c #552B00",
"6$	c #1D0A00",
"7$	c #351800",
"8$	c #623500",
"9$	c #371B00",
"0$	c #4E2800",
"a$	c #5A2E00",
"b$	c #945400",
"c$	c #592D00",
"d$	c #392400",
"e$	c #704900",
"f$	c #624300",
"g$	c #423600",
"h$	c #232D00",
"i$	c #6F4900",
"j$	c #A16400",
"k$	c #986000",
"l$	c #634500",
"m$	c #6E4800",
"n$	c #2D2A00",
"o$	c #4D4800",
"p$	c #5A5400",
"q$	c #535200",
"r$	c #474F00",
"s$	c #3E4D00",
"t$	c #595400",
"u$	c #2C2900",
"v$	c #645800",
"w$	c #745E00",
"x$	c #6F5C00",
"y$	c #545300",
"z$	c #645700",
"A$	c #735D00",
"B$	c #1E2600",
"C$	c #364200",
"D$	c #3F4D00",
"E$	c #354200",
"F$	c #0D1400",
"G$	c #1C2600",
"H$	c #222E00",
"I$	c #242E00",
"J$	c #0E1400",
"  . + @ # $ $ $ $ $ $ $ $ $ $ $ $ $ $ $ $ $ $ $ $ $ $ $ $ # @ % . . % @ # $ $ $ $ $ $ $ $ $ $ $ $ $ $ $ $ $ $ $ $ $ $ $ $ & @ * ",
"  = - ; > $ $ $ $ $ $ $ $ $ $ $ $ $ $ $ $ $ $ $ $ $ $ $ $ > ; , ' = , ; > $ $ $ $ $ $ $ $ $ $ $ $ $ $ $ $ $ $ $ $ $ $ $ $ ) ; @ ",
"  ! ~ ) { $ $ $ $ $ $ $ $ $ $ $ $ $ $ $ $ $ $ $ $ $ $ $ $ { ) ] ! ! ] ) { $ $ $ $ $ $ $ $ $ $ $ $ $ $ $ $ $ $ $ $ $ $ $ $ ^ ) & ",
"  / ~ & # ) ( $ $ $ $ $ $ $ $ $ $ $ $ $ $ $ $ $ $ $ $ $ $ _ $ : < / ] & # ) ( $ $ $ $ $ $ $ $ $ $ $ $ $ $ $ $ $ $ $ $ $ $ $ $ $ ",
"  [ - @ } ; ) $ $ $ $ $ $ $ $ $ $ $ $ $ $ $ $ $ $ $ $ $ $ _ $ | 1 [ , @ } ; ) $ $ $ $ $ $ $ $ $ $ $ $ $ $ $ $ $ $ $ $ $ $ $ $ $ ",
"  2 3 4 5 ; ) $ $ $ $ $ $ $ $ $ $ $ $ $ $ $ $ $ $ _ _ 6 ) > ( 7 1 2 8 4 5 ; ) $ $ $ $ $ $ $ $ $ $ $ $ $ $ $ $ $ $ $ $ $ $ $ $ $ ",
"  . 3 9 0 ) ^ $ $ $ $ $ $ $ $ $ $ $ $ $ $ $ $ $ $ $ $ ) ; a ) 7 1 . 8 9 0 ) ^ $ $ $ $ $ $ $ $ $ $ $ $ $ $ $ $ $ $ $ $ $ $ $ $ $ ",
"  = - ; > $ _ $ $ ( ) ) 6 $ $ $ $ $ $ $ $ $ $ b c d e f g } & 7 h = , ; > $ _ $ $ $ $ $ $ $ $ $ $ $ $ $ $ ( ) & & ) ^ $ _ $ $ $ ",
"  ! ~ ) { $ $ $ $ ) ; ; ) $ $ $ $ $ $ $ $ $ $ i j k l m n } & : h ! ] ) { $ $ $ $ $ $ $ $ $ $ $ $ $ $ $ $ ) ; o o ; ) $ $ $ $ $ ",
"  ! ~ ) { 6 > > 6 > a p q i r _ _ _ $ _ $ r i s t u v w x y > 7 h ! ] ) { 6 > z 6 _ _ $ $ _ _ 6 z & & A 6 > a } @ B C & D ) 6 $ ",
"  = - a > ) ; ; ) 6 ) E F j G $ $ $ $ $ $ c j H I H J K L > ^ 7 1 = , a > ) ; ; ) $ $ $ $ $ $ ) ; o o ; ) ( ) & & M N o o ; ) $ ",
"  2 O P Q R S T U V L W X Y Z `  ...L +.# @.#.$.%.X &.D # +.D Z / 2 % P Q R S T U ..L # # L ..@.T *.=.5 -.L ;.;.L -.5 * * 5 -.D ",
"  2 3 >.5 ,.'.).!.w x ~.{.].^./.k (._.} @ :.).<.[.}.|.} } } @ , = 2 1.>.5 ,.'.).!.(._.@ @ _.(.2.).3.4.>.5._.w w _.5 >.6.6.7.8.@ ",
"  9.0.a.b.c.d.e.e.f.[.g.O h.i.j.k.l.0.O g.m.f.n.o.O g.p.p.b.b.0.q.9.r.a.b.c.d.e.e.f.[.g.O h.i.j.k.l.0.O g.m.f.n.o.O g.p.p.p.p.p.",
"  s.t.u.u.d.v.w.x.y.d.i.z.A.B.C.D.E.9.F.i.%.G.H.A.I.i.J.J.K.J.l.L.s.M.u.u.d.v.w.x.y.d.i.F.N.O.P.Q.R.q.S.i.d.y.O.T.F.U.u.u.u.J.J.",
". V.W.2.X.).2.k k k k Y.Z.`. +.+N.' ! Z.++k k @+Z.Z.@+k k #+$+j.N.V.W.2.X.).2.k k k k Y.Z.`. +.+N.' ! Z.++k k @+Z.Z.@+k k k k k ",
"+ %+&+U T *+U ` d ` e =+-+;+>+,+h., Z -+=+e ` =+-+-+'+d e s v )+h.%+&+U T *+U ` d ` e =+-+;+>+,+h., Z -+=+e ` =+-+-+'+e e e e e ",
"@ ; ) ) ; ; ) $ $ $ $ _ $ e k ).:.; > $ _ $ $ $ $ $ $ _ _ ` /.!+~+; z ) ; ; ) $ $ $ $ _ $ e k ).:.; z $ $ $ $ $ $ $ $ $ $ $ $ $ ",
"# > 6 6 > z 6 _ _ _ _ _ _ d k #.@.> { _ _ _ _ _ _ _ _ _ _ ` k #.@.> { 6 > z 6 _ _ _ _ _ _ d k #.@.> { _ _ _ _ _ _ _ _ _ _ _ _ _ ",
"$ $ $ $ $ $ $ $ $ $ $ _ $ e k {+e ^ > & & & & ) ( b i d e ]+^+j G $ $ $ $ $ $ $ $ $ $ _ $ e k k e $ _ $ $ $ $ $ $ $ $ $ $ $ $ $ ",
"$ $ $ $ $ $ $ $ $ $ $ _ $ e k /+e ) a @ o o @ a ) i (+/.l ^+_+i r $ $ $ $ $ $ $ $ $ $ _ $ e k k e $ _ $ $ $ $ $ $ $ $ $ $ $ $ $ ",
"$ $ $ $ $ $ $ $ $ $ $ _ $ e k #.&+M B @ o o @ a > d k I :+j c $ $ $ $ $ $ $ $ $ $ $ $ _ $ e k k e $ _ $ $ $ $ $ $ $ $ $ $ $ $ $ ",
"$ $ $ $ $ $ $ $ $ $ $ _ $ e k X.:.N C & & & & z ( e l :+<+G [+$ $ $ $ $ $ $ $ $ $ $ $ _ $ e k k e $ _ $ $ $ $ $ $ $ $ $ $ $ $ $ ",
"$ $ $ $ $ $ $ $ $ ( ) > ^ ` /+X.:.; z $ $ $ $ [+c ]+^+j G $ $ $ $ $ $ $ $ $ $ $ $ $ $ _ $ e k k e $ _ $ $ $ $ $ $ $ $ $ $ $ $ $ ",
"$ $ $ $ $ $ $ $ $ ) ; a ) e /+2.&+) { $ _ _ $ i (+^+]+c [+$ $ $ $ $ $ $ $ $ $ $ $ $ $ _ $ e k k e $ _ $ $ $ $ $ $ $ $ $ $ $ $ $ ",
"& ) 6 _ _ _ _ _ $ ) ; }+M |+H ++1+$ _ _ _ [+c 2+#+k e $ _ _ $ ^ ) ) ^ $ _ $ $ $ $ _ $ { ) ]+W.W.]+) { $ _ $ $ $ $ $ $ $ $ $ $ $ ",
"@ ; ) $ $ $ $ $ $ ^ ) 3+4+5+V.6+7+$ _ $ $ c j :+I /.d $ _ $ $ ) ; ; ) $ $ $ $ $ $ $ $ > ; - 8+8+- ; > $ $ $ $ $ $ $ $ $ $ $ $ $ ",
"* ~.W ` d ` ` ..9+# & -.8.% . 0+Z L V e 7+a+W.w.w.#.@.D # # D 0 5.8.0 & # & & & & # & -.8.% . . % 8.-.& # & & & & & & & & & D D ",
"6.n b+k k /.k (._.@ } P 7.8 . [ , _.c+++d+e+f+e.g+X.T @ } @ @ 8.7.7.8.@ @ @ @ @ @ @ @ 5 7.1.. . 1.7.5 @ @ @ @ @ @ @ @ @ @ @ @ @ ",
"* b.J.g+g+g+g+J.b.* h+i+* + j+k+l+m+n+o+p+q+o+r+s+t+u+*.v+w+*.4.=.* * * * * * * * * * i+* + j+j++ * i+* * * * * * * * * * =.4.b.",
"* b.J.s+x+x+s+y+p.6.* * * + z+s.l.A+B+E.C+D+p+E+r+v.t+F+4.G+F+3.4.* * 6.6.6.6.6.6.6.6.* * % z+z+% * * 6.6.6.6.6.6.6.6.* 6.4.3.J.",
"h+*.H+I+v.J+t+K+*.h+i+v+*.L+M+N+O+P+N+Q+R+R+Q+S+R+r+s+I+u+O T+H+*.h+i+* * * * * * h+h+v+*.L+M+M+L+*.v+* * * * * * * * i+h+*.H+U+",
"* v+*.V+t+t+V+*.v+* * *.K+J+R.W+X+O+Y+Z+`+S+Z+ @`+.@r+v.t++@O 4.w+* * * * * * * * * * *.K+M.R.R.M.K+*.* * * * * * * * * * =.4.b.",
"@@@@@@O T+H+*.v+#@$@@@%@I+P+&@Q+R+C+Q+            Y+C.*@=@I+u+@@$@@@@@*.v+i+i+v+*.$@@@%@I+P+&@-@P+U+;@i+i+i+i+i+i+v+*.@@@@@@@@@@",
"u.u.U+0.>@*.v+*.K+u.J.I+v.O+&@,@'@S+,@            )@P+!@*@v.I+U+U+J.u.K+*.* * *.K+u.J.I+v.~@&@{@~@J.@@* h+* * * * *.K+u.J.u.U+U+",
"P+O+]@J+L++ + l+M.X+^@O+O+R+/@                    (@_@X+O+~@O+]@P+O+]@J+L++ + l+M.X+^@O+X+:@(@<@:@M.L+% + % % + % l+M.X+^@X+X+X+",
"[@{@[@L.}@|@j+M+R.[@{@&@)@S+1@                    1@S+Y+Y+)@-@[@[@{@[@R.M+j+j+M+R.[@{@&@)@S+1@Z+S+s.}@2@j+2@2@j+2@M+R.[@{@[@[@[@",
"  Z+3@{@-@R.M+2@j+j+2@4@R.L.4@4@L.R.4@2@j+2@2@2@2@2@2@j+2@M+R.5@6@Z+5@{@-@R.M+2@j+2@2@2@2@2@2@2@2@2@2@2@2@2@2@2@2@2@2@2@2@2@2@2@",
"  '@R+X+O+M.l+% + + + L+J+7@L+L+7@t.L++ O + + + + + + + + o.J+R+/@'@R+X+O+M.l+% + + + + + + + + + + % % % % % % % % + + + + + + ",
"  s.t.J.U+K+*.* * * * 4.K+H+4.4.H+K+4.* * * * * * * * * * *.H+t.L.s.M.J.U+K+*.* h+* * * * * * * * * * * * * * * * * * * * * * h+",
"  }@o.@@;@*.v+i+i+i+i+v+*.*.v+v+*.*.v+i+i+i+i+i+i+i+i+i+i+8@*.L+M+}@L+@@;@*.v+i+i+i+i+i+i+i+i+i+i+i+i+i+i+i+i+i+i+i+i+i+i+i+i+i+",
"  j+O h+i+h+i+i+h+h+h+h+h+h+h+h+h+h+h+h+i+i+h+h+h+h+h+h+h+v+*.l+M+j++ h+i+h+* 9@0@0@9@* * * * * * * * * * * * * * h+h+h+h+v+*.b.",
"  j+O h+i+* * * * * * * * * * * * * * * * * * * * * * * * *.H+M.L.j++ h+i+h+* a@b@b@a@* * * * * * * * * * * * * * * * * * *.K+u.",
"  M+o.@@;@c@d@d@c@@@@@b.b.b.b.b.b.@@@@c@d@d@c@@@@@@@@@$@@@u+I+O+&@M+L+b.;@#@v+e@f@g@h@i@:.h+h+w+*.*.v+v+*.*.w+9@i@j@k@@@b.u+I+l@",
"  s.t.u.U+m@S.S.m@u.u.u.u.u.u.u.u.u.u.m@S.S.m@u.u.u.u.u.u.I+v.X+&@s.J+J.U+n@*.o@p@q@r@b@0@* * 4.K+H+4.4.H+n@4.i@s@t@u@u.K.t+v.g+",
"  W+C.s+v@o+q+q+o+w@s+l@l@l@l@l@l@s+w@o+q+q+o+w@s+H.w@w@H.s+w@R+S+W+P+x+v@x@m+y@z@A@B@C@D@E@F@u+I+G@@+@+G@I+u+H@I@J@K@l@L@s+w@P+",
"  Y+O+M@.@N@O@O@N@P@M@g+!@g+g+!@g+M@P@N@O@O@N@.@M@M@.@.@M@r+E+'@Q@Y+O+k..@R@S@T@U@V@W@X@Y@Z@`@t+v. #.#.# #G.t++#@###$#!@g+r+%#Y+",
"  5@_@:@5@5@_@R+S+'@R+O+P+]@P+C.P+R+S+`+&#*#(@5@:@:@5@5@:@_@5@    5@_@:@5@(@:@X+O+=#-#;#;#-#=#X+X+=#>#>#=#X+X+=#-#-#=#O+X+_@(@  ",
"  ,@S+`+Z+Z+S+S+Z+,#`+Y+Y+Y+Y+Y+Y+`+,#Z+S+S+Z+Z+`+`+Z+Z+`+S+Z+    ,@S+`+Z+'#5@[@)#!#~#{#]#^#/#&@(#_#:#:#_#(#&@<#[#~#}#Y+Y+S+,#  ",
"|#|#|#1#|#k+2#Y+)@Y+3#3#Y+S+,#        4#5#! = . 6#. 2@2@z+2@2@j+j+|@|@|@j+j+j+j+j+2@2@j+j+|@|@|#|@7#8#9#0#j+|@|@|@|@|@|@|@|@|@|@",
"+ + + O + L+J+]@O+P+]@P+O+R+'@        a#b#~ - + % + + + + + + + + + + + + + + + + + + + + + + O + c#d#d#c#+ O + + + + + + + + + ",
"+ + + O + e#U.l@*@H.r+w@H.v@f#S+,#    h -+> R } } 5 g#i+* i+i+v+*.h#i#j#k#v+*.*.v+h+h+v+*.@@@@;@@@L+}@j++ v+#@@@b.b.b.b.b.b.b.b.",
"|#|#|#|#|#l#m#=@l@w@f#f#w@s+v@C+S+    h -+{ n## D -.5 i+* i+i+#@H+< o#p#q#*.r#H+*.i+i+#@H+s#U+t#s#J+2#|@O #@r#s#U+s#s#s#s#s#s#s#",
"          S+C+P+C.o+s.q+o+v@s+C.W+    u#v#d  . .d &+w#d@x#p.d@L+t.y#z#A#B#@+C#D#@+E@E#u+I+s+r+C.P+_@S+F#G#H#I#J#K#l@l@l@l@l@l@l@",
"          L#`+)@Y+q+o+M#q+f#w@C.3#    N#O#k /+/+/+P#Q#I.i.m@I.4@R.R#S#T#U#V#W# #V#Z@X#t+v.M@Q.-@{@Y#Z+Z#`# $.$+$@$g+g+g+g+g+g+g+",
"                  S+R+R+Q+Q+R+R+S+    S+C+P+P+P+O+R+'@`+R+o+q+#$Z+$$%$&$*$=$-$-$>#;$>$P+]@R+/@        ,$%$&$&$-#'$O+]@O+O+O+O+O+",
"                  Z+Q+S+Z+Z+`+S+,@    )$!$~${${$~$]$^$/$/@N@O@_@'@($,$_$:$:#_#_#:#^#/#&@(#S+Q@        ($<$[$}$|$}#Y+Y+Y+Y+Y+Y+Y+",
"  1$2$W+W+#$3$3$#$W+W+#$3$3$#$W+W+2$3$    3$2$4$W+4$4$(#4$5$w@]@W+6$7$D.8$7#9$3$7$4$W+(#4$0$8$8$0$4$(#(#4$0$8$8$0$4$(#4$4$4$4$4$",
"  S+C+C.C.R+S+S+R+P+P+R+S+S+R+P+P+C+S+    '@R+O+P+]@P+]@]@w@H.P+W+3@a$7@o.b$7#`+c$]@]@~@O+7@o.o.7@P+O+O+]@7@L+L+7@O+~@O+O+O+O+O+",
"  d$-$e$e$f$g$g$f$e$e$f$g$g$f$e$e$f$g$h$h$g$f$i$e$i$i$i$i$e$i$-$d$<#-$I#j$k$l$g$y#i$e$m$i$I#H#H#I#i$m$m$i$I#H#H#I#i$m$i$i$i$i$i$",
"  n$o$p$p$q$r$r$q$p$p$q$r$r$q$p$p$q$r$s$s$r$q$t$p$t$t$p$t$p$t$>#n$u$o$v$w$x$y$r$q$t$p$t$t$z$A$A$z$t$t$t$t$z$A$A$z$t$t$t$t$t$t$t$",
"  B$C$D$D$D$D$D$D$D$D$D$D$D$D$D$D$D$D$D$D$D$D$D$D$D$D$D$D$D$D$E$B$B$E$D$D$D$D$D$D$D$D$D$D$D$D$D$D$D$D$D$D$D$D$D$D$D$D$D$D$D$D$D$",
"  F$G$_$H$h$I$I$h$_$_$h$I$I$h$_$_$h$I$I$I$I$h$_$_$_$_$_$_$H$_$G$F$J$G$}$:$:$h$I$h$_$_$_$_$}$]#]#}$_$_$_$_$}$]#]#}$_$_$_$_$_$_$_$",
"                                                                                                                                "};
