/* XPM */
static char *_4546be1062f41849ed88bbc399661ea4LkIvEoVqjOp8wqV[] = {
/* columns rows colors chars-per-pixel */
"64 64 116 2 ",
"   c #433F39",
".  c #43403E",
"X  c #44413F",
"o  c #49433F",
"O  c #48443F",
"+  c #454240",
"@  c #474441",
"#  c #474442",
"$  c #484543",
"%  c #494643",
"&  c #4C4743",
"*  c #494644",
"=  c #4A4845",
"-  c #4B4846",
";  c #4E4A47",
":  c #4E4B48",
">  c #4D4B4A",
",  c #4F4C49",
"<  c #4E4C4A",
"1  c #4F4D4C",
"2  c #504C47",
"3  c #504D4A",
"4  c #504E4C",
"5  c #53514F",
"6  c #54514D",
"7  c #55524F",
"8  c #454458",
"9  c #4A585C",
"0  c #535150",
"q  c #565350",
"w  c #565253",
"e  c #575450",
"r  c #575552",
"t  c #565655",
"y  c #575655",
"u  c #595651",
"i  c #595652",
"p  c #585654",
"a  c #5A5854",
"s  c #5B5955",
"d  c #5C5A57",
"f  c #5D5A57",
"g  c #595858",
"h  c #5B5B5A",
"j  c #5D5B58",
"k  c #5D5C59",
"l  c #5F5E5D",
"z  c #605D5B",
"x  c #605D5C",
"c  c #605F5C",
"v  c #60605E",
"b  c #61605E",
"n  c #61605F",
"m  c #61615F",
"M  c #484B77",
"N  c #484C78",
"B  c #4D5079",
"V  c #566264",
"C  c #4B7079",
"Z  c #55777F",
"A  c gray38",
"S  c #636362",
"D  c #646161",
"F  c #666263",
"G  c #676267",
"H  c #636464",
"J  c #656564",
"K  c #666665",
"L  c gray40",
"P  c #666766",
"I  c #696667",
"U  c #676868",
"Y  c #686868",
"T  c #686A69",
"R  c #6B6A6B",
"E  c #6C6A6B",
"W  c #6B6B6C",
"Q  c #6C6B6D",
"!  c #6F6A6E",
"~  c #6B6C6C",
"^  c #6E6D6F",
"/  c #6F6E70",
"(  c #6F6E71",
")  c #6F6F71",
"_  c #716F72",
"`  c #717072",
"'  c #717073",
"]  c #757176",
"[  c #767176",
"{  c #777378",
"}  c #767478",
"|  c #767479",
" . c #777479",
".. c #78747A",
"X. c #79767B",
"o. c #7B757C",
"O. c #7B757D",
"+. c #7D787F",
"@. c #4A5086",
"#. c #597A81",
"$. c #7E7980",
"%. c #7E7A81",
"&. c #7F7B82",
"*. c #515CB0",
"=. c #525EB0",
"-. c #5664C7",
";. c #807B82",
":. c #807B83",
">. c #827C85",
",. c #837D86",
"<. c #847E87",
"1. c #847E88",
"2. c #5B858E",
"3. c #57A3B3",
"4. c #59A3B4",
"5. c #5EB7CB",
/* pixels */
"i i i i i i i i i i i i i i i i i i i i i i i i i i i i i i i i i i i i i i i i s i i i i i i 5 % . . o 6 2.5.5.2.6 o X   * 6 i ",
"6 6 i s s k k k d l F F F F F v z d k d k z v F F F z d d d k k z d j d d k k d j d d d k k k i 3 % % & < #.3.3.#.6 ; % * : w i ",
"* : 6 j v L L L L R ] X.O.O.O.] R J J L L E ] o.X.] E L J J J L L J J L J J I L L J L L L L J v i 6 6 3 = 9 C Z V i 6 6 6 6 6 s ",
". * 5 j L ~ ^ _ ` | &.,.<.<.<.;.X.` ^ ` ` | ;.<.<.;.} _ _ _ _ ` _ _ ` ` ` ` _ _ ` ` _ ` ` ` _ ~ A d s 6 % X X < d j j k j d s i ",
". % 6 j L ( X.&.&.;.;.<.<.<.<.<.;.+.&.+.+.;.<.<.<.<.;.O.;.+.+.;.+.;.+.+.+.O.&.+.+.;.+.+.O.&.&.X.Q A d 6 % + ; i v J L L L v j i ",
". % 5 j L ( X.&.>.<.<.<.<.<.<.<.<.<.,.<.<.<.<.<.<.<.<.<.<.<.<.<.<.<.<.<.<.<.<.<.<.<.<.<.<.<.,.+.` L j 6 < 3 i v P ~ ^ ( ~ L k i ",
". % 6 j L W ( | ;.<.<.<.<.<.<.<.<.<.<.<.<.<.<.<.<.<.<.<.<.<.<.<.<.<.<.<.<.<.<.<.1.<.<.<.<.<.<.&.' L d i 6 d v L P ` X.X.^ L k i ",
"@.B t t v L U ( ..;.&.;.,.<.<.<.<.<.<.<.<.<.<.<.<.<.<.<.<.<.<.<.<.<.<.<.<.<.<.<.;.+.+.;.<.<.<.;.' L j i i k J E ( | &.+.` L j i ",
"-.=.B < i k L E _ _ _ ] &.1.<.<.<.<.<.<.<.<.<.<.<.<.<.<.<.<.<.<.<.<.<.<.<.<.<.;.} ` ` | ;.1.1.O._ L j i i d L _ X.;.,.+.` L d i ",
"-.=.M @ < d v L L F L Q X.;.,.<.<.<.<.<.<.<.<.<.<.<.<.<.<.<.<.<.<.<.<.<.<.<.;.X.^ E R ` O.<.;.X.Q A p 6 i j E ..;.<.1.;.| ~ z i ",
"@.M 8 X % < d d d d k A W ] ;.1.<.<.<.<.<.<.<.<.<.<.<.<.<.<.<.<.<.<.<.<.<.;.} ^ ~ L L ` ;.;.} ^ v i 3 : 6 F ] ;.,.<.<.,.;.] F i ",
"X X @ % % 3 6 i i e 6 i j W | ;.<.<.<.<.<.<.<.<.<.<.<.<.<.<.<.<.<.1.;.;.+.| ^ I L L W ) | X.W v p 3 # : d Q o.<.1.<.<.<.1.O.v i ",
". O 2 6 6 6 i i i 6 : * < g W | ,.,.,.<.<.<.<.<.<.<.<.<.<.<.<.<.<.&.] ' ' Q v d k v P ^ ^ ^ v a 3 + + w ` O.<.<.<.<.<.<.<.o.F a ",
". % 6 a d d k k k p < % + : l Q | +.&.+.+.;.+.O.O.o.o.o.O.X.o.o.X.] E L I v d i a s v L P v k 5 2 : w H O.<.<.<.<.<.<.<.<.O.F i ",
"X * 6 d A L L L L v i 3 % = w A R ` ` _ ` ` ` / I F F F F F F A F A z j k d a i i a s k k s s w w j _ O.;.<.<.<.<.<.<.<.<.o.F i ",
"% 3 p v W _ _ ` _ ^ A p : ; 6 j L L R J L L L v i 6 i i i i i i i i i i i i i i i i i i i i j j z G O.,.<.<.<.<.<.<.<.<.;.] n i ",
"6 p v E X.&.&.&.O.X.( v a 5 6 k I L v k d j d i : : 6 w a u i i i i i i i i i i i i i i i k v J L ^ &.<.<.<.<.<.<.<.<.;.| R z i ",
"i k L ` O.1.<.,.<.&.] ^ v d d d v A z d i 6 i 6 2 3 p j k d k d d j j d k d k d k k k d k v A L I _ O.<.<.<.<.<.<.<.<.;.` L d i ",
"i k L _ &.<.<.<.,.,.;.| ^ v k i k v v c 4 : 6 i w a v J L J J L L J L J L J L J J J L L J J c A I ' &.<.<.<.<.<.<.<.<.+.` J d i ",
"i k L _ O.<.<.,.&.&.&.X.^ P k i i k K J t 5 s d i d L ~ ^ ` ` ` ` _ ' ` ` _ ` ` _ / ~ L J k d k L ` O.<.<.<.<.<.<.<.<.+._ J k i ",
"i j L ` &.<.<.;.} ` ` ) ~ I k i i k L R H A L v d k J ` X.+.;.+.+.+.+.&.+.+.;.&.+..._ F t 6 6 k L ` ;.<.<.<.<.<.<.<.1.O.` J d i ",
"i d J ` +.<.,.&.( R R P P v d i i d S R _ _ ' W v v L ` &.<.<.<.<.<.<.,.<.<.<.<.<.&.` S 6 < 6 k L ` +.<.<.<.<.<.<.<.<.;.| E z i ",
"i j J ` &.<.<.+.` E Y L v d i i i k L ^ | &.&.| ^ L U ` +.,.<.<.<.<.<.<.,.<.1.,.,.&.` S d 6 6 k J _ +.1.<.<.<.<.<.<.<.<.;.] F i ",
"i j J ` +.<.<.;.} / ~ L k i i i i z Q | ;.<.1.&.| ( ~ ` &.<.<.<.<.<.<.,.&.&.,.,.&.| ^ A a u w i v ^ +.,.<.<.<.<.<.<.<.<.<.X.F i ",
"i j L _ +.<.<.<.;.X.( J d i i i i v ] ;.<.<.<.<.;..._ _ +.<.<.<.<.<.<.;.| } ;.;.] ( v k s 6 < < i R O.<.<.<.<.<.<.<.<.<.<.X.F i ",
"i j L ` +.<.<.<.<.;.} ^ F d a i i F O.1.<.<.<.;.;...^ ^ | &.<.<.<.<.1.O.` _ | X.^ L k k d d < : 4 F o.<.<.<.<.<.<.<.<.<.&.] c i ",
"i k J _ ;.<.<.<.<.<.&.| E v d 6 i I O.<.<.<.<.;.} ^ ^ E ) } ;.,.<.,.,.&.` ~ _ Q ~ R L J L z s 6 i F o.<.<.<.<.<.<.<.<.;.[ Q c i ",
"i s L ` +.<.<.<.<.<.<.+._ J z i i F o.<.<.<.<.;.} _ _ ^ ~ ^ O.+.&.&.+.X.( R _ _ ` ` ` _ E L g i i F X.<.<.<.<.<.<.<.<.&._ I j i ",
"i j J _ +.,.<.<.<.<.<.O.' L k i i n o.<.<.<.<.<.&.&.O.X.` Q ^ _ ` ` ` ^ ~ ^ X.&.+.+.&.X.^ L d i i F o.<.<.<.<.<.<.<.<.&._ L d i ",
"i j L ' +.1.<.<.<.<.<.;.} ^ z i i F o.<.<.<.<.<.,.,.,.+._ R L L L L R ^ ^ | &.,.<.<.<.+._ L z i i F o.<.<.<.<.<.<.<.<.+._ L j i ",
"i j L _ +.,.1.<.<.<.<.<.&.] v i i F O.<.<.<.<.<.<.<.<.&._ L l j d k L ^ | &.,.<.<.<.<.;._ L d i i F o.<.<.<.<.<.<.<.1.;._ L d i ",
"i j L _ &.,.<.<.<.<.<.<.,.X.F i i v [ ;.<.<.<.<.<.<.<.&.` L d i i k J _ &.<.<.<.<.<.<.O._ J d i i F o.<.<.<.<.<.<.<.<.O._ L j i ",
"i j L ` $.<.<.<.<.<.<.<.<.o.F i i z R | ;.<.<.<.<.<.<.+.` J d i i k J ` +.,.,.1.<.<.<.&.` L k i i A O.<.<.<.<.<.<.<.<.;.` L d a ",
"i d J ` $.<.<.<.<.<.<.<.<.X.F i i d J _ &.<.<.<.<.1.;.X.^ I v d k z L ` &.,.1.,.<.<.<.O._ J d i i F ] ;.<.<.<.<.<.<.<.+.( L k i ",
"i j J _ $.<.<.<.<.<.<.<.<.o.F i i d L _ &.,.,.,.<.;.| ^ ~ E L L J L E ` +.,.<.<.<.<.<.;.` J d i i z E ] ,.<.<.<.<.<.<.+.` J d i ",
"i j J ` $.<.<.<.<.<.<.<.<.o.F i i j L ` | +.&.+.O.X.^ ~ ^ ( _ ` ` ^ ^ ^ | &.&.&.,.<.<.O.` L j i i k L _ O.<.<.<.<.<.<.+.` J k i ",
"i j I _ O.<.<.<.<.<.<.<.<.o.F i e j L W ( ` ` ` ' ^ ~ ^ X.O.;.&.+.X.^ ^ _ _ ` | &.<.<.+._ J d i i k L _ +.<.<.<.<.<.<.+.` J d d ",
"i c Q ] ;.<.<.<.<.<.<.<.<.o.F i 6 s v L I J L L R ~ R ` ;.1.1.<.,.&.] _ ~ R R ` &.<.<.&.` L k i i d A E X.;.<.<.<.<.<.;./ J d i ",
"i F ] ;.<.<.<.<.<.<.<.<.<.O.F 6 ; < i k k d k v P U U ` O.1.<.<.1.<.&.| ) L L ` &.,.,.&.` L k i i i j A ^ ] ,.<.<.<.<.O.` J d i ",
"i F X.<.<.<.<.<.<.<.<.<.<.X.R i < < 5 i i a d A ~ ' ` | ;.<.<.<.<.<.,.&.` W L ~ X.O.&...^ J k i i i i j J ^ | ;.<.<.<.&.` J k i ",
"i F O.1.1.<.<.<.<.<.<.<.<.+.^ v i 6 i i i d v / | &.O.;.<.<.<.<.<.<.<.&.` L v v _ ` ` _ ~ L k i i i a k L ~ ^ | ;.<.<.+.` J d d ",
"i c ] >.<.<.<.<.<.<.<.<.<.+.` L k i 6 6 6 k J ` &.<.1.<.<.<.<.<.<.<.,.&.` J d k J L L L L L k i i d a A L L R _ +.<.<.+.' L d u ",
"i c Q _ ;.<.<.<.<.<.<.<.<.O.' P k w ; < 6 k J ` &.,.<.,.<.<.<.<.,.,.,.+.` J d k L L v A L L k i i a v P P ~ E ` +.<.<.&.` J d i ",
"i j L _ O.<.<.<.<.<.<.<.<.&.' L d 6 % = i v L _ | &.&.+.O.;.+.;.&.&.&.X._ J k d v v i i l k d i i k L ~ ( ` ` | ;.1.<.+.` L d i ",
"i d L ' ;.<.<.<.<.<.<.<.1.O.( L j 5 * < c L L ~ ^ ` ` _ ` _ ` _ ` ` ` _ R J k a d i < ; < 5 i i i k L ( | O.;.;.<.<.<.O.` J d i ",
"i d J _ ;.<.<.<.<.<.<.<.<.&._ J k 6 : 0 c L L L L L L J L J L I S L J L J v a 6 i 6 ; % @ ; 6 i i s v ^ X.;.1.<.<.1.<.&.' L j i ",
"i j J _ O.<.<.<.<.<.<.<.<.+.` L j i 6 e s k j k k d k d d j j j k d k d k s < < 6 e w 0 5 6 i i i i d v ~ | ;.,.<.<.<.;._ J k i ",
"i z E X.;.<.<.<.<.<.<.<.&.X.( L j i i i i i i i i i i i i i i i i i i i e 0 ; < i k j k k k d k k s i a v ^ X.+.&.;.O.X.E v d 6 ",
"i F ] &.<.<.<.<.<.<.,.&.] _ R L j i i i i i i i i i i i i i i i i i i i i i 6 p v L L L J L J L L k w < i v ^ ' ' ' ' Q v d ; % ",
"i F X.,.<.<.<.<.<.<.&.X.Q L A l s i j k k s p i i s d d k z F v F F F F F F F Y ^ ' ` ` ` ` ` / R A p < 0 p k L L L L A d 6 * X ",
"i F o.<.<.<.<.<.<.;.] Q A d 5 < e j c L L A j i i d A L L Q ] X.o.o.o.o.o.o.O.X.+.+.+.+.+.;.+.X.( U S h 4 < i k j j j j i 6 * X ",
"i F o.<.<.<.<.<.<.+.` L s 3 : < i v ( _ ~ L A j k v E _ ' ] ;.<.<.<.<.<.<.<.<.<.<.<.<.<.<.<.<.;.| ' ( W g 4 e i i i 6 6 6 2 %   ",
"i F O.<.<.<.<.<.1.O._ A 5 = 4 p v E | | ) P L L L Q ..O.;.;.<.<.<.<.<.<.<.<.<.<.<.<.<.<.<.<.<.<.&.&.+.X.R l d i i 6 2 % * % X X ",
"i c ] ;.<.<.<.<.&.O.Q c ; = i A ( | ;.&.` E L ~ / } &.<.<.<.<.<.<.<.<.<.<.<.<.<.<.<.<.<.<.<.<.<.1.,.1.;.] R v d k p : * X 8 M @.",
"i c Q ..;.1.<.;.| ^ A p * : c W | ;.,.+.' ~ R ^ X.;.<.<.<.<.<.<.<.<.<.<.<.<.<.<.<.<.<.<.<.<.<.<.,.<.<.,.&.| ^ L L v i 3 & N *.-.",
"i j L _ O.1.1.;.` L k 6 * 1 A _ &.<.,.&.| ' ` | ;.<.<.<.<.<.<.<.<.<.<.<.<.<.<.<.<.<.<.<.<.<.<.<.1.<.<.<.1.&.| ` _ ^ v i < N *.-.",
"i k L ` +.,.,.+._ L k 5 % 1 A ` &.,.,.,.&.&.+.;.<.<.<.<.<.<.<.<.<.<.<.<.<.<.<.<.<.<.<.<.<.<.<.<.<.<.<.<.<.<.;.&.O.X.^ v i t N @.",
"i k S ^ | &.&.| R v i ; % < A _ &.,.<.<.,.,.<.<.<.<.<.<.<.<.<.<.<.<.<.<.<.<.<.<.<.<.<.<.<.<.<.<.<.<.<.<.<.<.<.<.1.;.| E z 6 * X ",
"i k J R ' ' _ ^ v d 3 O + 1 A ` &.,.<.1.<.,.<.<.<.<.<.<.<.<.<.<.<.<.<.<.<.<.<.<.<.<.<.1.<.<.<.1.<.<.<.<.<.<.1.<.<.<.;.] F 6 * . ",
"i k L L R L L A t 3 % . @ 0 l W X.+.&.O.+.&.+.;.+.+.;.O.&.+.+.+.+.$.$.$.$.;.<.<.<.1.;.O.+.+.+.;.,.<.<.<.<.,.;.O.&.;.O.X.L i % . ",
"i k J L A g j i > $ + $ < e s A ^ ` ' _ ` _ ` ` ` ` ` _ _ _ ` ` ` _ _ _ ` { ;.<.<.;.X._ _ _ _ ..&.<.<.<.<.;.[ _ ` ` _ ( L g < X ",
"i d v k t 0 w < $ +   $ 3 6 6 p z L L L L J L L L J J J L I J J J J L I J E ] o.O.] E J F L L Q ] X.o.o.O.] Q L L S L I L c 3 = ",
"i e 6 < * $ $ $ + .   + * * * 4 i k k k d d k d k d d k d k k d d k d k k z F n F A z k d d j c c F F F F A l j j j d k k j i 6 ",
"i 5 % . . +   . . . + +     + * 6 i i i i i i i i i i s i i i i i i i i i i i i i i i i i i i i i i i i i i i i i i i i i i i p "
};
