/* XPM */
static char * WallR_xpm[] = {
"64 64 535 2",
"  	c #000000",
". 	c #222D00",
"+ 	c #3F4D00",
"@ 	c #595400",
"# 	c #6F4900",
"$ 	c #683700",
"% 	c #401E00",
"& 	c #3F1F00",
"* 	c #784000",
"= 	c #7A4100",
"- 	c #925200",
"; 	c #B36700",
"> 	c #AA6200",
", 	c #6B3B00",
"' 	c #693800",
") 	c #915100",
"! 	c #C47200",
"~ 	c #C47100",
"{ 	c #693A00",
"] 	c #3D1D00",
"^ 	c #673600",
"/ 	c #925100",
"( 	c #B46700",
"_ 	c #905000",
": 	c #D58000",
"< 	c #F29700",
"[ 	c #FFA200",
"} 	c #FFA300",
"| 	c #E59000",
"1 	c #AA6600",
"2 	c #B26600",
"3 	c #F19700",
"4 	c #C37100",
"5 	c #1C0A00",
"6 	c #311700",
"7 	c #532A00",
"8 	c #6E3A00",
"9 	c #7F4500",
"0 	c #8C4D00",
"a 	c #A05B00",
"b 	c #B86A00",
"c 	c #B76900",
"d 	c #A15B00",
"e 	c #9F5A00",
"f 	c #D07C00",
"g 	c #E78F00",
"h 	c #F59A00",
"i 	c #FCA000",
"j 	c #E18A00",
"k 	c #361A00",
"l 	c #592E00",
"m 	c #6D3A00",
"n 	c #763F00",
"o 	c #8B4D00",
"p 	c #A75F00",
"q 	c #C06F00",
"r 	c #BF6E00",
"s 	c #C77500",
"t 	c #D17D00",
"u 	c #FC9F00",
"v 	c #7A4000",
"w 	c #915000",
"x 	c #3C1D00",
"y 	c #663600",
"z 	c #C27000",
"A 	c #D48000",
"B 	c #784100",
"C 	c #6E4800",
"D 	c #673700",
"E 	c #3F1E00",
"F 	c #693700",
"G 	c #392300",
"H 	c #5E3D00",
"I 	c #714E00",
"J 	c #7A5700",
"K 	c #936200",
"L 	c #B46C00",
"M 	c #4B2700",
"N 	c #7D4500",
"O 	c #E38F00",
"P 	c #A26200",
"Q 	c #884B00",
"R 	c #B06500",
"S 	c #C87500",
"T 	c #DD8600",
"U 	c #EA9200",
"V 	c #2B2800",
"W 	c #4A4700",
"X 	c #666000",
"Y 	c #7C7300",
"Z 	c #997900",
"` 	c #B67400",
" .	c #A96100",
"..	c #603500",
"+.	c #9B5900",
"@.	c #E08E00",
"#.	c #945B00",
"$.	c #744000",
"%.	c #AB6200",
"&.	c #EA9100",
"*.	c #DD8700",
"=.	c #212D00",
"-.	c #645700",
";.	c #845400",
">.	c #7F4600",
",.	c #4E2800",
"'.	c #5F3D00",
").	c #704600",
"!.	c #764300",
"~.	c #2A2800",
"{.	c #6F6300",
"].	c #8F7A00",
"^.	c #A78000",
"/.	c #BA7700",
"(.	c #6B3A00",
"_.	c #9D5900",
":.	c #CB7A00",
"<.	c #EF9600",
"[.	c #1E2C00",
"}.	c #735D00",
"|.	c #A06400",
"1.	c #9C5900",
"2.	c #623500",
"3.	c #2C2A00",
"4.	c #614F00",
"5.	c #724700",
"6.	c #372200",
"7.	c #865800",
"8.	c #A86F00",
"9.	c #C07300",
"0.	c #6A3B00",
"a.	c #E49000",
"b.	c #723D00",
"c.	c #864900",
"d.	c #B76E00",
"e.	c #E99300",
"f.	c #D68100",
"g.	c #3C4D00",
"h.	c #625700",
"i.	c #A25C00",
"j.	c #B96A00",
"k.	c #3E1E00",
"l.	c #BF6F00",
"m.	c #E69000",
"n.	c #7E4400",
"o.	c #894C00",
"p.	c #E28B00",
"q.	c #1E2D00",
"r.	c #715D00",
"s.	c #804500",
"t.	c #A15A00",
"u.	c #8A4C00",
"v.	c #A55D00",
"w.	c #FB9F00",
"x.	c #F69B00",
"y.	c #182500",
"z.	c #344200",
"A.	c #695300",
"B.	c #975D00",
"C.	c #935400",
"D.	c #5B3200",
"E.	c #382300",
"F.	c #784A00",
"G.	c #8A5000",
"H.	c #F29800",
"I.	c #A36300",
"J.	c #874B00",
"K.	c #D17C00",
"L.	c #0A1300",
"M.	c #1B2500",
"N.	c #403100",
"O.	c #5E3800",
"P.	c #5B3100",
"Q.	c #361B00",
"R.	c #292900",
"S.	c #4C4800",
"T.	c #785900",
"U.	c #754100",
"V.	c #F59B00",
"W.	c #1D0B00",
"X.	c #4E2900",
"Y.	c #613500",
"Z.	c #371C00",
"`.	c #B56800",
" +	c #FDA000",
".+	c #F69A00",
"++	c #D38300",
"@+	c #835000",
"#+	c #5F3400",
"$+	c #9B5800",
"%+	c #321600",
"&+	c #7E4500",
"*+	c #5C3200",
"=+	c #4D2800",
"-+	c #B96F00",
";+	c #724200",
">+	c #7C4400",
",+	c #582E00",
"'+	c #A86100",
")+	c #BB7000",
"!+	c #D78600",
"~+	c #DA8700",
"{+	c #C17300",
"]+	c #9E5A00",
"^+	c #6C3B00",
"/+	c #512900",
"(+	c #6B3900",
"_+	c #975600",
":+	c #C27400",
"<+	c #3D1E00",
"[+	c #6A3800",
"}+	c #935200",
"|+	c #6B3C00",
"1+	c #2F1500",
"2+	c #693B00",
"3+	c #683900",
"4+	c #7D4800",
"5+	c #9C5D00",
"6+	c #A46100",
"7+	c #874A00",
"8+	c #743F00",
"9+	c #6B3800",
"0+	c #743E00",
"a+	c #A36100",
"b+	c #1C0B00",
"c+	c #321700",
"d+	c #362200",
"e+	c #8C5500",
"f+	c #B36800",
"g+	c #1E0C00",
"h+	c #9C5C00",
"i+	c #7E4700",
"j+	c #B66E00",
"k+	c #E99200",
"l+	c #5A2F00",
"m+	c #6C3900",
"n+	c #282900",
"o+	c #805C00",
"p+	c #B06B00",
"q+	c #E69100",
"r+	c #CA7E00",
"s+	c #875200",
"t+	c #3A4C00",
"u+	c #726300",
"v+	c #A37100",
"w+	c #BA7600",
"x+	c #3E1F00",
"y+	c #202C00",
"z+	c #666700",
"A+	c #8C7B00",
"B+	c #A77F00",
"C+	c #A85F00",
"D+	c #A36200",
"E+	c #5A5400",
"F+	c #704900",
"G+	c #401F00",
"H+	c #5F3E00",
"I+	c #8B5500",
"J+	c #B36900",
"K+	c #676600",
"L+	c #7F7F00",
"M+	c #968600",
"N+	c #AC7E00",
"O+	c #B97700",
"P+	c #A55E00",
"Q+	c #4B4800",
"R+	c #392100",
"S+	c #765F00",
"T+	c #837D00",
"U+	c #8E8900",
"V+	c #978600",
"W+	c #B46800",
"X+	c #232D00",
"Y+	c #535200",
"Z+	c #614200",
"`+	c #592D00",
" @	c #351800",
".@	c #795900",
"+@	c #3E1D00",
"@@	c #845900",
"#@	c #957800",
"$@	c #9C8400",
"%@	c #9C8500",
"&@	c #773F00",
"*@	c #763E00",
"=@	c #A36000",
"-@	c #D98700",
";@	c #242E00",
">@	c #474F00",
",@	c #423600",
"'@	c #351900",
")@	c #1E0900",
"!@	c #603E00",
"~@	c #8A4F00",
"{@	c #8D5400",
"]@	c #AA6D00",
"^@	c #B67800",
"/@	c #B67900",
"(@	c #774000",
"_@	c #545300",
":@	c #634500",
"<@	c #371B00",
"[@	c #794A00",
"}@	c #8B4F00",
"|@	c #331800",
"1@	c #814700",
"2@	c #A45E00",
"3@	c #A66000",
"4@	c #C77700",
"5@	c #1F2D00",
"6@	c #6F5C00",
"7@	c #986000",
"8@	c #945400",
"9@	c #4B4700",
"0@	c #1A0A00",
"a@	c #5D3100",
"b@	c #834700",
"c@	c #C27300",
"d@	c #A65E00",
"e@	c #C67600",
"f@	c #E38C00",
"g@	c #745E00",
"h@	c #A16400",
"i@	c #3C4C00",
"j@	c #6F5F00",
"k@	c #9B6800",
"l@	c #B46E00",
"m@	c #BE7000",
"n@	c #522A00",
"o@	c #6E3B00",
"p@	c #985700",
"q@	c #E88F00",
"r@	c #E68E00",
"s@	c #645800",
"t@	c #4F2800",
"u@	c #575B00",
"v@	c #705F00",
"w@	c #936600",
"x@	c #B46D00",
"y@	c #753E00",
"z@	c #B36600",
"A@	c #D27D00",
"B@	c #CF7C00",
"C@	c #C77400",
"D@	c #1C2600",
"E@	c #354200",
"F@	c #4D4800",
"G@	c #5A2E00",
"H@	c #434E00",
"I@	c #525200",
"J@	c #815D00",
"K@	c #AF6A00",
"L@	c #D88600",
"M@	c #9A5700",
"N@	c #D28300",
"O@	c #A86000",
"P@	c #0E1400",
"Q@	c #1E2600",
"R@	c #2C2900",
"S@	c #341800",
"T@	c #1D0A00",
"U@	c #1D2600",
"V@	c #3E3500",
"W@	c #8C5600",
"X@	c #B26800",
"Y@	c #1F0C00",
"Z@	c #341900",
"`@	c #BD7100",
" #	c #7E4800",
".#	c #5E3300",
"+#	c #683A00",
"@#	c #734300",
"##	c #744300",
"$#	c #845000",
"%#	c #0D1400",
"&#	c #2D2A00",
"*#	c #392400",
"=#	c #7E4600",
"-#	c #4C2800",
";#	c #1B0A00",
">#	c #FA9E00",
",#	c #EC9500",
"'#	c #C07200",
")#	c #8C5700",
"!#	c #8D5700",
"~#	c #361800",
"{#	c #603400",
"]#	c #ED9500",
"^#	c #C57900",
"/#	c #965500",
"(#	c #864A00",
"_#	c #DE8D00",
":#	c #DE8C00",
"<#	c #DF8D00",
"[#	c #753F00",
"}#	c #5E3100",
"|#	c #4D2700",
"1#	c #764100",
"2#	c #AD6300",
"3#	c #532B00",
"4#	c #9C5800",
"5#	c #A05A00",
"6#	c #FA9F00",
"7#	c #ED9600",
"8#	c #D88700",
"9#	c #BC7300",
"0#	c #A96600",
"a#	c #9E5E00",
"b#	c #884D00",
"c#	c #222E00",
"d#	c #552B00",
"e#	c #4B2600",
"f#	c #603200",
"g#	c #884C00",
"h#	c #C16F00",
"i#	c #9B5700",
"j#	c #B66900",
"k#	c #D08100",
"l#	c #9F5E00",
"m#	c #F39800",
"n#	c #E38B00",
"o#	c #B16500",
"p#	c #794100",
"q#	c #7A4200",
"r#	c #CE8000",
"s#	c #9D5C00",
"t#	c #A96500",
"u#	c #CC7B00",
"v#	c #BC6E00",
"w#	c #CC7A00",
"x#	c #140600",
"y#	c #854A00",
"z#	c #E89200",
"A#	c #B06800",
"B#	c #DC8800",
"C#	c #130500",
"D#	c #7F4900",
"E#	c #BC7100",
"F#	c #C97600",
"G#	c #C57A00",
"H#	c #CE7B00",
"I#	c #DE8A00",
"J#	c #CF8000",
"K#	c #2F1400",
"L#	c #9D5E00",
"M#	c #F99E00",
"N#	c #BD6F00",
"O#	c #B26A00",
"P#	c #9D5D00",
"Q#	c #874C00",
"R#	c #391A00",
"S#	c #AB6700",
"T#	c #673900",
"U#	c #6E3D00",
"V#	c #8B4C00",
"W#	c #9E5D00",
"X#	c #3A1B00",
"Y#	c #E79100",
"Z#	c #1A0900",
"`#	c #CF8100",
" $	c #894B00",
".$	c #7F4400",
"+$	c #624300",
"@$	c #371900",
"#$	c #F79B00",
"$$	c #B16600",
"%$	c #371A00",
"&$	c #4C2600",
"*$	c #7C4600",
"=$	c #D38400",
"-$	c #562C00",
";$	c #5D3000",
">$	c #865100",
",$	c #CB7F00",
"'$	c #3E4D00",
")$	c #311600",
"!$	c #5B2F00",
"~$	c #945800",
"{$	c #C97E00",
"]$	c #C37B00",
"^$	c #794B00",
"/$	c #572D00",
"($	c #945A00",
"_$	c #E18E00",
":$	c #1B0900",
"<$	c #5B3400",
"[$	c #7D4D00",
"}$	c #7A4B00",
"|$	c #4A2C00",
"1$	c #482400",
"2$	c #512A00",
"3$	c #412000",
"4$	c #5C3000",
"5$	c #834900",
"6$	c #B86E00",
"7$	c #EA9300",
"8$	c #804600",
"9$	c #402000",
"0$	c #E48F00",
"a$	c #623600",
"b$	c #845100",
"c$	c #955B00",
"d$	c #AA6700",
"e$	c #542B00",
"f$	c #733E00",
"g$	c #AC6600",
"h$	c #BB6F00",
"i$	c #D78500",
"j$	c #B06600",
"k$	c #AD6700",
"l$	c #DC8600",
"m$	c #764200",
"n$	c #BD6E00",
"o$	c #C07500",
"p$	c #E18C00",
"q$	c #5F3200",
"r$	c #EB9200",
"s$	c #DE8800",
"t$	c #CD7A00",
"u$	c #DD8900",
"v$	c #E08C00",
"w$	c #D98500",
"x$	c #EE9500",
"y$	c #8F4F00",
"z$	c #764000",
"A$	c #A65F00",
"B$	c #170800",
"C$	c #6F3D00",
"D$	c #9F5B00",
"E$	c #AC6200",
"F$	c #6C3C00",
"G$	c #364200",
"H$	c #B16900",
"I$	c #AA6100",
"J$	c #1E0B00",
"  . + @ # $ % & $ * = - ; > ,     & ' * = ) ; ! ~ > { ] ^ / ( ; / _ ; : < [ [ [ [ [ [ [ [ } [ | 1 _ 2 : < [ [ [ [ [ [ [ [ 3 : 4 ",
"  . + @ # $ % & $ * = - ; > , 5 6 7 8 9 0 a b ! 4 > { ] ^ / ( c d e c : < [ [ [ [ [ [ [ [ } [ | 1 _ 2 f g h i [ [ [ [ [ [ h j : ",
"  . + @ # $ % & $ * = - ; > , k l m n o p b q ! 4 > { ] ^ ) ( r b c r : 3 [ [ [ [ [ [ [ [ } [ | 1 ) 2 s t j h [ [ [ [ [ [ u h 3 ",
"  . + @ # $ % & $ * = - ; > , & ^ * v w ; 4 ~ ! 4 > { x y _ ( 4 ~ z 4 : 3 [ [ [ [ [ [ [ [ } [ | 1 ) 2 z 4 A < [ } [ [ [ [ [ [ [ ",
"  . + @ # $ % & $ * = - ; > , & $ B = ) ( 4 ~ ! 4 > { ] ^ ) ( 4 ! 4 4 : 3 [ [ [ [ [ [ [ [ } [ | 1 ) 2 z 4 A 3 [ [ [ [ [ [ [ [ [ ",
"  . + @ C D E & F * = - ; > , G H I J K L 4 ~ ! 4 > { M N a b 4 4 z 4 : 3 [ [ [ [ [ [ [ [ } [ O P Q R S t T U h u [ [ [ [ [ [ [ ",
"  . + @ # $ % & $ * = - ; > , V W X Y Z ` 4 ~ ! 4  .{ ..+.b q 4 4 z 4 : 3 [ [ [ [ [ [ [ [ } [ @.#.$.%.t g &.*.j h [ [ [ [ [ [ [ ",
"  =.+ -.;.>.,.G '.).!./ ; > , ~.W {.].^./.4 4 ! 4  .{ {  .4 ! 4 4 z 4 : 3 [ [ [ [ [ [ [ [ } [ @.#.(._.:.<.3 : A 3 [ [ [ [ [ [ [ ",
"  [.+ }.|.1.2.3.W 4.5.- ( > , 6.H 7.8./.9.4 4 ! 4  .{ 0.> 4 ! 4 4 z 4 : 3 [ [ [ [ [ [ [ [ } [ a.P b.c.d.e.3 f.A 3 [ [ [ [ [ [ [ ",
"  [.+ }.|.1.2.=.g.h.;.i.j.%., k.^ o p c l.4 4 ! 4  .{ {  .4 ! 4 4 z 4 : 3 [ [ [ [ [ [ [ [ } [ m.1 n.o.d.e.h p.j h [ [ [ [ [ [ [ ",
"  =.+ -.;.>.,.q.g.r.|.j.q > 0.E ^ s.0 t.b 4 4 ! 4  .{ {  .4 ! 4 4 z 4 : 3 [ [ [ [ [ [ [ [ } [ | 1 u.v.:.<.w.x.h w.[ [ [ [ [ [ [ ",
"  . + @ # F % y.z.A.B.%.> C.D.E.H F.G.d b 4 4 ! 4  .{ 0.> ~ ! 4 4 z 4 : H.[ } [ [ [ [ [ [ } [ a.I.J.R K.g h i [ [ [ [ [ [ [ [ [ ",
"  . + @ C $ E L.M.N.O., 0.P.Q.R.S.T.P c q 4 4 ! 4  .{ {  .4 ! 4 4 z 4 : 3 [ [ [ [ [ [ [ [ } [ @.#.U.%.S t j V.[ [ [ [ [ [ [ [ [ ",
"  . + @ C $ E     W.k X.Y.P.Z.R.S.T.P c q 4 4 ! 4  .{ Y.1.( `.b q 4 ! t g x. +} } } } } }  +.+++@+#+$+c r A 3 [ [ [ [ [ [ [ [ [ ",
"  . + @ # ' %     %+l &+1.C.*+E.H F.G.d b 4 4 ! 4 > { =+N _ / a b 4 4 s f j h [ [ [ [ [ [ x.j -+;+M >+e b A 3 [ [ [ [ [ [ [ [ [ ",
"  =.+ -.;.>.,.    x ' - ( > , E ^ 9 0 a b 4 4 ! 4 > { k ,+D ' N 1. .> '+ .)+!+| | | | | | ~+{+]+^+/+(+_+:+j .+[ [ [ [ [ [ [ [ [ ",
"  [.+ }.|._.2.    <+[+}+`.%.|+k.^ o p c l.4 4 ! 4 > { W.1+x <+M ..2+0.3+3+4+5+1 1 1 1 1 1 6+_+7+8+9+0+a+~+h i [ [ [ [ [ [ [ [ [ ",
"  [.+ }.|._.2.b+c+/+m / ( > , d+H e+f+4 ~ 4 4 ! 4 > { g+6 k.k.M ..2+0.3+3+4+5+1 1 1 1 1 1 1 1 h+i+b.J.j+k+[ } [ [ [ [ [ [ [ [ [ ",
"  =.+ -.;.>.,.k l+m+n - ( > , n+W o+p+4 ~ 4 4 ! 4 > { k ,+D ' N 1. .> '+ .)+!+| | | | | | q+| r+s+^+]+:.<.[ } [ [ [ [ [ [ [ [ [ ",
"  . + @ # $ % E F 9 0 d b > 0.[.t+u+v+w+{+4 4 ! 4 > { x+^ 9 0 a b 4 4 s f j h [ [ [ [ [ [ } [ @.#.$.%.: H.[ [ [ [ [ [ [ [ [ [ [ ",
"  . + @ C D E k.' o p j.q > 0.y+t+z+A+B+/.4 4 ! 4 > { k.$ 0 C+b q 4 ! t g x. +} } } } } } } } a.D+J.R : H.[ [ [ [ [ [ [ [ [ [ [ ",
"  . + E+F+F G+d+H+I+J+! ~ > { V W K+L+M+N+O+9.! 4 > { x y _ ( 4 ~ z 4 : 3 [ [ [ [ [ [ [ [ } [ | 1 u.P+:.<.[ } [ [ [ [ [ [ [ [ [ ",
"  . + @ # F % n+Q+o+p+! ~ > { R+H S+T+U+V+B+w+! 4 > { ] ^ ) W+4 ~ z 4 : H.[ } [ [ [ [ [ [ } [ m.1 n.o.j+k+[ } [ [ [ [ [ [ [ [ [ ",
"  X++ Y+Z+`+ @R.S..@P b q > 0.+@$ @@#@$@%@B+w+! ~ > 0.M N a b 4 4 z 4 : 3 [ [ [ [ [ [ [ [ } [ q+1 &@*@=@-@h i [ [ [ [ [ [ [ [ [ ",
"  ;@+ >@,@'@)@E.!@F.~@d b > 0.] ^ {@]@^@/@O+9.! 4  .{ ..+.b q 4 4 z 4 : 3 [ [ [ [ [ [ [ [ } [ m.1 (@*@_+:+j .+[ [ [ [ [ [ [ [ [ ",
"  X++ _@:@*+<@E.!@[@}@i.b > 0.|@,+1@2@b q 4 4 q b +...0.> 4 ! 4 4 z 4 : 3 [ [ [ [ [ [ [ [ i h -@a+9 u.3@4@j x.[ } u h h w.[ [ [ ",
"  5@+ 6@7@8@*+R.9@.@P b q > 0.0@6 a@b@t.j.~ ~ b a N M 0.> 4 ! 4 4 z 4 : 3 [ [ [ [ [ [ [ [ .+j c@_+u.d@e@f@h i [ [ h j j h [ [ [ ",
"  5@+ g@h@_.2.5@i@j@k@l@m@> 0.W.|@n@o@/ `.! ! `./ $ <+..1.b q 4 4 z 4 : H.[ } [ [ [ [ [ [ x.j :+p@) ; t q@x. + +x.r@t f.H. +x.H.",
"  =.+ s@;.>.t@. g.u@v@w@x@> , '@,+(+y@_ ; ~ ~ ( _ ^ x M &+a b 4 4 z 4 : 3 [ [ [ [ [ [ [ [ i h -@a+) z@S A@p.h h j B@C@: 3 h j : ",
"  D@E@F@!@G@ @M.z.H@I@J@K@> , k l $ ' &+1.> > 1.N l+|@] F ) ( 4 ! 4 4 f r@h u [ [ [ [ [ [  +.+L@5+N M@'+ .-+N@N@-+O@O@-+N@N@-+ .",
"  P@Q@R@6.S@T@L.U@V@Z+W@X@> , Y@|@& G+=+..0.0.Y.=+Z@W.x $ _ ( 4 ~ 4 4 s f j h [ [ [ [ [ [ x.j `@ #=+.#+#+#@#@+@+@#3++###$#@+@#3+",
"  %#Q@&#*#G+G+Z@W.M =#d b > 0.    b+k k.k.-#....-#c+;#] ' / W+l.b c r s K.j h [ [ [ [ >#,#~+'#]+^+-##+@#$#)#!#!#!#)#)#)#W@@+;+3+",
"  D@E@S.!@' F l ~#{#1.j.q > 0.    Z@l+^ $ N +.1.=#l+|@] F / ( c d e c f r@h u [ [ [ [ ]#^#6+/#(#0+>+$+-+++_#_#:#_#_#_#<#:#N@-+ .",
"  . + @ # [#8 }#|#1#2#! ! > { W.|@3#8 9 0 d b b d &+M <+$ 0 p %.4#5#b : < [ [ [ [ 6#7#8#9#1 0#a#b#_ ; : < u x.3 3 h w.[ [ h j : ",
"  c#+ E+F+8 d#e#f#g#2 ! ! > { k l m n 0 p b q h#b _...x+D 9 0 i#%.j#l.: H.[ } [ [ ,#^#9#!+m.m.k#l#w ; f.m#x.n#f.f.p.x.} }  +x.H.",
"  . + @ # F % c+l+J.o#4 4 > 2+'@,+m+[#) ( 4 ~ ! 4 > { & $ p#q#o p c q f.H.} } 6#,#r#s#t#| } } | 1 _ 2 f.H.<.u#v#w#j h [ [ [ [ [ ",
"  . + E+# F E x#'@1#2#! ! > { W.|@n@8 ) W+4 ~ ! 4 > 0.& ^ B p#9 0 5#b : < [ [ 7#^#s#y#0#q+} } q+1 _ 2 f.< z#d.A#B#h i [ [ [ [ [ ",
"  . + @ # ' % C#Z@D#E#t F#> { W.|@n@8 ) ( 4 ~ ! 4 > { k l ' [+m n o p :+~+q+| !+9#t#1 G#]#} [ O P J.R H#I#J#a#t#| [ } [ [ [ [ [ ",
"  . + @ # F % K#l+L#L@g t > 3+'@,+m+[#) ( 4 ~ ! 4 > { g+6 x+& n@m 9 o p@6+0#1 9#!+| q+]#M#} [ @.#.1#%.N#O#P#Q#1 q+[ } [ [ [ [ [ ",
"  . + E+F+' G+R#$ S#q+< f. .T#'@,+m+n ) ( 4 ~ ! 4 > {         '@l+m n * (@y#l#G#7#w.x.h w.} [ @.#.U#_.P+V#y#W#^#7#[ [ [ [ [ [ [ ",
"  . + @ # $ % X#' S#Y#H.f.> 3+W.|@n@8 ) ( 4 ~ ! 4 > {         Z#k 3#m *@(@s#`#]#6#.+p.p.h } [ a.P [#c. $.$P#k#]#M#[ [ [ [ [ [ [ ",
"  X++ Y++$l+@$X#' S#Y##$f@)+@#W.6 e#f#g#$$4 ~ ! 4 > {         W.%$&$f#*$5+^#7#[ [ 3 : : 3 } [ m.1 s.o._+6+^#]#[ [ [ [ [ [ [ [ [ ",
"  ;@+ >@,@Z@)@R#' 1 q+ +x.=$@+k -$}#|#U.2#4 ! ! 4 > {         k l+;$|#>$,$7#6#} [ 3 A A 3 } [ | 1 V#v.{+~+7#>#[ [ [ [ [ [ [ [ [ ",
"  ;@+ '$X+    )$!$~${$@.@.]$^$k /$}#|#U.2#4 ! ! 4 %.0.        '@l+!$&$($_$[ } } [ 3 A A 3 } } a.I.J.R : H.[ [ [ [ [ [ [ [ [ [ [ ",
"  ;@+ '$X+    :$k <$[$!#!#}$|$W.'@e#f#g#$$4 ~ ! 4 > {         W.%$1$f#I.| [ } [ [ 3 : : 3 } [ @.#.$.%.f.m#[ } [ [ [ [ [ [ [ [ [ ",
"  ;@+ >@,@k )@                5 k 2$8 ) ( 4 ~ q c 1.{#    Y@%$& 3$4$5$6$7$} }  +.+U *.p.x. +x.++@+.#$+:.<.[ [ [ [ [ [ [ [ [ [ [ ",
"  X++ Y++$!$@$                '@l+m+n ) ( 4 ~ b a =#M     k !$$ ' 8$2@:.<.[ [ h j T &.h u x.j -+;+1$>+j+k+[ } [ [ [ [ [ [ [ [ [ ",
"  . + E+F+' G+Y@k 9$G+k 5     & ' * = ) ; 4 ~ b d >.-#    Z@l+^ $ >++.-+++_$0$L@{+{+L@| | ~+{+]+^+t@(+1 Y#[ } [ [ [ [ [ [ [ [ [ ",
"  . + E+F+' G+k l+[+[+!$k     & [+B = ) ; 4 ~ q c 1.{#    Y@%$G+3$=+a$##b$c$I.a+p@p@6+S#d$6+_+7+8+[+0+0#m.[ } [ [ [ [ [ [ [ [ [ ",
"  X++ Y++$l+~#'@l+8 n o@e$Z@5 & ' * = ) ; 4 ~ q c 1.{#g+c+k.k.M ..2+0.3+3+ #P#S#S#1 1 1 1 1 1 h+i+f$J.g$++,#>#[ [ [ [ [ [ [ [ [ ",
"  ;@+ >@,@k )@W.%$e$o@n o@l+k & F * = ) ; 4 ~ b d >.-#k l+$ ' &+1.> > O@ .h$i$| m.| | | | q+| r+s+U#]+j$k$^#]#[ [ [ [ [ [ [ [ [ ",
"  ;@+ >@,@k )@W.%$|#f#8 [#$ & & ' B = ) ; 4 ~ b a &+M x+$ 9 0 a b 4 4 s f l$&.h u [ [ [ [ } [ @.#.m$%.n$O#o$p$h i [ [ [ [ [ [ [ ",
"  X++ Y++$l+~#k l+q$|#e$8 ' 9$& $ * = ) ; 4 ~ q c 1.{#k.$ 0 C+b q 4 ! A@g r$s$p.x.} } } } } } a.D+J.R t$u$v$w$j h [ [ [ [ [ [ [ ",
"  . + E+F+' G+%$l+f#=+e$m F 9$'@l+m+n ) ( 4 ~ ! 4 > { x y _ ( 4 ! 4 ~ f.3 h j j h [ [ [ [ } [ | 1 u.P+u#<.h p.j h [ [ [ [ [ [ [ ",
"  . + E+F+' G+W.k |#f#8 [#' & 5 Z@2$8 ) ( 4 ~ ! 4 > 0.] ^ ) W+4 ~ z 4 : H.u h h w.[ [ [ [ } [ m.1 n.o.d.7$i x.h w.[ [ [ [ [ [ [ ",
"  X++ Y++$l+~#    & [+= p#$ x+W.k e#f#g#$$4 ~ ! 4 > 0.M N a j.q b 2 ; :.x$[ [ [ [ [ [ [ [ } [ q+1 &@*@=@-@h i [ [ [ [ [ [ [ [ [ ",
"  ;@+ >@,@k )@    x+' q#= F & k l+}#|#U.2#4 ! ! 4  .{ ..+.b q b a y$_ j+k+[ } [ [ [ [ [ [ } [ m.1 (@*@_+:+j x.[ [ [ [ [ [ [ [ [ ",
"  ;@+ >@,@k )@    '@!$z$Q &+X.k l }#|#U.2#4 ! q b +...0.> q b A$o n * 1 m.[ } [ [ [ [ [ [ i h -@a+9 u.3@4@j x.[ } u h h w.[ [ [ ",
"  X++ Y++$l+~#    B$k C$D$1.a$W.|@e#f#g#$$4 ~ b a N M , > b d o &+y@* 0#m.[ } [ [ [ [ [ [ .+j c@_+u.d@e@f@h i [ [ h j j h [ [ [ ",
"  c#+ E+F+[+G+        |+> > |+W.|@n@o@/ `.! ! `./ $ <+Y.1.E$4#o 9 y@* 1 q+[ } [ [ [ [ [ [ x.j :+p@) ; t q@x. + +x.r@t f.H. +x.H.",
"  . + E+F+[+G+        |+%.%.F$'@,+m+n ) ( ~ ~ ( _ ^ x -#&+$+%.A$0 n * 1 m.[ } [ [ [ [ [ [ i h -@a+) z@S A@p.h h j B@C@: 3 h j : ",
"  D@G$F@!@!$@$        |+> > |+k l $ [+=#_.%.%._.=#l+S@] F / ( b d _ _ H$u$h i [ [ [ [ [ [ i h L@5+=#$+I$%.)+=$=$)+I$I$)+=$=$)+> ",
"  %#Q@&#*#k J$        |+> > |+Y@|@& G+=+..0.0.Y.=+Z@W.x $ ) ( q b ; ; v#t$j h [ [ [ [ [ [ x.j `@ #=+.#+#+#@#@+@+@#3++###$#@+@#3+",
"                      |+> > |+                        ] ' ) ( 4 ~ 4 4 z 4 : 3 [ [ [ [ [ [ H.: > 3+                              "};
